<?xml version="1.0" standalone="no"?>
<!DOCTYPE svg PUBLIC "-//W3C//DTD SVG 1.1//EN" "http://www.w3.org/Graphics/SVG/1.1/DTD/svg11.dtd" >
<svg xmlns="http://www.w3.org/2000/svg" xmlns:xlink="http://www.w3.org/1999/xlink" version="1.1">
<metadata>
Created by FontForge 20161116 at Mon Dec  9 16:44:57 2013
 By Jimmy Warting
Copyright (c) 2013 by Glenjan. All rights reserved.
</metadata>
<defs>
<font id="LetoSans-Thin" horiz-adv-x="644" >
  <font-face 
    font-family="LetoSans Thin"
    font-weight="250"
    font-stretch="normal"
    units-per-em="1000"
    panose-1="2 0 2 3 0 0 0 0 0 0"
    ascent="719"
    descent="-281"
    x-height="510"
    cap-height="670"
    bbox="-153 -313 1105 983"
    underline-thickness="75"
    underline-position="-100"
    unicode-range="U+000D-2265"
  />
<missing-glyph horiz-adv-x="552" 
d="M276 296l122 121l32 -33l-121 -121l121 -121l-34 -33l-120 121l-122 -122l-33 33l122 122l-121 123l33 34z" />
    <glyph glyph-name="fk.l" unicode="fk" horiz-adv-x="993" 
d="M141 512v60c0 26 4 50 13 74c9 22 22 42 38 60c18 16 38 30 64 40c24 9 53 14 85 14c42 0 79 -6 111 -16c31 -12 61 -27 88 -47v-408l142 10l178 211h67l-195 -229l226 -281h-67l-198 249h-153v-249h-51v670c-19 15 -41 26 -66 32c-25 8 -51 11 -78 11
c-47 0 -85 -12 -112 -37c-27 -24 -41 -59 -41 -105v-61h181v-45h-181v-465h-51v465h-91v42z" />
    <glyph glyph-name="ff.l" unicode="ff" horiz-adv-x="736" 
d="M141 512v43c0 26 4 51 13 75c8 23 20 44 37 62s37 32 62 42c25 11 53 16 86 16c37 0 70 -4 97 -13s53 -22 76 -39c35 41 86 62 153 62c29 0 54 -4 77 -10c22 -8 43 -17 64 -29l-24 -39c-17 11 -36 19 -54 24c-20 6 -39 9 -59 9c-47 0 -83 -13 -109 -39
c-27 -26 -40 -65 -40 -117v-49h181v-45h-181v-465h-51v465h-277v-465h-51v465h-91v42zM469 510v50c0 19 2 37 5 55s8 34 15 47c-23 15 -47 26 -71 32c-23 8 -49 11 -78 11c-46 0 -82 -13 -108 -40c-27 -27 -40 -64 -40 -111v-44h277z" />
    <glyph glyph-name="fi.l" unicode="fi" horiz-adv-x="577" 
d="M141 512v57c0 26 4 51 13 75c8 23 20 44 37 62s37 32 61 43c25 11 53 16 84 16c38 0 72 -5 102 -15c29 -9 56 -24 80 -43l-29 -38c-23 17 -47 30 -71 37c-24 8 -50 12 -78 12c-46 0 -82 -13 -108 -39c-27 -26 -40 -63 -40 -111v-58h305v-510h-52v465h-253v-465h-51v465
h-91v42z" />
    <glyph glyph-name="fj.l" unicode="fj" horiz-adv-x="577" 
d="M141 512v57c0 26 4 51 13 75c8 23 20 44 37 62s37 32 61 43c25 11 53 16 84 16c38 0 72 -5 102 -15c29 -9 56 -24 80 -43l-29 -38c-23 17 -47 30 -71 37c-24 8 -50 12 -78 12c-46 0 -82 -13 -108 -39c-27 -26 -40 -63 -40 -111v-58h305v-557c0 -60 -15 -108 -43 -144
c-30 -36 -72 -54 -129 -54c-21 0 -43 3 -63 7c-22 6 -41 13 -59 24l21 41c31 -17 64 -26 99 -26c38 0 68 12 90 37s33 64 33 117v510h-254v-465h-51v465h-91v42z" />
    <glyph glyph-name="fl.l" unicode="fl" horiz-adv-x="620" 
d="M141 512v60c0 26 4 50 13 74c9 22 22 42 38 60c18 16 38 30 64 40c24 9 53 14 85 14c42 0 79 -6 111 -16c31 -12 61 -27 88 -47v-697h-51v670c-19 15 -41 26 -66 32c-25 8 -51 11 -78 11c-47 0 -85 -12 -112 -37c-27 -24 -41 -59 -41 -105v-61h181v-45h-181v-465h-51v465
h-91v42z" />
    <glyph glyph-name="fh.l" unicode="fh" horiz-adv-x="1056" 
d="M141 512v60c0 26 4 50 13 74c9 22 22 42 38 60c18 16 38 30 64 40c24 9 53 14 85 14c42 0 79 -6 111 -16c31 -12 61 -27 88 -47v-324c21 47 50 83 86 109c38 27 86 40 146 40c62 0 112 -19 148 -56c38 -38 56 -91 56 -160v-306h-51v295c0 63 -15 109 -43 139
c-30 28 -70 43 -123 43c-51 0 -96 -17 -133 -51c-37 -35 -66 -83 -86 -144v-282h-51v670c-19 15 -41 26 -66 32c-25 8 -51 11 -78 11c-47 0 -85 -12 -112 -37c-27 -24 -41 -59 -41 -105v-61h181v-45h-181v-465h-51v465h-91v42z" />
    <glyph glyph-name="ft.l" unicode="ft" horiz-adv-x="787" 
d="M141 512v60c0 26 4 51 13 74c9 24 22 45 38 62c18 17 38 31 64 42c24 10 53 15 85 15c37 0 70 -5 101 -13c31 -10 59 -23 84 -40l-12 -202h208v-45h-205v-302c0 -47 9 -79 29 -99c18 -18 47 -28 85 -28c40 0 76 12 107 36l24 -39c-17 -14 -38 -25 -61 -33
s-48 -12 -73 -12c-52 0 -92 14 -120 43s-42 73 -42 134v300h-274v-465h-51v465h-91v42zM458 510l21 172c-19 13 -39 22 -62 28c-23 5 -47 8 -72 8c-47 0 -85 -13 -112 -39s-41 -62 -41 -108v-61h266z" />
    <glyph glyph-name="cyr.ii.l" unicode="&#x456;&#x457;" horiz-adv-x="424" 
d="M132 510v-510h-52v510h52zM344 510v-510h-52v510h52zM17 726c13 0 24 -4 33 -13s14 -20 14 -33c0 -14 -5 -25 -14 -34c-9 -8 -20 -12 -33 -12s-24 4 -33 12c-9 9 -14 20 -14 34c0 13 5 24 14 33s20 13 33 13zM407 726c13 0 24 -4 33 -13s14 -20 14 -33
c0 -14 -5 -25 -14 -34c-9 -8 -20 -12 -33 -12s-24 4 -33 12c-9 9 -14 20 -14 34c0 13 5 24 14 33s20 13 33 13zM212 732c15 0 28 -5 38 -15c11 -10 16 -22 16 -37s-5 -28 -16 -38c-10 -9 -23 -14 -38 -14s-28 5 -38 14c-11 10 -16 23 -16 38s5 27 16 37c10 10 23 15 38 15z
" />
    <glyph glyph-name="lsl.l" unicode="&#x17f;l" horiz-adv-x="481" 
d="M80 572c0 26 4 51 10 74c8 24 18 45 34 62c14 17 34 31 57 42c23 10 51 15 84 15c29 0 53 -3 75 -9c20 -6 41 -15 61 -26v-730h-51v702c-11 5 -24 10 -40 13c-14 3 -30 5 -45 5c-45 0 -78 -13 -101 -39c-22 -26 -33 -61 -33 -106v-575h-51v572z" />
    <glyph glyph-name="lsk.l" unicode="&#x17f;k" horiz-adv-x="854" 
d="M80 572c0 26 4 51 10 74c8 24 18 45 34 62c14 17 34 31 57 42c23 10 51 15 84 15c29 0 53 -3 75 -9c20 -6 41 -15 61 -26v-441l142 10l178 211h67l-195 -229l226 -281h-67l-198 249h-153v-249h-51v702c-11 5 -24 10 -40 13c-14 3 -30 5 -45 5c-45 0 -78 -13 -101 -39
c-22 -26 -33 -61 -33 -106v-575h-51v572z" />
    <glyph glyph-name="lsls.l" unicode="&#x17f;&#x17f;" horiz-adv-x="519" 
d="M80 557c0 26 4 51 12 75c8 23 20 44 36 61c15 17 34 31 58 41c22 11 49 16 79 16c29 0 55 -3 77 -10c24 -6 45 -16 66 -29c15 15 32 27 53 36s45 13 72 13c29 0 54 -3 77 -10s44 -17 65 -31l-27 -41c-17 11 -35 20 -54 27c-20 7 -40 10 -61 10c-40 0 -71 -13 -92 -39
c-21 -25 -32 -62 -32 -110v-566h-51v565c0 41 7 77 22 106c-17 11 -35 20 -52 25c-18 6 -39 9 -62 9c-40 0 -72 -13 -98 -39c-24 -26 -37 -63 -37 -110v-556h-51v557z" />
    <glyph glyph-name="lsi.l" unicode="&#x17f;i" horiz-adv-x="482" 
d="M402 510v-510h-52v510h52zM80 567c0 26 4 51 12 75c7 24 19 45 34 63c16 18 36 32 60 43s52 16 84 16c61 0 113 -15 158 -46l-27 -38c-17 11 -38 21 -61 28s-47 11 -70 11c-42 0 -76 -13 -101 -39c-25 -25 -38 -62 -38 -110v-570h-51v567z" />
    <glyph glyph-name="lsh.l" unicode="&#x17f;h" horiz-adv-x="917" 
d="M80 572c0 26 4 51 10 74c8 24 18 45 34 62c14 17 34 31 57 42c23 10 51 15 84 15c29 0 53 -3 75 -9c20 -6 41 -15 61 -26v-357c21 47 49 83 87 109c36 27 85 40 145 40c62 0 111 -19 149 -56c36 -38 55 -91 55 -160v-306h-51v295c0 63 -14 109 -44 139
c-28 28 -69 43 -122 43c-51 0 -96 -17 -133 -51c-37 -35 -66 -83 -86 -144v-282h-51v702c-11 5 -24 10 -40 13c-14 3 -30 5 -45 5c-45 0 -78 -13 -101 -39c-22 -26 -33 -61 -33 -106v-575h-51v572z" />
    <glyph glyph-name="lst.l" unicode="&#x17f;t" horiz-adv-x="661" 
d="M332 511l20 190c-24 13 -53 19 -87 19c-45 0 -78 -13 -101 -39c-22 -26 -33 -61 -33 -106v-575h-51v572c0 26 4 51 10 74c8 24 18 45 34 62c14 17 34 31 57 42c23 10 51 15 84 15c28 0 53 -3 75 -9c23 -6 43 -15 60 -26l-12 -220h208v-45h-205v-302c0 -47 9 -79 29 -99
c18 -18 47 -28 85 -28c40 0 76 12 107 36l24 -39c-17 -14 -38 -25 -61 -33s-48 -12 -73 -12c-52 0 -92 14 -120 43s-42 73 -42 134v300h-92v40z" />
    <glyph glyph-name=".notdef" horiz-adv-x="552" 
d="M276 296l122 121l32 -33l-121 -121l121 -121l-34 -33l-120 121l-122 -122l-33 33l122 122l-121 123l33 34z" />
    <glyph glyph-name=".null" horiz-adv-x="0" 
 />
    <glyph glyph-name=".null" horiz-adv-x="0" 
 />
    <glyph glyph-name="nonmarkingreturn" unicode="&#xd;" horiz-adv-x="333" 
 />
    <glyph glyph-name="space" unicode=" " horiz-adv-x="300" 
 />
    <glyph glyph-name="exclam" unicode="!" horiz-adv-x="224" 
d="M138 736v-547h-52v547h52zM112 94c15 0 27 -5 37 -14s15 -21 15 -36s-5 -27 -15 -36s-22 -14 -37 -14s-27 5 -37 14s-15 21 -15 36s5 27 15 36s22 14 37 14z" />
    <glyph glyph-name="quotedbl" unicode="&#x22;" horiz-adv-x="272" 
d="M217 684v-30l-15 -132h-32v162h47zM102 684v-30l-15 -132h-32v162h47z" />
    <glyph glyph-name="numbersign" unicode="#" horiz-adv-x="626" 
d="M470 584l-20 -121l116 -3v-41h-123l-23 -144h131v-41l-138 -3l-21 -132l-44 7l20 125h-153l-21 -127l-43 6l19 121l-110 3v41h117l24 144h-126v41l133 3l21 127l44 -7l-20 -120h153l21 127zM222 275h153l24 144h-153z" />
    <glyph glyph-name="dollar" unicode="$" horiz-adv-x="659" 
d="M350 788v-125c37 -2 74 -9 110 -19c37 -12 70 -28 99 -49l-27 -39c-28 19 -60 34 -95 46c-35 10 -72 16 -110 16c-31 0 -59 -3 -81 -10c-24 -7 -42 -16 -58 -28c-14 -11 -26 -25 -32 -40c-8 -16 -11 -33 -11 -52c0 -38 12 -66 37 -85c24 -19 57 -31 100 -36l112 -15
c59 -8 106 -27 142 -56c35 -29 53 -70 53 -121c0 -25 -5 -49 -17 -71c-10 -21 -26 -40 -46 -57c-21 -17 -46 -30 -76 -41c-29 -10 -63 -16 -100 -19v-120h-50v119c-41 1 -81 8 -120 21c-40 13 -78 32 -115 57l27 41c39 -28 76 -47 114 -57c36 -11 74 -16 112 -16
c69 0 123 13 162 40c38 27 57 62 57 105c0 34 -13 62 -37 85c-26 23 -63 37 -114 44l-118 15c-57 7 -100 25 -130 51c-30 28 -45 66 -45 115c0 25 5 47 15 68c11 21 25 39 44 55c18 15 40 28 66 36c25 10 54 15 85 17v125h47z" />
    <glyph glyph-name="percent" unicode="%" horiz-adv-x="756" 
d="M197 633c21 0 41 -4 59 -11s34 -17 46 -30c14 -13 24 -28 31 -45s11 -36 11 -56s-4 -39 -11 -56s-17 -32 -31 -45c-12 -13 -28 -23 -46 -30s-38 -11 -59 -11s-41 4 -59 11s-34 17 -46 30c-14 13 -24 28 -31 45s-11 36 -11 56s4 39 11 56s17 32 31 45c12 13 28 23 46 30
s38 11 59 11zM650 605l-497 -612l-36 30l497 612zM197 592c-31 0 -55 -9 -73 -28c-17 -19 -26 -43 -26 -73s9 -54 27 -73s42 -28 72 -28c31 0 55 9 72 28s26 43 26 73s-9 54 -27 73c-17 19 -41 28 -71 28zM574 288c21 0 41 -4 59 -11s33 -17 47 -30c12 -13 23 -28 30 -45
s11 -36 11 -56s-4 -39 -11 -56s-18 -32 -30 -45c-14 -13 -29 -23 -47 -30s-38 -11 -59 -11s-41 4 -59 11s-33 17 -47 30c-12 13 -23 28 -30 45s-11 36 -11 56s4 39 11 56s18 32 30 45c14 13 29 23 47 30s38 11 59 11zM574 247c-31 0 -55 -9 -72 -28c-18 -19 -27 -43 -27 -73
s9 -54 27 -73s42 -28 72 -28c31 0 55 9 72 28s26 43 26 73s-9 54 -26 73c-18 19 -42 28 -72 28z" />
    <glyph glyph-name="ampersand" unicode="&#x26;" horiz-adv-x="732" 
d="M652 356c0 -60 -9 -114 -28 -164c-18 -48 -44 -90 -78 -123l74 -78l-36 -37l-78 83c-49 -34 -107 -51 -174 -51c-41 0 -78 6 -111 17s-60 27 -83 47c-22 21 -39 45 -50 73c-12 28 -18 58 -18 91c0 40 9 76 28 108c19 31 45 57 78 78c-7 13 -13 28 -16 44
c-4 17 -6 33 -6 48c0 23 4 44 13 66c9 20 22 39 39 55c18 16 40 29 67 38s58 14 94 14c40 0 77 -7 111 -21c35 -15 63 -35 84 -60l-34 -33c-22 25 -46 42 -73 53s-56 16 -89 16c-27 0 -51 -3 -72 -10c-20 -7 -37 -16 -50 -28c-13 -11 -23 -25 -30 -40c-6 -16 -9 -33 -9 -51
c0 -21 5 -42 16 -63s25 -41 43 -60l251 -266c28 28 49 64 65 106c14 44 22 93 22 148h50zM202 365c-54 -33 -81 -83 -81 -150c0 -25 5 -49 15 -71c10 -23 24 -42 42 -59c19 -17 41 -30 68 -39c27 -10 57 -15 91 -15c53 0 100 13 139 39z" />
    <glyph glyph-name="quotesingle" unicode="'" horiz-adv-x="159" 
d="M104 684v-30l-17 -152h-32v182h49z" />
    <glyph glyph-name="parenleft" unicode="(" horiz-adv-x="287" 
d="M267 656c-52 -55 -91 -114 -117 -176c-25 -62 -38 -133 -38 -213c0 -71 13 -138 38 -201c26 -63 65 -125 117 -188l-30 -29c-54 52 -97 113 -129 182s-48 148 -48 236c0 82 14 157 42 227c28 68 73 132 135 191z" />
    <glyph glyph-name="parenright" unicode=")" horiz-adv-x="287" 
d="M50 685c54 -52 97 -113 129 -182s48 -148 48 -236c0 -82 -14 -157 -42 -227c-28 -68 -73 -132 -135 -191l-30 29c52 55 91 113 116 176c26 62 39 133 39 213c0 71 -13 138 -39 201c-25 63 -64 125 -116 188z" />
    <glyph glyph-name="asterisk" unicode="*" horiz-adv-x="407" 
d="M186 578l38 121l46 -16l-50 -117l127 8v-50l-127 8l50 -117l-46 -16l-38 121l-97 -80l-29 37l102 72l-102 72l29 37z" />
    <glyph glyph-name="plus" unicode="+" horiz-adv-x="521" 
d="M285 540v-176h166v-45h-166v-176h-49v176h-166v45h166v176h49z" />
    <glyph glyph-name="comma" unicode="," horiz-adv-x="224" 
d="M103 -5c-13 2 -23 7 -31 16s-12 20 -12 33c0 15 5 27 15 36s22 14 37 14s27 -5 37 -14s15 -21 15 -36c0 -7 -2 -15 -5 -24l-56 -140l-30 10z" />
    <glyph glyph-name="hyphen" unicode="-" horiz-adv-x="441" 
d="M371 307v-46h-301v46h301z" />
    <glyph glyph-name="period" unicode="." horiz-adv-x="224" 
d="M112 94c15 0 27 -5 37 -14s15 -21 15 -36s-5 -27 -15 -36s-22 -14 -37 -14s-27 5 -37 14s-15 21 -15 36s5 27 15 36s22 14 37 14z" />
    <glyph glyph-name="slash" unicode="/" horiz-adv-x="405" 
d="M389 723l-334 -804l-47 19l334 804z" />
    <glyph glyph-name="zero" unicode="0" horiz-adv-x="770" 
d="M385 684c49 0 93 -9 133 -26c40 -18 74 -43 103 -74s51 -68 66 -110c15 -43 23 -89 23 -139c0 -48 -8 -93 -23 -136s-37 -80 -66 -111s-63 -56 -103 -74c-40 -19 -84 -28 -133 -28s-94 9 -134 27s-74 43 -103 75c-28 31 -50 68 -65 110c-15 43 -23 88 -23 137
s8 94 24 137c15 43 37 80 66 111s63 56 103 74s84 27 132 27zM385 637c-43 0 -82 -8 -115 -23c-34 -16 -63 -38 -86 -65s-41 -59 -54 -96c-12 -37 -18 -76 -18 -118c0 -41 6 -80 19 -117s31 -69 55 -96c23 -27 52 -49 86 -65c33 -16 71 -24 113 -24s80 7 113 23
c34 14 63 36 86 62c24 28 42 60 55 96c13 38 19 78 19 121s-6 83 -19 121c-13 36 -31 68 -55 96c-23 26 -52 48 -86 62c-33 16 -71 23 -113 23z" />
    <glyph glyph-name="one" unicode="1" horiz-adv-x="350" 
d="M260 670v-670h-51v590l-127 -105l-32 39l176 149z" />
    <glyph glyph-name="two" unicode="2" horiz-adv-x="628" 
d="M553 0h-478v44l310 235c41 31 70 62 89 93c18 31 27 63 27 98c0 49 -16 90 -49 120c-32 32 -79 47 -141 47c-39 0 -77 -6 -111 -18c-36 -12 -68 -31 -99 -57l-31 34c34 32 72 55 114 68c41 13 85 20 131 20c36 0 69 -5 98 -16s54 -26 75 -44c21 -20 37 -42 48 -68
s17 -54 17 -84c0 -45 -11 -86 -31 -122c-22 -35 -53 -69 -95 -101l-270 -203h396v-46z" />
    <glyph glyph-name="three" unicode="3" horiz-adv-x="645" 
d="M363 372c22 0 41 4 57 10c16 8 29 17 40 28c10 11 18 25 22 40c6 15 8 32 8 49c0 19 -3 37 -10 53c-7 18 -17 32 -32 45s-33 23 -56 30s-50 11 -82 11c-35 0 -68 -6 -99 -17s-61 -30 -92 -55l-29 36c32 28 67 49 104 62s78 20 122 20c38 0 71 -5 100 -16
c28 -11 51 -24 70 -42c19 -16 32 -36 42 -57c8 -21 13 -43 13 -65c0 -32 -6 -60 -19 -85s-32 -44 -57 -57v-10c36 -11 64 -32 85 -61c20 -29 30 -63 30 -101c0 -27 -6 -53 -19 -78s-31 -46 -54 -65s-52 -33 -85 -45c-33 -10 -71 -16 -112 -16c-52 0 -98 7 -140 22
c-40 15 -81 39 -120 74l31 38c34 -30 69 -52 105 -66c35 -15 77 -22 125 -22c33 0 63 4 90 12c27 9 49 20 68 34s33 31 43 50s15 40 15 62c0 43 -13 76 -41 100c-26 25 -67 37 -121 37h-164v45h162z" />
    <glyph glyph-name="four" unicode="4" horiz-adv-x="686" 
d="M540 670v-492h101v-41l-101 -8v-129h-50v132h-440v42l407 496h83zM114 178h376v437h-21z" />
    <glyph glyph-name="five" unicode="5" horiz-adv-x="634" 
d="M524 670v-46h-352l-20 -231c23 15 49 27 78 34s63 11 104 11c36 0 68 -5 97 -16s53 -26 74 -46c21 -19 37 -43 47 -70c12 -27 17 -58 17 -92c0 -31 -6 -61 -19 -88c-12 -28 -30 -52 -54 -73c-23 -21 -52 -37 -86 -49c-33 -12 -71 -18 -114 -18c-97 0 -177 30 -241 89
l32 36c33 -29 67 -49 102 -61c35 -13 74 -19 116 -19c31 0 59 5 85 13c27 10 50 22 68 38c20 16 34 35 46 58c10 22 16 46 16 73c0 25 -4 49 -12 71s-20 41 -36 58c-16 16 -36 29 -60 38c-25 9 -54 14 -87 14c-40 0 -75 -5 -107 -14c-30 -10 -58 -24 -81 -43l-38 12l32 321
h393z" />
    <glyph glyph-name="six" unicode="6" horiz-adv-x="658" 
d="M536 578c-23 19 -48 34 -77 45s-62 16 -100 16c-31 0 -62 -6 -91 -17c-29 -12 -55 -30 -78 -53s-41 -53 -56 -89c-14 -35 -22 -77 -24 -126c29 29 63 51 104 66s86 23 136 23c37 0 71 -5 102 -15c30 -11 56 -26 78 -45c21 -19 38 -43 50 -71s18 -59 18 -94
c0 -32 -6 -62 -20 -90c-12 -29 -31 -54 -54 -74c-24 -22 -52 -38 -84 -50c-33 -12 -68 -18 -107 -18c-41 0 -79 7 -113 22c-33 15 -62 36 -86 66c-23 28 -42 64 -54 107c-14 43 -20 92 -20 148c0 52 7 100 21 143s34 81 60 112c26 32 58 57 96 74s81 26 129 26
c39 0 76 -6 110 -18c36 -13 65 -30 90 -51zM111 306c0 -47 6 -88 19 -122c12 -35 28 -63 48 -86c21 -23 44 -39 71 -50c27 -12 55 -17 84 -17c32 0 61 5 87 15c27 9 50 22 68 40c20 16 34 36 45 59s16 47 16 72c0 57 -18 102 -55 133c-36 32 -87 48 -152 48
c-43 0 -84 -8 -123 -22c-39 -16 -75 -39 -108 -70z" />
    <glyph glyph-name="seven" unicode="7" horiz-adv-x="586" 
d="M531 670v-37l-300 -633h-56l300 625h-420v45h476z" />
    <glyph glyph-name="eight" unicode="8" horiz-adv-x="656" 
d="M328 684c35 0 66 -4 94 -14c28 -8 52 -21 72 -37c19 -16 34 -35 44 -56c11 -21 16 -44 16 -69c0 -33 -7 -63 -21 -91s-35 -51 -63 -70c41 -15 72 -37 94 -63c21 -28 32 -60 32 -99c0 -26 -6 -51 -16 -75c-12 -23 -28 -44 -51 -63s-51 -33 -85 -45
c-35 -10 -75 -16 -122 -16c-41 0 -78 5 -111 16s-60 25 -83 44c-22 19 -39 41 -50 66c-12 25 -18 53 -18 82c0 41 10 79 31 114c21 36 50 64 88 83c-22 13 -39 31 -49 53c-12 21 -17 45 -17 70c0 22 5 43 15 64c9 21 23 39 42 54c19 16 41 29 68 38s57 14 90 14zM286 348
c-11 2 -22 4 -32 8c-11 2 -21 6 -30 9c-39 -17 -68 -41 -86 -71c-20 -29 -29 -62 -29 -98c0 -24 5 -46 15 -66c10 -21 24 -38 44 -54c18 -14 41 -26 68 -34c27 -9 57 -13 91 -13c37 0 69 4 96 13c27 8 50 19 68 34c18 14 31 31 41 50c8 19 13 40 13 61c0 35 -13 64 -40 89
s-72 43 -137 56zM377 376c17 -3 32 -7 46 -11c29 17 49 38 63 61c12 23 19 50 19 80c0 18 -3 35 -10 51s-17 30 -32 43s-33 23 -55 30c-23 7 -49 11 -80 11c-28 0 -52 -4 -73 -11s-38 -17 -51 -29c-14 -12 -24 -26 -30 -41c-7 -16 -10 -32 -10 -49c0 -29 10 -54 31 -75
s55 -36 103 -45z" />
    <glyph glyph-name="nine" unicode="9" horiz-adv-x="658" 
d="M110 91c24 -21 51 -36 80 -45c29 -10 64 -15 104 -15c34 0 66 6 96 17s56 29 80 52c22 23 41 53 55 88s22 77 24 125c-29 -29 -64 -51 -105 -67c-40 -15 -86 -23 -136 -23c-37 0 -71 5 -102 15c-30 11 -56 26 -78 46c-21 19 -38 43 -50 70c-12 28 -18 60 -18 95
c0 33 6 64 18 93c13 29 30 54 53 74c23 22 50 38 81 50s66 18 103 18c91 0 161 -30 209 -90c50 -59 74 -144 74 -253c0 -52 -7 -100 -20 -143s-33 -81 -60 -112c-26 -32 -58 -57 -97 -74s-83 -26 -134 -26c-40 0 -78 6 -114 17s-67 29 -93 52zM547 364c0 47 -6 87 -18 122
s-28 63 -49 86c-20 23 -44 40 -72 50c-29 12 -60 17 -93 17c-31 0 -59 -5 -84 -15c-25 -9 -47 -22 -65 -40c-18 -16 -32 -36 -42 -60c-10 -22 -15 -47 -15 -74c0 -57 18 -102 55 -134c36 -32 87 -48 152 -48c43 0 84 8 123 24c39 17 75 41 108 72z" />
    <glyph glyph-name="colon" unicode=":" horiz-adv-x="224" 
d="M112 94c15 0 27 -5 37 -14s15 -21 15 -36s-5 -27 -15 -36s-22 -14 -37 -14s-27 5 -37 14s-15 21 -15 36s5 27 15 36s22 14 37 14zM112 460c15 0 27 -5 37 -14s15 -21 15 -36s-5 -27 -15 -36s-22 -14 -37 -14s-27 5 -37 14s-15 21 -15 36s5 27 15 36s22 14 37 14z" />
    <glyph glyph-name="semicolon" unicode=";" horiz-adv-x="224" 
d="M112 460c15 0 27 -5 37 -14s15 -21 15 -36s-5 -27 -15 -36s-22 -14 -37 -14s-27 5 -37 14s-15 21 -15 36s5 27 15 36s22 14 37 14zM103 -5c-13 2 -23 7 -31 16s-12 20 -12 33c0 15 5 27 15 36s22 14 37 14s27 -5 37 -14s15 -21 15 -36c0 -7 -2 -15 -5 -24l-56 -140
l-30 10z" />
    <glyph glyph-name="less" unicode="&#x3c;" horiz-adv-x="372" 
d="M302 520l-191 -162l189 -164l-28 -34l-222 184v26l223 184z" />
    <glyph glyph-name="equal" unicode="=" horiz-adv-x="468" 
d="M398 446v-43h-328v43h328zM398 278v-43h-328v43h328z" />
    <glyph glyph-name="greater" unicode="&#x3e;" horiz-adv-x="372" 
d="M322 370v-26l-223 -184l-29 34l191 162l-189 164l28 34z" />
    <glyph glyph-name="question" unicode="?" horiz-adv-x="609" 
d="M60 652c35 29 72 51 112 64c41 13 86 20 136 20c35 0 67 -5 96 -14c30 -10 56 -24 77 -42c21 -17 38 -38 50 -62c12 -25 18 -52 18 -82c0 -48 -14 -90 -43 -125c-28 -35 -71 -61 -130 -76c-37 -9 -63 -23 -76 -39c-13 -18 -20 -36 -20 -57c0 -8 1 -16 2 -24s3 -16 5 -23
l-45 -7c-8 18 -12 38 -12 60c0 31 11 58 32 81c21 22 52 39 93 50c27 7 50 16 69 28c18 10 32 23 44 36c10 14 18 29 22 45c5 16 7 33 7 51c0 48 -17 86 -51 114c-33 27 -79 41 -138 41c-85 0 -158 -25 -219 -76zM266 94c15 0 27 -5 37 -14s15 -21 15 -36s-5 -27 -15 -36
s-22 -14 -37 -14s-27 5 -37 14s-15 21 -15 36s5 27 15 36s22 14 37 14z" />
    <glyph glyph-name="at" unicode="@" horiz-adv-x="886" 
d="M593 206c0 -30 7 -51 20 -64s31 -19 53 -19c15 0 28 4 41 11c13 8 24 19 33 33c10 14 18 31 23 51s8 42 8 66c0 44 -6 84 -19 121s-32 68 -57 95c-25 26 -57 46 -95 60c-39 15 -84 22 -135 22c-55 0 -105 -9 -148 -27s-80 -42 -110 -73s-53 -66 -69 -106
c-15 -41 -23 -83 -23 -128c0 -47 8 -90 23 -128c15 -39 37 -72 64 -99c28 -27 61 -49 100 -63c39 -16 82 -23 129 -23c52 0 100 5 143 15c44 9 86 23 126 40l16 -43c-44 -20 -89 -35 -134 -43c-46 -10 -96 -14 -151 -14c-53 0 -102 8 -147 24c-45 17 -83 40 -116 71
c-32 31 -57 68 -76 113c-18 44 -27 94 -27 150c0 49 10 96 29 142c19 45 46 86 82 121c34 35 76 63 126 85c48 20 103 31 163 31c51 0 98 -7 141 -21c43 -15 81 -36 113 -65s57 -64 75 -107c18 -42 27 -91 27 -148c0 -29 -3 -56 -11 -81c-6 -25 -17 -46 -30 -65
c-13 -18 -30 -32 -49 -42c-19 -11 -42 -16 -67 -16c-58 0 -94 24 -108 71c-16 -26 -35 -46 -56 -59c-22 -13 -51 -20 -86 -20c-50 0 -89 15 -117 46s-42 73 -42 126c0 31 5 58 15 82c11 25 25 46 43 62c18 18 39 30 63 40c25 8 51 13 79 13c25 0 49 -2 71 -7
c24 -5 46 -12 67 -22v-208zM546 384c-15 5 -30 9 -45 12c-15 2 -31 3 -46 3c-19 0 -38 -3 -56 -9c-18 -5 -34 -14 -48 -26s-25 -28 -34 -46c-9 -20 -13 -42 -13 -69c0 -44 10 -77 32 -99c20 -21 47 -32 79 -32c18 0 35 3 51 10c15 7 29 16 41 28c12 11 21 25 29 42
c6 16 10 34 10 54v132z" />
    <glyph glyph-name="A" unicode="A" horiz-adv-x="749" 
d="M411 672l293 -672h-55l-73 169h-404l-73 -169h-54l293 672h73zM192 216h363l-173 403h-16z" />
    <glyph glyph-name="B" unicode="B" horiz-adv-x="674" 
d="M357 670c37 0 69 -5 97 -14c27 -9 50 -22 68 -38c19 -15 33 -33 42 -54s14 -42 14 -65c0 -29 -6 -56 -19 -81s-32 -45 -58 -58v-10c17 -5 32 -12 47 -22c14 -10 26 -22 37 -37s19 -31 25 -49c6 -19 9 -38 9 -59c0 -25 -5 -49 -15 -71c-9 -22 -24 -41 -43 -58
s-44 -30 -73 -40c-29 -9 -64 -14 -103 -14h-295v670h267zM142 46h243c60 0 105 13 135 38c31 26 46 60 46 102c0 43 -14 77 -44 103c-28 26 -72 39 -129 39h-251v-282zM142 373h245c25 0 47 3 64 9c17 7 31 16 43 28c10 11 18 25 24 40c4 16 7 33 7 51
c0 82 -57 123 -172 123h-211v-251z" />
    <glyph glyph-name="C" unicode="C" horiz-adv-x="732" 
d="M639 561c-61 51 -135 77 -222 77c-45 0 -86 -7 -123 -22s-69 -35 -96 -62c-27 -26 -48 -58 -62 -95c-16 -37 -23 -79 -23 -124c0 -47 7 -89 23 -126c14 -37 36 -69 62 -95c28 -27 59 -47 96 -61s77 -21 120 -21c47 0 90 8 130 23c38 15 74 37 107 65l31 -35
c-73 -66 -164 -99 -273 -99c-51 0 -99 8 -141 24c-44 16 -80 39 -111 68c-31 30 -55 66 -71 110c-18 42 -26 91 -26 145c0 50 8 96 26 139c16 43 41 80 73 111s71 56 116 74s96 27 152 27c21 0 42 -2 64 -6s43 -10 65 -18c20 -7 40 -16 60 -27c18 -11 36 -22 51 -35z" />
    <glyph glyph-name="D" unicode="D" horiz-adv-x="735" 
d="M322 670c54 0 103 -8 146 -24c43 -17 80 -40 111 -70c31 -29 54 -65 71 -106c17 -40 25 -86 25 -135s-9 -93 -26 -135c-17 -40 -42 -76 -73 -106c-31 -29 -69 -52 -112 -69c-44 -17 -92 -25 -145 -25h-229v670h232zM142 47h177c44 0 85 7 121 20c38 13 70 33 96 57
c28 26 48 56 64 91c14 35 22 75 22 120c0 47 -7 88 -22 124c-14 36 -34 66 -61 91c-27 24 -59 42 -96 54c-37 13 -79 19 -125 19h-176v-576z" />
    <glyph glyph-name="E" unicode="E" 
d="M560 670v-45h-418v-255h365v-45h-365v-279h437v-46h-489v670h470z" />
    <glyph glyph-name="F" unicode="F" horiz-adv-x="608" 
d="M548 670v-46h-406v-265h352v-45h-352v-314h-52v670h458z" />
    <glyph glyph-name="G" unicode="G" horiz-adv-x="753" 
d="M683 339v-262c-32 -28 -71 -50 -117 -67c-46 -16 -98 -24 -155 -24c-53 0 -101 8 -143 24c-44 16 -80 39 -111 68c-31 30 -55 66 -71 110c-18 42 -26 91 -26 145c0 49 8 94 26 137c16 43 41 80 72 112c31 31 69 56 114 74c45 19 95 28 150 28c41 0 83 -6 126 -20
c42 -12 79 -31 110 -55l-26 -38c-28 21 -61 38 -98 49c-38 12 -77 18 -117 18c-45 0 -87 -7 -123 -22c-38 -14 -70 -34 -96 -60c-28 -27 -48 -59 -63 -96s-22 -79 -22 -125c0 -47 7 -90 23 -127c14 -38 35 -70 62 -96s58 -46 96 -60c36 -13 77 -20 121 -20c45 0 86 6 123 18
c36 13 67 29 94 49v193l-183 7v40h234z" />
    <glyph glyph-name="H" unicode="H" horiz-adv-x="733" 
d="M142 670v-303h449v303h52v-670h-52v321h-449v-321h-52v670h52z" />
    <glyph glyph-name="I" unicode="I" horiz-adv-x="232" 
d="M142 670v-670h-52v670h52z" />
    <glyph glyph-name="J" unicode="J" horiz-adv-x="541" 
d="M451 670v-437c0 -81 -19 -142 -58 -184s-94 -63 -166 -63c-34 0 -66 5 -97 14c-31 10 -59 25 -85 45l25 40c48 -35 100 -53 157 -53c25 0 47 4 69 10c20 8 39 19 54 34s27 35 36 59s13 53 13 86v449h52z" />
    <glyph glyph-name="K" unicode="K" horiz-adv-x="680" 
d="M142 670v-293l153 8l243 285h66l-265 -307l291 -363h-67l-267 335h-154v-335h-52v670h52z" />
    <glyph glyph-name="L" unicode="L" horiz-adv-x="618" 
d="M142 670v-623h421v-47h-473v670h52z" />
    <glyph glyph-name="M" unicode="M" horiz-adv-x="844" 
d="M150 670l272 -385l274 385h58v-670h-51v584h-10l-261 -366h-22l-259 366h-10v-584h-51v670h60z" />
    <glyph glyph-name="N" unicode="N" horiz-adv-x="756" 
d="M666 670v-670h-48l-479 591v-591h-49v670h44l483 -591v591h49z" />
    <glyph glyph-name="O" unicode="O" horiz-adv-x="820" 
d="M410 684c51 0 98 -9 142 -26c42 -18 80 -43 110 -74c32 -31 56 -68 72 -110c18 -43 26 -89 26 -139c0 -48 -8 -93 -26 -136c-16 -43 -40 -80 -72 -111c-30 -31 -68 -56 -110 -74c-44 -19 -91 -28 -142 -28c-52 0 -100 9 -142 27c-44 18 -80 43 -111 75
c-31 31 -55 68 -71 110c-18 43 -26 88 -26 137s9 94 26 137s42 80 72 111c32 31 68 56 112 74c42 18 89 27 140 27zM410 637c-46 0 -87 -8 -124 -23s-68 -36 -94 -64c-25 -26 -45 -58 -58 -96c-14 -36 -21 -76 -21 -119s7 -83 21 -120c15 -37 35 -69 61 -95
c26 -28 57 -49 93 -64c37 -15 77 -23 122 -23s85 7 122 22c36 15 67 35 93 62s46 59 61 95c14 38 21 78 21 123s-7 85 -21 123c-15 36 -35 68 -61 95s-57 47 -93 62c-37 15 -77 22 -122 22z" />
    <glyph glyph-name="P" unicode="P" horiz-adv-x="672" 
d="M364 670c35 0 68 -6 98 -16c31 -12 57 -27 79 -47s39 -44 52 -71c13 -28 19 -59 19 -92c0 -35 -7 -67 -20 -96c-13 -28 -32 -52 -55 -72s-51 -35 -82 -46s-65 -16 -101 -16h-212v-214h-52v670h274zM142 260h208c31 0 59 4 84 12c25 9 47 21 66 36c19 16 33 35 44 58
c10 23 15 48 15 77c0 57 -18 101 -55 133s-86 48 -147 48h-215v-364z" />
    <glyph glyph-name="Q" unicode="Q" horiz-adv-x="820" 
d="M726 -136l-180 147c-43 -17 -88 -25 -136 -25c-52 0 -100 9 -142 27c-44 18 -80 43 -111 75c-31 31 -55 68 -71 110c-18 43 -26 88 -26 137s9 94 26 137s42 80 72 111c32 31 68 56 112 74c42 18 89 27 140 27s98 -9 142 -26c42 -18 80 -43 110 -74c32 -31 56 -68 72 -110
c18 -43 26 -89 26 -139c0 -65 -15 -125 -46 -177c-30 -54 -71 -95 -122 -125l167 -128zM410 637c-46 0 -87 -8 -124 -23s-68 -36 -94 -64c-25 -26 -45 -58 -58 -96c-14 -36 -21 -76 -21 -119s7 -83 21 -120c15 -37 35 -69 61 -95c26 -28 57 -49 93 -64
c37 -15 77 -23 122 -23s85 7 122 22c36 15 67 35 93 62s46 59 61 95c14 38 21 78 21 123s-7 85 -21 123c-15 36 -35 68 -61 95s-57 47 -93 62c-37 15 -77 22 -122 22z" />
    <glyph glyph-name="R" unicode="R" horiz-adv-x="672" 
d="M372 670c34 0 66 -5 95 -16c29 -10 55 -24 76 -42c21 -19 38 -41 50 -67s18 -55 18 -87c0 -25 -4 -49 -13 -72s-21 -43 -36 -62c-15 -18 -34 -33 -55 -46s-45 -22 -70 -28l185 -250h-65l-173 239h-242v-239h-52v670h282zM142 285h218c31 0 58 4 83 13s45 21 63 36
c16 15 30 34 38 54c10 22 14 45 14 70c0 53 -18 94 -52 123c-36 29 -83 43 -142 43h-222v-339z" />
    <glyph glyph-name="S" unicode="S" horiz-adv-x="654" 
d="M536 576c-28 19 -60 34 -98 46c-36 10 -74 16 -112 16c-34 0 -63 -4 -87 -10c-24 -8 -44 -17 -59 -29c-16 -12 -28 -26 -34 -42c-8 -16 -11 -33 -11 -52c0 -38 12 -67 37 -87c25 -19 61 -33 109 -40l112 -16c64 -9 113 -28 149 -59c34 -31 52 -72 52 -123
c0 -27 -6 -53 -19 -76c-13 -24 -31 -45 -55 -62c-23 -17 -52 -31 -87 -41s-74 -15 -118 -15c-50 0 -96 6 -137 18c-42 11 -83 31 -123 60l27 41c39 -27 76 -46 113 -57c37 -10 77 -15 122 -15c73 0 128 14 167 42s58 64 58 107c0 34 -12 63 -36 87c-25 24 -65 40 -121 47
l-118 16c-123 17 -184 75 -184 172c0 28 6 53 17 76c12 22 29 41 50 56c21 16 47 28 76 36c30 8 63 12 99 12c41 0 83 -6 127 -17c42 -11 80 -29 112 -52z" />
    <glyph glyph-name="T" unicode="T" horiz-adv-x="696" 
d="M641 670v-46h-267v-624h-52v624h-267v46h586z" />
    <glyph glyph-name="U" unicode="U" horiz-adv-x="758" 
d="M142 670v-359c0 -91 21 -160 64 -207c43 -48 100 -72 173 -72c35 0 67 6 97 16c28 12 54 28 74 51c22 23 38 51 49 86s17 76 17 124v361h52v-359c0 -49 -6 -94 -18 -134c-13 -40 -31 -74 -56 -103c-24 -28 -54 -50 -90 -65s-78 -23 -125 -23s-88 8 -124 22
c-36 16 -66 37 -91 64c-24 28 -42 62 -55 102c-13 39 -19 84 -19 133v363h52z" />
    <glyph glyph-name="V" unicode="V" horiz-adv-x="735" 
d="M102 670l259 -618h16l258 618h55l-285 -672h-74l-286 672h57z" />
    <glyph glyph-name="W" unicode="W" horiz-adv-x="1024" 
d="M102 670l199 -618h10l172 552h56l179 -552h10l195 618h56l-218 -672h-78l-167 518h-10l-161 -518h-78l-222 672h57z" />
    <glyph glyph-name="X" unicode="X" horiz-adv-x="706" 
d="M132 670l219 -289h10l212 289h66l-245 -325l267 -345h-68l-239 314h-10l-232 -314h-67l264 350l-242 320h65z" />
    <glyph glyph-name="Y" unicode="Y" horiz-adv-x="706" 
d="M106 670l244 -417h10l240 417h61l-282 -475v-195h-52v195l-282 475h61z" />
    <glyph glyph-name="Z" unicode="Z" horiz-adv-x="670" 
d="M596 670v-44l-463 -580h472v-46h-540v42l469 582h-454v46h516z" />
    <glyph glyph-name="bracketleft" unicode="[" horiz-adv-x="284" 
d="M244 659v-40h-114v-698h114v-40h-164v778h164z" />
    <glyph glyph-name="backslash" unicode="\" horiz-adv-x="453" 
d="M409 -42l-47 -19l-344 764l47 19z" />
    <glyph glyph-name="bracketright" unicode="]" horiz-adv-x="284" 
d="M204 659v-778h-164v40h114v698h-114v40h164z" />
    <glyph glyph-name="asciicircum" unicode="^" horiz-adv-x="328" 
d="M175 671l123 -119v-10l-24 -23l-110 96l-110 -96l-24 23v10l124 119h21z" />
    <glyph glyph-name="underscore" unicode="_" horiz-adv-x="435" 
d="M425 -65v-46h-415v46h415z" />
    <glyph glyph-name="grave" unicode="`" horiz-adv-x="272" 
d="M159 632h-43l-81 139l47 26z" />
    <glyph glyph-name="a" unicode="a" horiz-adv-x="639" 
d="M91 466c32 19 64 34 97 42c32 10 67 14 105 14c77 0 134 -16 171 -50c36 -32 54 -80 54 -143v-217c0 -29 5 -49 16 -60c10 -11 22 -17 36 -17c5 0 10 0 15 1s9 2 12 3l7 -37c-12 -7 -26 -10 -42 -10c-25 0 -45 7 -60 22c-15 14 -24 39 -27 76c-21 -32 -51 -57 -89 -75
s-83 -27 -134 -27c-29 0 -56 4 -80 12c-25 7 -46 18 -63 32s-31 31 -40 52s-14 44 -14 70c0 48 19 87 57 118c37 31 91 46 162 46c33 0 66 -3 101 -10c35 -6 66 -15 94 -27v44c0 101 -58 152 -174 152c-67 0 -129 -16 -185 -48zM470 237c-27 12 -58 21 -90 28
c-34 7 -67 10 -102 10c-31 0 -57 -3 -78 -9c-21 -7 -39 -16 -52 -26c-14 -12 -24 -24 -30 -40c-7 -14 -10 -31 -10 -48c0 -37 14 -66 42 -88c27 -20 66 -31 115 -31c25 0 50 4 75 11c25 8 47 19 66 33s35 31 46 51c12 20 18 43 18 68v41z" />
    <glyph glyph-name="b" unicode="b" horiz-adv-x="640" 
d="M131 720v-265c26 21 56 38 90 49c34 12 72 18 114 18c35 0 68 -5 99 -16s57 -27 80 -48c22 -21 39 -48 52 -81s19 -71 19 -115c0 -43 -7 -82 -23 -116c-14 -33 -35 -62 -61 -86c-26 -23 -57 -41 -91 -54c-36 -12 -73 -18 -113 -18c-38 0 -75 3 -111 9
c-35 6 -71 17 -106 32v691h51zM131 63c28 -11 55 -19 79 -23c26 -5 53 -7 84 -7c33 0 64 5 92 15c30 9 55 24 76 42c22 20 39 43 52 72s19 62 19 101c0 35 -5 65 -15 93c-9 26 -23 49 -41 67s-39 32 -65 41c-24 9 -52 14 -83 14c-40 0 -77 -6 -109 -20
c-34 -12 -63 -31 -89 -56v-339z" />
    <glyph glyph-name="c" unicode="c" horiz-adv-x="596" 
d="M502 414c-21 19 -46 35 -75 46s-62 17 -100 17c-30 0 -58 -5 -85 -15s-50 -24 -70 -43s-36 -41 -48 -69c-11 -26 -17 -57 -17 -90c0 -35 5 -66 15 -94c11 -27 26 -51 44 -70c20 -20 43 -35 70 -46s58 -16 93 -16c76 0 138 25 186 74l31 -34c-55 -57 -128 -86 -221 -86
c-43 0 -82 7 -115 20c-34 14 -62 33 -86 57c-22 24 -40 52 -52 85c-11 32 -17 67 -17 104c0 41 7 78 21 111s33 61 58 85c25 22 53 40 86 53s68 19 105 19c46 0 87 -7 122 -20s64 -32 86 -55z" />
    <glyph glyph-name="d" unicode="d" horiz-adv-x="666" 
d="M586 720v-720h-39l-8 139c-19 -49 -50 -87 -91 -113c-42 -25 -90 -38 -144 -38c-77 0 -137 23 -182 70c-45 46 -67 111 -67 196c0 41 7 79 21 112s33 62 58 84c24 24 52 41 85 54c33 12 68 18 105 18c44 0 83 -6 118 -18c34 -11 65 -28 93 -50v266h51zM535 406
c-60 48 -127 72 -200 72c-34 0 -65 -5 -93 -15s-52 -25 -72 -44s-36 -43 -46 -71c-12 -28 -17 -60 -17 -96c0 -35 5 -67 15 -94c11 -27 25 -50 44 -69c18 -19 39 -33 64 -42s51 -14 79 -14c57 0 103 16 139 47c37 31 66 75 87 132v194z" />
    <glyph glyph-name="e" unicode="e" horiz-adv-x="620" 
d="M108 237c3 -65 25 -115 66 -150c40 -35 92 -53 157 -53c36 0 70 4 101 13s62 23 91 44l24 -38c-31 -23 -64 -39 -101 -49c-36 -11 -75 -16 -117 -16c-41 0 -79 6 -113 18c-33 12 -62 30 -86 52c-24 24 -42 52 -56 84c-12 34 -19 71 -19 112c0 39 7 74 19 107
c14 33 32 61 56 85s53 43 86 56c34 13 72 20 113 20c35 0 67 -6 97 -17c28 -11 53 -27 74 -48s37 -45 48 -74s17 -60 17 -94c0 -19 -2 -36 -6 -52h-451zM514 283c-1 59 -17 107 -48 142s-78 53 -141 53c-61 0 -110 -18 -147 -52c-38 -36 -61 -83 -69 -143h405z" />
    <glyph glyph-name="f" unicode="f" horiz-adv-x="409" 
d="M141 512v54c0 27 3 53 10 76s17 44 33 61c14 17 34 31 58 41c23 10 52 15 85 15c29 0 56 -3 83 -11c26 -6 49 -17 69 -32l-27 -38c-16 12 -34 21 -55 27s-42 9 -65 9c-50 0 -86 -13 -108 -38c-21 -25 -32 -61 -32 -108v-58h181v-45h-181v-465h-51v465h-91v42z" />
    <glyph glyph-name="g" unicode="g" horiz-adv-x="659" 
d="M594 496l-109 -19c17 -17 31 -37 41 -60s15 -46 15 -71c0 -24 -5 -47 -15 -68c-9 -22 -23 -41 -42 -57s-41 -29 -68 -39c-26 -9 -56 -14 -89 -14c-65 0 -116 16 -153 47c-21 -10 -35 -23 -44 -39c-8 -15 -12 -32 -12 -50c0 -30 10 -50 30 -60c20 -9 48 -14 84 -14h177
c31 0 57 -4 79 -12c22 -7 40 -18 55 -30c15 -14 25 -28 33 -45c6 -17 10 -34 10 -53c0 -29 -7 -56 -20 -82c-14 -24 -34 -46 -59 -66c-25 -18 -56 -33 -93 -44c-36 -11 -76 -16 -121 -16c-78 0 -136 15 -175 46s-58 72 -58 123c0 31 6 61 17 87c11 28 27 50 48 67
c-17 10 -31 23 -41 39c-9 15 -14 34 -14 55c0 25 6 48 19 69s32 40 57 57c-19 29 -28 62 -28 99c0 24 4 47 14 68c8 21 22 40 40 56c19 16 42 29 70 38c27 9 59 14 96 14h108l144 13zM163 11c-18 -16 -31 -35 -40 -59c-9 -22 -13 -46 -13 -69c0 -44 16 -77 46 -100
c32 -23 79 -34 142 -34c35 0 66 4 96 11c28 8 53 19 74 34c21 14 37 31 48 50c12 20 18 42 18 66c0 32 -10 56 -30 72s-54 24 -102 24h-170zM327 479c-49 0 -88 -12 -116 -35s-42 -56 -42 -98c0 -40 14 -72 41 -98c28 -24 67 -37 117 -37c23 0 44 3 64 9c20 7 37 16 52 27
s26 25 35 42c8 17 12 36 12 57c0 30 -6 56 -16 76c-12 22 -29 40 -54 57h-93z" />
    <glyph glyph-name="h" unicode="h" horiz-adv-x="647" 
d="M131 720v-347c21 47 49 83 87 109c36 27 85 40 145 40c62 0 111 -19 149 -56c36 -38 55 -91 55 -160v-306h-51v295c0 63 -14 109 -44 139c-28 28 -69 43 -122 43c-51 0 -96 -17 -133 -51c-37 -35 -66 -83 -86 -144v-282h-51v720h51z" />
    <glyph glyph-name="i" unicode="i" horiz-adv-x="212" 
d="M132 510v-510h-52v510h52zM106 728c13 0 25 -4 34 -13c10 -9 15 -20 15 -35s-5 -27 -15 -36c-9 -8 -21 -12 -34 -12s-25 4 -34 12c-10 9 -15 21 -15 36s5 26 15 35c9 9 21 13 34 13z" />
    <glyph glyph-name="j" unicode="j" horiz-adv-x="221" 
d="M141 510v-559c0 -60 -15 -108 -43 -144c-30 -36 -72 -54 -129 -54c-21 0 -43 3 -63 7c-22 6 -41 13 -59 24l21 41c31 -17 64 -26 99 -26c38 0 68 12 90 37s33 64 33 117v557h51zM115 730c13 0 25 -4 35 -14c10 -8 15 -20 15 -35s-5 -27 -15 -36s-22 -13 -35 -13
s-25 4 -35 13s-15 21 -15 36s5 27 15 35c10 10 22 14 35 14z" />
    <glyph glyph-name="k" unicode="k" horiz-adv-x="584" 
d="M131 720v-431l142 10l178 211h67l-195 -229l226 -281h-67l-198 249h-153v-249h-51v720h51z" />
    <glyph glyph-name="l" unicode="l" horiz-adv-x="211" 
d="M131 720v-720h-51v720h51z" />
    <glyph glyph-name="m" unicode="m" horiz-adv-x="969" 
d="M119 510l8 -146c39 105 108 158 207 158c41 0 76 -9 106 -27s52 -45 65 -81c19 36 46 63 79 81s72 27 116 27c57 0 102 -18 137 -53s52 -86 52 -153v-316h-51v305c0 59 -13 102 -39 130s-63 42 -112 42c-35 0 -67 -11 -95 -32c-30 -21 -54 -51 -73 -90c1 -7 1 -13 1 -19
c1 -7 1 -13 1 -20v-316h-51v305c0 59 -13 102 -38 130s-62 42 -111 42c-43 0 -80 -18 -112 -53c-32 -36 -58 -85 -78 -147v-277h-51v510h39z" />
    <glyph glyph-name="n" unicode="n" horiz-adv-x="647" 
d="M119 510l8 -149c20 51 49 90 88 119c39 28 88 42 148 42c31 0 59 -5 83 -15c26 -10 47 -24 65 -43s32 -41 41 -68c10 -27 15 -57 15 -90v-306h-51v295c0 63 -14 109 -44 139c-28 28 -69 43 -122 43s-97 -18 -134 -54s-65 -84 -85 -144v-279h-51v510h39z" />
    <glyph glyph-name="o" unicode="o" horiz-adv-x="662" 
d="M331 522c41 0 79 -7 113 -20s63 -32 87 -56c24 -23 43 -51 56 -84s20 -68 20 -107c0 -37 -7 -72 -21 -105c-13 -33 -32 -61 -57 -85s-54 -43 -87 -57c-34 -13 -71 -20 -111 -20c-41 0 -79 7 -113 20s-63 32 -87 56c-24 23 -43 51 -56 84s-20 68 -20 107c0 37 7 72 21 105
c13 33 32 61 56 85c25 24 54 43 88 57c33 13 70 20 111 20zM331 478c-34 0 -65 -6 -92 -17s-51 -27 -71 -47c-19 -20 -34 -44 -45 -70c-11 -28 -16 -57 -16 -89c0 -33 5 -63 16 -90s26 -51 45 -71c19 -19 43 -34 70 -46c28 -10 59 -16 93 -16s65 6 93 16c27 12 51 27 70 46
c19 20 34 44 45 71s16 57 16 90c0 31 -5 60 -16 87s-26 51 -45 71c-20 20 -44 36 -71 47c-27 12 -58 18 -92 18z" />
    <glyph glyph-name="p" unicode="p" horiz-adv-x="659" 
d="M119 510l8 -132c22 51 53 87 93 110s86 34 139 34c36 0 69 -6 99 -18s56 -29 78 -52c21 -23 38 -50 50 -82s18 -68 18 -108c0 -45 -8 -84 -23 -118c-15 -35 -35 -64 -61 -86c-24 -24 -53 -41 -86 -52c-32 -12 -65 -18 -99 -18c-43 0 -81 5 -112 16c-31 10 -62 28 -92 53
v-267h-51v720h39zM131 112c30 -28 60 -48 91 -60c31 -13 66 -19 107 -19c33 0 63 5 90 15c27 11 51 26 71 46c19 20 34 44 46 73c10 29 16 61 16 98c0 31 -5 60 -14 86s-23 48 -40 67c-18 19 -40 33 -64 44c-26 10 -54 15 -85 15c-27 0 -51 -4 -73 -13
c-23 -8 -43 -20 -61 -35s-34 -34 -48 -55s-26 -45 -36 -70v-192z" />
    <glyph glyph-name="q" unicode="q" horiz-adv-x="639" 
d="M559 -210h-51v292c-24 -31 -52 -54 -86 -70c-32 -16 -77 -24 -133 -24c-30 0 -59 5 -87 16c-29 11 -54 27 -76 48c-21 21 -38 48 -52 82c-12 32 -19 71 -19 116c0 41 7 78 21 111c15 33 35 62 62 86c26 24 58 43 95 55c37 14 79 20 124 20c34 0 69 -4 104 -10
c35 -8 68 -18 98 -31v-691zM508 447c-27 12 -52 20 -77 24s-50 6 -75 6c-37 0 -70 -5 -101 -16s-57 -26 -79 -45c-22 -20 -39 -44 -51 -72c-12 -27 -18 -58 -18 -93c0 -36 5 -68 15 -95c9 -27 23 -50 40 -68s38 -32 62 -41s51 -14 80 -14c40 0 78 9 115 28s66 49 89 91v295z
" />
    <glyph glyph-name="r" unicode="r" horiz-adv-x="534" 
d="M119 510l7 -150c22 55 52 96 88 122c38 27 82 40 135 40c28 0 55 -4 81 -12s49 -20 69 -37l-28 -39c-37 28 -81 42 -132 42s-93 -17 -127 -52c-35 -35 -62 -84 -81 -147v-277h-51v510h39z" />
    <glyph glyph-name="s" unicode="s" horiz-adv-x="572" 
d="M466 428c-57 33 -117 50 -180 50c-55 0 -96 -9 -122 -28c-28 -19 -41 -42 -41 -70c0 -25 8 -44 23 -59s42 -24 79 -28l114 -13c52 -6 94 -20 125 -44c32 -22 48 -56 48 -99c0 -45 -20 -82 -61 -109c-41 -26 -99 -40 -175 -40c-42 0 -81 4 -116 13c-36 9 -71 24 -105 45
l24 43c31 -20 64 -35 97 -43c33 -10 68 -14 105 -14c58 0 103 10 133 29c32 19 47 44 47 75c0 27 -9 48 -27 64c-19 17 -51 28 -96 33l-128 15c-44 5 -78 19 -102 42s-36 53 -36 90c0 19 4 38 13 54c9 18 22 32 39 46c18 12 40 23 68 30c26 8 59 12 96 12s72 -4 108 -13
c34 -9 66 -23 93 -42z" />
    <glyph glyph-name="t" unicode="t" horiz-adv-x="453" 
d="M125 511l21 145l41 -2l-6 -144h207v-45h-205v-302c0 -47 9 -79 29 -99c18 -18 47 -28 85 -28c40 0 76 12 107 36l24 -39c-17 -14 -38 -25 -61 -33s-48 -12 -73 -12c-52 0 -92 14 -120 43s-42 73 -42 134v300h-92v40z" />
    <glyph glyph-name="u" unicode="u" horiz-adv-x="642" 
d="M131 510v-275c0 -71 14 -122 42 -153c28 -30 67 -46 116 -46c51 0 95 16 134 48c39 31 68 77 88 137v289h51v-510h-39l-8 139c-20 -50 -50 -88 -90 -113s-88 -38 -144 -38c-61 0 -109 20 -146 60c-37 39 -55 96 -55 171v291h51z" />
    <glyph glyph-name="v" unicode="v" horiz-adv-x="625" 
d="M105 510l204 -456h10l202 456h59l-239 -514h-57l-239 514h60z" />
    <glyph glyph-name="w" unicode="w" horiz-adv-x="870" 
d="M99 510l154 -456h10l145 439h55l145 -439h10l154 456h53l-179 -514h-68l-137 419h-12l-138 -419h-67l-179 514h54z" />
    <glyph glyph-name="x" unicode="x" horiz-adv-x="591" 
d="M131 510l162 -214h10l158 214h65l-192 -246l212 -264h-66l-184 237h-10l-176 -237h-65l212 271l-192 239h66z" />
    <glyph glyph-name="y" unicode="y" horiz-adv-x="625" 
d="M105 510l228 -456h10l178 456h59l-240 -572c-11 -27 -23 -50 -36 -68c-12 -17 -25 -31 -38 -42c-14 -10 -29 -17 -44 -22c-15 -4 -31 -6 -48 -6c-29 0 -54 7 -75 20l15 43c9 -5 20 -8 32 -10c11 -2 22 -3 31 -3c23 0 44 7 61 20c18 14 35 39 50 75l21 49l-264 516h60z
" />
    <glyph glyph-name="z" unicode="z" horiz-adv-x="580" 
d="M512 510v-37l-375 -428h378v-45h-450v35l378 430h-359v45h428z" />
    <glyph glyph-name="braceleft" unicode="{" horiz-adv-x="292" 
d="M242 620l-37 -2c-20 -1 -35 -8 -45 -18c-10 -12 -15 -30 -15 -56v-15l10 -153v-15c0 -19 -4 -36 -11 -52c-8 -16 -19 -29 -33 -38c14 -9 25 -22 33 -38c7 -16 11 -33 11 -52v-15l-10 -153v-15c0 -26 5 -44 15 -56c10 -10 25 -17 45 -18l37 -2v-39h-38c-34 0 -61 9 -80 28
s-29 45 -29 80v15l11 157v15c0 24 -5 42 -15 53s-23 17 -40 17h-21v46h21c17 0 30 6 40 17s15 29 15 53v15l-11 157v15c0 35 10 61 29 80s46 28 80 28h38v-39z" />
    <glyph glyph-name="bar" unicode="|" horiz-adv-x="171" 
d="M112 720v-770h-52v770h52z" />
    <glyph glyph-name="braceright" unicode="}" horiz-adv-x="292" 
d="M88 659c34 0 61 -9 80 -28s29 -45 29 -80v-15l-11 -157v-15c0 -24 5 -42 15 -53s23 -17 40 -17h21v-46h-21c-17 0 -30 -6 -40 -17s-15 -29 -15 -53v-15l11 -157v-15c0 -35 -10 -61 -29 -80s-46 -28 -80 -28h-38v39l37 2c20 1 35 8 45 18c10 12 15 30 15 56v15l-10 153v15
c0 19 4 36 11 52c8 16 19 29 33 38c-14 9 -25 22 -33 38c-7 16 -11 33 -11 52v15l10 153v15c0 26 -5 44 -15 56c-10 10 -25 17 -45 18l-37 2v39h38z" />
    <glyph glyph-name="asciitilde" unicode="~" horiz-adv-x="463" 
d="M55 343c13 17 27 31 43 39c17 10 38 14 64 14c15 0 29 -3 40 -9c12 -6 23 -13 34 -19c11 -8 22 -14 32 -20c12 -6 24 -9 38 -9c29 0 55 12 77 35l25 -26c-11 -17 -26 -30 -43 -39s-39 -14 -64 -14c-16 0 -30 3 -43 9c-12 6 -24 12 -34 20c-12 6 -22 13 -33 19
s-22 9 -34 9c-17 0 -32 -3 -45 -9c-12 -6 -23 -15 -32 -26z" />
    <glyph glyph-name="exclamdown" unicode="&#xa1;" horiz-adv-x="224" 
d="M86 -226v547h52v-547h-52zM112 416c-15 0 -27 5 -37 14s-15 21 -15 36s5 27 15 36s22 14 37 14s27 -5 37 -14s15 -21 15 -36s-5 -27 -15 -36s-22 -14 -37 -14z" />
    <glyph glyph-name="sterling" unicode="&#xa3;" horiz-adv-x="679" 
d="M161 345l-17 35c-6 11 -12 23 -16 36c-6 13 -10 26 -12 40c-4 13 -5 28 -5 45c0 22 4 43 11 63s18 37 32 52c15 15 33 26 54 35c22 9 47 13 75 13c41 0 74 -8 101 -22c27 -16 48 -36 65 -61l-39 -26c-27 43 -70 64 -128 64c-38 0 -68 -11 -89 -32s-32 -49 -32 -84
c0 -28 5 -54 15 -77l33 -70l153 37l10 -43l-145 -34c5 -13 10 -28 13 -42c3 -16 5 -32 5 -49c0 -27 -4 -52 -11 -75c-8 -24 -21 -46 -40 -66c23 0 46 -3 67 -8s43 -11 65 -17c21 -6 43 -12 66 -17c22 -5 46 -8 71 -8c37 0 65 10 87 31c20 21 31 47 31 80c0 27 -6 50 -17 71
l43 16c8 -15 14 -29 17 -43s5 -28 5 -43c0 -22 -3 -42 -10 -62c-7 -18 -17 -35 -31 -50c-13 -14 -31 -25 -52 -33s-46 -12 -75 -12c-25 0 -49 3 -70 7c-21 6 -42 11 -61 16c-20 6 -40 12 -60 16c-20 6 -42 8 -65 8c-22 0 -43 -3 -63 -10c-19 -7 -40 -17 -61 -31l-21 37
l45 28c33 21 57 43 70 68c13 24 20 54 20 91c0 17 -1 32 -5 46c-2 14 -6 27 -11 40l-106 -24l-9 41z" />
    <glyph glyph-name="currency" unicode="&#xa4;" horiz-adv-x="443" 
d="M131 478c13 8 27 14 43 19c15 5 32 7 50 7s35 -2 50 -6c15 -5 29 -11 42 -18l54 51l33 -33l-49 -52c11 -14 20 -30 26 -47s9 -35 9 -53c0 -35 -11 -67 -32 -96l45 -49l-33 -32l-50 46c-27 -18 -59 -27 -95 -27c-39 0 -71 9 -98 28l-52 -48l-34 33l48 52
c-19 27 -29 58 -29 93c0 37 11 69 32 96l-51 56l34 34zM224 462c-36 0 -64 -11 -84 -32c-21 -21 -31 -49 -31 -84c0 -16 3 -31 9 -46c5 -14 13 -26 23 -36c10 -11 22 -19 36 -25s30 -9 47 -9s32 3 46 9s26 14 36 25c11 10 19 22 24 36c6 15 9 30 9 46c0 35 -10 63 -30 84
s-48 32 -85 32z" />
    <glyph glyph-name="yen" unicode="&#xa5;" horiz-adv-x="674" 
d="M285 302l-240 350h61l232 -349h10l223 349h58l-229 -350l138 -3v-42h-401v42zM510 187v-42l-147 -5v-140h-50v140l-148 5v42h345z" />
    <glyph glyph-name="brokenbar" unicode="&#xa6;" horiz-adv-x="172" 
d="M112 720v-355h-52v355h52zM112 305v-355h-52v355h52z" />
    <glyph glyph-name="section" unicode="&#xa7;" horiz-adv-x="565" 
d="M436 617c-22 15 -46 27 -73 35c-27 7 -54 11 -82 11c-40 0 -71 -8 -95 -24c-22 -16 -34 -37 -34 -62s9 -45 26 -59s40 -24 67 -30l100 -22c50 -11 89 -30 117 -55c29 -25 43 -60 43 -105c0 -28 -8 -54 -24 -80c-16 -24 -37 -44 -63 -59c29 -22 44 -52 44 -90
c0 -19 -4 -37 -14 -53c-8 -17 -21 -31 -38 -43s-37 -21 -61 -28s-51 -10 -81 -10c-31 0 -64 4 -99 12s-65 20 -91 37l22 39c25 -15 52 -27 82 -34s59 -11 88 -11c50 0 86 9 110 27c22 18 34 39 34 63c0 25 -7 45 -22 59s-37 24 -67 30l-122 24c-45 9 -80 28 -105 56
c-26 28 -38 62 -38 102c0 30 8 57 22 81c16 23 37 42 66 57c-29 22 -44 54 -44 96c0 18 4 35 14 49c8 16 21 28 36 40c16 10 35 19 56 26c21 6 44 9 68 9c34 0 67 -4 98 -13c32 -9 60 -21 83 -38zM379 196c23 8 41 22 55 42c15 20 22 43 22 68c0 33 -10 58 -30 75
s-50 31 -90 40l-161 36c-21 -11 -38 -26 -49 -45c-11 -20 -17 -42 -17 -65c0 -31 9 -57 28 -75c19 -20 45 -33 80 -40z" />
    <glyph glyph-name="dieresis" unicode="&#xa8;" horiz-adv-x="446" 
d="M104 728c14 0 25 -4 34 -13s13 -19 13 -32s-4 -23 -13 -32s-20 -13 -34 -13s-25 4 -34 13s-13 19 -13 32s4 23 13 32s20 13 34 13zM342 728c14 0 25 -4 34 -13s13 -19 13 -32s-4 -23 -13 -32s-20 -13 -34 -13s-25 4 -34 13s-13 19 -13 32s4 23 13 32s20 13 34 13z" />
    <glyph glyph-name="copyright" unicode="&#xa9;" horiz-adv-x="900" 
d="M571 450c-31 29 -72 43 -121 43c-23 0 -43 -4 -62 -12c-18 -8 -34 -19 -46 -33c-14 -14 -24 -30 -30 -49c-8 -19 -11 -39 -11 -60c0 -26 4 -49 12 -68s19 -35 33 -48c13 -13 29 -22 47 -29c18 -6 37 -9 57 -9c24 0 47 4 70 12s43 19 62 34l24 -32
c-21 -17 -44 -31 -68 -40c-26 -9 -55 -14 -89 -14c-28 0 -54 4 -79 13c-24 9 -45 21 -62 38s-31 37 -41 61s-15 51 -15 82c0 27 5 53 16 77c10 23 24 44 42 61s39 31 63 41s50 15 77 15c59 0 109 -17 148 -50zM450 715c52 0 101 -9 148 -27c47 -17 88 -42 122 -75
c36 -33 63 -72 84 -119c21 -46 31 -98 31 -155c0 -56 -10 -107 -31 -153c-21 -47 -49 -86 -84 -120c-35 -32 -76 -58 -123 -76s-96 -27 -147 -27c-52 0 -101 9 -148 27c-47 17 -88 42 -122 75c-36 33 -63 72 -84 119c-21 46 -31 98 -31 155c0 56 10 107 31 153s49 86 84 118
c35 34 76 59 123 78c47 18 96 27 147 27zM450 670c-45 0 -88 -8 -129 -24c-41 -15 -76 -37 -107 -66s-55 -63 -72 -104c-18 -41 -27 -86 -27 -137c0 -52 9 -98 27 -139c17 -41 41 -75 72 -104c30 -29 65 -50 106 -66c41 -14 84 -22 130 -22c45 0 88 8 129 24
c41 15 76 37 107 66c30 29 54 63 72 104s27 86 27 137c0 52 -9 98 -27 139c-17 41 -41 75 -72 104c-30 29 -65 50 -106 66c-41 14 -84 22 -130 22z" />
    <glyph glyph-name="guillemotleft" unicode="&#xab;" horiz-adv-x="422" 
d="M224 400l-121 -137l121 -140l-34 -26l-140 153v22l141 155zM371 405l-123 -142l124 -144l-35 -26l-142 157v23l144 157z" />
    <glyph glyph-name="logicalnot" unicode="&#xac;" horiz-adv-x="445" 
d="M390 425v-189h-44l-8 143h-273v46h325z" />
    <glyph glyph-name="uni00AD" unicode="&#xad;" horiz-adv-x="441" 
d="M371 307v-46h-301v46h301z" />
    <glyph glyph-name="registered" unicode="&#xae;" horiz-adv-x="620" 
d="M310 750c39 0 74 -6 106 -19c31 -13 58 -30 82 -53c22 -23 40 -49 53 -80s19 -64 19 -100s-6 -69 -20 -100c-12 -31 -30 -57 -54 -80c-22 -22 -50 -39 -82 -52c-31 -13 -66 -19 -104 -19s-73 6 -105 19s-59 30 -83 52c-22 23 -40 49 -53 80s-19 64 -19 100s6 69 19 100
s31 57 53 80c24 23 51 40 83 53s67 19 105 19zM310 710c-33 0 -62 -6 -89 -17s-49 -27 -68 -46s-33 -42 -43 -67c-11 -26 -16 -53 -16 -82c0 -28 5 -55 16 -80c10 -26 24 -49 43 -68s41 -35 68 -46s56 -17 89 -17s62 6 89 17s49 27 69 46c18 19 33 42 43 68
c10 25 15 52 15 80s-5 55 -15 80c-10 26 -25 49 -43 68c-20 19 -42 35 -69 46c-27 12 -56 18 -89 18zM328 615c30 0 54 -8 70 -25c18 -17 26 -36 26 -58c0 -17 -4 -31 -14 -44c-8 -13 -21 -22 -36 -29l44 -73h-51l-36 63h-71v-63h-42v229h110zM260 486h66c17 0 30 4 39 13
s13 20 13 33c0 14 -5 25 -15 34c-10 8 -24 12 -41 12h-62v-92z" />
    <glyph glyph-name="macron" unicode="&#xaf;" horiz-adv-x="447" 
d="M387 704v-45h-327v45h327z" />
    <glyph glyph-name="degree" unicode="&#xb0;" horiz-adv-x="403" 
d="M202 684c21 0 41 -4 60 -11c18 -7 34 -18 48 -31c13 -13 24 -29 32 -47c7 -18 11 -38 11 -60c0 -21 -4 -40 -11 -59c-8 -18 -19 -34 -32 -47s-29 -24 -48 -32c-18 -8 -38 -12 -60 -12s-42 4 -60 11c-19 7 -35 18 -48 31c-14 13 -25 29 -32 47c-8 19 -12 39 -12 61
c0 21 4 40 12 58c7 18 18 34 32 47c13 13 29 24 48 32c18 8 38 12 60 12zM202 644c-33 0 -59 -10 -78 -30c-20 -21 -30 -47 -30 -79c0 -33 10 -59 30 -79c21 -21 47 -31 78 -31c32 0 58 10 78 31c19 20 29 46 29 79c0 32 -10 58 -31 79c-20 20 -45 30 -76 30z" />
    <glyph glyph-name="plusminus" unicode="&#xb1;" horiz-adv-x="530" 
d="M289 645v-169h171v-45h-171v-164h-49v164h-170v45h170v169h49zM443 177v-45h-356v45h356z" />
    <glyph glyph-name="acute" unicode="&#xb4;" horiz-adv-x="272" 
d="M199 771l-81 -139h-43l77 165z" />
    <glyph glyph-name="paragraph" unicode="&#xb6;" horiz-adv-x="535" 
d="M485 486l-68 -23v-361c0 -47 -8 -86 -23 -116c-15 -31 -39 -59 -72 -84l-163 -126l-25 33l105 84v366c-22 -13 -47 -20 -76 -20c-16 0 -31 3 -45 8s-26 13 -38 24c-10 11 -19 24 -26 39c-6 16 -9 34 -9 55c0 22 4 42 12 60s19 33 33 46s31 22 50 29c20 7 42 10 65 10h163
c17 0 35 1 53 4s36 7 53 12zM284 -72l20 16c24 19 41 41 52 66c11 26 16 55 16 88v372h-88v-542zM195 470c-12 0 -24 -2 -35 -6c-12 -4 -23 -10 -32 -18c-10 -9 -18 -19 -24 -32c-6 -12 -9 -26 -9 -43c0 -33 7 -56 23 -71c14 -14 32 -21 53 -21c27 0 49 7 68 22v169h-44z
" />
    <glyph glyph-name="periodcentered" unicode="&#xb7;" horiz-adv-x="224" 
d="M112 323c15 0 27 -5 37 -14s15 -21 15 -36s-5 -27 -15 -36s-22 -14 -37 -14s-27 5 -37 14s-15 21 -15 36s5 27 15 36s22 14 37 14z" />
    <glyph glyph-name="cedilla" unicode="&#xb8;" horiz-adv-x="280" 
d="M144 13l-7 -74c21 -7 38 -19 51 -37c12 -16 18 -36 18 -59c0 -33 -12 -62 -34 -87c-24 -26 -61 -45 -114 -57l-11 34c43 13 72 28 89 45c16 18 24 38 24 61c0 21 -6 38 -20 51c-12 12 -33 19 -61 20v17l18 33v53h47z" />
    <glyph glyph-name="guillemotright" unicode="&#xbb;" horiz-adv-x="419" 
d="M372 273v-22l-141 -155l-33 27l121 137l-121 140l34 26zM227 273v-23l-144 -157l-32 25l123 142l-124 144l35 26z" />
    <glyph glyph-name="onequarter" unicode="&#xbc;" horiz-adv-x="743" 
d="M148 617v-347h-50v269l-52 -28l-26 36l95 74zM543 606l-390 -636l-42 24l390 636zM666 348v-241h42v-39l-42 -5v-63h-49v63h-232v38l227 247h54zM452 107h165v184z" />
    <glyph glyph-name="onehalf" unicode="&#xbd;" horiz-adv-x="779" 
d="M148 617v-347h-50v269l-52 -28l-26 36l95 74zM538 606l-390 -636l-42 24l390 636zM738 0h-277v35l162 107c17 11 33 24 46 40c13 14 20 32 20 51c0 22 -7 40 -23 55c-14 15 -38 22 -69 22c-24 0 -44 -4 -61 -12s-34 -20 -51 -35l-27 32c38 39 86 59 143 59
c20 0 39 -3 55 -9c18 -6 32 -14 44 -25c12 -10 22 -22 28 -36c8 -14 11 -29 11 -46c0 -29 -7 -54 -23 -74c-14 -22 -35 -40 -60 -55l-103 -64h185v-45z" />
    <glyph glyph-name="threequarters" unicode="&#xbe;" horiz-adv-x="823" 
d="M200 470c39 0 58 17 58 51c0 19 -7 33 -22 43c-15 11 -34 16 -57 16c-43 0 -78 -13 -107 -39l-29 33c18 17 38 30 59 38s48 12 81 12c18 0 35 -2 50 -8c15 -4 29 -12 39 -20c12 -10 20 -20 26 -32c7 -11 10 -23 10 -36s-3 -26 -10 -40c-6 -12 -16 -23 -30 -31
c18 -7 32 -18 41 -33c9 -16 14 -33 14 -50c0 -13 -3 -26 -9 -40c-6 -12 -15 -24 -28 -34c-12 -11 -28 -19 -46 -26c-20 -7 -42 -10 -67 -10c-30 0 -56 4 -77 12c-22 7 -45 20 -68 38l25 35c19 -15 38 -25 59 -31c20 -7 41 -10 63 -10c32 0 56 6 73 18s25 28 25 47
c0 17 -6 31 -18 39c-12 10 -29 14 -50 14h-89v44h84zM633 606l-390 -636l-42 24l390 636zM746 348v-241h42v-39l-42 -5v-63h-49v63h-232v38l227 247h54zM532 107h165v184z" />
    <glyph glyph-name="questiondown" unicode="&#xbf;" horiz-adv-x="531" 
d="M559 -142c-35 -29 -72 -51 -112 -64c-41 -13 -86 -20 -136 -20c-35 0 -67 5 -96 15c-30 9 -56 23 -77 41c-21 17 -38 38 -50 63c-12 24 -18 51 -18 81c0 48 14 90 43 125c28 35 71 61 130 76c37 9 63 23 76 40s20 35 20 56c0 8 -1 16 -2 24s-3 16 -5 23l45 7
c8 -18 12 -38 12 -60c0 -31 -11 -58 -32 -80c-21 -23 -52 -40 -93 -51c-27 -7 -50 -16 -68 -27c-19 -11 -33 -24 -44 -37c-11 -14 -19 -29 -23 -45c-5 -16 -7 -33 -7 -51c0 -48 17 -86 51 -113c33 -28 79 -42 138 -42c85 0 158 25 219 76zM353 416c-15 0 -27 5 -37 14
s-15 21 -15 36s5 27 15 36s22 14 37 14s27 -5 37 -14s15 -21 15 -36s-5 -27 -15 -36s-22 -14 -37 -14z" />
    <glyph glyph-name="Agrave" unicode="&#xc0;" horiz-adv-x="749" 
d="M411 672l293 -672h-55l-73 169h-404l-73 -169h-54l293 672h73zM192 216h363l-173 403h-16zM295 973l86 -190h-42l-90 165z" />
    <glyph glyph-name="Aacute" unicode="&#xc1;" horiz-adv-x="749" 
d="M411 672l293 -672h-55l-73 169h-404l-73 -169h-54l293 672h73zM192 216h363l-173 403h-16zM503 948l-90 -165h-42l86 190z" />
    <glyph glyph-name="Acircumflex" unicode="&#xc2;" horiz-adv-x="749" 
d="M411 672l293 -672h-55l-73 169h-404l-73 -169h-54l293 672h73zM192 216h363l-173 403h-16zM385 923l128 -124v-10l-24 -23l-115 106l-115 -106l-24 23v10l129 124h21z" />
    <glyph glyph-name="Atilde" unicode="&#xc3;" horiz-adv-x="749" 
d="M411 672l293 -672h-55l-73 169h-404l-73 -169h-54l293 672h73zM192 216h363l-173 403h-16zM195 822c13 21 29 36 47 48c19 10 41 16 68 16c15 0 29 -3 41 -9s23 -13 35 -19c10 -8 22 -14 32 -20c12 -6 24 -9 37 -9c16 0 29 3 39 10c11 7 20 16 27 29l33 -28
c-21 -37 -55 -56 -102 -56c-17 0 -31 3 -43 9s-23 13 -35 19c-10 8 -22 14 -33 20s-24 9 -39 9c-18 0 -33 -4 -44 -12c-12 -8 -23 -19 -32 -32z" />
    <glyph glyph-name="Adieresis" unicode="&#xc4;" horiz-adv-x="749" 
d="M411 672l293 -672h-55l-73 169h-404l-73 -169h-54l293 672h73zM192 216h363l-173 403h-16zM245 887c14 0 26 -5 36 -15c10 -9 15 -21 15 -34s-5 -25 -15 -34c-10 -10 -22 -15 -36 -15s-26 5 -36 15c-10 9 -15 21 -15 34s5 25 15 34c10 10 22 15 36 15zM504 887
c14 0 26 -5 36 -15c10 -9 15 -21 15 -34s-5 -25 -15 -34c-10 -10 -22 -15 -36 -15s-26 5 -36 15c-10 9 -15 21 -15 34s5 25 15 34c10 10 22 15 36 15z" />
    <glyph glyph-name="Aring" unicode="&#xc5;" horiz-adv-x="749" 
d="M411 672l293 -672h-55l-73 169h-404l-73 -169h-54l293 672h73zM192 216h363l-173 403h-16zM374 983c19 0 36 -3 51 -11c15 -6 28 -16 39 -26c10 -12 18 -24 24 -38c5 -13 8 -27 8 -41c0 -15 -3 -29 -8 -43c-6 -13 -14 -26 -25 -36c-11 -12 -23 -20 -39 -27
c-14 -7 -31 -10 -50 -10s-37 3 -52 10s-28 15 -38 27c-11 10 -19 23 -24 36c-5 14 -8 28 -8 43c0 14 3 28 8 41c6 14 14 26 25 38c11 10 23 20 39 26c14 8 31 11 50 11zM374 943c-23 0 -42 -7 -56 -22s-21 -33 -21 -54c0 -23 7 -41 21 -55s33 -21 56 -21s41 7 56 21
c14 14 21 32 21 55c0 21 -7 39 -22 54s-33 22 -55 22z" />
    <glyph glyph-name="AE" unicode="&#xc6;" horiz-adv-x="1081" 
d="M997 670v-45h-408v-255h355v-45h-355v-279h427v-46h-479v169h-334l-111 -169h-62l446 670h521zM233 216h304v409h-36z" />
    <glyph glyph-name="Ccedilla" unicode="&#xc7;" horiz-adv-x="732" 
d="M639 561c-61 51 -135 77 -222 77c-45 0 -86 -7 -123 -22s-69 -35 -96 -62c-27 -26 -48 -58 -62 -95c-16 -37 -23 -79 -23 -124c0 -47 7 -89 23 -126c14 -37 36 -69 62 -95c28 -27 59 -47 96 -61s77 -21 120 -21c47 0 90 8 130 23c38 15 74 37 107 65l31 -35
c-73 -66 -164 -99 -273 -99l-4 -49c23 -7 41 -20 55 -37c12 -17 19 -37 19 -60c0 -35 -12 -66 -36 -93s-62 -47 -115 -60l-15 36c43 11 73 27 92 47s28 42 28 66c0 23 -8 40 -23 51s-37 17 -65 20v20l18 33v28c-45 5 -87 16 -124 34c-37 17 -69 41 -95 70
c-27 29 -47 64 -62 105s-22 86 -22 136s8 96 26 139c16 43 41 80 73 111s71 56 116 74s96 27 152 27c21 0 42 -2 64 -6s43 -10 65 -18c20 -7 40 -16 60 -27c18 -11 36 -22 51 -35z" />
    <glyph glyph-name="Egrave" unicode="&#xc8;" 
d="M560 670v-45h-418v-255h365v-45h-365v-279h437v-46h-489v670h470zM278 973l86 -190h-42l-90 165z" />
    <glyph glyph-name="Eacute" unicode="&#xc9;" 
d="M560 670v-45h-418v-255h365v-45h-365v-279h437v-46h-489v670h470zM438 948l-90 -165h-42l86 190z" />
    <glyph glyph-name="Ecircumflex" unicode="&#xca;" 
d="M560 670v-45h-418v-255h365v-45h-365v-279h437v-46h-489v670h470zM345 923l128 -124v-10l-24 -23l-115 106l-115 -106l-24 23v10l129 124h21z" />
    <glyph glyph-name="Edieresis" unicode="&#xcb;" 
d="M560 670v-45h-418v-255h365v-45h-365v-279h437v-46h-489v670h470zM203 887c14 0 26 -5 36 -15c10 -9 15 -21 15 -34s-5 -25 -15 -34c-10 -10 -22 -15 -36 -15s-26 5 -36 15c-10 9 -15 21 -15 34s5 25 15 34c10 10 22 15 36 15zM462 887c14 0 26 -5 36 -15
c10 -9 15 -21 15 -34s-5 -25 -15 -34c-10 -10 -22 -15 -36 -15s-26 5 -36 15c-10 9 -15 21 -15 34s5 25 15 34c10 10 22 15 36 15z" />
    <glyph glyph-name="Igrave" unicode="&#xcc;" horiz-adv-x="232" 
d="M142 670v-670h-52v670h52zM53 973l86 -190h-42l-90 165z" />
    <glyph glyph-name="Iacute" unicode="&#xcd;" horiz-adv-x="232" 
d="M142 670v-670h-52v670h52zM234 948l-90 -165h-42l86 190z" />
    <glyph glyph-name="Icircumflex" unicode="&#xce;" horiz-adv-x="232" 
d="M142 670v-670h-52v670h52zM128 923l128 -124v-10l-24 -23l-115 106l-115 -106l-24 23v10l129 124h21z" />
    <glyph glyph-name="Idieresis" unicode="&#xcf;" horiz-adv-x="232" 
d="M142 670v-670h-52v670h52zM28 887c14 0 26 -5 36 -15c10 -9 15 -21 15 -34s-5 -25 -15 -34c-10 -10 -22 -15 -36 -15s-26 5 -36 15c-10 9 -15 21 -15 34s5 25 15 34c10 10 22 15 36 15zM207 887c14 0 26 -5 36 -15c10 -9 15 -21 15 -34s-5 -25 -15 -34
c-10 -10 -22 -15 -36 -15s-26 5 -36 15c-10 9 -15 21 -15 34s5 25 15 34c10 10 22 15 36 15z" />
    <glyph glyph-name="Eth" unicode="&#xd0;" horiz-adv-x="755" 
d="M342 670c54 0 103 -8 146 -24c43 -17 80 -40 111 -70c31 -29 54 -65 71 -106c17 -40 25 -86 25 -135s-9 -93 -26 -135c-17 -40 -42 -76 -73 -106c-31 -29 -69 -52 -112 -69c-44 -17 -92 -25 -145 -25h-229v312l-75 4v43h75v311h232zM162 359h233v-46h-233v-266h177
c44 0 85 7 121 20c38 13 70 33 96 57c28 26 48 56 64 91c14 35 22 75 22 120c0 47 -7 88 -22 124c-14 36 -34 66 -61 91c-27 24 -59 42 -96 54c-37 13 -79 19 -125 19h-176v-264z" />
    <glyph glyph-name="Ntilde" unicode="&#xd1;" horiz-adv-x="756" 
d="M666 670v-670h-48l-479 591v-591h-49v670h44l483 -591v591h49zM199 822c13 21 29 36 47 48c19 10 41 16 68 16c15 0 29 -3 41 -9s23 -13 35 -19c10 -8 22 -14 32 -20c12 -6 24 -9 37 -9c16 0 29 3 39 10c11 7 20 16 27 29l33 -28c-21 -37 -55 -56 -102 -56
c-17 0 -31 3 -43 9s-23 13 -35 19c-10 8 -22 14 -33 20s-24 9 -39 9c-18 0 -33 -4 -44 -12c-12 -8 -23 -19 -32 -32z" />
    <glyph glyph-name="Ograve" unicode="&#xd2;" horiz-adv-x="820" 
d="M410 684c51 0 98 -9 142 -26c42 -18 80 -43 110 -74c32 -31 56 -68 72 -110c18 -43 26 -89 26 -139c0 -48 -8 -93 -26 -136c-16 -43 -40 -80 -72 -111c-30 -31 -68 -56 -110 -74c-44 -19 -91 -28 -142 -28c-52 0 -100 9 -142 27c-44 18 -80 43 -111 75
c-31 31 -55 68 -71 110c-18 43 -26 88 -26 137s9 94 26 137s42 80 72 111c32 31 68 56 112 74c42 18 89 27 140 27zM410 637c-46 0 -87 -8 -124 -23s-68 -36 -94 -64c-25 -26 -45 -58 -58 -96c-14 -36 -21 -76 -21 -119s7 -83 21 -120c15 -37 35 -69 61 -95
c26 -28 57 -49 93 -64c37 -15 77 -23 122 -23s85 7 122 22c36 15 67 35 93 62s46 59 61 95c14 38 21 78 21 123s-7 85 -21 123c-15 36 -35 68 -61 95s-57 47 -93 62c-37 15 -77 22 -122 22zM346 973l86 -190h-42l-90 165z" />
    <glyph glyph-name="Oacute" unicode="&#xd3;" horiz-adv-x="820" 
d="M410 684c51 0 98 -9 142 -26c42 -18 80 -43 110 -74c32 -31 56 -68 72 -110c18 -43 26 -89 26 -139c0 -48 -8 -93 -26 -136c-16 -43 -40 -80 -72 -111c-30 -31 -68 -56 -110 -74c-44 -19 -91 -28 -142 -28c-52 0 -100 9 -142 27c-44 18 -80 43 -111 75
c-31 31 -55 68 -71 110c-18 43 -26 88 -26 137s9 94 26 137s42 80 72 111c32 31 68 56 112 74c42 18 89 27 140 27zM410 637c-46 0 -87 -8 -124 -23s-68 -36 -94 -64c-25 -26 -45 -58 -58 -96c-14 -36 -21 -76 -21 -119s7 -83 21 -120c15 -37 35 -69 61 -95
c26 -28 57 -49 93 -64c37 -15 77 -23 122 -23s85 7 122 22c36 15 67 35 93 62s46 59 61 95c14 38 21 78 21 123s-7 85 -21 123c-15 36 -35 68 -61 95s-57 47 -93 62c-37 15 -77 22 -122 22zM526 948l-90 -165h-42l86 190z" />
    <glyph glyph-name="Ocircumflex" unicode="&#xd4;" horiz-adv-x="820" 
d="M410 684c51 0 98 -9 142 -26c42 -18 80 -43 110 -74c32 -31 56 -68 72 -110c18 -43 26 -89 26 -139c0 -48 -8 -93 -26 -136c-16 -43 -40 -80 -72 -111c-30 -31 -68 -56 -110 -74c-44 -19 -91 -28 -142 -28c-52 0 -100 9 -142 27c-44 18 -80 43 -111 75
c-31 31 -55 68 -71 110c-18 43 -26 88 -26 137s9 94 26 137s42 80 72 111c32 31 68 56 112 74c42 18 89 27 140 27zM410 637c-46 0 -87 -8 -124 -23s-68 -36 -94 -64c-25 -26 -45 -58 -58 -96c-14 -36 -21 -76 -21 -119s7 -83 21 -120c15 -37 35 -69 61 -95
c26 -28 57 -49 93 -64c37 -15 77 -23 122 -23s85 7 122 22c36 15 67 35 93 62s46 59 61 95c14 38 21 78 21 123s-7 85 -21 123c-15 36 -35 68 -61 95s-57 47 -93 62c-37 15 -77 22 -122 22zM421 923l128 -124v-10l-24 -23l-115 106l-115 -106l-24 23v10l129 124h21z" />
    <glyph glyph-name="Otilde" unicode="&#xd5;" horiz-adv-x="820" 
d="M410 684c51 0 98 -9 142 -26c42 -18 80 -43 110 -74c32 -31 56 -68 72 -110c18 -43 26 -89 26 -139c0 -48 -8 -93 -26 -136c-16 -43 -40 -80 -72 -111c-30 -31 -68 -56 -110 -74c-44 -19 -91 -28 -142 -28c-52 0 -100 9 -142 27c-44 18 -80 43 -111 75
c-31 31 -55 68 -71 110c-18 43 -26 88 -26 137s9 94 26 137s42 80 72 111c32 31 68 56 112 74c42 18 89 27 140 27zM410 637c-46 0 -87 -8 -124 -23s-68 -36 -94 -64c-25 -26 -45 -58 -58 -96c-14 -36 -21 -76 -21 -119s7 -83 21 -120c15 -37 35 -69 61 -95
c26 -28 57 -49 93 -64c37 -15 77 -23 122 -23s85 7 122 22c36 15 67 35 93 62s46 59 61 95c14 38 21 78 21 123s-7 85 -21 123c-15 36 -35 68 -61 95s-57 47 -93 62c-37 15 -77 22 -122 22zM231 822c13 21 29 36 47 48c19 10 41 16 68 16c15 0 29 -3 41 -9s23 -13 35 -19
c10 -8 22 -14 32 -20c12 -6 24 -9 37 -9c16 0 29 3 39 10c11 7 20 16 27 29l33 -28c-21 -37 -55 -56 -102 -56c-17 0 -31 3 -43 9s-23 13 -35 19c-10 8 -22 14 -33 20s-24 9 -39 9c-18 0 -33 -4 -44 -12c-12 -8 -23 -19 -32 -32z" />
    <glyph glyph-name="Odieresis" unicode="&#xd6;" horiz-adv-x="820" 
d="M410 684c51 0 98 -9 142 -26c42 -18 80 -43 110 -74c32 -31 56 -68 72 -110c18 -43 26 -89 26 -139c0 -48 -8 -93 -26 -136c-16 -43 -40 -80 -72 -111c-30 -31 -68 -56 -110 -74c-44 -19 -91 -28 -142 -28c-52 0 -100 9 -142 27c-44 18 -80 43 -111 75
c-31 31 -55 68 -71 110c-18 43 -26 88 -26 137s9 94 26 137s42 80 72 111c32 31 68 56 112 74c42 18 89 27 140 27zM410 637c-46 0 -87 -8 -124 -23s-68 -36 -94 -64c-25 -26 -45 -58 -58 -96c-14 -36 -21 -76 -21 -119s7 -83 21 -120c15 -37 35 -69 61 -95
c26 -28 57 -49 93 -64c37 -15 77 -23 122 -23s85 7 122 22c36 15 67 35 93 62s46 59 61 95c14 38 21 78 21 123s-7 85 -21 123c-15 36 -35 68 -61 95s-57 47 -93 62c-37 15 -77 22 -122 22zM281 887c14 0 26 -5 36 -15c10 -9 15 -21 15 -34s-5 -25 -15 -34
c-10 -10 -22 -15 -36 -15s-26 5 -36 15c-10 9 -15 21 -15 34s5 25 15 34c10 10 22 15 36 15zM540 887c14 0 26 -5 36 -15c10 -9 15 -21 15 -34s-5 -25 -15 -34c-10 -10 -22 -15 -36 -15s-26 5 -36 15c-10 9 -15 21 -15 34s5 25 15 34c10 10 22 15 36 15z" />
    <glyph glyph-name="multiply" unicode="&#xd7;" horiz-adv-x="486" 
d="M243 373l123 123l30 -30l-123 -123l123 -123l-31 -30l-122 123l-123 -123l-30 30l123 123l-123 125l31 30z" />
    <glyph glyph-name="Oslash" unicode="&#xd8;" horiz-adv-x="820" 
d="M697 690l-60 -83c39 -32 69 -71 91 -117c21 -47 32 -98 32 -155c0 -48 -8 -93 -26 -136c-16 -43 -40 -80 -72 -111c-30 -31 -68 -56 -110 -74c-44 -19 -91 -28 -142 -28c-35 0 -68 4 -99 12s-59 20 -85 35l-64 -89l-40 28l64 89c-40 32 -71 71 -93 119
c-22 46 -33 98 -33 155c0 49 9 94 26 137s42 80 72 111c32 31 68 56 112 74c42 18 89 27 140 27c36 0 70 -4 100 -13c32 -9 60 -21 87 -37l60 85zM570 596c-23 13 -47 24 -74 30c-27 8 -55 11 -86 11c-46 0 -87 -8 -124 -23s-68 -36 -94 -64c-25 -26 -45 -58 -58 -96
c-14 -36 -21 -76 -21 -119c0 -49 9 -93 27 -133c17 -40 42 -74 74 -101zM254 73c45 -27 97 -40 156 -40c45 0 85 7 122 22c36 15 67 35 93 62s46 59 61 95c14 38 21 78 21 123c0 49 -9 94 -25 133c-18 39 -42 73 -73 100z" />
    <glyph glyph-name="Ugrave" unicode="&#xd9;" horiz-adv-x="758" 
d="M142 670v-359c0 -91 21 -160 64 -207c43 -48 100 -72 173 -72c35 0 67 6 97 16c28 12 54 28 74 51c22 23 38 51 49 86s17 76 17 124v361h52v-359c0 -49 -6 -94 -18 -134c-13 -40 -31 -74 -56 -103c-24 -28 -54 -50 -90 -65s-78 -23 -125 -23s-88 8 -124 22
c-36 16 -66 37 -91 64c-24 28 -42 62 -55 102c-13 39 -19 84 -19 133v363h52zM324 973l86 -190h-42l-90 165z" />
    <glyph glyph-name="Uacute" unicode="&#xda;" horiz-adv-x="758" 
d="M142 670v-359c0 -91 21 -160 64 -207c43 -48 100 -72 173 -72c35 0 67 6 97 16c28 12 54 28 74 51c22 23 38 51 49 86s17 76 17 124v361h52v-359c0 -49 -6 -94 -18 -134c-13 -40 -31 -74 -56 -103c-24 -28 -54 -50 -90 -65s-78 -23 -125 -23s-88 8 -124 22
c-36 16 -66 37 -91 64c-24 28 -42 62 -55 102c-13 39 -19 84 -19 133v363h52zM482 948l-90 -165h-42l86 190z" />
    <glyph glyph-name="Ucircumflex" unicode="&#xdb;" horiz-adv-x="758" 
d="M142 670v-359c0 -91 21 -160 64 -207c43 -48 100 -72 173 -72c35 0 67 6 97 16c28 12 54 28 74 51c22 23 38 51 49 86s17 76 17 124v361h52v-359c0 -49 -6 -94 -18 -134c-13 -40 -31 -74 -56 -103c-24 -28 -54 -50 -90 -65s-78 -23 -125 -23s-88 8 -124 22
c-36 16 -66 37 -91 64c-24 28 -42 62 -55 102c-13 39 -19 84 -19 133v363h52zM390 923l128 -124v-10l-24 -23l-115 106l-115 -106l-24 23v10l129 124h21z" />
    <glyph glyph-name="Udieresis" unicode="&#xdc;" horiz-adv-x="758" 
d="M142 670v-359c0 -91 21 -160 64 -207c43 -48 100 -72 173 -72c35 0 67 6 97 16c28 12 54 28 74 51c22 23 38 51 49 86s17 76 17 124v361h52v-359c0 -49 -6 -94 -18 -134c-13 -40 -31 -74 -56 -103c-24 -28 -54 -50 -90 -65s-78 -23 -125 -23s-88 8 -124 22
c-36 16 -66 37 -91 64c-24 28 -42 62 -55 102c-13 39 -19 84 -19 133v363h52zM250 887c14 0 26 -5 36 -15c10 -9 15 -21 15 -34s-5 -25 -15 -34c-10 -10 -22 -15 -36 -15s-26 5 -36 15c-10 9 -15 21 -15 34s5 25 15 34c10 10 22 15 36 15zM509 887c14 0 26 -5 36 -15
c10 -9 15 -21 15 -34s-5 -25 -15 -34c-10 -10 -22 -15 -36 -15s-26 5 -36 15c-10 9 -15 21 -15 34s5 25 15 34c10 10 22 15 36 15z" />
    <glyph glyph-name="Yacute" unicode="&#xdd;" horiz-adv-x="706" 
d="M106 670l244 -417h10l240 417h61l-282 -475v-195h-52v195l-282 475h61zM466 948l-90 -165h-42l86 190z" />
    <glyph glyph-name="Thorn" unicode="&#xde;" horiz-adv-x="639" 
d="M142 684v-108h200c36 0 69 -5 100 -16c30 -11 56 -26 78 -46c22 -19 39 -43 51 -70s18 -58 18 -91c0 -35 -7 -67 -20 -95c-13 -29 -32 -53 -55 -72c-24 -19 -52 -34 -83 -44c-31 -11 -65 -16 -101 -16h-188v-126h-52v684h52zM142 172h186c63 0 114 16 152 47
s57 76 57 133s-17 100 -53 132c-34 30 -84 46 -149 46h-193v-358z" />
    <glyph glyph-name="germandbls" unicode="&#xdf;" horiz-adv-x="680" 
d="M80 559c0 30 4 57 13 81c9 25 21 46 36 64c15 17 34 31 56 40c22 10 46 15 73 15c28 0 52 -4 74 -11c20 -8 38 -19 52 -32c15 -13 26 -29 33 -46s11 -36 11 -56c0 -30 -6 -55 -18 -75s-29 -37 -50 -52c-20 -14 -35 -28 -44 -41c-9 -14 -14 -30 -14 -48
c0 -24 8 -42 25 -55s45 -23 86 -31l57 -11c57 -11 98 -30 122 -56c26 -26 38 -59 38 -99c0 -23 -5 -44 -16 -63c-10 -19 -24 -36 -42 -50c-19 -14 -41 -25 -67 -33s-55 -12 -87 -12c-33 0 -65 4 -94 11c-30 7 -60 21 -90 40l22 41c25 -17 51 -29 78 -36c28 -8 56 -12 84 -12
c50 0 89 10 118 31s43 47 43 80s-10 58 -29 75s-50 30 -92 37l-56 10c-49 9 -86 23 -111 44s-38 50 -38 89c0 47 24 86 71 119c17 12 31 25 40 40s14 34 14 57c0 26 -10 49 -29 70c-19 20 -49 30 -89 30c-42 0 -74 -14 -96 -42c-23 -27 -34 -65 -34 -113v-559h-50v559z" />
    <glyph glyph-name="agrave" unicode="&#xe0;" 
d="M96 466c32 19 64 34 96 42c33 10 68 14 106 14c77 0 134 -16 170 -50c37 -32 55 -80 55 -143v-217c0 -29 5 -49 15 -60c11 -11 23 -17 37 -17c5 0 10 0 15 1s9 2 12 3l7 -37c-12 -7 -26 -10 -42 -10c-25 0 -45 7 -60 22c-15 14 -24 39 -27 76c-21 -32 -51 -57 -89 -75
s-83 -27 -134 -27c-29 0 -56 4 -81 12c-24 7 -45 18 -62 32s-31 31 -40 52s-14 44 -14 70c0 48 19 87 56 118c38 31 92 46 163 46c33 0 66 -3 101 -10c35 -6 66 -15 94 -27v44c0 101 -58 152 -174 152c-67 0 -129 -16 -185 -48zM475 237c-27 12 -57 21 -91 28
c-32 7 -66 10 -101 10c-31 0 -57 -3 -78 -9c-21 -7 -39 -16 -53 -26c-13 -12 -23 -24 -30 -40c-6 -14 -9 -31 -9 -48c0 -37 14 -66 41 -88c28 -20 67 -31 116 -31c25 0 50 4 75 11c25 8 47 19 66 33s35 31 47 51c11 20 17 43 17 68v41zM335 632h-43l-81 139l47 26z" />
    <glyph glyph-name="aacute" unicode="&#xe1;" 
d="M96 466c32 19 64 34 96 42c33 10 68 14 106 14c77 0 134 -16 170 -50c37 -32 55 -80 55 -143v-217c0 -29 5 -49 15 -60c11 -11 23 -17 37 -17c5 0 10 0 15 1s9 2 12 3l7 -37c-12 -7 -26 -10 -42 -10c-25 0 -45 7 -60 22c-15 14 -24 39 -27 76c-21 -32 -51 -57 -89 -75
s-83 -27 -134 -27c-29 0 -56 4 -81 12c-24 7 -45 18 -62 32s-31 31 -40 52s-14 44 -14 70c0 48 19 87 56 118c38 31 92 46 163 46c33 0 66 -3 101 -10c35 -6 66 -15 94 -27v44c0 101 -58 152 -174 152c-67 0 -129 -16 -185 -48zM475 237c-27 12 -57 21 -91 28
c-32 7 -66 10 -101 10c-31 0 -57 -3 -78 -9c-21 -7 -39 -16 -53 -26c-13 -12 -23 -24 -30 -40c-6 -14 -9 -31 -9 -48c0 -37 14 -66 41 -88c28 -20 67 -31 116 -31c25 0 50 4 75 11c25 8 47 19 66 33s35 31 47 51c11 20 17 43 17 68v41zM411 771l-81 -139h-43l77 165z" />
    <glyph glyph-name="acircumflex" unicode="&#xe2;" 
d="M96 466c32 19 64 34 96 42c33 10 68 14 106 14c77 0 134 -16 170 -50c37 -32 55 -80 55 -143v-217c0 -29 5 -49 15 -60c11 -11 23 -17 37 -17c5 0 10 0 15 1s9 2 12 3l7 -37c-12 -7 -26 -10 -42 -10c-25 0 -45 7 -60 22c-15 14 -24 39 -27 76c-21 -32 -51 -57 -89 -75
s-83 -27 -134 -27c-29 0 -56 4 -81 12c-24 7 -45 18 -62 32s-31 31 -40 52s-14 44 -14 70c0 48 19 87 56 118c38 31 92 46 163 46c33 0 66 -3 101 -10c35 -6 66 -15 94 -27v44c0 101 -58 152 -174 152c-67 0 -129 -16 -185 -48zM475 237c-27 12 -57 21 -91 28
c-32 7 -66 10 -101 10c-31 0 -57 -3 -78 -9c-21 -7 -39 -16 -53 -26c-13 -12 -23 -24 -30 -40c-6 -14 -9 -31 -9 -48c0 -37 14 -66 41 -88c28 -20 67 -31 116 -31c25 0 50 4 75 11c25 8 47 19 66 33s35 31 47 51c11 20 17 43 17 68v41zM314 706l-110 -96l-24 23v10l124 119
h21l123 -119v-10l-24 -23z" />
    <glyph glyph-name="atilde" unicode="&#xe3;" 
d="M96 466c32 19 64 34 96 42c33 10 68 14 106 14c77 0 134 -16 170 -50c37 -32 55 -80 55 -143v-217c0 -29 5 -49 15 -60c11 -11 23 -17 37 -17c5 0 10 0 15 1s9 2 12 3l7 -37c-12 -7 -26 -10 -42 -10c-25 0 -45 7 -60 22c-15 14 -24 39 -27 76c-21 -32 -51 -57 -89 -75
s-83 -27 -134 -27c-29 0 -56 4 -81 12c-24 7 -45 18 -62 32s-31 31 -40 52s-14 44 -14 70c0 48 19 87 56 118c38 31 92 46 163 46c33 0 66 -3 101 -10c35 -6 66 -15 94 -27v44c0 101 -58 152 -174 152c-67 0 -129 -16 -185 -48zM475 237c-27 12 -57 21 -91 28
c-32 7 -66 10 -101 10c-31 0 -57 -3 -78 -9c-21 -7 -39 -16 -53 -26c-13 -12 -23 -24 -30 -40c-6 -14 -9 -31 -9 -48c0 -37 14 -66 41 -88c28 -20 67 -31 116 -31c25 0 50 4 75 11c25 8 47 19 66 33s35 31 47 51c11 20 17 43 17 68v41zM138 661c11 21 26 37 44 49
c18 10 40 16 67 16c15 0 29 -3 40 -9s22 -13 32 -19c10 -8 20 -14 31 -20c10 -6 22 -9 35 -9c15 0 28 3 39 9c12 6 22 15 29 28l33 -26c-19 -37 -53 -56 -101 -56c-18 0 -33 3 -45 9c-11 6 -22 13 -32 19c-10 8 -20 14 -31 20s-23 9 -38 9c-17 0 -31 -4 -41 -11
c-12 -7 -22 -18 -31 -32z" />
    <glyph glyph-name="adieresis" unicode="&#xe4;" 
d="M96 466c32 19 64 34 96 42c33 10 68 14 106 14c77 0 134 -16 170 -50c37 -32 55 -80 55 -143v-217c0 -29 5 -49 15 -60c11 -11 23 -17 37 -17c5 0 10 0 15 1s9 2 12 3l7 -37c-12 -7 -26 -10 -42 -10c-25 0 -45 7 -60 22c-15 14 -24 39 -27 76c-21 -32 -51 -57 -89 -75
s-83 -27 -134 -27c-29 0 -56 4 -81 12c-24 7 -45 18 -62 32s-31 31 -40 52s-14 44 -14 70c0 48 19 87 56 118c38 31 92 46 163 46c33 0 66 -3 101 -10c35 -6 66 -15 94 -27v44c0 101 -58 152 -174 152c-67 0 -129 -16 -185 -48zM475 237c-27 12 -57 21 -91 28
c-32 7 -66 10 -101 10c-31 0 -57 -3 -78 -9c-21 -7 -39 -16 -53 -26c-13 -12 -23 -24 -30 -40c-6 -14 -9 -31 -9 -48c0 -37 14 -66 41 -88c28 -20 67 -31 116 -31c25 0 50 4 75 11c25 8 47 19 66 33s35 31 47 51c11 20 17 43 17 68v41zM193 728c14 0 25 -4 34 -13
s13 -19 13 -32s-4 -23 -13 -32s-20 -13 -34 -13s-25 4 -34 13s-13 19 -13 32s4 23 13 32s20 13 34 13zM431 728c14 0 25 -4 34 -13s13 -19 13 -32s-4 -23 -13 -32s-20 -13 -34 -13s-25 4 -34 13s-13 19 -13 32s4 23 13 32s20 13 34 13z" />
    <glyph glyph-name="aring" unicode="&#xe5;" 
d="M96 466c32 19 64 34 96 42c33 10 68 14 106 14c77 0 134 -16 170 -50c37 -32 55 -80 55 -143v-217c0 -29 5 -49 15 -60c11 -11 23 -17 37 -17c5 0 10 0 15 1s9 2 12 3l7 -37c-12 -7 -26 -10 -42 -10c-25 0 -45 7 -60 22c-15 14 -24 39 -27 76c-21 -32 -51 -57 -89 -75
s-83 -27 -134 -27c-29 0 -56 4 -81 12c-24 7 -45 18 -62 32s-31 31 -40 52s-14 44 -14 70c0 48 19 87 56 118c38 31 92 46 163 46c33 0 66 -3 101 -10c35 -6 66 -15 94 -27v44c0 101 -58 152 -174 152c-67 0 -129 -16 -185 -48zM475 237c-27 12 -57 21 -91 28
c-32 7 -66 10 -101 10c-31 0 -57 -3 -78 -9c-21 -7 -39 -16 -53 -26c-13 -12 -23 -24 -30 -40c-6 -14 -9 -31 -9 -48c0 -37 14 -66 41 -88c28 -20 67 -31 116 -31c25 0 50 4 75 11c25 8 47 19 66 33s35 31 47 51c11 20 17 43 17 68v41zM314 818c17 0 33 -3 47 -10
c14 -6 26 -14 35 -24c10 -10 18 -22 22 -34c6 -14 8 -26 8 -39s-3 -27 -8 -39c-5 -14 -13 -25 -22 -35c-10 -10 -22 -18 -36 -24s-29 -9 -46 -9c-18 0 -34 3 -48 9s-26 14 -36 24c-9 10 -16 21 -22 35c-4 12 -7 26 -7 39s3 25 8 39c5 12 13 24 23 34c9 10 21 18 35 24
c14 7 30 10 47 10zM314 779c-22 0 -39 -7 -51 -19c-12 -14 -18 -30 -18 -49c0 -20 6 -36 19 -49c12 -13 29 -19 50 -19s37 6 50 19s19 29 19 49s-7 36 -19 49c-14 13 -30 19 -50 19z" />
    <glyph glyph-name="ae" unicode="&#xe6;" horiz-adv-x="997" 
d="M505 237c3 -65 23 -115 61 -150c36 -35 87 -53 152 -53c31 0 62 4 92 13c31 9 61 23 90 44l24 -39c-31 -23 -63 -39 -97 -49s-71 -15 -111 -15c-53 0 -98 10 -137 32c-39 20 -69 50 -91 89c-11 -22 -26 -41 -44 -57c-18 -15 -38 -28 -59 -37s-43 -16 -67 -21
c-22 -4 -45 -6 -66 -6c-29 0 -56 4 -80 12c-25 7 -46 18 -63 32s-31 31 -40 52s-14 44 -14 70c0 48 19 87 57 118c37 31 91 46 162 46c67 0 128 -12 185 -37v44c0 51 -13 89 -38 114s-67 38 -126 38c-67 0 -129 -16 -185 -48l-19 37c32 19 64 34 97 42c32 10 67 14 105 14
c59 0 105 -11 138 -32c33 -22 56 -52 67 -90c19 39 47 70 84 90c37 22 82 32 134 32c33 0 63 -6 90 -17c28 -11 52 -27 72 -48s36 -45 47 -74s17 -60 17 -94c0 -19 -2 -36 -6 -52h-431zM460 237c-27 12 -56 21 -86 28c-29 7 -61 10 -96 10c-31 0 -57 -3 -78 -9
c-21 -7 -39 -16 -52 -26c-14 -12 -24 -24 -30 -40c-7 -14 -10 -31 -10 -48c0 -37 14 -66 42 -88c27 -20 66 -31 115 -31c25 0 50 4 73 11c24 8 45 19 63 33s32 31 43 51s16 43 16 68v41zM891 283c-1 59 -16 107 -47 142c-30 35 -74 53 -132 53c-61 0 -108 -18 -144 -52
c-34 -36 -55 -83 -62 -143h385z" />
    <glyph glyph-name="ccedilla" unicode="&#xe7;" horiz-adv-x="596" 
d="M502 414c-21 19 -46 35 -75 46s-62 17 -100 17c-30 0 -58 -5 -85 -15s-50 -24 -70 -43s-36 -41 -48 -69c-11 -26 -17 -57 -17 -90c0 -35 5 -66 15 -94c11 -27 26 -51 44 -70c20 -20 43 -35 70 -46s58 -16 93 -16c76 0 138 25 186 74l31 -34c-55 -57 -128 -86 -221 -86
l-4 -49c21 -7 38 -19 51 -37c12 -16 18 -36 18 -59c0 -33 -12 -62 -34 -87c-24 -26 -61 -45 -114 -57l-11 34c43 13 72 28 89 45c16 18 24 38 24 61c0 21 -6 38 -20 51c-12 12 -33 19 -61 20v17l18 33v31c-37 4 -69 14 -97 29s-52 35 -70 58c-20 23 -34 50 -44 80
s-15 62 -15 96c0 41 7 78 21 111s33 61 58 85c25 22 53 40 86 53s68 19 105 19c46 0 87 -7 122 -20s64 -32 86 -55z" />
    <glyph glyph-name="egrave" unicode="&#xe8;" horiz-adv-x="620" 
d="M108 237c3 -65 25 -115 66 -150c40 -35 92 -53 157 -53c36 0 70 4 101 13s62 23 91 44l24 -38c-31 -23 -64 -39 -101 -49c-36 -11 -75 -16 -117 -16c-41 0 -79 6 -113 18c-33 12 -62 30 -86 52c-24 24 -42 52 -56 84c-12 34 -19 71 -19 112c0 39 7 74 19 107
c14 33 32 61 56 85s53 43 86 56c34 13 72 20 113 20c35 0 67 -6 97 -17c28 -11 53 -27 74 -48s37 -45 48 -74s17 -60 17 -94c0 -19 -2 -36 -6 -52h-451zM514 283c-1 59 -17 107 -48 142s-78 53 -141 53c-61 0 -110 -18 -147 -52c-38 -36 -61 -83 -69 -143h405zM356 632h-43
l-81 139l47 26z" />
    <glyph glyph-name="eacute" unicode="&#xe9;" horiz-adv-x="620" 
d="M108 237c3 -65 25 -115 66 -150c40 -35 92 -53 157 -53c36 0 70 4 101 13s62 23 91 44l24 -38c-31 -23 -64 -39 -101 -49c-36 -11 -75 -16 -117 -16c-41 0 -79 6 -113 18c-33 12 -62 30 -86 52c-24 24 -42 52 -56 84c-12 34 -19 71 -19 112c0 39 7 74 19 107
c14 33 32 61 56 85s53 43 86 56c34 13 72 20 113 20c35 0 67 -6 97 -17c28 -11 53 -27 74 -48s37 -45 48 -74s17 -60 17 -94c0 -19 -2 -36 -6 -52h-451zM514 283c-1 59 -17 107 -48 142s-78 53 -141 53c-61 0 -110 -18 -147 -52c-38 -36 -61 -83 -69 -143h405zM449 771
l-81 -139h-43l77 165z" />
    <glyph glyph-name="ecircumflex" unicode="&#xea;" horiz-adv-x="620" 
d="M108 237c3 -65 25 -115 66 -150c40 -35 92 -53 157 -53c36 0 70 4 101 13s62 23 91 44l24 -38c-31 -23 -64 -39 -101 -49c-36 -11 -75 -16 -117 -16c-41 0 -79 6 -113 18c-33 12 -62 30 -86 52c-24 24 -42 52 -56 84c-12 34 -19 71 -19 112c0 39 7 74 19 107
c14 33 32 61 56 85s53 43 86 56c34 13 72 20 113 20c35 0 67 -6 97 -17c28 -11 53 -27 74 -48s37 -45 48 -74s17 -60 17 -94c0 -19 -2 -36 -6 -52h-451zM514 283c-1 59 -17 107 -48 142s-78 53 -141 53c-61 0 -110 -18 -147 -52c-38 -36 -61 -83 -69 -143h405zM330 706
l-110 -96l-24 23v10l124 119h21l123 -119v-10l-24 -23z" />
    <glyph glyph-name="edieresis" unicode="&#xeb;" horiz-adv-x="620" 
d="M108 237c3 -65 25 -115 66 -150c40 -35 92 -53 157 -53c36 0 70 4 101 13s62 23 91 44l24 -38c-31 -23 -64 -39 -101 -49c-36 -11 -75 -16 -117 -16c-41 0 -79 6 -113 18c-33 12 -62 30 -86 52c-24 24 -42 52 -56 84c-12 34 -19 71 -19 112c0 39 7 74 19 107
c14 33 32 61 56 85s53 43 86 56c34 13 72 20 113 20c35 0 67 -6 97 -17c28 -11 53 -27 74 -48s37 -45 48 -74s17 -60 17 -94c0 -19 -2 -36 -6 -52h-451zM514 283c-1 59 -17 107 -48 142s-78 53 -141 53c-61 0 -110 -18 -147 -52c-38 -36 -61 -83 -69 -143h405zM212 728
c14 0 25 -4 34 -13s13 -19 13 -32s-4 -23 -13 -32s-20 -13 -34 -13s-25 4 -34 13s-13 19 -13 32s4 23 13 32s20 13 34 13zM450 728c14 0 25 -4 34 -13s13 -19 13 -32s-4 -23 -13 -32s-20 -13 -34 -13s-25 4 -34 13s-13 19 -13 32s4 23 13 32s20 13 34 13z" />
    <glyph glyph-name="igrave" unicode="&#xec;" horiz-adv-x="212" 
d="M132 510v-510h-52v510h52zM123 632h-43l-81 139l47 26z" />
    <glyph glyph-name="iacute" unicode="&#xed;" horiz-adv-x="212" 
d="M132 510v-510h-52v510h52zM212 771l-81 -139h-43l77 165z" />
    <glyph glyph-name="icircumflex" unicode="&#xee;" horiz-adv-x="212" 
d="M132 510v-510h-52v510h52zM107 706l-110 -96l-24 23v10l124 119h21l123 -119v-10l-24 -23z" />
    <glyph glyph-name="idieresis" unicode="&#xef;" horiz-adv-x="212" 
d="M132 510v-510h-52v510h52zM19 728c14 0 25 -4 34 -13s13 -19 13 -32s-4 -23 -13 -32s-20 -13 -34 -13s-25 4 -34 13s-13 19 -13 32s4 23 13 32s20 13 34 13zM193 728c14 0 25 -4 34 -13s13 -19 13 -32s-4 -23 -13 -32s-20 -13 -34 -13s-25 4 -34 13s-13 19 -13 32
s4 23 13 32s20 13 34 13z" />
    <glyph glyph-name="eth" unicode="&#xf0;" horiz-adv-x="643" 
d="M277 711l54 85l37 -22l-54 -85l69 -41c35 -21 65 -44 91 -66c25 -24 46 -49 64 -78c16 -28 29 -60 38 -96c8 -36 12 -77 12 -123c0 -47 -7 -88 -21 -125s-33 -68 -57 -94c-24 -25 -52 -45 -86 -58c-32 -13 -68 -20 -106 -20c-42 0 -79 6 -112 18s-60 29 -82 51
c-23 22 -40 49 -52 79c-11 32 -17 66 -17 104c0 33 6 65 18 94c12 30 29 56 51 78c23 22 50 40 82 52c32 14 68 20 107 20c24 0 47 -2 68 -8c21 -4 41 -11 59 -20c17 -9 33 -18 46 -29c14 -11 26 -22 35 -34h10c-9 45 -28 84 -55 119c-27 34 -66 66 -117 96l-70 41l-56 -90
l-38 22l57 90l-92 55l25 41zM535 277c-7 27 -18 50 -33 71c-14 21 -31 38 -50 51s-41 23 -64 31c-23 6 -47 10 -72 10c-29 0 -57 -5 -82 -14c-26 -9 -48 -23 -68 -40c-18 -18 -33 -40 -44 -64c-11 -26 -16 -53 -16 -84c0 -65 19 -115 56 -152c38 -36 90 -54 155 -54
c33 0 63 6 89 18c28 12 50 29 70 50c18 22 33 48 44 78c10 30 15 63 15 99z" />
    <glyph glyph-name="ntilde" unicode="&#xf1;" horiz-adv-x="647" 
d="M119 510l8 -149c20 51 49 90 88 119c39 28 88 42 148 42c31 0 59 -5 83 -15c26 -10 47 -24 65 -43s32 -41 41 -68c10 -27 15 -57 15 -90v-306h-51v295c0 63 -14 109 -44 139c-28 28 -69 43 -122 43s-97 -18 -134 -54s-65 -84 -85 -144v-279h-51v510h39zM158 661
c11 21 26 37 44 49c18 10 40 16 67 16c15 0 29 -3 40 -9s22 -13 32 -19c10 -8 20 -14 30 -20c11 -6 23 -9 36 -9c15 0 28 3 40 9c11 6 21 15 28 28l33 -26c-19 -37 -53 -56 -101 -56c-18 0 -33 3 -44 9c-12 6 -23 13 -33 19c-10 8 -20 14 -31 20s-23 9 -38 9
c-17 0 -31 -4 -42 -11c-10 -7 -21 -18 -30 -32z" />
    <glyph glyph-name="ograve" unicode="&#xf2;" horiz-adv-x="662" 
d="M331 522c41 0 79 -7 113 -20s63 -32 87 -56c24 -23 43 -51 56 -84s20 -68 20 -107c0 -37 -7 -72 -21 -105c-13 -33 -32 -61 -57 -85s-54 -43 -87 -57c-34 -13 -71 -20 -111 -20c-41 0 -79 7 -113 20s-63 32 -87 56c-24 23 -43 51 -56 84s-20 68 -20 107c0 37 7 72 21 105
c13 33 32 61 56 85c25 24 54 43 88 57c33 13 70 20 111 20zM331 478c-34 0 -65 -6 -92 -17s-51 -27 -71 -47c-19 -20 -34 -44 -45 -70c-11 -28 -16 -57 -16 -89c0 -33 5 -63 16 -90s26 -51 45 -71c19 -19 43 -34 70 -46c28 -10 59 -16 93 -16s65 6 93 16c27 12 51 27 70 46
c19 20 34 44 45 71s16 57 16 90c0 31 -5 60 -16 87s-26 51 -45 71c-20 20 -44 36 -71 47c-27 12 -58 18 -92 18zM363 632h-43l-81 139l47 26z" />
    <glyph glyph-name="oacute" unicode="&#xf3;" horiz-adv-x="662" 
d="M331 522c41 0 79 -7 113 -20s63 -32 87 -56c24 -23 43 -51 56 -84s20 -68 20 -107c0 -37 -7 -72 -21 -105c-13 -33 -32 -61 -57 -85s-54 -43 -87 -57c-34 -13 -71 -20 -111 -20c-41 0 -79 7 -113 20s-63 32 -87 56c-24 23 -43 51 -56 84s-20 68 -20 107c0 37 7 72 21 105
c13 33 32 61 56 85c25 24 54 43 88 57c33 13 70 20 111 20zM331 478c-34 0 -65 -6 -92 -17s-51 -27 -71 -47c-19 -20 -34 -44 -45 -70c-11 -28 -16 -57 -16 -89c0 -33 5 -63 16 -90s26 -51 45 -71c19 -19 43 -34 70 -46c28 -10 59 -16 93 -16s65 6 93 16c27 12 51 27 70 46
c19 20 34 44 45 71s16 57 16 90c0 31 -5 60 -16 87s-26 51 -45 71c-20 20 -44 36 -71 47c-27 12 -58 18 -92 18zM444 771l-81 -139h-43l77 165z" />
    <glyph glyph-name="ocircumflex" unicode="&#xf4;" horiz-adv-x="662" 
d="M331 522c41 0 79 -7 113 -20s63 -32 87 -56c24 -23 43 -51 56 -84s20 -68 20 -107c0 -37 -7 -72 -21 -105c-13 -33 -32 -61 -57 -85s-54 -43 -87 -57c-34 -13 -71 -20 -111 -20c-41 0 -79 7 -113 20s-63 32 -87 56c-24 23 -43 51 -56 84s-20 68 -20 107c0 37 7 72 21 105
c13 33 32 61 56 85c25 24 54 43 88 57c33 13 70 20 111 20zM331 478c-34 0 -65 -6 -92 -17s-51 -27 -71 -47c-19 -20 -34 -44 -45 -70c-11 -28 -16 -57 -16 -89c0 -33 5 -63 16 -90s26 -51 45 -71c19 -19 43 -34 70 -46c28 -10 59 -16 93 -16s65 6 93 16c27 12 51 27 70 46
c19 20 34 44 45 71s16 57 16 90c0 31 -5 60 -16 87s-26 51 -45 71c-20 20 -44 36 -71 47c-27 12 -58 18 -92 18zM331 706l-110 -96l-24 23v10l124 119h21l123 -119v-10l-24 -23z" />
    <glyph glyph-name="otilde" unicode="&#xf5;" horiz-adv-x="662" 
d="M331 522c41 0 79 -7 113 -20s63 -32 87 -56c24 -23 43 -51 56 -84s20 -68 20 -107c0 -37 -7 -72 -21 -105c-13 -33 -32 -61 -57 -85s-54 -43 -87 -57c-34 -13 -71 -20 -111 -20c-41 0 -79 7 -113 20s-63 32 -87 56c-24 23 -43 51 -56 84s-20 68 -20 107c0 37 7 72 21 105
c13 33 32 61 56 85c25 24 54 43 88 57c33 13 70 20 111 20zM331 478c-34 0 -65 -6 -92 -17s-51 -27 -71 -47c-19 -20 -34 -44 -45 -70c-11 -28 -16 -57 -16 -89c0 -33 5 -63 16 -90s26 -51 45 -71c19 -19 43 -34 70 -46c28 -10 59 -16 93 -16s65 6 93 16c27 12 51 27 70 46
c19 20 34 44 45 71s16 57 16 90c0 31 -5 60 -16 87s-26 51 -45 71c-20 20 -44 36 -71 47c-27 12 -58 18 -92 18zM156 661c11 21 26 37 44 49c18 10 40 16 67 16c15 0 29 -3 40 -9s22 -13 32 -19c10 -8 20 -14 30 -20c11 -6 23 -9 36 -9c15 0 28 3 40 9c11 6 21 15 28 28
l33 -26c-19 -37 -53 -56 -101 -56c-18 0 -33 3 -44 9c-12 6 -23 13 -33 19c-10 8 -20 14 -31 20s-23 9 -38 9c-17 0 -31 -4 -42 -11c-10 -7 -21 -18 -30 -32z" />
    <glyph glyph-name="odieresis" unicode="&#xf6;" horiz-adv-x="662" 
d="M331 522c41 0 79 -7 113 -20s63 -32 87 -56c24 -23 43 -51 56 -84s20 -68 20 -107c0 -37 -7 -72 -21 -105c-13 -33 -32 -61 -57 -85s-54 -43 -87 -57c-34 -13 -71 -20 -111 -20c-41 0 -79 7 -113 20s-63 32 -87 56c-24 23 -43 51 -56 84s-20 68 -20 107c0 37 7 72 21 105
c13 33 32 61 56 85c25 24 54 43 88 57c33 13 70 20 111 20zM331 478c-34 0 -65 -6 -92 -17s-51 -27 -71 -47c-19 -20 -34 -44 -45 -70c-11 -28 -16 -57 -16 -89c0 -33 5 -63 16 -90s26 -51 45 -71c19 -19 43 -34 70 -46c28 -10 59 -16 93 -16s65 6 93 16c27 12 51 27 70 46
c19 20 34 44 45 71s16 57 16 90c0 31 -5 60 -16 87s-26 51 -45 71c-20 20 -44 36 -71 47c-27 12 -58 18 -92 18zM212 728c14 0 25 -4 34 -13s13 -19 13 -32s-4 -23 -13 -32s-20 -13 -34 -13s-25 4 -34 13s-13 19 -13 32s4 23 13 32s20 13 34 13zM450 728c14 0 25 -4 34 -13
s13 -19 13 -32s-4 -23 -13 -32s-20 -13 -34 -13s-25 4 -34 13s-13 19 -13 32s4 23 13 32s20 13 34 13z" />
    <glyph glyph-name="divide" unicode="&#xf7;" horiz-adv-x="470" 
d="M400 367v-45h-330v45h330zM235 205c13 0 24 -4 33 -12c8 -8 12 -19 12 -32s-4 -24 -12 -32c-9 -8 -20 -12 -33 -12s-23 4 -32 12s-13 19 -13 32s4 24 13 32s19 12 32 12zM235 572c13 0 24 -4 33 -12c8 -8 12 -19 12 -32s-4 -24 -12 -32c-9 -8 -20 -12 -33 -12
s-23 4 -32 12s-13 19 -13 32s4 24 13 32s19 12 32 12z" />
    <glyph glyph-name="oslash" unicode="&#xf8;" horiz-adv-x="662" 
d="M539 533l-40 -61c34 -23 61 -54 79 -92c20 -37 29 -79 29 -125c0 -37 -7 -72 -21 -105c-13 -33 -32 -61 -57 -85s-54 -43 -87 -57c-34 -13 -71 -20 -111 -20c-47 0 -90 9 -128 26l-49 -77l-40 26l48 74c-34 24 -60 55 -79 92s-28 79 -28 126c0 37 7 72 21 105
c13 33 32 61 56 85c25 24 54 43 88 57c33 13 70 20 111 20c47 0 89 -9 127 -26l40 62zM228 53c30 -14 64 -21 103 -21c34 0 65 6 93 16c27 12 51 27 70 46c19 20 34 44 45 71s16 57 16 90c0 36 -7 69 -21 100c-15 31 -35 56 -61 76zM432 456c-31 15 -64 22 -101 22
c-34 0 -65 -6 -92 -17s-51 -27 -71 -47c-19 -20 -34 -44 -45 -70c-11 -28 -16 -57 -16 -89c0 -38 7 -72 21 -103s34 -56 59 -75z" />
    <glyph glyph-name="ugrave" unicode="&#xf9;" horiz-adv-x="642" 
d="M131 510v-275c0 -71 14 -122 42 -153c28 -30 67 -46 116 -46c51 0 95 16 134 48c39 31 68 77 88 137v289h51v-510h-39l-8 139c-20 -50 -50 -88 -90 -113s-88 -38 -144 -38c-61 0 -109 20 -146 60c-37 39 -55 96 -55 171v291h51zM355 632h-43l-81 139l47 26z" />
    <glyph glyph-name="uacute" unicode="&#xfa;" horiz-adv-x="642" 
d="M131 510v-275c0 -71 14 -122 42 -153c28 -30 67 -46 116 -46c51 0 95 16 134 48c39 31 68 77 88 137v289h51v-510h-39l-8 139c-20 -50 -50 -88 -90 -113s-88 -38 -144 -38c-61 0 -109 20 -146 60c-37 39 -55 96 -55 171v291h51zM422 771l-81 -139h-43l77 165z" />
    <glyph glyph-name="ucircumflex" unicode="&#xfb;" horiz-adv-x="642" 
d="M131 510v-275c0 -71 14 -122 42 -153c28 -30 67 -46 116 -46c51 0 95 16 134 48c39 31 68 77 88 137v289h51v-510h-39l-8 139c-20 -50 -50 -88 -90 -113s-88 -38 -144 -38c-61 0 -109 20 -146 60c-37 39 -55 96 -55 171v291h51zM321 706l-110 -96l-24 23v10l124 119h21
l123 -119v-10l-24 -23z" />
    <glyph glyph-name="udieresis" unicode="&#xfc;" horiz-adv-x="642" 
d="M131 510v-275c0 -71 14 -122 42 -153c28 -30 67 -46 116 -46c51 0 95 16 134 48c39 31 68 77 88 137v289h51v-510h-39l-8 139c-20 -50 -50 -88 -90 -113s-88 -38 -144 -38c-61 0 -109 20 -146 60c-37 39 -55 96 -55 171v291h51zM202 728c14 0 25 -4 34 -13s13 -19 13 -32
s-4 -23 -13 -32s-20 -13 -34 -13s-25 4 -34 13s-13 19 -13 32s4 23 13 32s20 13 34 13zM440 728c14 0 25 -4 34 -13s13 -19 13 -32s-4 -23 -13 -32s-20 -13 -34 -13s-25 4 -34 13s-13 19 -13 32s4 23 13 32s20 13 34 13z" />
    <glyph glyph-name="yacute" unicode="&#xfd;" horiz-adv-x="625" 
d="M105 510l228 -456h10l178 456h59l-240 -572c-11 -27 -23 -50 -36 -68c-12 -17 -25 -31 -38 -42c-14 -10 -29 -17 -44 -22c-15 -4 -31 -6 -48 -6c-29 0 -54 7 -75 20l15 43c9 -5 20 -8 32 -10c11 -2 22 -3 31 -3c23 0 44 7 61 20c18 14 35 39 50 75l21 49l-264 516h60z
M425 771l-81 -139h-43l77 165z" />
    <glyph glyph-name="thorn" unicode="&#xfe;" horiz-adv-x="645" 
d="M131 710v-304c23 38 52 67 87 86c36 20 80 30 131 30c36 0 69 -6 98 -18s55 -29 76 -52s38 -50 49 -82c12 -32 18 -68 18 -108c0 -45 -8 -84 -22 -118c-16 -35 -35 -64 -60 -86c-24 -24 -52 -41 -84 -52c-32 -12 -65 -18 -99 -18c-22 0 -42 1 -59 4c-17 2 -34 6 -48 12
c-16 5 -30 12 -44 21s-28 19 -43 32v-267h-51v920h51zM131 112c30 -28 60 -48 91 -60c30 -13 64 -19 102 -19c31 0 60 5 86 15c26 11 48 26 68 46c18 20 33 44 44 73s16 61 16 98c0 31 -4 60 -14 86c-8 26 -22 48 -38 67c-18 19 -38 33 -63 44c-25 10 -53 15 -84 15
c-50 0 -92 -13 -127 -41c-35 -26 -62 -62 -81 -107v-217z" />
    <glyph glyph-name="ydieresis" unicode="&#xff;" horiz-adv-x="625" 
d="M105 510l228 -456h10l178 456h59l-240 -572c-11 -27 -23 -50 -36 -68c-12 -17 -25 -31 -38 -42c-14 -10 -29 -17 -44 -22c-15 -4 -31 -6 -48 -6c-29 0 -54 7 -75 20l15 43c9 -5 20 -8 32 -10c11 -2 22 -3 31 -3c23 0 44 7 61 20c18 14 35 39 50 75l21 49l-264 516h60z
M203 728c14 0 25 -4 34 -13s13 -19 13 -32s-4 -23 -13 -32s-20 -13 -34 -13s-25 4 -34 13s-13 19 -13 32s4 23 13 32s20 13 34 13zM441 728c14 0 25 -4 34 -13s13 -19 13 -32s-4 -23 -13 -32s-20 -13 -34 -13s-25 4 -34 13s-13 19 -13 32s4 23 13 32s20 13 34 13z" />
    <glyph glyph-name="Amacron" unicode="&#x100;" horiz-adv-x="749" 
d="M411 672l293 -672h-55l-73 169h-404l-73 -169h-54l293 672h73zM192 216h363l-173 403h-16zM554 861v-45h-359v45h359z" />
    <glyph glyph-name="amacron" unicode="&#x101;" 
d="M96 466c32 19 64 34 96 42c33 10 68 14 106 14c77 0 134 -16 170 -50c37 -32 55 -80 55 -143v-217c0 -29 5 -49 15 -60c11 -11 23 -17 37 -17c5 0 10 0 15 1s9 2 12 3l7 -37c-12 -7 -26 -10 -42 -10c-25 0 -45 7 -60 22c-15 14 -24 39 -27 76c-21 -32 -51 -57 -89 -75
s-83 -27 -134 -27c-29 0 -56 4 -81 12c-24 7 -45 18 -62 32s-31 31 -40 52s-14 44 -14 70c0 48 19 87 56 118c38 31 92 46 163 46c33 0 66 -3 101 -10c35 -6 66 -15 94 -27v44c0 101 -58 152 -174 152c-67 0 -129 -16 -185 -48zM475 237c-27 12 -57 21 -91 28
c-32 7 -66 10 -101 10c-31 0 -57 -3 -78 -9c-21 -7 -39 -16 -53 -26c-13 -12 -23 -24 -30 -40c-6 -14 -9 -31 -9 -48c0 -37 14 -66 41 -88c28 -20 67 -31 116 -31c25 0 50 4 75 11c25 8 47 19 66 33s35 31 47 51c11 20 17 43 17 68v41zM473 704v-45h-327v45h327z" />
    <glyph glyph-name="Abreve" unicode="&#x102;" horiz-adv-x="749" 
d="M411 672l293 -672h-55l-73 169h-404l-73 -169h-54l293 672h73zM192 216h363l-173 403h-16zM272 915c5 -30 16 -52 34 -67s41 -22 68 -22c28 0 51 8 69 22c18 16 29 38 34 67h44c-1 -19 -6 -37 -13 -54c-8 -17 -18 -31 -31 -43s-28 -21 -45 -28c-18 -7 -37 -10 -58 -10
s-40 4 -58 10c-16 8 -31 17 -44 29s-23 26 -30 43c-7 16 -12 34 -14 53h44z" />
    <glyph glyph-name="abreve" unicode="&#x103;" 
d="M96 466c32 19 64 34 96 42c33 10 68 14 106 14c77 0 134 -16 170 -50c37 -32 55 -80 55 -143v-217c0 -29 5 -49 15 -60c11 -11 23 -17 37 -17c5 0 10 0 15 1s9 2 12 3l7 -37c-12 -7 -26 -10 -42 -10c-25 0 -45 7 -60 22c-15 14 -24 39 -27 76c-21 -32 -51 -57 -89 -75
s-83 -27 -134 -27c-29 0 -56 4 -81 12c-24 7 -45 18 -62 32s-31 31 -40 52s-14 44 -14 70c0 48 19 87 56 118c38 31 92 46 163 46c33 0 66 -3 101 -10c35 -6 66 -15 94 -27v44c0 101 -58 152 -174 152c-67 0 -129 -16 -185 -48zM475 237c-27 12 -57 21 -91 28
c-32 7 -66 10 -101 10c-31 0 -57 -3 -78 -9c-21 -7 -39 -16 -53 -26c-13 -12 -23 -24 -30 -40c-6 -14 -9 -31 -9 -48c0 -37 14 -66 41 -88c28 -20 67 -31 116 -31c25 0 50 4 75 11c25 8 47 19 66 33s35 31 47 51c11 20 17 43 17 68v41zM221 743c2 -28 12 -49 29 -61
c18 -14 38 -20 61 -20s43 7 61 20c17 13 27 34 28 61h46c-2 -19 -7 -37 -14 -52c-8 -15 -18 -28 -30 -39c-13 -10 -27 -18 -42 -23c-16 -5 -32 -8 -49 -8s-34 3 -50 7c-16 6 -30 13 -43 24c-12 10 -22 23 -30 38c-7 15 -11 33 -12 53h45z" />
    <glyph glyph-name="Aogonek" unicode="&#x104;" horiz-adv-x="749" 
d="M412 672l288 -663v-9h-8c-16 0 -29 -6 -40 -19s-16 -30 -16 -51c0 -23 6 -42 20 -58c12 -15 33 -25 62 -30l-7 -40c-20 2 -38 7 -53 14s-28 17 -38 28s-18 24 -23 38c-5 13 -8 27 -8 42c0 45 17 77 50 97l-63 148h-404l-73 -169h-54l292 672h75zM192 216h363l-173 403
h-16z" />
    <glyph glyph-name="aogonek" unicode="&#x105;" 
d="M96 466c32 19 64 34 96 42c33 10 68 14 106 14c77 0 134 -16 170 -50c37 -32 55 -80 55 -143v-217c0 -29 5 -49 15 -60c11 -11 23 -17 37 -17c5 0 10 0 15 1s9 2 12 3l7 -37c-23 -1 -42 -9 -56 -24s-21 -32 -21 -52c0 -22 8 -40 22 -55c16 -15 37 -24 66 -29l-7 -40
c-20 2 -38 6 -53 14c-16 6 -30 16 -40 26c-12 12 -20 24 -26 36c-5 14 -8 27 -8 41c0 16 3 32 10 47c6 15 16 28 29 38c-13 6 -24 16 -31 28c-8 14 -13 33 -14 58c-21 -32 -51 -57 -89 -75s-83 -27 -134 -27c-29 0 -56 4 -81 12c-24 7 -45 18 -62 32s-31 31 -40 52
s-14 44 -14 70c0 48 19 87 56 118c38 31 92 46 163 46c33 0 66 -3 101 -10c35 -6 66 -15 94 -27v44c0 101 -58 152 -174 152c-67 0 -129 -16 -185 -48zM475 237c-27 12 -57 21 -91 28c-32 7 -66 10 -101 10c-31 0 -57 -3 -78 -9c-21 -7 -39 -16 -53 -26
c-13 -12 -23 -24 -30 -40c-6 -14 -9 -31 -9 -48c0 -37 14 -66 41 -88c28 -20 67 -31 116 -31c25 0 50 4 75 11c25 8 47 19 66 33s35 31 47 51c11 20 17 43 17 68v41z" />
    <glyph glyph-name="Cacute" unicode="&#x106;" horiz-adv-x="732" 
d="M639 561c-61 51 -135 77 -222 77c-45 0 -86 -7 -123 -22s-69 -35 -96 -62c-27 -26 -48 -58 -62 -95c-16 -37 -23 -79 -23 -124c0 -47 7 -89 23 -126c14 -37 36 -69 62 -95c28 -27 59 -47 96 -61s77 -21 120 -21c47 0 90 8 130 23c38 15 74 37 107 65l31 -35
c-73 -66 -164 -99 -273 -99c-51 0 -99 8 -141 24c-44 16 -80 39 -111 68c-31 30 -55 66 -71 110c-18 42 -26 91 -26 145c0 50 8 96 26 139c16 43 41 80 73 111s71 56 116 74s96 27 152 27c21 0 42 -2 64 -6s43 -10 65 -18c20 -7 40 -16 60 -27c18 -11 36 -22 51 -35z
M522 948l-90 -165h-42l86 190z" />
    <glyph glyph-name="cacute" unicode="&#x107;" horiz-adv-x="596" 
d="M502 414c-21 19 -46 35 -75 46s-62 17 -100 17c-30 0 -58 -5 -85 -15s-50 -24 -70 -43s-36 -41 -48 -69c-11 -26 -17 -57 -17 -90c0 -35 5 -66 15 -94c11 -27 26 -51 44 -70c20 -20 43 -35 70 -46s58 -16 93 -16c76 0 138 25 186 74l31 -34c-55 -57 -128 -86 -221 -86
c-43 0 -82 7 -115 20c-34 14 -62 33 -86 57c-22 24 -40 52 -52 85c-11 32 -17 67 -17 104c0 41 7 78 21 111s33 61 58 85c25 22 53 40 86 53s68 19 105 19c46 0 87 -7 122 -20s64 -32 86 -55zM437 771l-81 -139h-43l77 165z" />
    <glyph glyph-name="Ccircumflex" unicode="&#x108;" horiz-adv-x="732" 
d="M639 561c-61 51 -135 77 -222 77c-45 0 -86 -7 -123 -22s-69 -35 -96 -62c-27 -26 -48 -58 -62 -95c-16 -37 -23 -79 -23 -124c0 -47 7 -89 23 -126c14 -37 36 -69 62 -95c28 -27 59 -47 96 -61s77 -21 120 -21c47 0 90 8 130 23c38 15 74 37 107 65l31 -35
c-73 -66 -164 -99 -273 -99c-51 0 -99 8 -141 24c-44 16 -80 39 -111 68c-31 30 -55 66 -71 110c-18 42 -26 91 -26 145c0 50 8 96 26 139c16 43 41 80 73 111s71 56 116 74s96 27 152 27c21 0 42 -2 64 -6s43 -10 65 -18c20 -7 40 -16 60 -27c18 -11 36 -22 51 -35z
M431 923l128 -124v-10l-24 -23l-115 106l-115 -106l-24 23v10l129 124h21z" />
    <glyph glyph-name="ccircumflex" unicode="&#x109;" horiz-adv-x="596" 
d="M502 414c-21 19 -46 35 -75 46s-62 17 -100 17c-30 0 -58 -5 -85 -15s-50 -24 -70 -43s-36 -41 -48 -69c-11 -26 -17 -57 -17 -90c0 -35 5 -66 15 -94c11 -27 26 -51 44 -70c20 -20 43 -35 70 -46s58 -16 93 -16c76 0 138 25 186 74l31 -34c-55 -57 -128 -86 -221 -86
c-43 0 -82 7 -115 20c-34 14 -62 33 -86 57c-22 24 -40 52 -52 85c-11 32 -17 67 -17 104c0 41 7 78 21 111s33 61 58 85c25 22 53 40 86 53s68 19 105 19c46 0 87 -7 122 -20s64 -32 86 -55zM334 706l-110 -96l-24 23v10l124 119h21l123 -119v-10l-24 -23z" />
    <glyph glyph-name="Cdotaccent" unicode="&#x10a;" horiz-adv-x="732" 
d="M639 561c-61 51 -135 77 -222 77c-45 0 -86 -7 -123 -22s-69 -35 -96 -62c-27 -26 -48 -58 -62 -95c-16 -37 -23 -79 -23 -124c0 -47 7 -89 23 -126c14 -37 36 -69 62 -95c28 -27 59 -47 96 -61s77 -21 120 -21c47 0 90 8 130 23c38 15 74 37 107 65l31 -35
c-73 -66 -164 -99 -273 -99c-51 0 -99 8 -141 24c-44 16 -80 39 -111 68c-31 30 -55 66 -71 110c-18 42 -26 91 -26 145c0 50 8 96 26 139c16 43 41 80 73 111s71 56 116 74s96 27 152 27c21 0 42 -2 64 -6s43 -10 65 -18c20 -7 40 -16 60 -27c18 -11 36 -22 51 -35z
M419 891c15 0 27 -5 37 -15c10 -9 15 -21 15 -36s-5 -27 -15 -36c-10 -10 -22 -15 -37 -15s-27 5 -37 15c-10 9 -15 21 -15 36s5 27 15 36c10 10 22 15 37 15z" />
    <glyph glyph-name="cdotaccent" unicode="&#x10b;" horiz-adv-x="596" 
d="M502 414c-21 19 -46 35 -75 46s-62 17 -100 17c-30 0 -58 -5 -85 -15s-50 -24 -70 -43s-36 -41 -48 -69c-11 -26 -17 -57 -17 -90c0 -35 5 -66 15 -94c11 -27 26 -51 44 -70c20 -20 43 -35 70 -46s58 -16 93 -16c76 0 138 25 186 74l31 -34c-55 -57 -128 -86 -221 -86
c-43 0 -82 7 -115 20c-34 14 -62 33 -86 57c-22 24 -40 52 -52 85c-11 32 -17 67 -17 104c0 41 7 78 21 111s33 61 58 85c25 22 53 40 86 53s68 19 105 19c46 0 87 -7 122 -20s64 -32 86 -55zM340 728c13 0 25 -4 34 -13c10 -9 15 -20 15 -35s-5 -27 -15 -36
c-9 -8 -21 -12 -34 -12s-25 4 -34 12c-10 9 -15 21 -15 36s5 26 15 35c9 9 21 13 34 13z" />
    <glyph glyph-name="Ccaron" unicode="&#x10c;" horiz-adv-x="732" 
d="M639 561c-61 51 -135 77 -222 77c-45 0 -86 -7 -123 -22s-69 -35 -96 -62c-27 -26 -48 -58 -62 -95c-16 -37 -23 -79 -23 -124c0 -47 7 -89 23 -126c14 -37 36 -69 62 -95c28 -27 59 -47 96 -61s77 -21 120 -21c47 0 90 8 130 23c38 15 74 37 107 65l31 -35
c-73 -66 -164 -99 -273 -99c-51 0 -99 8 -141 24c-44 16 -80 39 -111 68c-31 30 -55 66 -71 110c-18 42 -26 91 -26 145c0 50 8 96 26 139c16 43 41 80 73 111s71 56 116 74s96 27 152 27c21 0 42 -2 64 -6s43 -10 65 -18c20 -7 40 -16 60 -27c18 -11 36 -22 51 -35z
M403 769l-128 124v10l24 23l115 -106l115 106l24 -23v-10l-129 -124h-21z" />
    <glyph glyph-name="ccaron" unicode="&#x10d;" horiz-adv-x="596" 
d="M502 414c-21 19 -46 35 -75 46s-62 17 -100 17c-30 0 -58 -5 -85 -15s-50 -24 -70 -43s-36 -41 -48 -69c-11 -26 -17 -57 -17 -90c0 -35 5 -66 15 -94c11 -27 26 -51 44 -70c20 -20 43 -35 70 -46s58 -16 93 -16c76 0 138 25 186 74l31 -34c-55 -57 -128 -86 -221 -86
c-43 0 -82 7 -115 20c-34 14 -62 33 -86 57c-22 24 -40 52 -52 85c-11 32 -17 67 -17 104c0 41 7 78 21 111s33 61 58 85c25 22 53 40 86 53s68 19 105 19c46 0 87 -7 122 -20s64 -32 86 -55zM329 675l110 96l24 -23v-10l-124 -119h-21l-123 119v10l24 23z" />
    <glyph glyph-name="Dcaron" unicode="&#x10e;" horiz-adv-x="735" 
d="M322 670c54 0 103 -8 146 -24c43 -17 80 -40 111 -70c31 -29 54 -65 71 -106c17 -40 25 -86 25 -135s-9 -93 -26 -135c-17 -40 -42 -76 -73 -106c-31 -29 -69 -52 -112 -69c-44 -17 -92 -25 -145 -25h-229v670h232zM142 47h177c44 0 85 7 121 20c38 13 70 33 96 57
c28 26 48 56 64 91c14 35 22 75 22 120c0 47 -7 88 -22 124c-14 36 -34 66 -61 91c-27 24 -59 42 -96 54c-37 13 -79 19 -125 19h-176v-576zM319 769l-128 124v10l24 23l115 -106l115 106l24 -23v-10l-129 -124h-21z" />
    <glyph glyph-name="dcaron" unicode="&#x10f;" horiz-adv-x="803" 
d="M586 720v-720h-39l-8 139c-19 -49 -50 -87 -91 -113c-42 -25 -90 -38 -144 -38c-77 0 -137 23 -182 70c-45 46 -67 111 -67 196c0 41 7 79 21 112s33 62 58 84c24 24 52 41 85 54c33 12 68 18 105 18c44 0 83 -6 118 -18c34 -11 65 -28 93 -50v266h51zM535 406
c-60 48 -127 72 -200 72c-34 0 -65 -5 -93 -15s-52 -25 -72 -44s-36 -43 -46 -71c-12 -28 -17 -60 -17 -96c0 -35 5 -67 15 -94c11 -27 25 -50 44 -69c18 -19 39 -33 64 -42s51 -14 79 -14c57 0 103 16 139 47c37 31 66 75 87 132v194zM732 600c-13 2 -23 7 -31 16
s-12 20 -12 33c0 15 5 27 15 36s22 14 37 14s27 -5 37 -14s15 -21 15 -36c0 -7 -2 -15 -5 -24l-51 -130l-30 10z" />
    <glyph glyph-name="Dcroat" unicode="&#x110;" horiz-adv-x="755" 
d="M342 670c54 0 103 -8 146 -24c43 -17 80 -40 111 -70c31 -29 54 -65 71 -106c17 -40 25 -86 25 -135s-9 -93 -26 -135c-17 -40 -42 -76 -73 -106c-31 -29 -69 -52 -112 -69c-44 -17 -92 -25 -145 -25h-229v312l-75 4v43h75v311h232zM162 359h233v-46h-233v-266h177
c44 0 85 7 121 20c38 13 70 33 96 57c28 26 48 56 64 91c14 35 22 75 22 120c0 47 -7 88 -22 124c-14 36 -34 66 -61 91c-27 24 -59 42 -96 54c-37 13 -79 19 -125 19h-176v-264z" />
    <glyph glyph-name="dcroat" unicode="&#x111;" horiz-adv-x="666" 
d="M586 730v-84h70v-40h-70v-606h-39l-8 139c-19 -49 -50 -87 -91 -113c-42 -25 -90 -38 -144 -38c-77 0 -137 23 -182 70c-45 46 -67 111 -67 196c0 41 7 79 21 112s33 62 58 84c24 24 52 41 85 54c33 12 68 18 105 18c44 0 83 -6 118 -18c34 -11 65 -28 93 -50v152h-172
v40h168l9 84h46zM535 406c-60 48 -127 72 -200 72c-34 0 -65 -5 -93 -15s-52 -25 -72 -44s-36 -43 -46 -71c-12 -28 -17 -60 -17 -96c0 -35 5 -67 15 -94c11 -27 25 -50 44 -69c18 -19 39 -33 64 -42s51 -14 79 -14c57 0 103 16 139 47c37 31 66 75 87 132v194z" />
    <glyph glyph-name="Emacron" unicode="&#x112;" 
d="M560 670v-45h-418v-255h365v-45h-365v-279h437v-46h-489v670h470zM513 861v-45h-359v45h359z" />
    <glyph glyph-name="emacron" unicode="&#x113;" horiz-adv-x="620" 
d="M108 237c3 -65 25 -115 66 -150c40 -35 92 -53 157 -53c36 0 70 4 101 13s62 23 91 44l24 -38c-31 -23 -64 -39 -101 -49c-36 -11 -75 -16 -117 -16c-41 0 -79 6 -113 18c-33 12 -62 30 -86 52c-24 24 -42 52 -56 84c-12 34 -19 71 -19 112c0 39 7 74 19 107
c14 33 32 61 56 85s53 43 86 56c34 13 72 20 113 20c35 0 67 -6 97 -17c28 -11 53 -27 74 -48s37 -45 48 -74s17 -60 17 -94c0 -19 -2 -36 -6 -52h-451zM514 283c-1 59 -17 107 -48 142s-78 53 -141 53c-61 0 -110 -18 -147 -52c-38 -36 -61 -83 -69 -143h405zM509 704v-45
h-327v45h327z" />
    <glyph glyph-name="Ebreve" unicode="&#x114;" 
d="M560 670v-45h-418v-255h365v-45h-365v-279h437v-46h-489v670h470zM229 915c5 -30 16 -52 34 -67s41 -22 68 -22c28 0 51 8 69 22c18 16 29 38 34 67h44c-1 -19 -6 -37 -14 -54c-7 -17 -17 -31 -30 -43s-28 -21 -46 -28c-17 -7 -36 -10 -57 -10s-41 4 -57 10
c-18 8 -32 17 -45 29s-23 26 -30 43c-7 16 -12 34 -14 53h44z" />
    <glyph glyph-name="ebreve" unicode="&#x115;" horiz-adv-x="620" 
d="M108 237c3 -65 25 -115 66 -150c40 -35 92 -53 157 -53c36 0 70 4 101 13s62 23 91 44l24 -38c-31 -23 -64 -39 -101 -49c-36 -11 -75 -16 -117 -16c-41 0 -79 6 -113 18c-33 12 -62 30 -86 52c-24 24 -42 52 -56 84c-12 34 -19 71 -19 112c0 39 7 74 19 107
c14 33 32 61 56 85s53 43 86 56c34 13 72 20 113 20c35 0 67 -6 97 -17c28 -11 53 -27 74 -48s37 -45 48 -74s17 -60 17 -94c0 -19 -2 -36 -6 -52h-451zM514 283c-1 59 -17 107 -48 142s-78 53 -141 53c-61 0 -110 -18 -147 -52c-38 -36 -61 -83 -69 -143h405zM236 743
c2 -28 12 -49 30 -61c17 -14 37 -20 60 -20s43 7 60 20c18 13 28 34 29 61h46c-2 -19 -7 -37 -15 -52c-7 -15 -17 -28 -30 -39c-12 -10 -26 -18 -42 -23c-15 -5 -31 -8 -48 -8s-34 3 -50 7c-16 6 -30 13 -42 24c-13 10 -23 23 -30 38c-8 15 -12 33 -13 53h45z" />
    <glyph glyph-name="Edotaccent" unicode="&#x116;" 
d="M560 670v-45h-418v-255h365v-45h-365v-279h437v-46h-489v670h470zM336 891c15 0 27 -5 37 -15c10 -9 15 -21 15 -36s-5 -27 -15 -36c-10 -10 -22 -15 -37 -15s-27 5 -37 15c-10 9 -15 21 -15 36s5 27 15 36c10 10 22 15 37 15z" />
    <glyph glyph-name="edotaccent" unicode="&#x117;" horiz-adv-x="620" 
d="M108 237c3 -65 25 -115 66 -150c40 -35 92 -53 157 -53c36 0 70 4 101 13s62 23 91 44l24 -38c-31 -23 -64 -39 -101 -49c-36 -11 -75 -16 -117 -16c-41 0 -79 6 -113 18c-33 12 -62 30 -86 52c-24 24 -42 52 -56 84c-12 34 -19 71 -19 112c0 39 7 74 19 107
c14 33 32 61 56 85s53 43 86 56c34 13 72 20 113 20c35 0 67 -6 97 -17c28 -11 53 -27 74 -48s37 -45 48 -74s17 -60 17 -94c0 -19 -2 -36 -6 -52h-451zM514 283c-1 59 -17 107 -48 142s-78 53 -141 53c-61 0 -110 -18 -147 -52c-38 -36 -61 -83 -69 -143h405zM324 728
c13 0 25 -4 34 -13c10 -9 15 -20 15 -35s-5 -27 -15 -36c-9 -8 -21 -12 -34 -12s-25 4 -34 12c-10 9 -15 21 -15 36s5 26 15 35c9 9 21 13 34 13z" />
    <glyph glyph-name="Eogonek" unicode="&#x118;" 
d="M560 670v-45h-418v-255h365v-45h-365v-279h437v-46h-14c-17 0 -31 -6 -41 -19c-12 -13 -17 -29 -17 -48c0 -24 7 -44 20 -60s34 -26 63 -31l-7 -40c-42 3 -73 17 -93 41s-30 52 -30 83s10 56 29 74h-399v670h470z" />
    <glyph glyph-name="eogonek" unicode="&#x119;" horiz-adv-x="620" 
d="M108 237c3 -65 25 -115 66 -150c40 -35 92 -53 157 -53c36 0 70 4 101 13s62 23 91 44l24 -38c-28 -17 -47 -33 -57 -48s-15 -31 -15 -46c0 -22 7 -41 22 -57c15 -15 36 -25 65 -30l-7 -40c-20 2 -38 6 -53 14c-16 6 -30 16 -40 26c-12 12 -20 24 -26 36
c-5 14 -8 27 -8 41c0 9 1 19 2 27c2 10 5 18 10 25c-34 -9 -71 -13 -111 -13c-41 0 -79 6 -113 18c-33 12 -62 30 -86 52c-24 24 -42 52 -56 84c-12 34 -19 71 -19 112c0 39 7 74 19 107c14 33 32 61 56 85s53 43 86 56c34 13 72 20 113 20c35 0 67 -6 97 -17
c28 -11 53 -27 74 -48s37 -45 48 -74s17 -60 17 -94c0 -19 -2 -36 -6 -52h-451zM514 283c-1 59 -17 107 -48 142s-78 53 -141 53c-61 0 -110 -18 -147 -52c-38 -36 -61 -83 -69 -143h405z" />
    <glyph glyph-name="Ecaron" unicode="&#x11a;" 
d="M560 670v-45h-418v-255h365v-45h-365v-279h437v-46h-489v670h470zM322 769l-128 124v10l24 23l115 -106l115 106l24 -23v-10l-129 -124h-21z" />
    <glyph glyph-name="ecaron" unicode="&#x11b;" horiz-adv-x="620" 
d="M108 237c3 -65 25 -115 66 -150c40 -35 92 -53 157 -53c36 0 70 4 101 13s62 23 91 44l24 -38c-31 -23 -64 -39 -101 -49c-36 -11 -75 -16 -117 -16c-41 0 -79 6 -113 18c-33 12 -62 30 -86 52c-24 24 -42 52 -56 84c-12 34 -19 71 -19 112c0 39 7 74 19 107
c14 33 32 61 56 85s53 43 86 56c34 13 72 20 113 20c35 0 67 -6 97 -17c28 -11 53 -27 74 -48s37 -45 48 -74s17 -60 17 -94c0 -19 -2 -36 -6 -52h-451zM514 283c-1 59 -17 107 -48 142s-78 53 -141 53c-61 0 -110 -18 -147 -52c-38 -36 -61 -83 -69 -143h405zM335 675
l110 96l24 -23v-10l-124 -119h-21l-123 119v10l24 23z" />
    <glyph glyph-name="Gcircumflex" unicode="&#x11c;" horiz-adv-x="753" 
d="M683 339v-262c-32 -28 -71 -50 -117 -67c-46 -16 -98 -24 -155 -24c-53 0 -101 8 -143 24c-44 16 -80 39 -111 68c-31 30 -55 66 -71 110c-18 42 -26 91 -26 145c0 49 8 94 26 137c16 43 41 80 72 112c31 31 69 56 114 74c45 19 95 28 150 28c41 0 83 -6 126 -20
c42 -12 79 -31 110 -55l-26 -38c-28 21 -61 38 -98 49c-38 12 -77 18 -117 18c-45 0 -87 -7 -123 -22c-38 -14 -70 -34 -96 -60c-28 -27 -48 -59 -63 -96s-22 -79 -22 -125c0 -47 7 -90 23 -127c14 -38 35 -70 62 -96s58 -46 96 -60c36 -13 77 -20 121 -20c45 0 86 6 123 18
c36 13 67 29 94 49v193l-183 7v40h234zM427 923l128 -124v-10l-24 -23l-115 106l-115 -106l-24 23v10l129 124h21z" />
    <glyph glyph-name="gcircumflex" unicode="&#x11d;" horiz-adv-x="659" 
d="M594 496l-109 -19c17 -17 31 -37 41 -60s15 -46 15 -71c0 -24 -5 -47 -15 -68c-9 -22 -23 -41 -42 -57s-41 -29 -68 -39c-26 -9 -56 -14 -89 -14c-65 0 -116 16 -153 47c-21 -10 -35 -23 -44 -39c-8 -15 -12 -32 -12 -50c0 -30 10 -50 30 -60c20 -9 48 -14 84 -14h177
c31 0 57 -4 79 -12c22 -7 40 -18 55 -30c15 -14 25 -28 33 -45c6 -17 10 -34 10 -53c0 -29 -7 -56 -20 -82c-14 -24 -34 -46 -59 -66c-25 -18 -56 -33 -93 -44c-36 -11 -76 -16 -121 -16c-78 0 -136 15 -175 46s-58 72 -58 123c0 31 6 61 17 87c11 28 27 50 48 67
c-17 10 -31 23 -41 39c-9 15 -14 34 -14 55c0 25 6 48 19 69s32 40 57 57c-19 29 -28 62 -28 99c0 24 4 47 14 68c8 21 22 40 40 56c19 16 42 29 70 38c27 9 59 14 96 14h108l144 13zM163 11c-18 -16 -31 -35 -40 -59c-9 -22 -13 -46 -13 -69c0 -44 16 -77 46 -100
c32 -23 79 -34 142 -34c35 0 66 4 96 11c28 8 53 19 74 34c21 14 37 31 48 50c12 20 18 42 18 66c0 32 -10 56 -30 72s-54 24 -102 24h-170zM327 479c-49 0 -88 -12 -116 -35s-42 -56 -42 -98c0 -40 14 -72 41 -98c28 -24 67 -37 117 -37c23 0 44 3 64 9c20 7 37 16 52 27
s26 25 35 42c8 17 12 36 12 57c0 30 -6 56 -16 76c-12 22 -29 40 -54 57h-93zM334 706l-110 -96l-24 23v10l124 119h21l123 -119v-10l-24 -23z" />
    <glyph glyph-name="Gbreve" unicode="&#x11e;" horiz-adv-x="753" 
d="M683 339v-262c-32 -28 -71 -50 -117 -67c-46 -16 -98 -24 -155 -24c-53 0 -101 8 -143 24c-44 16 -80 39 -111 68c-31 30 -55 66 -71 110c-18 42 -26 91 -26 145c0 49 8 94 26 137c16 43 41 80 72 112c31 31 69 56 114 74c45 19 95 28 150 28c41 0 83 -6 126 -20
c42 -12 79 -31 110 -55l-26 -38c-28 21 -61 38 -98 49c-38 12 -77 18 -117 18c-45 0 -87 -7 -123 -22c-38 -14 -70 -34 -96 -60c-28 -27 -48 -59 -63 -96s-22 -79 -22 -125c0 -47 7 -90 23 -127c14 -38 35 -70 62 -96s58 -46 96 -60c36 -13 77 -20 121 -20c45 0 86 6 123 18
c36 13 67 29 94 49v193l-183 7v40h234zM309 915c5 -30 16 -52 34 -67s41 -22 68 -22c28 0 51 8 69 22c18 16 29 38 34 67h44c-1 -19 -6 -37 -14 -54c-7 -17 -17 -31 -30 -43s-28 -21 -46 -28c-17 -7 -36 -10 -57 -10s-41 4 -57 10c-18 8 -32 17 -45 29s-23 26 -30 43
c-7 16 -12 34 -14 53h44z" />
    <glyph glyph-name="gbreve" unicode="&#x11f;" horiz-adv-x="659" 
d="M594 496l-109 -19c17 -17 31 -37 41 -60s15 -46 15 -71c0 -24 -5 -47 -15 -68c-9 -22 -23 -41 -42 -57s-41 -29 -68 -39c-26 -9 -56 -14 -89 -14c-65 0 -116 16 -153 47c-21 -10 -35 -23 -44 -39c-8 -15 -12 -32 -12 -50c0 -30 10 -50 30 -60c20 -9 48 -14 84 -14h177
c31 0 57 -4 79 -12c22 -7 40 -18 55 -30c15 -14 25 -28 33 -45c6 -17 10 -34 10 -53c0 -29 -7 -56 -20 -82c-14 -24 -34 -46 -59 -66c-25 -18 -56 -33 -93 -44c-36 -11 -76 -16 -121 -16c-78 0 -136 15 -175 46s-58 72 -58 123c0 31 6 61 17 87c11 28 27 50 48 67
c-17 10 -31 23 -41 39c-9 15 -14 34 -14 55c0 25 6 48 19 69s32 40 57 57c-19 29 -28 62 -28 99c0 24 4 47 14 68c8 21 22 40 40 56c19 16 42 29 70 38c27 9 59 14 96 14h108l144 13zM163 11c-18 -16 -31 -35 -40 -59c-9 -22 -13 -46 -13 -69c0 -44 16 -77 46 -100
c32 -23 79 -34 142 -34c35 0 66 4 96 11c28 8 53 19 74 34c21 14 37 31 48 50c12 20 18 42 18 66c0 32 -10 56 -30 72s-54 24 -102 24h-170zM327 479c-49 0 -88 -12 -116 -35s-42 -56 -42 -98c0 -40 14 -72 41 -98c28 -24 67 -37 117 -37c23 0 44 3 64 9c20 7 37 16 52 27
s26 25 35 42c8 17 12 36 12 57c0 30 -6 56 -16 76c-12 22 -29 40 -54 57h-93zM254 743c2 -28 12 -49 30 -61c17 -14 37 -20 60 -20s43 7 60 20c18 13 28 34 29 61h46c-2 -19 -7 -37 -15 -52c-7 -15 -17 -28 -30 -39c-12 -10 -26 -18 -42 -23c-15 -5 -31 -8 -48 -8
s-34 3 -50 7c-16 6 -30 13 -42 24c-13 10 -23 23 -30 38c-8 15 -12 33 -13 53h45z" />
    <glyph glyph-name="Gdotaccent" unicode="&#x120;" horiz-adv-x="753" 
d="M683 339v-262c-32 -28 -71 -50 -117 -67c-46 -16 -98 -24 -155 -24c-53 0 -101 8 -143 24c-44 16 -80 39 -111 68c-31 30 -55 66 -71 110c-18 42 -26 91 -26 145c0 49 8 94 26 137c16 43 41 80 72 112c31 31 69 56 114 74c45 19 95 28 150 28c41 0 83 -6 126 -20
c42 -12 79 -31 110 -55l-26 -38c-28 21 -61 38 -98 49c-38 12 -77 18 -117 18c-45 0 -87 -7 -123 -22c-38 -14 -70 -34 -96 -60c-28 -27 -48 -59 -63 -96s-22 -79 -22 -125c0 -47 7 -90 23 -127c14 -38 35 -70 62 -96s58 -46 96 -60c36 -13 77 -20 121 -20c45 0 86 6 123 18
c36 13 67 29 94 49v193l-183 7v40h234zM417 891c15 0 27 -5 37 -15c10 -9 15 -21 15 -36s-5 -27 -15 -36c-10 -10 -22 -15 -37 -15s-27 5 -37 15c-10 9 -15 21 -15 36s5 27 15 36c10 10 22 15 37 15z" />
    <glyph glyph-name="gdotaccent" unicode="&#x121;" horiz-adv-x="659" 
d="M594 496l-109 -19c17 -17 31 -37 41 -60s15 -46 15 -71c0 -24 -5 -47 -15 -68c-9 -22 -23 -41 -42 -57s-41 -29 -68 -39c-26 -9 -56 -14 -89 -14c-65 0 -116 16 -153 47c-21 -10 -35 -23 -44 -39c-8 -15 -12 -32 -12 -50c0 -30 10 -50 30 -60c20 -9 48 -14 84 -14h177
c31 0 57 -4 79 -12c22 -7 40 -18 55 -30c15 -14 25 -28 33 -45c6 -17 10 -34 10 -53c0 -29 -7 -56 -20 -82c-14 -24 -34 -46 -59 -66c-25 -18 -56 -33 -93 -44c-36 -11 -76 -16 -121 -16c-78 0 -136 15 -175 46s-58 72 -58 123c0 31 6 61 17 87c11 28 27 50 48 67
c-17 10 -31 23 -41 39c-9 15 -14 34 -14 55c0 25 6 48 19 69s32 40 57 57c-19 29 -28 62 -28 99c0 24 4 47 14 68c8 21 22 40 40 56c19 16 42 29 70 38c27 9 59 14 96 14h108l144 13zM163 11c-18 -16 -31 -35 -40 -59c-9 -22 -13 -46 -13 -69c0 -44 16 -77 46 -100
c32 -23 79 -34 142 -34c35 0 66 4 96 11c28 8 53 19 74 34c21 14 37 31 48 50c12 20 18 42 18 66c0 32 -10 56 -30 72s-54 24 -102 24h-170zM327 479c-49 0 -88 -12 -116 -35s-42 -56 -42 -98c0 -40 14 -72 41 -98c28 -24 67 -37 117 -37c23 0 44 3 64 9c20 7 37 16 52 27
s26 25 35 42c8 17 12 36 12 57c0 30 -6 56 -16 76c-12 22 -29 40 -54 57h-93zM333 728c13 0 25 -4 34 -13c10 -9 15 -20 15 -35s-5 -27 -15 -36c-9 -8 -21 -12 -34 -12s-25 4 -34 12c-10 9 -15 21 -15 36s5 26 15 35c9 9 21 13 34 13z" />
    <glyph glyph-name="Gcommaaccent" unicode="&#x122;" horiz-adv-x="753" 
d="M683 339v-262c-32 -28 -71 -50 -117 -67c-46 -16 -98 -24 -155 -24c-53 0 -101 8 -143 24c-44 16 -80 39 -111 68c-31 30 -55 66 -71 110c-18 42 -26 91 -26 145c0 49 8 94 26 137c16 43 41 80 72 112c31 31 69 56 114 74c45 19 95 28 150 28c41 0 83 -6 126 -20
c42 -12 79 -31 110 -55l-26 -38c-28 21 -61 38 -98 49c-38 12 -77 18 -117 18c-45 0 -87 -7 -123 -22c-38 -14 -70 -34 -96 -60c-28 -27 -48 -59 -63 -96s-22 -79 -22 -125c0 -47 7 -90 23 -127c14 -38 35 -70 62 -96s58 -46 96 -60c36 -13 77 -20 121 -20c45 0 86 6 123 18
c36 13 67 29 94 49v193l-183 7v40h234zM397 -186c-13 2 -23 7 -31 16s-12 20 -12 33c0 15 5 27 15 36s22 14 37 14s27 -5 37 -14s15 -21 15 -36c0 -7 -2 -15 -5 -24l-56 -140l-30 10z" />
    <glyph glyph-name="gcommaaccent" unicode="&#x123;" horiz-adv-x="659" 
d="M594 496l-109 -19c17 -17 31 -37 41 -60s15 -46 15 -71c0 -24 -5 -47 -15 -68c-9 -22 -23 -41 -42 -57s-41 -29 -68 -39c-26 -9 -56 -14 -89 -14c-65 0 -116 16 -153 47c-21 -10 -35 -23 -44 -39c-8 -15 -12 -32 -12 -50c0 -30 10 -50 30 -60c20 -9 48 -14 84 -14h177
c31 0 57 -4 79 -12c22 -7 40 -18 55 -30c15 -14 25 -28 33 -45c6 -17 10 -34 10 -53c0 -29 -7 -56 -20 -82c-14 -24 -34 -46 -59 -66c-25 -18 -56 -33 -93 -44c-36 -11 -76 -16 -121 -16c-78 0 -136 15 -175 46s-58 72 -58 123c0 31 6 61 17 87c11 28 27 50 48 67
c-17 10 -31 23 -41 39c-9 15 -14 34 -14 55c0 25 6 48 19 69s32 40 57 57c-19 29 -28 62 -28 99c0 24 4 47 14 68c8 21 22 40 40 56c19 16 42 29 70 38c27 9 59 14 96 14h108l144 13zM163 11c-18 -16 -31 -35 -40 -59c-9 -22 -13 -46 -13 -69c0 -44 16 -77 46 -100
c32 -23 79 -34 142 -34c35 0 66 4 96 11c28 8 53 19 74 34c21 14 37 31 48 50c12 20 18 42 18 66c0 32 -10 56 -30 72s-54 24 -102 24h-170zM327 479c-49 0 -88 -12 -116 -35s-42 -56 -42 -98c0 -40 14 -72 41 -98c28 -24 67 -37 117 -37c23 0 44 3 64 9c20 7 37 16 52 27
s26 25 35 42c8 17 12 36 12 57c0 30 -6 56 -16 76c-12 22 -29 40 -54 57h-93zM349 710c13 -2 23 -7 31 -16s12 -20 12 -33c0 -15 -5 -27 -15 -36s-22 -14 -37 -14s-27 5 -37 14s-15 21 -15 36c0 7 2 15 5 24l51 130l30 -10z" />
    <glyph glyph-name="Hcircumflex" unicode="&#x124;" horiz-adv-x="733" 
d="M142 670v-303h449v303h52v-670h-52v321h-449v-321h-52v670h52zM377 923l128 -124v-10l-24 -23l-115 106l-115 -106l-24 23v10l129 124h21z" />
    <glyph glyph-name="hcircumflex" unicode="&#x125;" horiz-adv-x="647" 
d="M131 720v-347c21 47 49 83 87 109c36 27 85 40 145 40c62 0 111 -19 149 -56c36 -38 55 -91 55 -160v-306h-51v295c0 63 -14 109 -44 139c-28 28 -69 43 -122 43c-51 0 -96 -17 -133 -51c-37 -35 -66 -83 -86 -144v-282h-51v720h51zM110 887l-110 -96l-24 23v10l124 119
h21l123 -119v-10l-24 -23z" />
    <glyph glyph-name="Hbar" unicode="&#x126;" horiz-adv-x="733" 
d="M142 670v-118h449v118h52v-118h70v-45h-70v-507h-52v310h-449v-310h-52v507h-70v45h70v118h52zM142 356h449v151h-449v-151z" />
    <glyph glyph-name="hbar" unicode="&#x127;" horiz-adv-x="647" 
d="M131 730v-84h172v-40h-172v-233c21 47 49 83 87 109c36 27 85 40 145 40c62 0 111 -19 149 -56c36 -38 55 -91 55 -160v-306h-51v295c0 63 -14 109 -44 139c-28 28 -69 43 -122 43c-51 0 -96 -17 -133 -51c-37 -35 -66 -83 -86 -144v-282h-51v606h-70v40h66l9 84h46z" />
    <glyph glyph-name="Itilde" unicode="&#x128;" horiz-adv-x="232" 
d="M142 670v-670h-52v670h52zM-29 833c19 34 48 51 87 51c17 0 31 -3 42 -8c11 -6 22 -12 30 -18l26 -18c8 -6 17 -9 26 -9c23 0 40 9 50 27l30 -26c-17 -31 -43 -46 -79 -46c-16 0 -29 3 -41 8c-10 6 -20 12 -29 18l-25 18c-8 6 -17 9 -28 9c-14 0 -26 -3 -36 -7
c-9 -6 -18 -13 -25 -24z" />
    <glyph glyph-name="itilde" unicode="&#x129;" horiz-adv-x="212" 
d="M132 510v-510h-52v510h52zM-33 667c9 17 21 29 33 38c14 9 30 13 50 13c17 0 30 -3 42 -8l30 -18l24 -18c8 -6 17 -9 26 -9c21 0 36 9 46 27l30 -26c-8 -15 -18 -27 -30 -34c-12 -8 -27 -12 -45 -12c-16 0 -29 3 -40 8c-11 6 -20 12 -29 18l-24 18c-8 6 -17 9 -28 9
c-14 0 -25 -3 -34 -7c-8 -6 -16 -13 -23 -24z" />
    <glyph glyph-name="Imacron" unicode="&#x12a;" horiz-adv-x="232" 
d="M142 670v-670h-52v670h52zM257 861v-45h-279v45h279z" />
    <glyph glyph-name="imacron" unicode="&#x12b;" horiz-adv-x="212" 
d="M132 510v-510h-52v510h52zM221 704v-45h-227v45h227z" />
    <glyph glyph-name="Ibreve" unicode="&#x12c;" horiz-adv-x="232" 
d="M142 670v-670h-52v670h52zM15 915c5 -30 16 -52 34 -67s41 -22 68 -22c28 0 51 8 69 22c18 16 29 38 34 67h44c-1 -19 -6 -37 -14 -54c-7 -17 -17 -31 -30 -43s-28 -21 -46 -28c-17 -7 -36 -10 -57 -10s-41 4 -57 10c-18 8 -32 17 -45 29s-23 26 -30 43
c-7 16 -12 34 -14 53h44z" />
    <glyph glyph-name="ibreve" unicode="&#x12d;" horiz-adv-x="212" 
d="M132 510v-510h-52v510h52zM17 743c2 -28 12 -49 29 -61c18 -14 38 -20 61 -20s43 7 61 20c17 13 27 34 28 61h46c-2 -19 -7 -37 -14 -52c-8 -15 -18 -28 -30 -39c-13 -10 -27 -18 -42 -23c-16 -5 -32 -8 -49 -8s-34 3 -50 7c-16 6 -30 13 -43 24c-12 10 -22 23 -30 38
c-7 15 -11 33 -12 53h45z" />
    <glyph glyph-name="Iogonek" unicode="&#x12e;" horiz-adv-x="232" 
d="M142 670v-670h-9c-13 0 -23 -6 -33 -18c-8 -12 -13 -28 -13 -47c0 -27 7 -48 19 -61c14 -13 34 -22 63 -27l-7 -40c-22 2 -41 7 -56 13c-15 8 -28 16 -38 27c-9 11 -16 23 -21 37c-5 13 -7 27 -7 42c0 25 4 45 12 61c9 16 21 30 38 41v642h52z" />
    <glyph glyph-name="iogonek" unicode="&#x12f;" horiz-adv-x="212" 
d="M132 510v-510h-6c-9 0 -19 -7 -30 -20s-16 -32 -16 -56c0 -22 6 -40 18 -54c11 -14 31 -23 60 -28l-7 -40c-20 2 -37 6 -52 14c-15 6 -27 16 -37 26c-9 12 -16 24 -21 36c-5 14 -7 27 -7 41c0 23 4 43 11 59s19 30 35 43v489h52zM106 728c13 0 25 -4 34 -13
c10 -9 15 -20 15 -35s-5 -27 -15 -36c-9 -8 -21 -12 -34 -12s-25 4 -34 12c-10 9 -15 21 -15 36s5 26 15 35c9 9 21 13 34 13z" />
    <glyph glyph-name="Idotaccent" unicode="&#x130;" horiz-adv-x="232" 
d="M142 670v-670h-52v670h52zM117 891c15 0 27 -5 37 -15c10 -9 15 -21 15 -36s-5 -27 -15 -36c-10 -10 -22 -15 -37 -15s-27 5 -37 15c-10 9 -15 21 -15 36s5 27 15 36c10 10 22 15 37 15z" />
    <glyph glyph-name="dotlessi" unicode="&#x131;" horiz-adv-x="212" 
d="M132 510v-510h-52v510h52z" />
    <glyph glyph-name="Jcircumflex" unicode="&#x134;" horiz-adv-x="541" 
d="M451 670v-437c0 -81 -19 -142 -58 -184s-94 -63 -166 -63c-34 0 -66 5 -97 14c-31 10 -59 25 -85 45l25 40c48 -35 100 -53 157 -53c25 0 47 4 69 10c20 8 39 19 54 34s27 35 36 59s13 53 13 86v449h52zM435 923l128 -124v-10l-24 -23l-115 106l-115 -106l-24 23v10
l129 124h21z" />
    <glyph glyph-name="jcircumflex" unicode="&#x135;" horiz-adv-x="221" 
d="M141 510v-559c0 -60 -15 -108 -43 -144c-30 -36 -72 -54 -129 -54c-21 0 -43 3 -63 7c-22 6 -41 13 -59 24l21 41c31 -17 64 -26 99 -26c38 0 68 12 90 37s33 64 33 117v557h51zM115 706l-110 -96l-24 23v10l124 119h21l123 -119v-10l-24 -23z" />
    <glyph glyph-name="Kcommaaccent" unicode="&#x136;" horiz-adv-x="680" 
d="M142 670v-293l153 8l243 285h66l-265 -307l291 -363h-67l-267 335h-154v-335h-52v670h52zM324 -166c-13 2 -23 7 -31 16s-12 20 -12 33c0 15 5 27 15 36s22 14 37 14s27 -5 37 -14s15 -21 15 -36c0 -7 -2 -15 -5 -24l-56 -140l-30 10z" />
    <glyph glyph-name="kcommaaccent" unicode="&#x137;" horiz-adv-x="584" 
d="M131 720v-431l142 10l178 211h67l-195 -229l226 -281h-67l-198 249h-153v-249h-51v720h51zM292 -188c-13 2 -23 7 -31 16s-12 20 -12 33c0 15 5 27 15 36s22 14 37 14s27 -5 37 -14s15 -21 15 -36c0 -7 -2 -15 -5 -24l-51 -130l-30 10z" />
    <glyph glyph-name="kgreenlandic" unicode="&#x138;" horiz-adv-x="584" 
d="M131 510v-220l142 8l178 212h67l-197 -229l228 -281h-67l-200 249h-151v-249h-51v510h51z" />
    <glyph glyph-name="Lacute" unicode="&#x139;" horiz-adv-x="618" 
d="M142 670v-623h421v-47h-473v670h52zM254 948l-90 -165h-42l86 190z" />
    <glyph glyph-name="lacute" unicode="&#x13a;" horiz-adv-x="211" 
d="M131 720v-720h-51v720h51zM220 945l-81 -139h-43l77 165z" />
    <glyph glyph-name="Lcommaaccent" unicode="&#x13b;" horiz-adv-x="618" 
d="M142 670v-623h421v-47h-473v670h52zM328 -186c-13 2 -23 7 -31 16s-12 20 -12 33c0 15 5 27 15 36s22 14 37 14s27 -5 37 -14s15 -21 15 -36c0 -7 -2 -15 -5 -24l-56 -140l-30 10z" />
    <glyph glyph-name="lcommaaccent" unicode="&#x13c;" horiz-adv-x="211" 
d="M131 720v-720h-51v720h51zM97 -188c-13 2 -23 7 -31 16s-12 20 -12 33c0 15 5 27 15 36s22 14 37 14s27 -5 37 -14s15 -21 15 -36c0 -7 -2 -15 -5 -24l-51 -130l-30 10z" />
    <glyph glyph-name="Lcaron" unicode="&#x13d;" horiz-adv-x="618" 
d="M142 670v-623h421v-47h-473v670h52zM485 475c-13 2 -23 7 -31 16s-12 20 -12 33c0 15 5 27 15 36s22 14 37 14s27 -5 37 -14s15 -21 15 -36c0 -7 -2 -15 -5 -24l-56 -140l-30 10z" />
    <glyph glyph-name="lcaron" unicode="&#x13e;" horiz-adv-x="348" 
d="M131 720v-720h-51v720h51zM277 600c-13 2 -23 7 -31 16s-12 20 -12 33c0 15 5 27 15 36s22 14 37 14s27 -5 37 -14s15 -21 15 -36c0 -7 -2 -15 -5 -24l-51 -130l-30 10z" />
    <glyph glyph-name="Ldot" unicode="&#x13f;" horiz-adv-x="618" 
d="M142 670v-623h421v-47h-473v670h52zM458 464c15 0 27 -5 37 -14c10 -10 15 -22 15 -37s-5 -27 -15 -37c-10 -9 -22 -14 -37 -14s-27 5 -37 14c-10 10 -15 22 -15 37s5 27 15 37c10 9 22 14 37 14z" />
    <glyph glyph-name="ldot" unicode="&#x140;" horiz-adv-x="360" 
d="M131 720v-720h-51v720h51zM277 367c13 0 25 -4 35 -13c9 -9 14 -20 14 -35s-5 -27 -14 -35c-10 -9 -22 -13 -35 -13s-25 4 -35 13c-9 8 -14 20 -14 35s5 26 14 35c10 9 22 13 35 13z" />
    <glyph glyph-name="Lslash" unicode="&#x141;" horiz-adv-x="618" 
d="M142 670v-331l186 78l18 -42l-204 -86v-242h421v-47h-473v263l-61 -16l-13 40l74 30v353h52z" />
    <glyph glyph-name="lslash" unicode="&#x142;" horiz-adv-x="231" 
d="M141 720v-343l84 44l21 -39l-105 -55v-327h-51v300l-84 -43l-21 39l105 54v370h51z" />
    <glyph glyph-name="Nacute" unicode="&#x143;" horiz-adv-x="756" 
d="M666 670v-670h-48l-479 591v-591h-49v670h44l483 -591v591h49zM484 948l-90 -165h-42l86 190z" />
    <glyph glyph-name="nacute" unicode="&#x144;" horiz-adv-x="647" 
d="M119 510l8 -149c20 51 49 90 88 119c39 28 88 42 148 42c31 0 59 -5 83 -15c26 -10 47 -24 65 -43s32 -41 41 -68c10 -27 15 -57 15 -90v-306h-51v295c0 63 -14 109 -44 139c-28 28 -69 43 -122 43s-97 -18 -134 -54s-65 -84 -85 -144v-279h-51v510h39zM453 771l-81 -139
h-43l77 165z" />
    <glyph glyph-name="Ncommaaccent" unicode="&#x145;" horiz-adv-x="756" 
d="M666 670v-670h-48l-479 591v-591h-49v670h44l483 -591v591h49zM369 -166c-13 2 -23 7 -31 16s-12 20 -12 33c0 15 5 27 15 36s22 14 37 14s27 -5 37 -14s15 -21 15 -36c0 -7 -2 -15 -5 -24l-56 -140l-30 10z" />
    <glyph glyph-name="ncommaaccent" unicode="&#x146;" horiz-adv-x="647" 
d="M119 510l8 -149c20 51 49 90 88 119c39 28 88 42 148 42c31 0 59 -5 83 -15c26 -10 47 -24 65 -43s32 -41 41 -68c10 -27 15 -57 15 -90v-306h-51v295c0 63 -14 109 -44 139c-28 28 -69 43 -122 43s-97 -18 -134 -54s-65 -84 -85 -144v-279h-51v510h39zM314 -178
c-13 2 -23 7 -31 16s-12 20 -12 33c0 15 5 27 15 36s22 14 37 14s27 -5 37 -14s15 -21 15 -36c0 -7 -2 -15 -5 -24l-51 -130l-30 10z" />
    <glyph glyph-name="Ncaron" unicode="&#x147;" horiz-adv-x="756" 
d="M666 670v-670h-48l-479 591v-591h-49v670h44l483 -591v591h49zM367 769l-128 124v10l24 23l115 -106l115 106l24 -23v-10l-129 -124h-21z" />
    <glyph glyph-name="ncaron" unicode="&#x148;" horiz-adv-x="647" 
d="M119 510l8 -149c20 51 49 90 88 119c39 28 88 42 148 42c31 0 59 -5 83 -15c26 -10 47 -24 65 -43s32 -41 41 -68c10 -27 15 -57 15 -90v-306h-51v295c0 63 -14 109 -44 139c-28 28 -69 43 -122 43s-97 -18 -134 -54s-65 -84 -85 -144v-279h-51v510h39zM344 675l110 96
l24 -23v-10l-124 -119h-21l-123 119v10l24 23z" />
    <glyph glyph-name="napostrophe" unicode="&#x149;" horiz-adv-x="754" 
d="M226 510l8 -149c20 51 49 90 88 119c39 28 88 42 148 42c31 0 58 -5 84 -15c24 -10 46 -24 64 -43s32 -41 42 -68c9 -27 14 -57 14 -90v-306h-51v295c0 63 -15 109 -43 139c-30 28 -70 43 -123 43s-97 -18 -134 -54s-65 -84 -85 -144v-279h-51v510h39zM64 600
c-13 2 -23 7 -31 16s-12 20 -12 33c0 15 5 27 15 36s22 14 37 14s27 -5 37 -14s15 -21 15 -36c0 -7 -2 -15 -5 -24l-51 -130l-30 10z" />
    <glyph glyph-name="Omacron" unicode="&#x14c;" horiz-adv-x="820" 
d="M410 684c51 0 98 -9 142 -26c42 -18 80 -43 110 -74c32 -31 56 -68 72 -110c18 -43 26 -89 26 -139c0 -48 -8 -93 -26 -136c-16 -43 -40 -80 -72 -111c-30 -31 -68 -56 -110 -74c-44 -19 -91 -28 -142 -28c-52 0 -100 9 -142 27c-44 18 -80 43 -111 75
c-31 31 -55 68 -71 110c-18 43 -26 88 -26 137s9 94 26 137s42 80 72 111c32 31 68 56 112 74c42 18 89 27 140 27zM410 637c-46 0 -87 -8 -124 -23s-68 -36 -94 -64c-25 -26 -45 -58 -58 -96c-14 -36 -21 -76 -21 -119s7 -83 21 -120c15 -37 35 -69 61 -95
c26 -28 57 -49 93 -64c37 -15 77 -23 122 -23s85 7 122 22c36 15 67 35 93 62s46 59 61 95c14 38 21 78 21 123s-7 85 -21 123c-15 36 -35 68 -61 95s-57 47 -93 62c-37 15 -77 22 -122 22zM590 861v-45h-359v45h359z" />
    <glyph glyph-name="omacron" unicode="&#x14d;" horiz-adv-x="662" 
d="M331 522c41 0 79 -7 113 -20s63 -32 87 -56c24 -23 43 -51 56 -84s20 -68 20 -107c0 -37 -7 -72 -21 -105c-13 -33 -32 -61 -57 -85s-54 -43 -87 -57c-34 -13 -71 -20 -111 -20c-41 0 -79 7 -113 20s-63 32 -87 56c-24 23 -43 51 -56 84s-20 68 -20 107c0 37 7 72 21 105
c13 33 32 61 56 85c25 24 54 43 88 57c33 13 70 20 111 20zM331 478c-34 0 -65 -6 -92 -17s-51 -27 -71 -47c-19 -20 -34 -44 -45 -70c-11 -28 -16 -57 -16 -89c0 -33 5 -63 16 -90s26 -51 45 -71c19 -19 43 -34 70 -46c28 -10 59 -16 93 -16s65 6 93 16c27 12 51 27 70 46
c19 20 34 44 45 71s16 57 16 90c0 31 -5 60 -16 87s-26 51 -45 71c-20 20 -44 36 -71 47c-27 12 -58 18 -92 18zM495 704v-45h-327v45h327z" />
    <glyph glyph-name="Obreve" unicode="&#x14e;" horiz-adv-x="820" 
d="M410 684c51 0 98 -9 142 -26c42 -18 80 -43 110 -74c32 -31 56 -68 72 -110c18 -43 26 -89 26 -139c0 -48 -8 -93 -26 -136c-16 -43 -40 -80 -72 -111c-30 -31 -68 -56 -110 -74c-44 -19 -91 -28 -142 -28c-52 0 -100 9 -142 27c-44 18 -80 43 -111 75
c-31 31 -55 68 -71 110c-18 43 -26 88 -26 137s9 94 26 137s42 80 72 111c32 31 68 56 112 74c42 18 89 27 140 27zM410 637c-46 0 -87 -8 -124 -23s-68 -36 -94 -64c-25 -26 -45 -58 -58 -96c-14 -36 -21 -76 -21 -119s7 -83 21 -120c15 -37 35 -69 61 -95
c26 -28 57 -49 93 -64c37 -15 77 -23 122 -23s85 7 122 22c36 15 67 35 93 62s46 59 61 95c14 38 21 78 21 123s-7 85 -21 123c-15 36 -35 68 -61 95s-57 47 -93 62c-37 15 -77 22 -122 22zM308 915c5 -30 16 -52 34 -67s41 -22 68 -22c28 0 51 8 69 22c18 16 29 38 34 67
h44c-1 -19 -6 -37 -13 -54c-8 -17 -18 -31 -31 -43s-28 -21 -45 -28c-18 -7 -37 -10 -58 -10s-40 4 -58 10c-16 8 -31 17 -44 29s-23 26 -30 43c-7 16 -12 34 -14 53h44z" />
    <glyph glyph-name="obreve" unicode="&#x14f;" horiz-adv-x="662" 
d="M331 522c41 0 79 -7 113 -20s63 -32 87 -56c24 -23 43 -51 56 -84s20 -68 20 -107c0 -37 -7 -72 -21 -105c-13 -33 -32 -61 -57 -85s-54 -43 -87 -57c-34 -13 -71 -20 -111 -20c-41 0 -79 7 -113 20s-63 32 -87 56c-24 23 -43 51 -56 84s-20 68 -20 107c0 37 7 72 21 105
c13 33 32 61 56 85c25 24 54 43 88 57c33 13 70 20 111 20zM331 478c-34 0 -65 -6 -92 -17s-51 -27 -71 -47c-19 -20 -34 -44 -45 -70c-11 -28 -16 -57 -16 -89c0 -33 5 -63 16 -90s26 -51 45 -71c19 -19 43 -34 70 -46c28 -10 59 -16 93 -16s65 6 93 16c27 12 51 27 70 46
c19 20 34 44 45 71s16 57 16 90c0 31 -5 60 -16 87s-26 51 -45 71c-20 20 -44 36 -71 47c-27 12 -58 18 -92 18zM241 743c2 -28 12 -49 30 -61c17 -14 37 -20 60 -20s43 7 60 20c18 13 28 34 29 61h46c-2 -19 -7 -37 -15 -52c-7 -15 -17 -28 -30 -39
c-12 -10 -26 -18 -42 -23c-15 -5 -31 -8 -48 -8s-34 3 -50 7c-16 6 -30 13 -42 24c-13 10 -23 23 -30 38c-8 15 -12 33 -13 53h45z" />
    <glyph glyph-name="Ohungarumlaut" unicode="&#x150;" horiz-adv-x="820" 
d="M410 684c51 0 98 -9 142 -26c42 -18 80 -43 110 -74c32 -31 56 -68 72 -110c18 -43 26 -89 26 -139c0 -48 -8 -93 -26 -136c-16 -43 -40 -80 -72 -111c-30 -31 -68 -56 -110 -74c-44 -19 -91 -28 -142 -28c-52 0 -100 9 -142 27c-44 18 -80 43 -111 75
c-31 31 -55 68 -71 110c-18 43 -26 88 -26 137s9 94 26 137s42 80 72 111c32 31 68 56 112 74c42 18 89 27 140 27zM410 637c-46 0 -87 -8 -124 -23s-68 -36 -94 -64c-25 -26 -45 -58 -58 -96c-14 -36 -21 -76 -21 -119s7 -83 21 -120c15 -37 35 -69 61 -95
c26 -28 57 -49 93 -64c37 -15 77 -23 122 -23s85 7 122 22c36 15 67 35 93 62s46 59 61 95c14 38 21 78 21 123s-7 85 -21 123c-15 36 -35 68 -61 95s-57 47 -93 62c-37 15 -77 22 -122 22zM444 948l-65 -165h-41l60 182zM588 922l-77 -139h-44l77 160z" />
    <glyph glyph-name="ohungarumlaut" unicode="&#x151;" horiz-adv-x="662" 
d="M331 522c41 0 79 -7 113 -20s63 -32 87 -56c24 -23 43 -51 56 -84s20 -68 20 -107c0 -37 -7 -72 -21 -105c-13 -33 -32 -61 -57 -85s-54 -43 -87 -57c-34 -13 -71 -20 -111 -20c-41 0 -79 7 -113 20s-63 32 -87 56c-24 23 -43 51 -56 84s-20 68 -20 107c0 37 7 72 21 105
c13 33 32 61 56 85c25 24 54 43 88 57c33 13 70 20 111 20zM331 478c-34 0 -65 -6 -92 -17s-51 -27 -71 -47c-19 -20 -34 -44 -45 -70c-11 -28 -16 -57 -16 -89c0 -33 5 -63 16 -90s26 -51 45 -71c19 -19 43 -34 70 -46c28 -10 59 -16 93 -16s65 6 93 16c27 12 51 27 70 46
c19 20 34 44 45 71s16 57 16 90c0 31 -5 60 -16 87s-26 51 -45 71c-20 20 -44 36 -71 47c-27 12 -58 18 -92 18zM369 786l-72 -154h-41l67 175zM497 756l-79 -124h-41l75 150z" />
    <glyph glyph-name="OE" unicode="&#x152;" horiz-adv-x="1081" 
d="M1067 670v-45h-408v-255h355v-45h-355v-279h427v-46h-479v67c-27 -26 -59 -46 -93 -60c-36 -14 -75 -21 -119 -21c-51 0 -98 9 -139 27s-76 43 -106 75c-28 31 -51 68 -66 110c-16 43 -24 88 -24 137s8 94 24 137s39 80 68 111s65 56 106 74s87 27 137 27
c43 0 83 -7 119 -20c35 -13 66 -32 93 -55v61h460zM607 544c-23 30 -53 53 -87 69c-36 16 -77 24 -125 24c-46 0 -87 -8 -121 -23c-36 -15 -65 -36 -88 -64c-24 -26 -42 -58 -54 -96c-13 -36 -19 -76 -19 -119s6 -83 19 -120s31 -69 55 -95c24 -28 53 -49 89 -64
c34 -15 74 -23 119 -23c49 0 91 9 126 26s63 42 86 74v411z" />
    <glyph glyph-name="oe" unicode="&#x153;" horiz-adv-x="1047" 
d="M560 237c3 -65 23 -115 58 -150s85 -53 150 -53c34 0 66 4 94 13c30 9 59 23 88 44l24 -39c-31 -23 -62 -39 -96 -49c-32 -10 -70 -15 -112 -15c-53 0 -98 11 -137 34s-69 55 -91 96c-20 -39 -49 -71 -88 -94c-38 -24 -83 -36 -134 -36c-41 0 -78 7 -110 20
c-33 13 -60 32 -82 56c-23 23 -40 51 -52 84c-11 33 -17 68 -17 107c0 37 6 72 18 105s29 61 51 85c23 24 50 43 82 57c33 13 69 20 110 20c26 0 51 -4 74 -10c24 -8 46 -17 66 -29c19 -12 36 -26 51 -43s26 -35 35 -54c9 22 20 42 36 58c14 18 32 32 52 44
c19 11 40 20 64 26c22 5 47 8 72 8c33 0 63 -6 90 -17c28 -11 52 -27 72 -48s36 -45 47 -74s17 -60 17 -94c0 -19 -2 -36 -6 -52h-426zM316 478c-34 0 -64 -6 -90 -17s-48 -27 -66 -47c-17 -20 -30 -44 -40 -70c-8 -28 -13 -57 -13 -89c0 -33 5 -63 13 -90
c10 -27 23 -51 40 -71c18 -19 40 -34 66 -46c26 -10 56 -16 90 -16c31 0 60 6 85 16c25 12 47 27 65 46c17 20 31 44 40 71s14 57 14 90c0 31 -4 60 -13 87s-21 51 -39 71c-16 20 -38 36 -63 47c-25 12 -55 18 -89 18zM941 283c-1 59 -16 107 -47 142c-30 35 -74 53 -132 53
c-61 0 -108 -18 -141 -52c-33 -36 -53 -83 -60 -143h380z" />
    <glyph glyph-name="Racute" unicode="&#x154;" horiz-adv-x="672" 
d="M372 670c34 0 66 -5 95 -16c29 -10 55 -24 76 -42c21 -19 38 -41 50 -67s18 -55 18 -87c0 -25 -4 -49 -13 -72s-21 -43 -36 -62c-15 -18 -34 -33 -55 -46s-45 -22 -70 -28l185 -250h-65l-173 239h-242v-239h-52v670h282zM142 285h218c31 0 58 4 83 13s45 21 63 36
c16 15 30 34 38 54c10 22 14 45 14 70c0 53 -18 94 -52 123c-36 29 -83 43 -142 43h-222v-339zM442 948l-90 -165h-42l86 190z" />
    <glyph glyph-name="racute" unicode="&#x155;" horiz-adv-x="534" 
d="M119 510l7 -150c22 55 52 96 88 122c38 27 82 40 135 40c28 0 55 -4 81 -12s49 -20 69 -37l-28 -39c-37 28 -81 42 -132 42s-93 -17 -127 -52c-35 -35 -62 -84 -81 -147v-277h-51v510h39zM433 771l-81 -139h-43l77 165z" />
    <glyph glyph-name="Rcommaaccent" unicode="&#x156;" horiz-adv-x="672" 
d="M372 670c34 0 66 -5 95 -16c29 -10 55 -24 76 -42c21 -19 38 -41 50 -67s18 -55 18 -87c0 -25 -4 -49 -13 -72s-21 -43 -36 -62c-15 -18 -34 -33 -55 -46s-45 -22 -70 -28l185 -250h-65l-173 239h-242v-239h-52v670h282zM142 285h218c31 0 58 4 83 13s45 21 63 36
c16 15 30 34 38 54c10 22 14 45 14 70c0 53 -18 94 -52 123c-36 29 -83 43 -142 43h-222v-339zM338 -166c-13 2 -23 7 -31 16s-12 20 -12 33c0 15 5 27 15 36s22 14 37 14s27 -5 37 -14s15 -21 15 -36c0 -7 -2 -15 -5 -24l-56 -140l-30 10z" />
    <glyph glyph-name="rcommaaccent" unicode="&#x157;" horiz-adv-x="534" 
d="M119 510l7 -150c22 55 52 96 88 122c38 27 82 40 135 40c28 0 55 -4 81 -12s49 -20 69 -37l-28 -39c-37 28 -81 42 -132 42s-93 -17 -127 -52c-35 -35 -62 -84 -81 -147v-277h-51v510h39zM101 -188c-13 2 -23 7 -31 16s-12 20 -12 33c0 15 5 27 15 36s22 14 37 14
s27 -5 37 -14s15 -21 15 -36c0 -7 -2 -15 -5 -24l-51 -130l-30 10z" />
    <glyph glyph-name="Rcaron" unicode="&#x158;" horiz-adv-x="672" 
d="M372 670c34 0 66 -5 95 -16c29 -10 55 -24 76 -42c21 -19 38 -41 50 -67s18 -55 18 -87c0 -25 -4 -49 -13 -72s-21 -43 -36 -62c-15 -18 -34 -33 -55 -46s-45 -22 -70 -28l185 -250h-65l-173 239h-242v-239h-52v670h282zM142 285h218c31 0 58 4 83 13s45 21 63 36
c16 15 30 34 38 54c10 22 14 45 14 70c0 53 -18 94 -52 123c-36 29 -83 43 -142 43h-222v-339zM317 769l-128 124v10l24 23l115 -106l115 106l24 -23v-10l-129 -124h-21z" />
    <glyph glyph-name="rcaron" unicode="&#x159;" horiz-adv-x="534" 
d="M119 510l7 -150c22 55 52 96 88 122c38 27 82 40 135 40c28 0 55 -4 81 -12s49 -20 69 -37l-28 -39c-37 28 -81 42 -132 42s-93 -17 -127 -52c-35 -35 -62 -84 -81 -147v-277h-51v510h39zM322 675l110 96l24 -23v-10l-124 -119h-21l-123 119v10l24 23z" />
    <glyph glyph-name="Sacute" unicode="&#x15a;" horiz-adv-x="654" 
d="M536 576c-28 19 -60 34 -98 46c-36 10 -74 16 -112 16c-34 0 -63 -4 -87 -10c-24 -8 -44 -17 -59 -29c-16 -12 -28 -26 -34 -42c-8 -16 -11 -33 -11 -52c0 -38 12 -67 37 -87c25 -19 61 -33 109 -40l112 -16c64 -9 113 -28 149 -59c34 -31 52 -72 52 -123
c0 -27 -6 -53 -19 -76c-13 -24 -31 -45 -55 -62c-23 -17 -52 -31 -87 -41s-74 -15 -118 -15c-50 0 -96 6 -137 18c-42 11 -83 31 -123 60l27 41c39 -27 76 -46 113 -57c37 -10 77 -15 122 -15c73 0 128 14 167 42s58 64 58 107c0 34 -12 63 -36 87c-25 24 -65 40 -121 47
l-118 16c-123 17 -184 75 -184 172c0 28 6 53 17 76c12 22 29 41 50 56c21 16 47 28 76 36c30 8 63 12 99 12c41 0 83 -6 127 -17c42 -11 80 -29 112 -52zM447 948l-90 -165h-42l86 190z" />
    <glyph glyph-name="sacute" unicode="&#x15b;" horiz-adv-x="572" 
d="M466 428c-57 33 -117 50 -180 50c-55 0 -96 -9 -122 -28c-28 -19 -41 -42 -41 -70c0 -25 8 -44 23 -59s42 -24 79 -28l114 -13c52 -6 94 -20 125 -44c32 -22 48 -56 48 -99c0 -45 -20 -82 -61 -109c-41 -26 -99 -40 -175 -40c-42 0 -81 4 -116 13c-36 9 -71 24 -105 45
l24 43c31 -20 64 -35 97 -43c33 -10 68 -14 105 -14c58 0 103 10 133 29c32 19 47 44 47 75c0 27 -9 48 -27 64c-19 17 -51 28 -96 33l-128 15c-44 5 -78 19 -102 42s-36 53 -36 90c0 19 4 38 13 54c9 18 22 32 39 46c18 12 40 23 68 30c26 8 59 12 96 12s72 -4 108 -13
c34 -9 66 -23 93 -42zM399 771l-81 -139h-43l77 165z" />
    <glyph glyph-name="Scircumflex" unicode="&#x15c;" horiz-adv-x="654" 
d="M536 576c-28 19 -60 34 -98 46c-36 10 -74 16 -112 16c-34 0 -63 -4 -87 -10c-24 -8 -44 -17 -59 -29c-16 -12 -28 -26 -34 -42c-8 -16 -11 -33 -11 -52c0 -38 12 -67 37 -87c25 -19 61 -33 109 -40l112 -16c64 -9 113 -28 149 -59c34 -31 52 -72 52 -123
c0 -27 -6 -53 -19 -76c-13 -24 -31 -45 -55 -62c-23 -17 -52 -31 -87 -41s-74 -15 -118 -15c-50 0 -96 6 -137 18c-42 11 -83 31 -123 60l27 41c39 -27 76 -46 113 -57c37 -10 77 -15 122 -15c73 0 128 14 167 42s58 64 58 107c0 34 -12 63 -36 87c-25 24 -65 40 -121 47
l-118 16c-123 17 -184 75 -184 172c0 28 6 53 17 76c12 22 29 41 50 56c21 16 47 28 76 36c30 8 63 12 99 12c41 0 83 -6 127 -17c42 -11 80 -29 112 -52zM350 923l128 -124v-10l-24 -23l-115 106l-115 -106l-24 23v10l129 124h21z" />
    <glyph glyph-name="scircumflex" unicode="&#x15d;" horiz-adv-x="572" 
d="M466 428c-57 33 -117 50 -180 50c-55 0 -96 -9 -122 -28c-28 -19 -41 -42 -41 -70c0 -25 8 -44 23 -59s42 -24 79 -28l114 -13c52 -6 94 -20 125 -44c32 -22 48 -56 48 -99c0 -45 -20 -82 -61 -109c-41 -26 -99 -40 -175 -40c-42 0 -81 4 -116 13c-36 9 -71 24 -105 45
l24 43c31 -20 64 -35 97 -43c33 -10 68 -14 105 -14c58 0 103 10 133 29c32 19 47 44 47 75c0 27 -9 48 -27 64c-19 17 -51 28 -96 33l-128 15c-44 5 -78 19 -102 42s-36 53 -36 90c0 19 4 38 13 54c9 18 22 32 39 46c18 12 40 23 68 30c26 8 59 12 96 12s72 -4 108 -13
c34 -9 66 -23 93 -42zM295 706l-110 -96l-24 23v10l124 119h21l123 -119v-10l-24 -23z" />
    <glyph glyph-name="Scedilla" unicode="&#x15e;" horiz-adv-x="654" 
d="M536 576c-28 19 -60 34 -98 46c-36 10 -74 16 -112 16c-34 0 -63 -4 -87 -10c-24 -8 -44 -17 -59 -29c-16 -12 -28 -26 -34 -42c-8 -16 -11 -33 -11 -52c0 -38 12 -67 37 -87c25 -19 61 -33 109 -40l112 -16c64 -9 113 -28 149 -59c34 -31 52 -72 52 -123
c0 -27 -6 -52 -18 -74c-12 -24 -29 -44 -52 -61c-22 -17 -49 -31 -82 -41c-33 -11 -70 -17 -111 -18l-3 -49c23 -7 42 -20 54 -37c14 -17 20 -37 20 -60c0 -35 -12 -66 -36 -93s-62 -47 -115 -60l-15 36c43 11 73 27 92 47s28 42 28 66c0 23 -8 40 -23 51s-37 17 -65 20v20
l18 33v27c-43 2 -84 9 -121 21c-37 11 -74 30 -110 56l27 41c39 -27 76 -46 113 -57c37 -10 77 -15 122 -15c73 0 128 14 167 42s58 64 58 107c0 34 -12 63 -36 87c-25 24 -65 40 -121 47l-118 16c-123 17 -184 75 -184 172c0 28 6 53 17 76c12 22 29 41 50 56
c21 16 47 28 76 36c30 8 63 12 99 12c41 0 83 -6 127 -17c42 -11 80 -29 112 -52z" />
    <glyph glyph-name="scedilla" unicode="&#x15f;" horiz-adv-x="572" 
d="M466 428c-57 33 -117 50 -180 50c-55 0 -96 -9 -122 -28c-28 -19 -41 -42 -41 -70c0 -25 8 -44 23 -59s42 -24 79 -28l114 -13c52 -6 94 -20 125 -44c32 -22 48 -56 48 -99c0 -44 -19 -79 -58 -106c-38 -27 -93 -41 -164 -43l-4 -49c21 -7 38 -19 50 -37
c13 -16 19 -36 19 -59c0 -33 -11 -62 -35 -87c-22 -26 -60 -45 -113 -57l-11 34c43 13 72 28 88 45c17 18 25 38 25 61c0 21 -7 38 -19 51c-14 12 -34 19 -62 20v17l18 33v29c-36 1 -69 6 -100 15s-61 23 -91 42l24 43c31 -20 64 -35 97 -43c33 -10 68 -14 105 -14
c58 0 103 10 133 29c32 19 47 44 47 75c0 27 -9 48 -27 64c-19 17 -51 28 -96 33l-128 15c-44 5 -78 19 -102 42s-36 53 -36 90c0 19 4 38 13 54c9 18 22 32 39 46c18 12 40 23 68 30c26 8 59 12 96 12s72 -4 108 -13c34 -9 66 -23 93 -42z" />
    <glyph glyph-name="Scaron" unicode="&#x160;" horiz-adv-x="654" 
d="M536 576c-28 19 -60 34 -98 46c-36 10 -74 16 -112 16c-34 0 -63 -4 -87 -10c-24 -8 -44 -17 -59 -29c-16 -12 -28 -26 -34 -42c-8 -16 -11 -33 -11 -52c0 -38 12 -67 37 -87c25 -19 61 -33 109 -40l112 -16c64 -9 113 -28 149 -59c34 -31 52 -72 52 -123
c0 -27 -6 -53 -19 -76c-13 -24 -31 -45 -55 -62c-23 -17 -52 -31 -87 -41s-74 -15 -118 -15c-50 0 -96 6 -137 18c-42 11 -83 31 -123 60l27 41c39 -27 76 -46 113 -57c37 -10 77 -15 122 -15c73 0 128 14 167 42s58 64 58 107c0 34 -12 63 -36 87c-25 24 -65 40 -121 47
l-118 16c-123 17 -184 75 -184 172c0 28 6 53 17 76c12 22 29 41 50 56c21 16 47 28 76 36c30 8 63 12 99 12c41 0 83 -6 127 -17c42 -11 80 -29 112 -52zM324 769l-128 124v10l24 23l115 -106l115 106l24 -23v-10l-129 -124h-21z" />
    <glyph glyph-name="scaron" unicode="&#x161;" horiz-adv-x="572" 
d="M466 428c-57 33 -117 50 -180 50c-55 0 -96 -9 -122 -28c-28 -19 -41 -42 -41 -70c0 -25 8 -44 23 -59s42 -24 79 -28l114 -13c52 -6 94 -20 125 -44c32 -22 48 -56 48 -99c0 -45 -20 -82 -61 -109c-41 -26 -99 -40 -175 -40c-42 0 -81 4 -116 13c-36 9 -71 24 -105 45
l24 43c31 -20 64 -35 97 -43c33 -10 68 -14 105 -14c58 0 103 10 133 29c32 19 47 44 47 75c0 27 -9 48 -27 64c-19 17 -51 28 -96 33l-128 15c-44 5 -78 19 -102 42s-36 53 -36 90c0 19 4 38 13 54c9 18 22 32 39 46c18 12 40 23 68 30c26 8 59 12 96 12s72 -4 108 -13
c34 -9 66 -23 93 -42zM292 675l110 96l24 -23v-10l-124 -119h-21l-123 119v10l24 23z" />
    <glyph glyph-name="Tcedilla" unicode="&#x162;" horiz-adv-x="696" 
d="M641 670v-46h-267v-633c10 -4 19 -10 28 -19c8 -8 15 -17 20 -27c6 -10 10 -21 14 -32c2 -11 4 -22 4 -33c0 -35 -12 -68 -36 -98s-62 -52 -115 -65l-15 38c43 13 73 31 91 53c18 21 27 44 27 68c0 49 -27 76 -81 81v20l11 28v619h-267v46h586z" />
    <glyph glyph-name="tcedilla" unicode="&#x163;" horiz-adv-x="453" 
d="M125 511l21 150l41 -2l-6 -149h207v-45h-205v-302c0 -47 9 -79 29 -99c18 -18 47 -28 85 -28c40 0 76 12 107 36l24 -39c-17 -14 -36 -25 -60 -33c-22 -7 -46 -11 -71 -12l-4 -49c21 -7 38 -19 51 -37c12 -16 18 -36 18 -59c0 -33 -12 -62 -34 -87
c-24 -26 -61 -45 -114 -57l-11 34c43 13 72 28 89 45c16 18 24 38 24 61c0 21 -6 38 -20 51c-12 12 -33 19 -61 20v17l18 33v32c-39 7 -69 24 -90 52c-21 29 -31 69 -31 121v300h-92v40z" />
    <glyph glyph-name="Tcaron" unicode="&#x164;" horiz-adv-x="696" 
d="M641 670v-46h-267v-624h-52v624h-267v46h586zM337 769l-128 124v10l24 23l115 -106l115 106l24 -23v-10l-129 -124h-21z" />
    <glyph glyph-name="tcaron" unicode="&#x165;" horiz-adv-x="583" 
d="M125 511l21 145l41 -2l-6 -144h207v-45h-205v-302c0 -47 9 -79 29 -99c18 -18 47 -28 85 -28c40 0 76 12 107 36l24 -39c-17 -14 -38 -25 -61 -33s-48 -12 -73 -12c-52 0 -92 14 -120 43s-42 73 -42 134v300h-92v40zM512 600c-13 2 -23 7 -31 16s-12 20 -12 33
c0 15 5 27 15 36s22 14 37 14s27 -5 37 -14s15 -21 15 -36c0 -7 -2 -15 -5 -24l-51 -130l-30 10z" />
    <glyph glyph-name="Utilde" unicode="&#x168;" horiz-adv-x="758" 
d="M142 670v-359c0 -91 21 -160 64 -207c43 -48 100 -72 173 -72c35 0 67 6 97 16c28 12 54 28 74 51c22 23 38 51 49 86s17 76 17 124v361h52v-359c0 -49 -6 -94 -18 -134c-13 -40 -31 -74 -56 -103c-24 -28 -54 -50 -90 -65s-78 -23 -125 -23s-88 8 -124 22
c-36 16 -66 37 -91 64c-24 28 -42 62 -55 102c-13 39 -19 84 -19 133v363h52zM200 822c13 21 29 36 48 48c18 10 40 16 67 16c15 0 29 -3 41 -9s24 -13 34 -19c12 -8 22 -14 34 -20c10 -6 23 -9 36 -9c16 0 29 3 40 10c10 7 19 16 26 29l33 -28c-21 -37 -55 -56 -102 -56
c-17 0 -31 3 -43 9s-24 13 -34 19c-12 8 -23 14 -34 20s-24 9 -39 9c-18 0 -33 -4 -45 -12c-11 -8 -22 -19 -31 -32z" />
    <glyph glyph-name="utilde" unicode="&#x169;" horiz-adv-x="642" 
d="M131 510v-275c0 -71 14 -122 42 -153c28 -30 67 -46 116 -46c51 0 95 16 134 48c39 31 68 77 88 137v289h51v-510h-39l-8 139c-20 -50 -50 -88 -90 -113s-88 -38 -144 -38c-61 0 -109 20 -146 60c-37 39 -55 96 -55 171v291h51zM146 661c11 21 26 37 44 49
c18 10 40 16 67 16c15 0 29 -3 40 -9s22 -13 32 -19c10 -8 20 -14 30 -20c11 -6 23 -9 36 -9c15 0 28 3 40 9c11 6 21 15 28 28l33 -26c-19 -37 -53 -56 -101 -56c-18 0 -33 3 -44 9c-12 6 -23 13 -33 19c-10 8 -20 14 -31 20s-23 9 -38 9c-17 0 -31 -4 -42 -11
c-10 -7 -21 -18 -30 -32z" />
    <glyph glyph-name="Umacron" unicode="&#x16a;" horiz-adv-x="758" 
d="M142 670v-359c0 -91 21 -160 64 -207c43 -48 100 -72 173 -72c35 0 67 6 97 16c28 12 54 28 74 51c22 23 38 51 49 86s17 76 17 124v361h52v-359c0 -49 -6 -94 -18 -134c-13 -40 -31 -74 -56 -103c-24 -28 -54 -50 -90 -65s-78 -23 -125 -23s-88 8 -124 22
c-36 16 -66 37 -91 64c-24 28 -42 62 -55 102c-13 39 -19 84 -19 133v363h52zM559 861v-45h-359v45h359z" />
    <glyph glyph-name="umacron" unicode="&#x16b;" horiz-adv-x="642" 
d="M131 510v-275c0 -71 14 -122 42 -153c28 -30 67 -46 116 -46c51 0 95 16 134 48c39 31 68 77 88 137v289h51v-510h-39l-8 139c-20 -50 -50 -88 -90 -113s-88 -38 -144 -38c-61 0 -109 20 -146 60c-37 39 -55 96 -55 171v291h51zM485 704v-45h-327v45h327z" />
    <glyph glyph-name="Ubreve" unicode="&#x16c;" horiz-adv-x="758" 
d="M142 670v-359c0 -91 21 -160 64 -207c43 -48 100 -72 173 -72c35 0 67 6 97 16c28 12 54 28 74 51c22 23 38 51 49 86s17 76 17 124v361h52v-359c0 -49 -6 -94 -18 -134c-13 -40 -31 -74 -56 -103c-24 -28 -54 -50 -90 -65s-78 -23 -125 -23s-88 8 -124 22
c-36 16 -66 37 -91 64c-24 28 -42 62 -55 102c-13 39 -19 84 -19 133v363h52zM277 915c5 -30 16 -52 34 -67s41 -22 68 -22c28 0 51 8 69 22c18 16 29 38 34 67h44c-1 -19 -6 -37 -14 -54c-7 -17 -17 -31 -30 -43s-28 -21 -46 -28c-17 -7 -36 -10 -57 -10s-41 4 -57 10
c-18 8 -32 17 -45 29s-23 26 -30 43c-7 16 -12 34 -14 53h44z" />
    <glyph glyph-name="ubreve" unicode="&#x16d;" horiz-adv-x="642" 
d="M131 510v-275c0 -71 14 -122 42 -153c28 -30 67 -46 116 -46c51 0 95 16 134 48c39 31 68 77 88 137v289h51v-510h-39l-8 139c-20 -50 -50 -88 -90 -113s-88 -38 -144 -38c-61 0 -109 20 -146 60c-37 39 -55 96 -55 171v291h51zM231 743c2 -28 12 -49 30 -61
c17 -14 37 -20 60 -20s43 7 60 20c18 13 28 34 29 61h46c-2 -19 -7 -37 -15 -52c-7 -15 -17 -28 -30 -39c-12 -10 -26 -18 -42 -23c-15 -5 -31 -8 -48 -8s-34 3 -50 7c-16 6 -30 13 -42 24c-13 10 -23 23 -30 38c-8 15 -12 33 -13 53h45z" />
    <glyph glyph-name="Uring" unicode="&#x16e;" horiz-adv-x="758" 
d="M142 670v-359c0 -91 21 -160 64 -207c43 -48 100 -72 173 -72c35 0 67 6 97 16c28 12 54 28 74 51c22 23 38 51 49 86s17 76 17 124v361h52v-359c0 -49 -6 -94 -18 -134c-13 -40 -31 -74 -56 -103c-24 -28 -54 -50 -90 -65s-78 -23 -125 -23s-88 8 -124 22
c-36 16 -66 37 -91 64c-24 28 -42 62 -55 102c-13 39 -19 84 -19 133v363h52zM379 983c19 0 36 -3 51 -11c15 -6 28 -16 38 -26c11 -12 19 -24 24 -38c6 -13 9 -27 9 -41c0 -15 -3 -29 -9 -43c-5 -13 -13 -26 -24 -36c-11 -12 -24 -20 -38 -27c-16 -7 -32 -10 -51 -10
s-37 3 -52 10s-28 15 -39 27c-10 10 -18 23 -23 36c-5 14 -8 28 -8 43c0 14 3 28 9 41c5 14 13 26 24 38c11 10 24 20 38 26c16 8 32 11 51 11zM379 943c-23 0 -42 -7 -56 -22s-21 -33 -21 -54c0 -23 7 -41 21 -55s33 -21 56 -21s41 7 55 21c15 14 22 32 22 55
c0 21 -7 39 -22 54s-33 22 -55 22z" />
    <glyph glyph-name="uring" unicode="&#x16f;" horiz-adv-x="642" 
d="M131 510v-275c0 -71 14 -122 42 -153c28 -30 67 -46 116 -46c51 0 95 16 134 48c39 31 68 77 88 137v289h51v-510h-39l-8 139c-20 -50 -50 -88 -90 -113s-88 -38 -144 -38c-61 0 -109 20 -146 60c-37 39 -55 96 -55 171v291h51zM322 818c17 0 33 -3 47 -10
c14 -6 26 -14 36 -24c9 -10 16 -22 22 -34c4 -14 7 -26 7 -39s-3 -27 -8 -39c-5 -14 -13 -25 -23 -35c-9 -10 -21 -18 -35 -24s-29 -9 -46 -9c-18 0 -34 3 -48 9s-26 14 -35 24c-10 10 -18 21 -22 35c-6 12 -8 26 -8 39s3 25 8 39c5 12 13 24 22 34c10 10 22 18 36 24
c14 7 30 10 47 10zM322 779c-22 0 -39 -7 -51 -19c-12 -14 -18 -30 -18 -49c0 -20 6 -36 18 -49c13 -13 30 -19 51 -19s37 6 50 19s19 29 19 49s-6 36 -20 49c-12 13 -29 19 -49 19z" />
    <glyph glyph-name="Uhungarumlaut" unicode="&#x170;" horiz-adv-x="758" 
d="M142 670v-359c0 -91 21 -160 64 -207c43 -48 100 -72 173 -72c35 0 67 6 97 16c28 12 54 28 74 51c22 23 38 51 49 86s17 76 17 124v361h52v-359c0 -49 -6 -94 -18 -134c-13 -40 -31 -74 -56 -103c-24 -28 -54 -50 -90 -65s-78 -23 -125 -23s-88 8 -124 22
c-36 16 -66 37 -91 64c-24 28 -42 62 -55 102c-13 39 -19 84 -19 133v363h52zM395 948l-65 -165h-41l60 182zM539 922l-77 -139h-44l77 160z" />
    <glyph glyph-name="uhungarumlaut" unicode="&#x171;" horiz-adv-x="642" 
d="M131 510v-275c0 -71 14 -122 42 -153c28 -30 67 -46 116 -46c51 0 95 16 134 48c39 31 68 77 88 137v289h51v-510h-39l-8 139c-20 -50 -50 -88 -90 -113s-88 -38 -144 -38c-61 0 -109 20 -146 60c-37 39 -55 96 -55 171v291h51zM347 786l-72 -154h-41l67 175zM475 756
l-79 -124h-41l75 150z" />
    <glyph glyph-name="Uogonek" unicode="&#x172;" horiz-adv-x="758" 
d="M142 670v-359c0 -91 21 -160 64 -207c43 -48 100 -72 173 -72c35 0 67 6 97 16c28 12 54 28 74 51c22 23 38 51 49 86s17 76 17 124v361h52v-359c0 -86 -18 -157 -54 -212s-90 -91 -163 -106c-18 -4 -33 -11 -45 -21c-13 -11 -19 -28 -19 -51c0 -24 6 -44 19 -59
c12 -15 32 -25 61 -30l-7 -40c-21 2 -40 7 -55 14s-28 16 -38 28c-10 10 -17 23 -22 37s-7 28 -7 43c0 28 8 52 24 72c-44 2 -83 11 -117 26c-34 16 -63 38 -85 66c-24 27 -41 60 -52 99c-12 39 -18 82 -18 130v363h52z" />
    <glyph glyph-name="uogonek" unicode="&#x173;" horiz-adv-x="642" 
d="M131 510v-275c0 -71 14 -122 42 -153c28 -30 67 -46 116 -46c51 0 95 16 134 48c39 31 68 77 88 137v289h51v-510c-21 -7 -37 -18 -47 -32c-10 -13 -15 -28 -15 -44c0 -45 29 -73 88 -82l-7 -40c-20 2 -38 6 -53 14c-16 6 -30 16 -40 26c-12 12 -20 24 -26 36
c-5 14 -8 27 -8 41c0 23 6 43 18 61c12 19 29 33 50 42l-7 117c-20 -50 -50 -88 -90 -113s-88 -38 -144 -38c-61 0 -109 20 -146 60c-37 39 -55 96 -55 171v291h51z" />
    <glyph glyph-name="Wcircumflex" unicode="&#x174;" horiz-adv-x="1024" 
d="M102 670l199 -618h10l172 552h56l179 -552h10l195 618h56l-218 -672h-78l-167 518h-10l-161 -518h-78l-222 672h57zM523 923l128 -124v-10l-24 -23l-115 106l-115 -106l-24 23v10l129 124h21z" />
    <glyph glyph-name="wcircumflex" unicode="&#x175;" horiz-adv-x="870" 
d="M99 510l154 -456h10l145 439h55l145 -439h10l154 456h53l-179 -514h-68l-137 419h-12l-138 -419h-67l-179 514h54zM435 706l-110 -96l-24 23v10l124 119h21l123 -119v-10l-24 -23z" />
    <glyph glyph-name="Ycircumflex" unicode="&#x176;" horiz-adv-x="706" 
d="M106 670l244 -417h10l240 417h61l-282 -475v-195h-52v195l-282 475h61zM364 923l128 -124v-10l-24 -23l-115 106l-115 -106l-24 23v10l129 124h21z" />
    <glyph glyph-name="ycircumflex" unicode="&#x177;" horiz-adv-x="625" 
d="M105 510l228 -456h10l178 456h59l-240 -572c-11 -27 -23 -50 -36 -68c-12 -17 -25 -31 -38 -42c-14 -10 -29 -17 -44 -22c-15 -4 -31 -6 -48 -6c-29 0 -54 7 -75 20l15 43c9 -5 20 -8 32 -10c11 -2 22 -3 31 -3c23 0 44 7 61 20c18 14 35 39 50 75l21 49l-264 516h60z
M322 706l-110 -96l-24 23v10l124 119h21l123 -119v-10l-24 -23z" />
    <glyph glyph-name="Ydieresis" unicode="&#x178;" horiz-adv-x="706" 
d="M106 670l244 -417h10l240 417h61l-282 -475v-195h-52v195l-282 475h61zM224 887c14 0 26 -5 36 -15c10 -9 15 -21 15 -34s-5 -25 -15 -34c-10 -10 -22 -15 -36 -15s-26 5 -36 15c-10 9 -15 21 -15 34s5 25 15 34c10 10 22 15 36 15zM483 887c14 0 26 -5 36 -15
c10 -9 15 -21 15 -34s-5 -25 -15 -34c-10 -10 -22 -15 -36 -15s-26 5 -36 15c-10 9 -15 21 -15 34s5 25 15 34c10 10 22 15 36 15z" />
    <glyph glyph-name="Zacute" unicode="&#x179;" horiz-adv-x="670" 
d="M596 670v-44l-463 -580h472v-46h-540v42l469 582h-454v46h516zM435 948l-90 -165h-42l86 190z" />
    <glyph glyph-name="zacute" unicode="&#x17a;" horiz-adv-x="585" 
d="M512 510v-37l-375 -428h378v-45h-450v35l378 430h-359v45h428zM388 771l-81 -139h-43l77 165z" />
    <glyph glyph-name="Zdotaccent" unicode="&#x17b;" horiz-adv-x="670" 
d="M596 670v-44l-463 -580h472v-46h-540v42l469 582h-454v46h516zM335 891c15 0 27 -5 37 -15c10 -9 15 -21 15 -36s-5 -27 -15 -36c-10 -10 -22 -15 -37 -15s-27 5 -37 15c-10 9 -15 21 -15 36s5 27 15 36c10 10 22 15 37 15z" />
    <glyph glyph-name="zdotaccent" unicode="&#x17c;" horiz-adv-x="585" 
d="M512 510v-37l-375 -428h378v-45h-450v35l378 430h-359v45h428zM284 728c13 0 25 -4 34 -13c10 -9 15 -20 15 -35s-5 -27 -15 -36c-9 -8 -21 -12 -34 -12s-25 4 -34 12c-10 9 -15 21 -15 36s5 26 15 35c9 9 21 13 34 13z" />
    <glyph glyph-name="Zcaron" unicode="&#x17d;" horiz-adv-x="670" 
d="M596 670v-44l-463 -580h472v-46h-540v42l469 582h-454v46h516zM324 769l-128 124v10l24 23l115 -106l115 106l24 -23v-10l-129 -124h-21z" />
    <glyph glyph-name="zcaron" unicode="&#x17e;" horiz-adv-x="585" 
d="M512 510v-37l-375 -428h378v-45h-450v35l378 430h-359v45h428zM293 675l110 96l24 -23v-10l-124 -119h-21l-123 119v10l24 23z" />
    <glyph glyph-name="longs" unicode="&#x17f;" horiz-adv-x="241" 
d="M80 567c0 26 3 51 10 74s17 44 32 61c15 18 34 32 58 42c23 10 52 15 85 15c30 0 58 -4 83 -12c26 -8 49 -19 70 -34l-27 -38c-15 11 -34 21 -57 28c-22 7 -45 11 -69 11c-89 0 -134 -48 -134 -144v-570h-51v567z" />
    <glyph glyph-name="Adblgrave" unicode="&#x200;" horiz-adv-x="749" 
d="M411 672l293 -672h-55l-73 169h-404l-73 -169h-54l293 672h73zM192 216h363l-173 403h-16zM450 783h-41l-65 165l46 17zM321 783h-44l-77 139l44 21z" />
    <glyph glyph-name="adblgrave" unicode="&#x201;" 
d="M96 466c32 19 64 34 96 42c33 10 68 14 106 14c77 0 134 -16 170 -50c37 -32 55 -80 55 -143v-217c0 -29 5 -49 15 -60c11 -11 23 -17 37 -17c5 0 10 0 15 1s9 2 12 3l7 -37c-12 -7 -26 -10 -42 -10c-25 0 -45 7 -60 22c-15 14 -24 39 -27 76c-21 -32 -51 -57 -89 -75
s-83 -27 -134 -27c-29 0 -56 4 -81 12c-24 7 -45 18 -62 32s-31 31 -40 52s-14 44 -14 70c0 48 19 87 56 118c38 31 92 46 163 46c33 0 66 -3 101 -10c35 -6 66 -15 94 -27v44c0 101 -58 152 -174 152c-67 0 -129 -16 -185 -48zM475 237c-27 12 -57 21 -91 28
c-32 7 -66 10 -101 10c-31 0 -57 -3 -78 -9c-21 -7 -39 -16 -53 -26c-13 -12 -23 -24 -30 -40c-6 -14 -9 -31 -9 -48c0 -37 14 -66 41 -88c28 -20 67 -31 116 -31c25 0 50 4 75 11c25 8 47 19 66 33s35 31 47 51c11 20 17 43 17 68v41zM387 632h-41l-72 154l46 21zM266 632
h-41l-79 124l45 26z" />
    <glyph glyph-name="Edblgrave" unicode="&#x204;" 
d="M560 670v-45h-418v-255h365v-45h-365v-279h437v-46h-489v670h470zM423 783h-41l-65 165l46 17zM294 783h-44l-77 139l44 21z" />
    <glyph glyph-name="edblgrave" unicode="&#x205;" horiz-adv-x="620" 
d="M108 237c3 -65 25 -115 66 -150c40 -35 92 -53 157 -53c36 0 70 4 101 13s62 23 91 44l24 -38c-31 -23 -64 -39 -101 -49c-36 -11 -75 -16 -117 -16c-41 0 -79 6 -113 18c-33 12 -62 30 -86 52c-24 24 -42 52 -56 84c-12 34 -19 71 -19 112c0 39 7 74 19 107
c14 33 32 61 56 85s53 43 86 56c34 13 72 20 113 20c35 0 67 -6 97 -17c28 -11 53 -27 74 -48s37 -45 48 -74s17 -60 17 -94c0 -19 -2 -36 -6 -52h-451zM514 283c-1 59 -17 107 -48 142s-78 53 -141 53c-61 0 -110 -18 -147 -52c-38 -36 -61 -83 -69 -143h405zM406 632h-41
l-72 154l46 21zM285 632h-41l-79 124l45 26z" />
    <glyph glyph-name="Idblgrave" unicode="&#x208;" horiz-adv-x="232" 
d="M142 670v-670h-52v670h52zM199 783h-41l-65 165l46 17zM70 783h-44l-77 139l44 21z" />
    <glyph glyph-name="idblgrave" unicode="&#x209;" horiz-adv-x="212" 
d="M132 510v-510h-52v510h52zM192 632h-41l-72 154l46 21zM71 632h-41l-79 124l45 26z" />
    <glyph glyph-name="Odblgrave" unicode="&#x20c;" horiz-adv-x="820" 
d="M410 684c51 0 98 -9 142 -26c42 -18 80 -43 110 -74c32 -31 56 -68 72 -110c18 -43 26 -89 26 -139c0 -48 -8 -93 -26 -136c-16 -43 -40 -80 -72 -111c-30 -31 -68 -56 -110 -74c-44 -19 -91 -28 -142 -28c-52 0 -100 9 -142 27c-44 18 -80 43 -111 75
c-31 31 -55 68 -71 110c-18 43 -26 88 -26 137s9 94 26 137s42 80 72 111c32 31 68 56 112 74c42 18 89 27 140 27zM410 637c-46 0 -87 -8 -124 -23s-68 -36 -94 -64c-25 -26 -45 -58 -58 -96c-14 -36 -21 -76 -21 -119s7 -83 21 -120c15 -37 35 -69 61 -95
c26 -28 57 -49 93 -64c37 -15 77 -23 122 -23s85 7 122 22c36 15 67 35 93 62s46 59 61 95c14 38 21 78 21 123s-7 85 -21 123c-15 36 -35 68 -61 95s-57 47 -93 62c-37 15 -77 22 -122 22zM503 783h-41l-65 165l46 17zM374 783h-44l-77 139l44 21z" />
    <glyph glyph-name="odblgrave" unicode="&#x20d;" horiz-adv-x="662" 
d="M331 522c41 0 79 -7 113 -20s63 -32 87 -56c24 -23 43 -51 56 -84s20 -68 20 -107c0 -37 -7 -72 -21 -105c-13 -33 -32 -61 -57 -85s-54 -43 -87 -57c-34 -13 -71 -20 -111 -20c-41 0 -79 7 -113 20s-63 32 -87 56c-24 23 -43 51 -56 84s-20 68 -20 107c0 37 7 72 21 105
c13 33 32 61 56 85c25 24 54 43 88 57c33 13 70 20 111 20zM331 478c-34 0 -65 -6 -92 -17s-51 -27 -71 -47c-19 -20 -34 -44 -45 -70c-11 -28 -16 -57 -16 -89c0 -33 5 -63 16 -90s26 -51 45 -71c19 -19 43 -34 70 -46c28 -10 59 -16 93 -16s65 6 93 16c27 12 51 27 70 46
c19 20 34 44 45 71s16 57 16 90c0 31 -5 60 -16 87s-26 51 -45 71c-20 20 -44 36 -71 47c-27 12 -58 18 -92 18zM414 632h-41l-72 154l46 21zM293 632h-41l-79 124l45 26z" />
    <glyph glyph-name="Rdblgrave" unicode="&#x210;" horiz-adv-x="672" 
d="M372 670c34 0 66 -5 95 -16c29 -10 55 -24 76 -42c21 -19 38 -41 50 -67s18 -55 18 -87c0 -25 -4 -49 -13 -72s-21 -43 -36 -62c-15 -18 -34 -33 -55 -46s-45 -22 -70 -28l185 -250h-65l-173 239h-242v-239h-52v670h282zM142 285h218c31 0 58 4 83 13s45 21 63 36
c16 15 30 34 38 54c10 22 14 45 14 70c0 53 -18 94 -52 123c-36 29 -83 43 -142 43h-222v-339zM419 783h-41l-65 165l46 17zM290 783h-44l-77 139l44 21z" />
    <glyph glyph-name="rdblgrave" unicode="&#x211;" horiz-adv-x="534" 
d="M119 510l7 -150c22 55 52 96 88 122c38 27 82 40 135 40c28 0 55 -4 81 -12s49 -20 69 -37l-28 -39c-37 28 -81 42 -132 42s-93 -17 -127 -52c-35 -35 -62 -84 -81 -147v-277h-51v510h39zM400 632h-41l-72 154l46 21zM279 632h-41l-79 124l45 26z" />
    <glyph glyph-name="Udblgrave" unicode="&#x214;" horiz-adv-x="758" 
d="M142 670v-359c0 -91 21 -160 64 -207c43 -48 100 -72 173 -72c35 0 67 6 97 16c28 12 54 28 74 51c22 23 38 51 49 86s17 76 17 124v361h52v-359c0 -49 -6 -94 -18 -134c-13 -40 -31 -74 -56 -103c-24 -28 -54 -50 -90 -65s-78 -23 -125 -23s-88 8 -124 22
c-36 16 -66 37 -91 64c-24 28 -42 62 -55 102c-13 39 -19 84 -19 133v363h52zM471 783h-41l-65 165l46 17zM342 783h-44l-77 139l44 21z" />
    <glyph glyph-name="udblgrave" unicode="&#x215;" horiz-adv-x="642" 
d="M131 510v-275c0 -71 14 -122 42 -153c28 -30 67 -46 116 -46c51 0 95 16 134 48c39 31 68 77 88 137v289h51v-510h-39l-8 139c-20 -50 -50 -88 -90 -113s-88 -38 -144 -38c-61 0 -109 20 -146 60c-37 39 -55 96 -55 171v291h51zM405 632h-41l-72 154l46 21zM284 632h-41
l-79 124l45 26z" />
    <glyph glyph-name="Scommaaccent" unicode="&#x218;" horiz-adv-x="654" 
d="M536 576c-28 19 -60 34 -98 46c-36 10 -74 16 -112 16c-34 0 -63 -4 -87 -10c-24 -8 -44 -17 -59 -29c-16 -12 -28 -26 -34 -42c-8 -16 -11 -33 -11 -52c0 -38 12 -67 37 -87c25 -19 61 -33 109 -40l112 -16c64 -9 113 -28 149 -59c34 -31 52 -72 52 -123
c0 -27 -6 -53 -19 -76c-13 -24 -31 -45 -55 -62c-23 -17 -52 -31 -87 -41s-74 -15 -118 -15c-50 0 -96 6 -137 18c-42 11 -83 31 -123 60l27 41c39 -27 76 -46 113 -57c37 -10 77 -15 122 -15c73 0 128 14 167 42s58 64 58 107c0 34 -12 63 -36 87c-25 24 -65 40 -121 47
l-118 16c-123 17 -184 75 -184 172c0 28 6 53 17 76c12 22 29 41 50 56c21 16 47 28 76 36c30 8 63 12 99 12c41 0 83 -6 127 -17c42 -11 80 -29 112 -52zM308 -186c-13 2 -23 7 -31 16s-12 20 -12 33c0 15 5 27 15 36s22 14 37 14s27 -5 37 -14s15 -21 15 -36
c0 -7 -2 -15 -5 -24l-56 -140l-30 10z" />
    <glyph glyph-name="scommaaccent" unicode="&#x219;" horiz-adv-x="572" 
d="M466 428c-57 33 -117 50 -180 50c-55 0 -96 -9 -122 -28c-28 -19 -41 -42 -41 -70c0 -25 8 -44 23 -59s42 -24 79 -28l114 -13c52 -6 94 -20 125 -44c32 -22 48 -56 48 -99c0 -45 -20 -82 -61 -109c-41 -26 -99 -40 -175 -40c-42 0 -81 4 -116 13c-36 9 -71 24 -105 45
l24 43c31 -20 64 -35 97 -43c33 -10 68 -14 105 -14c58 0 103 10 133 29c32 19 47 44 47 75c0 27 -9 48 -27 64c-19 17 -51 28 -96 33l-128 15c-44 5 -78 19 -102 42s-36 53 -36 90c0 19 4 38 13 54c9 18 22 32 39 46c18 12 40 23 68 30c26 8 59 12 96 12s72 -4 108 -13
c34 -9 66 -23 93 -42zM267 -188c-13 2 -23 7 -31 16s-12 20 -12 33c0 15 5 27 15 36s22 14 37 14s27 -5 37 -14s15 -21 15 -36c0 -7 -2 -15 -5 -24l-51 -130l-30 10z" />
    <glyph glyph-name="dotlessj" unicode="&#x237;" horiz-adv-x="221" 
d="M141 510v-559c0 -60 -15 -108 -43 -144c-30 -36 -72 -54 -129 -54c-21 0 -43 3 -63 7c-22 6 -41 13 -59 24l21 41c31 -17 64 -26 99 -26c38 0 68 12 90 37s33 64 33 117v557h51z" />
    <glyph glyph-name="circumflex" unicode="&#x2c6;" horiz-adv-x="328" 
d="M164 706l-110 -96l-24 23v10l124 119h21l123 -119v-10l-24 -23z" />
    <glyph glyph-name="caron" unicode="&#x2c7;" horiz-adv-x="328" 
d="M164 675l110 96l24 -23v-10l-124 -119h-21l-123 119v10l24 23z" />
    <glyph glyph-name="breve" unicode="&#x2d8;" horiz-adv-x="400" 
d="M110 743c2 -28 12 -49 30 -61c17 -14 37 -20 60 -20s43 7 60 20c18 13 28 34 29 61h46c-2 -19 -7 -37 -15 -52c-7 -15 -17 -28 -30 -39c-12 -10 -26 -18 -42 -23c-15 -5 -31 -8 -48 -8s-34 3 -50 7c-16 6 -30 13 -42 24c-13 10 -23 23 -30 38c-8 15 -12 33 -13 53h45z
" />
    <glyph glyph-name="dotaccent" unicode="&#x2d9;" horiz-adv-x="212" 
d="M106 728c13 0 25 -4 34 -13c10 -9 15 -20 15 -35s-5 -27 -15 -36c-9 -8 -21 -12 -34 -12s-25 4 -34 12c-10 9 -15 21 -15 36s5 26 15 35c9 9 21 13 34 13z" />
    <glyph glyph-name="ring" unicode="&#x2da;" horiz-adv-x="293" 
d="M147 818c17 0 33 -3 47 -10c14 -6 26 -14 36 -24c9 -10 16 -22 22 -34c4 -14 7 -26 7 -39s-3 -27 -8 -39c-5 -14 -13 -25 -23 -35c-9 -10 -21 -18 -35 -24s-29 -9 -46 -9c-18 0 -34 3 -48 9s-26 14 -35 24c-10 10 -18 21 -22 35c-6 12 -8 26 -8 39s3 25 8 39
c5 12 13 24 22 34c10 10 22 18 36 24c14 7 30 10 47 10zM147 779c-22 0 -39 -7 -51 -19c-12 -14 -18 -30 -18 -49c0 -20 6 -36 18 -49c13 -13 30 -19 51 -19s37 6 50 19s19 29 19 49s-6 36 -20 49c-12 13 -29 19 -49 19z" />
    <glyph glyph-name="ogonek" unicode="&#x2db;" horiz-adv-x="265" 
d="M192 -198c-20 2 -38 6 -54 14c-15 6 -28 16 -40 26c-10 12 -19 24 -24 36c-6 14 -9 27 -9 41c0 21 6 41 17 58s28 31 51 40l31 -17c-17 -7 -30 -18 -40 -32c-8 -14 -13 -28 -13 -42c0 -22 7 -40 23 -55c14 -15 36 -24 65 -29z" />
    <glyph glyph-name="tilde" unicode="&#x2dc;" horiz-adv-x="455" 
d="M53 661c11 21 26 37 44 49c18 10 40 16 67 16c15 0 29 -3 40 -9s22 -13 32 -19c10 -8 20 -14 30 -20c11 -6 23 -9 36 -9c15 0 28 3 40 9c11 6 21 15 28 28l33 -26c-19 -37 -53 -56 -101 -56c-18 0 -33 3 -44 9c-12 6 -23 13 -33 19c-10 8 -20 14 -31 20s-23 9 -38 9
c-17 0 -31 -4 -42 -11c-10 -7 -21 -18 -30 -32z" />
    <glyph glyph-name="hungarumlaut" unicode="&#x2dd;" horiz-adv-x="321" 
d="M198 786l-72 -154h-41l67 175zM326 756l-79 -124h-41l75 150z" />
    <glyph glyph-name="mu" unicode="&#x3bc;" horiz-adv-x="642" 
d="M131 510v-285c0 -66 13 -114 39 -144c27 -30 65 -45 114 -45c53 0 100 16 138 48c40 31 69 77 89 137v289h51v-510h-39l-8 139c-20 -50 -50 -88 -90 -113s-88 -38 -144 -38c-30 0 -58 6 -85 19c-26 13 -47 31 -64 55v-272h-52v720h51z" />
    <glyph glyph-name="afii10023" unicode="&#x401;" 
d="M560 670v-45h-418v-255h365v-45h-365v-279h437v-46h-489v670h470zM207 887c14 0 26 -5 36 -15c10 -9 15 -21 15 -34s-5 -25 -15 -34c-10 -10 -22 -15 -36 -15s-26 5 -36 15c-10 9 -15 21 -15 34s5 25 15 34c10 10 22 15 36 15zM466 887c14 0 26 -5 36 -15
c10 -9 15 -21 15 -34s-5 -25 -15 -34c-10 -10 -22 -15 -36 -15s-26 5 -36 15c-10 9 -15 21 -15 34s5 25 15 34c10 10 22 15 36 15z" />
    <glyph glyph-name="afii10051" unicode="&#x402;" horiz-adv-x="882" 
d="M641 670v-46h-272v-275c23 35 54 64 92 87c38 22 87 33 146 33c31 0 59 -5 84 -15s47 -24 65 -43s32 -41 42 -68c9 -27 14 -56 14 -89v-215c0 -35 -5 -65 -14 -91c-10 -25 -24 -47 -40 -64c-18 -17 -38 -30 -62 -39c-23 -9 -49 -13 -77 -13c-43 0 -83 9 -118 28l18 44
c32 -17 66 -26 101 -26c44 0 78 13 103 40c25 26 37 66 37 120v208c0 119 -57 179 -172 179c-44 0 -86 -13 -124 -37c-40 -26 -71 -62 -95 -110v-278h-52v624h-262v46h586z" />
    <glyph glyph-name="afii10052" unicode="&#x403;" horiz-adv-x="608" 
d="M563 670v-46h-421v-624h-52v670h473zM449 948l-90 -165h-42l86 190z" />
    <glyph glyph-name="afii10053" unicode="&#x404;" horiz-adv-x="732" 
d="M462 320h-349c2 -45 11 -85 27 -120c15 -35 36 -66 63 -90c27 -26 58 -45 94 -58s75 -20 117 -20c47 0 90 8 130 23c38 15 74 37 107 65l31 -35c-73 -66 -164 -99 -273 -99c-51 0 -99 8 -141 24c-44 16 -80 39 -111 68c-31 30 -55 66 -71 110c-18 42 -26 91 -26 145
c0 50 8 96 26 139c16 43 41 80 73 111s71 56 116 74s96 27 152 27c21 0 42 -2 64 -6s43 -10 65 -18c20 -7 40 -16 60 -27c18 -11 36 -22 51 -35l-28 -37c-61 51 -135 77 -222 77c-42 0 -81 -6 -117 -20c-35 -12 -66 -31 -92 -54c-27 -24 -48 -53 -64 -86
c-17 -34 -27 -71 -30 -112h348v-46z" />
    <glyph glyph-name="afii10054" unicode="&#x405;" horiz-adv-x="654" 
d="M536 576c-28 19 -60 34 -98 46c-36 10 -74 16 -112 16c-34 0 -63 -4 -87 -10c-24 -8 -44 -17 -59 -29c-16 -12 -28 -26 -34 -42c-8 -16 -11 -33 -11 -52c0 -38 12 -67 37 -87c25 -19 61 -33 109 -40l112 -16c64 -9 113 -28 149 -59c34 -31 52 -72 52 -123
c0 -27 -6 -53 -19 -76c-13 -24 -31 -45 -55 -62c-23 -17 -52 -31 -87 -41s-74 -15 -118 -15c-50 0 -96 6 -137 18c-42 11 -83 31 -123 60l27 41c39 -27 76 -46 113 -57c37 -10 77 -15 122 -15c73 0 128 14 167 42s58 64 58 107c0 34 -12 63 -36 87c-25 24 -65 40 -121 47
l-118 16c-123 17 -184 75 -184 172c0 28 6 53 17 76c12 22 29 41 50 56c21 16 47 28 76 36c30 8 63 12 99 12c41 0 83 -6 127 -17c42 -11 80 -29 112 -52z" />
    <glyph glyph-name="afii10055" unicode="&#x406;" horiz-adv-x="232" 
d="M142 670v-670h-52v670h52z" />
    <glyph glyph-name="afii10056" unicode="&#x407;" horiz-adv-x="232" 
d="M142 670v-670h-52v670h52zM28 887c14 0 26 -5 36 -15c10 -9 15 -21 15 -34s-5 -25 -15 -34c-10 -10 -22 -15 -36 -15s-26 5 -36 15c-10 9 -15 21 -15 34s5 25 15 34c10 10 22 15 36 15zM207 887c14 0 26 -5 36 -15c10 -9 15 -21 15 -34s-5 -25 -15 -34
c-10 -10 -22 -15 -36 -15s-26 5 -36 15c-10 9 -15 21 -15 34s5 25 15 34c10 10 22 15 36 15z" />
    <glyph glyph-name="afii10057" unicode="&#x408;" horiz-adv-x="541" 
d="M451 670v-437c0 -81 -19 -142 -58 -184s-94 -63 -166 -63c-34 0 -66 5 -97 14c-31 10 -59 25 -85 45l25 40c48 -35 100 -53 157 -53c25 0 47 4 69 10c20 8 39 19 54 34s27 35 36 59s13 53 13 86v449h52z" />
    <glyph glyph-name="afii10058" unicode="&#x409;" horiz-adv-x="1155" 
d="M673 670v-237h181c35 0 67 -5 98 -15c31 -9 57 -23 80 -42s40 -42 54 -68c12 -28 19 -58 19 -93c0 -33 -6 -62 -19 -89c-13 -26 -30 -48 -52 -67c-23 -19 -49 -33 -80 -43c-30 -11 -63 -16 -98 -16h-235v624h-339c0 -61 -1 -121 -2 -180c-2 -58 -6 -112 -11 -162
c-5 -51 -13 -96 -23 -135s-23 -71 -40 -94c-15 -21 -33 -38 -53 -49s-43 -17 -68 -17c-11 0 -22 1 -31 2c-10 1 -20 4 -29 7l11 45c16 -4 31 -6 45 -6c17 0 34 4 49 13s29 23 40 42c12 20 22 48 30 84c7 37 13 77 18 122c4 45 7 92 9 141s3 97 3 144v89h443zM673 45h169
c69 0 122 16 158 47c35 32 53 73 53 124c0 59 -19 102 -55 130c-38 27 -90 41 -157 41h-168v-342z" />
    <glyph glyph-name="afii10059" unicode="&#x40a;" horiz-adv-x="1105" 
d="M142 670v-303h429v303h52v-237h181c35 0 67 -5 98 -15c31 -9 57 -23 80 -42s40 -42 54 -68c12 -28 19 -58 19 -93c0 -33 -6 -62 -19 -89c-13 -26 -30 -48 -52 -67c-23 -19 -49 -33 -80 -43c-30 -11 -63 -16 -98 -16h-235v321h-429v-321h-52v670h52zM623 45h169
c69 0 122 16 158 47c35 32 53 73 53 124c0 59 -19 102 -55 130c-38 27 -90 41 -157 41h-168v-342z" />
    <glyph glyph-name="afii10060" unicode="&#x40b;" horiz-adv-x="882" 
d="M641 670v-46h-272v-275c23 35 54 64 92 87c38 22 87 33 146 33c31 0 59 -5 84 -15s47 -24 65 -43s32 -41 42 -68c9 -27 14 -56 14 -89v-254h-52v246c0 119 -57 179 -172 179c-44 0 -86 -13 -124 -37c-40 -26 -71 -62 -95 -110v-278h-52v624h-262v46h586z" />
    <glyph glyph-name="afii10061" unicode="&#x40c;" horiz-adv-x="680" 
d="M142 670v-293l153 8l243 285h66l-265 -307l291 -363h-67l-267 335h-154v-335h-52v670h52zM447 948l-90 -165h-42l86 190z" />
    <glyph glyph-name="afii10062" unicode="&#x40e;" horiz-adv-x="679" 
d="M104 670l252 -448h10l211 448h57l-274 -566c-21 -43 -44 -73 -69 -92s-53 -28 -84 -28c-29 0 -55 6 -78 19l14 38c17 -8 36 -12 59 -12c22 0 42 7 61 21s34 33 46 58l26 52l-290 510h59zM259 915c5 -30 16 -52 34 -67s41 -22 68 -22c28 0 51 8 69 22c18 16 29 38 34 67
h44c-1 -19 -6 -37 -14 -54c-7 -17 -17 -31 -30 -43s-28 -21 -46 -28c-17 -7 -36 -10 -57 -10s-41 4 -57 10c-18 8 -32 17 -45 29s-23 26 -30 43c-7 16 -12 34 -14 53h44z" />
    <glyph glyph-name="afii10145" unicode="&#x40f;" horiz-adv-x="721" 
d="M142 670v-624h437v624h52v-670h-244l-7 -152h-39l-7 152h-244v670h52z" />
    <glyph glyph-name="afii10017" unicode="&#x410;" horiz-adv-x="749" 
d="M411 672l293 -672h-55l-73 169h-404l-73 -169h-54l293 672h73zM192 216h363l-173 403h-16z" />
    <glyph glyph-name="afii10018" unicode="&#x411;" horiz-adv-x="670" 
d="M551 670v-46h-409v-214h226c37 0 70 -5 100 -14c31 -9 57 -23 78 -40c22 -18 39 -40 51 -66c12 -25 18 -54 18 -86s-6 -60 -19 -86c-12 -24 -29 -46 -50 -64c-22 -17 -48 -31 -78 -40c-31 -9 -64 -14 -100 -14h-278v670h461zM142 46h226c34 0 63 4 88 12
c25 9 45 20 61 34c16 15 28 32 35 50c7 20 11 40 11 62c0 23 -4 45 -11 64c-7 20 -19 37 -34 51c-16 14 -36 25 -60 33s-52 12 -85 12h-231v-318z" />
    <glyph glyph-name="afii10019" unicode="&#x412;" horiz-adv-x="674" 
d="M357 670c37 0 69 -5 97 -14c27 -9 50 -22 68 -38c19 -15 33 -33 42 -54s14 -42 14 -65c0 -29 -6 -56 -19 -81s-32 -45 -58 -58v-10c17 -5 32 -12 47 -22c14 -10 26 -22 37 -37s19 -31 25 -49c6 -19 9 -38 9 -59c0 -25 -5 -49 -15 -71c-9 -22 -24 -41 -43 -58
s-44 -30 -73 -40c-29 -9 -64 -14 -103 -14h-295v670h267zM142 46h243c60 0 105 13 135 38c31 26 46 60 46 102c0 43 -14 77 -44 103c-28 26 -72 39 -129 39h-251v-282zM142 373h245c25 0 47 3 64 9c17 7 31 16 43 28c10 11 18 25 24 40c4 16 7 33 7 51
c0 82 -57 123 -172 123h-211v-251z" />
    <glyph glyph-name="afii10020" unicode="&#x413;" horiz-adv-x="608" 
d="M563 670v-46h-421v-624h-52v670h473z" />
    <glyph glyph-name="afii10021" unicode="&#x414;" horiz-adv-x="844" 
d="M691 670v-624h98v-56l-7 -142h-37l-9 152h-628l-9 -152h-37l-7 141v57h24c9 0 18 3 29 8c10 6 20 14 30 24c11 11 21 23 30 38c9 14 17 30 23 47c9 24 17 52 23 85c8 32 14 67 18 105c6 38 9 78 12 121c3 42 4 85 4 129v67h443zM299 624c0 -71 -3 -138 -7 -201
c-6 -63 -13 -121 -24 -171c-10 -52 -23 -95 -39 -130c-16 -36 -35 -61 -57 -76h467v578h-340z" />
    <glyph glyph-name="afii10022" unicode="&#x415;" 
d="M560 670v-45h-418v-255h365v-45h-365v-279h437v-46h-489v670h470z" />
    <glyph glyph-name="afii10024" unicode="&#x416;" horiz-adv-x="1023" 
d="M135 670l200 -286l151 -7v293h50v-293l152 7l199 286h62l-216 -305l250 -365h-62l-227 337h-158v-337h-50v337h-158l-227 -337h-61l249 366l-215 304h61z" />
    <glyph glyph-name="afii10025" unicode="&#x417;" horiz-adv-x="653" 
d="M370 372c22 0 42 4 60 10c17 8 32 17 44 28c13 11 22 25 28 40c7 15 10 32 10 49c0 19 -4 37 -11 53c-7 18 -19 32 -35 45c-15 13 -35 23 -60 30s-54 11 -88 11c-37 0 -70 -6 -101 -16c-31 -12 -61 -29 -92 -53l-30 37c64 52 140 78 229 78c39 0 74 -5 104 -16
s55 -24 75 -42c20 -16 35 -36 45 -57s15 -43 15 -65c0 -33 -7 -62 -21 -88c-13 -24 -33 -43 -58 -54v-10c36 -11 64 -32 84 -61s30 -63 30 -101c0 -26 -6 -51 -18 -76s-30 -46 -52 -66c-24 -18 -52 -34 -86 -45c-33 -11 -71 -17 -114 -17c-54 0 -103 7 -146 20
c-43 14 -86 38 -127 73l32 38c36 -30 73 -52 112 -65s82 -20 130 -20c35 0 65 4 93 12c26 9 49 20 68 35c18 15 32 31 41 51c9 18 14 39 14 60c0 43 -15 76 -45 100c-29 25 -72 37 -128 37h-158v45h156z" />
    <glyph glyph-name="afii10026" unicode="&#x418;" horiz-adv-x="746" 
d="M142 670v-592l464 592h50v-670h-52v592l-460 -592h-54v670h52z" />
    <glyph glyph-name="afii10027" unicode="&#x419;" horiz-adv-x="746" 
d="M142 670v-592l464 592h50v-670h-52v592l-460 -592h-54v670h52zM271 915c5 -30 16 -52 34 -67s41 -22 68 -22c28 0 51 8 69 22c18 16 29 38 34 67h44c-1 -19 -6 -37 -14 -54c-7 -17 -17 -31 -30 -43s-28 -21 -46 -28c-17 -7 -36 -10 -57 -10s-41 4 -57 10
c-18 8 -32 17 -45 29s-23 26 -30 43c-7 16 -12 34 -14 53h44z" />
    <glyph glyph-name="afii10028" unicode="&#x41a;" horiz-adv-x="680" 
d="M142 670v-293l153 8l243 285h66l-265 -307l291 -363h-67l-267 335h-154v-335h-52v670h52z" />
    <glyph glyph-name="afii10029" unicode="&#x41b;" horiz-adv-x="773" 
d="M683 670v-670h-52v624h-349c0 -61 -1 -121 -2 -180c-2 -58 -6 -112 -11 -162c-5 -51 -13 -96 -23 -135s-23 -71 -40 -94c-15 -21 -33 -38 -53 -49s-43 -17 -68 -17c-11 0 -22 1 -31 2c-10 1 -20 4 -29 7l11 45c16 -4 31 -6 45 -6c17 0 34 4 49 13s29 23 40 42
c12 20 22 48 30 84c7 37 13 77 18 122c4 45 7 92 9 141s3 97 3 144v89h453z" />
    <glyph glyph-name="afii10030" unicode="&#x41c;" horiz-adv-x="844" 
d="M150 670l272 -385l274 385h58v-670h-51v584h-10l-261 -366h-22l-259 366h-10v-584h-51v670h60z" />
    <glyph glyph-name="afii10031" unicode="&#x41d;" horiz-adv-x="733" 
d="M142 670v-303h449v303h52v-670h-52v321h-449v-321h-52v670h52z" />
    <glyph glyph-name="afii10032" unicode="&#x41e;" horiz-adv-x="820" 
d="M410 684c51 0 98 -9 142 -26c42 -18 80 -43 110 -74c32 -31 56 -68 72 -110c18 -43 26 -89 26 -139c0 -48 -8 -93 -26 -136c-16 -43 -40 -80 -72 -111c-30 -31 -68 -56 -110 -74c-44 -19 -91 -28 -142 -28c-52 0 -100 9 -142 27c-44 18 -80 43 -111 75
c-31 31 -55 68 -71 110c-18 43 -26 88 -26 137s9 94 26 137s42 80 72 111c32 31 68 56 112 74c42 18 89 27 140 27zM410 637c-46 0 -87 -8 -124 -23s-68 -36 -94 -64c-25 -26 -45 -58 -58 -96c-14 -36 -21 -76 -21 -119s7 -83 21 -120c15 -37 35 -69 61 -95
c26 -28 57 -49 93 -64c37 -15 77 -23 122 -23s85 7 122 22c36 15 67 35 93 62s46 59 61 95c14 38 21 78 21 123s-7 85 -21 123c-15 36 -35 68 -61 95s-57 47 -93 62c-37 15 -77 22 -122 22z" />
    <glyph glyph-name="afii10033" unicode="&#x41f;" horiz-adv-x="723" 
d="M633 670v-670h-52v624h-439v-624h-52v670h543z" />
    <glyph glyph-name="afii10034" unicode="&#x420;" horiz-adv-x="672" 
d="M364 670c35 0 68 -6 98 -16c31 -12 57 -27 79 -47s39 -44 52 -71c13 -28 19 -59 19 -92c0 -35 -7 -67 -20 -96c-13 -28 -32 -52 -55 -72s-51 -35 -82 -46s-65 -16 -101 -16h-212v-214h-52v670h274zM142 260h208c31 0 59 4 84 12c25 9 47 21 66 36c19 16 33 35 44 58
c10 23 15 48 15 77c0 57 -18 101 -55 133s-86 48 -147 48h-215v-364z" />
    <glyph glyph-name="afii10035" unicode="&#x421;" horiz-adv-x="732" 
d="M639 561c-61 51 -135 77 -222 77c-45 0 -86 -7 -123 -22s-69 -35 -96 -62c-27 -26 -48 -58 -62 -95c-16 -37 -23 -79 -23 -124c0 -47 7 -89 23 -126c14 -37 36 -69 62 -95c28 -27 59 -47 96 -61s77 -21 120 -21c47 0 90 8 130 23c38 15 74 37 107 65l31 -35
c-73 -66 -164 -99 -273 -99c-51 0 -99 8 -141 24c-44 16 -80 39 -111 68c-31 30 -55 66 -71 110c-18 42 -26 91 -26 145c0 50 8 96 26 139c16 43 41 80 73 111s71 56 116 74s96 27 152 27c21 0 42 -2 64 -6s43 -10 65 -18c20 -7 40 -16 60 -27c18 -11 36 -22 51 -35z" />
    <glyph glyph-name="afii10036" unicode="&#x422;" horiz-adv-x="696" 
d="M641 670v-46h-267v-624h-52v624h-267v46h586z" />
    <glyph glyph-name="afii10037" unicode="&#x423;" horiz-adv-x="679" 
d="M104 670l252 -448h10l211 448h57l-274 -566c-21 -43 -44 -73 -69 -92s-53 -28 -84 -28c-29 0 -55 6 -78 19l14 38c17 -8 36 -12 59 -12c22 0 42 7 61 21s34 33 46 58l26 52l-290 510h59z" />
    <glyph glyph-name="afii10038" unicode="&#x424;" horiz-adv-x="891" 
d="M471 685v-107h113c37 0 70 -5 102 -16c30 -10 57 -25 80 -45c22 -20 39 -45 52 -73c12 -30 18 -63 18 -101s-7 -72 -20 -102s-32 -55 -54 -75c-24 -21 -50 -36 -81 -47s-63 -16 -97 -16h-113v-103h-51v103h-113c-37 0 -70 5 -101 15c-32 11 -58 26 -80 46
c-23 20 -40 45 -52 74c-13 29 -19 63 -19 100c0 38 7 72 21 102c13 30 32 55 54 76c24 20 50 35 80 46c31 11 63 16 97 16h113v107h51zM420 533h-102c-68 0 -120 -17 -156 -51c-37 -33 -55 -81 -55 -144s19 -111 57 -142c37 -32 89 -48 154 -48h102v385zM471 148h102
c67 0 119 17 156 50c37 34 55 82 55 145s-19 111 -57 143c-38 31 -89 47 -154 47h-102v-385z" />
    <glyph glyph-name="afii10039" unicode="&#x425;" horiz-adv-x="706" 
d="M132 670l219 -289h10l212 289h66l-245 -325l267 -345h-68l-239 314h-10l-232 -314h-67l264 350l-242 320h65z" />
    <glyph glyph-name="afii10040" unicode="&#x426;" horiz-adv-x="773" 
d="M142 670v-624h426v624h52v-624h98v-56l-7 -142h-37l-9 152h-575v670h52z" />
    <glyph glyph-name="afii10041" unicode="&#x427;" horiz-adv-x="706" 
d="M127 670v-205c0 -67 16 -119 47 -156c32 -37 82 -55 149 -55c43 0 86 7 127 20s79 32 114 56v340h52v-670h-52v280c-71 -48 -156 -72 -255 -72c-74 0 -131 21 -173 63c-40 42 -61 104 -61 185v214h52z" />
    <glyph glyph-name="afii10042" unicode="&#x428;" horiz-adv-x="1016" 
d="M142 670v-624h340v624h52v-624h340v624h52v-670h-836v670h52z" />
    <glyph glyph-name="afii10043" unicode="&#x429;" horiz-adv-x="1079" 
d="M142 670v-624h340v624h52v-624h340v624h52v-624h98v-56l-7 -142h-37l-9 152h-881v670h52z" />
    <glyph glyph-name="afii10044" unicode="&#x42a;" horiz-adv-x="759" 
d="M260 670v-237h201c35 0 67 -5 97 -15c31 -9 57 -23 80 -42c22 -19 39 -42 52 -68c13 -28 19 -58 19 -93c0 -33 -6 -62 -19 -89c-12 -26 -29 -48 -51 -67s-48 -33 -78 -43c-30 -11 -63 -16 -98 -16h-255v622l-173 6v42h225zM260 45h189c69 0 121 16 156 47
c35 32 52 73 52 124c0 59 -18 102 -54 130c-36 27 -88 41 -155 41h-188v-342z" />
    <glyph glyph-name="afii10045" unicode="&#x42b;" horiz-adv-x="850" 
d="M760 670v-670h-52v670h52zM142 670v-237h196c35 0 67 -5 98 -15c31 -9 57 -23 80 -42s40 -42 54 -68c12 -28 19 -58 19 -93c0 -33 -6 -62 -19 -89c-13 -26 -30 -48 -52 -67c-23 -19 -49 -33 -80 -43c-30 -11 -63 -16 -98 -16h-250v670h52zM142 45h184c69 0 122 16 158 47
c35 32 53 73 53 124c0 59 -19 102 -55 130c-38 27 -90 41 -157 41h-183v-342z" />
    <glyph glyph-name="afii10046" unicode="&#x42c;" horiz-adv-x="649" 
d="M142 670v-237h206c35 0 67 -5 98 -15c31 -9 57 -23 80 -42s40 -42 54 -68c12 -28 19 -58 19 -93c0 -33 -6 -62 -19 -89c-13 -26 -30 -48 -52 -67c-23 -19 -49 -33 -80 -43c-30 -11 -63 -16 -98 -16h-260v670h52zM142 45h194c69 0 122 16 158 47c35 32 53 73 53 124
c0 59 -19 102 -55 130c-38 27 -90 41 -157 41h-193v-342z" />
    <glyph glyph-name="afii10047" unicode="&#x42d;" horiz-adv-x="716" 
d="M605 364c-1 40 -10 77 -25 110c-15 34 -36 63 -62 88c-27 24 -57 43 -92 56s-72 20 -111 20c-43 0 -83 -6 -121 -18c-37 -11 -71 -28 -102 -49l-28 37c34 27 73 46 116 58c44 12 90 18 137 18c49 0 95 -8 137 -26c41 -16 77 -40 107 -71s53 -67 70 -110s25 -89 25 -140
c0 -48 -8 -93 -24 -136c-17 -43 -40 -80 -70 -111c-31 -32 -67 -57 -110 -76s-90 -28 -143 -28c-52 0 -100 7 -144 22s-82 37 -115 67l30 37c32 -28 68 -48 108 -61s80 -19 121 -19c43 0 82 8 118 22c36 16 67 36 93 62s46 56 61 91s23 72 24 111h-355v46h355z" />
    <glyph glyph-name="afii10048" unicode="&#x42e;" horiz-adv-x="1013" 
d="M141 670v-304h141c4 44 15 85 32 124s40 72 70 101c28 29 63 51 102 68s83 25 131 25c51 0 97 -9 138 -26s77 -41 106 -72s52 -68 68 -110c16 -44 24 -90 24 -141c0 -48 -8 -93 -24 -135c-16 -43 -39 -80 -68 -112c-29 -31 -65 -56 -106 -74c-41 -19 -87 -28 -138 -28
c-49 0 -94 8 -135 24c-41 17 -76 40 -105 69s-52 65 -69 105c-17 42 -26 87 -27 136h-140v-320h-51v670h51zM617 638c-41 0 -78 -8 -113 -22c-35 -16 -65 -36 -90 -64c-26 -26 -46 -59 -60 -96c-15 -37 -22 -78 -22 -123c0 -44 7 -84 20 -121s32 -68 58 -95
c24 -27 54 -47 90 -63c34 -14 74 -22 117 -22c42 0 80 8 115 22c35 16 64 36 90 64c24 26 44 58 58 96c14 36 21 77 21 121s-6 85 -19 121c-13 38 -31 70 -56 96c-24 28 -54 48 -89 64c-35 14 -75 22 -120 22z" />
    <glyph glyph-name="afii10049" unicode="&#x42f;" horiz-adv-x="677" 
d="M587 0h-52v238h-245l-178 -238h-62l189 249c-56 13 -98 38 -125 75c-28 38 -42 82 -42 132c0 32 6 61 18 87c11 26 28 49 48 67c22 20 47 34 76 44c29 11 62 16 97 16h276v-670zM320 624c-63 0 -111 -14 -144 -43c-34 -29 -51 -70 -51 -125c0 -53 17 -95 52 -126
s84 -46 147 -46h211v340h-215z" />
    <glyph glyph-name="afii10065" unicode="&#x430;" 
d="M96 466c32 19 64 34 96 42c33 10 68 14 106 14c77 0 134 -16 170 -50c37 -32 55 -80 55 -143v-217c0 -29 5 -49 15 -60c11 -11 23 -17 37 -17c5 0 10 0 15 1s9 2 12 3l7 -37c-12 -7 -26 -10 -42 -10c-25 0 -45 7 -60 22c-15 14 -24 39 -27 76c-21 -32 -51 -57 -89 -75
s-83 -27 -134 -27c-29 0 -56 4 -81 12c-24 7 -45 18 -62 32s-31 31 -40 52s-14 44 -14 70c0 48 19 87 56 118c38 31 92 46 163 46c33 0 66 -3 101 -10c35 -6 66 -15 94 -27v44c0 101 -58 152 -174 152c-67 0 -129 -16 -185 -48zM475 237c-27 12 -57 21 -91 28
c-32 7 -66 10 -101 10c-31 0 -57 -3 -78 -9c-21 -7 -39 -16 -53 -26c-13 -12 -23 -24 -30 -40c-6 -14 -9 -31 -9 -48c0 -37 14 -66 41 -88c28 -20 67 -31 116 -31c25 0 50 4 75 11c25 8 47 19 66 33s35 31 47 51c11 20 17 43 17 68v41z" />
    <glyph glyph-name="afii10066" unicode="&#x431;" horiz-adv-x="655" 
d="M128 376c23 34 53 61 89 80c36 20 82 30 138 30c35 0 67 -6 97 -16c30 -12 56 -28 78 -48c22 -22 39 -47 52 -78c12 -31 18 -65 18 -104c0 -38 -7 -72 -21 -104c-14 -30 -33 -57 -57 -79s-52 -39 -84 -51c-33 -12 -67 -18 -104 -18c-86 0 -152 28 -199 84
c-47 57 -70 137 -70 240c0 57 7 107 21 149c13 42 32 77 56 106c23 29 51 51 82 67c32 17 66 28 102 34l112 19c32 5 55 15 69 29s21 29 21 46c0 13 -1 24 -4 34l44 7c3 -12 5 -25 5 -38c0 -29 -8 -54 -25 -75s-42 -34 -77 -40l-145 -26c-57 -10 -105 -35 -142 -75
s-59 -98 -66 -173h10zM344 442c-57 0 -104 -14 -141 -43s-66 -67 -85 -116c0 -38 5 -72 14 -103c10 -31 24 -57 42 -79c19 -22 41 -39 68 -51c26 -11 55 -17 88 -17c31 0 60 5 86 14c27 9 50 23 69 41c19 17 35 39 45 64c12 25 17 54 17 87c0 35 -5 65 -15 90
c-9 25 -23 46 -40 63c-18 17 -40 29 -64 38c-26 8 -53 12 -84 12z" />
    <glyph glyph-name="afii10067" unicode="&#x432;" horiz-adv-x="574" 
d="M316 510c28 0 53 -4 74 -10c21 -8 39 -17 53 -29s25 -26 32 -42s11 -33 11 -51c0 -49 -19 -83 -58 -102v-10c29 -9 52 -25 68 -46c15 -21 23 -48 23 -79c0 -40 -15 -73 -45 -101c-30 -26 -75 -40 -136 -40h-258v510h236zM131 45h205c45 0 78 9 99 25c21 18 32 42 32 74
c0 29 -9 52 -29 70c-18 19 -51 28 -98 28h-209v-197zM131 286h192c38 0 66 8 84 24c18 17 27 39 27 66c0 25 -10 47 -28 64c-20 17 -50 26 -93 26h-182v-180z" />
    <glyph glyph-name="afii10068" unicode="&#x433;" horiz-adv-x="521" 
d="M471 510v-45h-340v-465h-51v510h391z" />
    <glyph glyph-name="afii10069" unicode="&#x434;" horiz-adv-x="678" 
d="M562 510v-465h76v-41l-8 -136h-38l-3 132h-500l-3 -132h-39l-7 138v39l27 7c23 6 42 19 57 40c15 20 27 50 38 89c5 19 10 42 12 67c4 25 6 52 8 81s3 58 4 89s1 61 1 92h375zM235 465c-1 -57 -3 -109 -7 -157c-4 -49 -10 -90 -17 -124c-15 -70 -40 -116 -73 -139h374
v420h-277z" />
    <glyph glyph-name="afii10070" unicode="&#x435;" horiz-adv-x="620" 
d="M108 237c3 -65 25 -115 66 -150c40 -35 92 -53 157 -53c36 0 70 4 101 13s62 23 91 44l24 -38c-31 -23 -64 -39 -101 -49c-36 -11 -75 -16 -117 -16c-41 0 -79 6 -113 18c-33 12 -62 30 -86 52c-24 24 -42 52 -56 84c-12 34 -19 71 -19 112c0 39 7 74 19 107
c14 33 32 61 56 85s53 43 86 56c34 13 72 20 113 20c35 0 67 -6 97 -17c28 -11 53 -27 74 -48s37 -45 48 -74s17 -60 17 -94c0 -19 -2 -36 -6 -52h-451zM514 283c-1 59 -17 107 -48 142s-78 53 -141 53c-61 0 -110 -18 -147 -52c-38 -36 -61 -83 -69 -143h405z" />
    <glyph glyph-name="afii10072" unicode="&#x436;" horiz-adv-x="871" 
d="M461 510v-220l129 9l161 211h63l-179 -231l196 -279h-58l-178 253h-134v-253h-50v253h-137l-170 -253h-64l198 279l-181 231h60l163 -211l131 -9v220h50z" />
    <glyph glyph-name="afii10073" unicode="&#x437;" horiz-adv-x="549" 
d="M77 464c27 19 57 34 88 44c31 9 67 14 107 14c60 0 107 -13 140 -39c34 -26 51 -60 51 -102c0 -23 -5 -45 -16 -63c-11 -20 -26 -34 -45 -43v-10c27 -11 49 -26 64 -46s23 -44 23 -72c0 -23 -5 -45 -13 -64c-10 -19 -24 -36 -42 -50c-20 -14 -43 -25 -72 -33
s-63 -12 -103 -12c-43 0 -81 6 -115 16c-35 12 -68 29 -99 52l26 36c28 -19 57 -34 87 -44c30 -11 64 -16 101 -16c57 0 101 10 131 29c32 19 47 46 47 81c0 30 -9 54 -27 74c-17 18 -47 28 -88 28h-146v42h140c33 0 58 9 72 26c16 17 23 39 23 66c0 14 -2 27 -7 39
s-13 23 -24 32s-26 17 -45 22s-42 8 -69 8c-34 0 -63 -4 -88 -11c-25 -8 -50 -21 -75 -39z" />
    <glyph glyph-name="afii10074" unicode="&#x438;" horiz-adv-x="632" 
d="M501 0v434l-369 -434h-52v510h51v-442l372 442h49v-510h-51z" />
    <glyph glyph-name="afii10075" unicode="&#x439;" horiz-adv-x="632" 
d="M501 0v434l-369 -434h-52v510h51v-442l372 442h49v-510h-51zM226 743c2 -28 12 -49 30 -61c17 -14 37 -20 60 -20s43 7 60 20c18 13 28 34 29 61h46c-2 -19 -7 -37 -15 -52c-7 -15 -17 -28 -30 -39c-12 -10 -26 -18 -42 -23c-15 -5 -31 -8 -48 -8s-34 3 -50 7
c-16 6 -30 13 -42 24c-13 10 -23 23 -30 38c-8 15 -12 33 -13 53h45z" />
    <glyph glyph-name="afii10076" unicode="&#x43a;" horiz-adv-x="584" 
d="M131 510v-220l142 8l178 212h67l-197 -229l228 -281h-67l-200 249h-151v-249h-51v510h51z" />
    <glyph glyph-name="afii10077" unicode="&#x43b;" horiz-adv-x="664" 
d="M584 510v-510h-51v466h-286c0 -35 0 -70 -1 -106c-1 -35 -2 -70 -6 -104c-2 -33 -7 -65 -13 -95s-14 -57 -24 -80c-13 -29 -29 -51 -51 -66c-20 -15 -46 -23 -75 -23c-23 0 -43 4 -62 12l12 41c9 -4 17 -7 25 -8s16 -2 23 -2c17 0 33 5 47 16c13 11 25 27 34 48
s16 44 21 69c5 26 9 53 13 81c2 28 4 57 5 85c1 30 1 58 1 85v91h388z" />
    <glyph glyph-name="afii10078" unicode="&#x43c;" horiz-adv-x="708" 
d="M146 510l208 -294l208 294h66v-510h-50v439h-10l-201 -282h-26l-201 282h-10v-439h-50v510h66z" />
    <glyph glyph-name="afii10079" unicode="&#x43d;" horiz-adv-x="623" 
d="M131 510v-228h361v228h51v-510h-51v236h-361v-236h-51v510h51z" />
    <glyph glyph-name="afii10080" unicode="&#x43e;" horiz-adv-x="662" 
d="M331 522c41 0 79 -7 113 -20s63 -32 87 -56c24 -23 43 -51 56 -84s20 -68 20 -107c0 -37 -7 -72 -21 -105c-13 -33 -32 -61 -57 -85s-54 -43 -87 -57c-34 -13 -71 -20 -111 -20c-41 0 -79 7 -113 20s-63 32 -87 56c-24 23 -43 51 -56 84s-20 68 -20 107c0 37 7 72 21 105
c13 33 32 61 56 85c25 24 54 43 88 57c33 13 70 20 111 20zM331 478c-34 0 -65 -6 -92 -17s-51 -27 -71 -47c-19 -20 -34 -44 -45 -70c-11 -28 -16 -57 -16 -89c0 -33 5 -63 16 -90s26 -51 45 -71c19 -19 43 -34 70 -46c28 -10 59 -16 93 -16s65 6 93 16c27 12 51 27 70 46
c19 20 34 44 45 71s16 57 16 90c0 31 -5 60 -16 87s-26 51 -45 71c-20 20 -44 36 -71 47c-27 12 -58 18 -92 18z" />
    <glyph glyph-name="afii10081" unicode="&#x43f;" horiz-adv-x="628" 
d="M548 510v-510h-51v465h-366v-465h-51v510h468z" />
    <glyph glyph-name="afii10082" unicode="&#x440;" horiz-adv-x="659" 
d="M119 510l8 -132c22 51 53 87 93 110s86 34 139 34c36 0 69 -6 99 -18s56 -29 78 -52c21 -23 38 -50 50 -82s18 -68 18 -108c0 -45 -8 -84 -23 -118c-15 -35 -35 -64 -61 -86c-24 -24 -53 -41 -86 -52c-32 -12 -65 -18 -99 -18c-43 0 -81 5 -112 16c-31 10 -62 28 -92 53
v-267h-51v720h39zM131 112c30 -28 60 -48 91 -60c31 -13 66 -19 107 -19c33 0 63 5 90 15c27 11 51 26 71 46c19 20 34 44 46 73c10 29 16 61 16 98c0 31 -5 60 -14 86s-23 48 -40 67c-18 19 -40 33 -64 44c-26 10 -54 15 -85 15c-27 0 -51 -4 -73 -13
c-23 -8 -43 -20 -61 -35s-34 -34 -48 -55s-26 -45 -36 -70v-192z" />
    <glyph glyph-name="afii10083" unicode="&#x441;" horiz-adv-x="596" 
d="M502 414c-21 19 -46 35 -75 46s-62 17 -100 17c-30 0 -58 -5 -85 -15s-50 -24 -70 -43s-36 -41 -48 -69c-11 -26 -17 -57 -17 -90c0 -35 5 -66 15 -94c11 -27 26 -51 44 -70c20 -20 43 -35 70 -46s58 -16 93 -16c76 0 138 25 186 74l31 -34c-55 -57 -128 -86 -221 -86
c-43 0 -82 7 -115 20c-34 14 -62 33 -86 57c-22 24 -40 52 -52 85c-11 32 -17 67 -17 104c0 41 7 78 21 111s33 61 58 85c25 22 53 40 86 53s68 19 105 19c46 0 87 -7 122 -20s64 -32 86 -55z" />
    <glyph glyph-name="afii10084" unicode="&#x442;" horiz-adv-x="567" 
d="M517 510v-44h-208v-466h-51v466h-208v44h467z" />
    <glyph glyph-name="afii10085" unicode="&#x443;" horiz-adv-x="625" 
d="M105 510l228 -456h10l178 456h59l-240 -572c-11 -27 -23 -50 -36 -68c-12 -17 -25 -31 -38 -42c-14 -10 -29 -17 -44 -22c-15 -4 -31 -6 -48 -6c-29 0 -54 7 -75 20l15 43c9 -5 20 -8 32 -10c11 -2 22 -3 31 -3c23 0 44 7 61 20c18 14 35 39 50 75l21 49l-264 516h60z
" />
    <glyph glyph-name="afii10086" unicode="&#x444;" horiz-adv-x="957" 
d="M504 710v-271c19 27 43 47 70 61c28 15 63 22 105 22c69 0 123 -22 163 -64c40 -44 60 -109 60 -197c0 -43 -6 -82 -18 -115c-12 -34 -29 -63 -50 -86c-22 -23 -48 -41 -78 -54c-29 -12 -62 -18 -98 -18c-59 0 -111 15 -154 44v-241h-51v279c-19 -27 -43 -47 -71 -61
c-27 -14 -62 -21 -104 -21c-69 0 -123 22 -163 64c-40 44 -60 109 -60 197c0 43 6 82 18 115c12 34 29 63 51 86c21 23 47 41 76 54c30 12 63 18 99 18c59 0 111 -15 154 -44v232h51zM453 428c-26 16 -51 28 -73 36c-24 8 -49 12 -77 12c-32 0 -60 -6 -85 -17
s-45 -27 -62 -47c-16 -21 -28 -45 -36 -73c-9 -28 -13 -59 -13 -92c0 -39 4 -72 13 -99s21 -50 36 -66c16 -18 35 -30 56 -38c22 -7 46 -11 71 -11c35 0 67 9 96 25c29 18 53 42 74 73v297zM504 82c26 -16 50 -28 74 -36c22 -8 48 -12 76 -12c32 0 60 6 85 17s45 27 61 47
c17 21 29 45 38 73c8 28 12 59 12 92c0 39 -4 72 -13 99s-21 50 -37 66c-15 18 -34 30 -56 38c-21 7 -45 11 -70 11c-36 0 -69 -9 -98 -27c-30 -18 -54 -43 -72 -75v-293z" />
    <glyph glyph-name="afii10087" unicode="&#x445;" horiz-adv-x="591" 
d="M131 510l162 -214h10l158 214h65l-192 -246l212 -264h-66l-184 237h-10l-176 -237h-65l212 271l-192 239h66z" />
    <glyph glyph-name="afii10088" unicode="&#x446;" horiz-adv-x="637" 
d="M131 510v-465h341v465h51v-465h84v-39l-8 -138h-38l-3 132h-478v510h51z" />
    <glyph glyph-name="afii10089" unicode="&#x447;" horiz-adv-x="577" 
d="M111 510v-159c0 -52 12 -92 37 -121c25 -28 64 -42 119 -42c37 0 71 6 101 20c31 12 60 33 88 60v242h51v-510h-51v217c-25 -24 -54 -42 -87 -55s-71 -19 -114 -19c-61 0 -108 17 -143 52s-52 81 -52 140v175h51z" />
    <glyph glyph-name="afii10090" unicode="&#x448;" horiz-adv-x="885" 
d="M130 510v-465h288v465h50v-465h287v465h50v-510h-725v510h50z" />
    <glyph glyph-name="afii10091" unicode="&#x449;" horiz-adv-x="919" 
d="M130 510v-465h288v465h50v-465h287v465h50v-465h84v-39l-8 -138h-38l-3 132h-760v510h50z" />
    <glyph glyph-name="afii10092" unicode="&#x44a;" horiz-adv-x="655" 
d="M243 510v-194c25 15 52 26 81 34c28 7 58 11 90 11c29 0 55 -4 79 -12s45 -20 62 -35s31 -34 41 -56c9 -21 14 -46 14 -73c0 -25 -5 -49 -14 -71c-10 -23 -24 -42 -42 -60c-19 -16 -42 -30 -69 -40c-27 -9 -59 -14 -94 -14h-199v466h-157v44h208zM243 44h140
c59 0 102 13 131 40c29 26 43 60 43 102c0 40 -13 72 -39 96c-26 23 -65 35 -117 35c-27 0 -54 -4 -81 -12s-52 -20 -77 -35v-226z" />
    <glyph glyph-name="afii10093" unicode="&#x44b;" horiz-adv-x="724" 
d="M644 510v-510h-51v510h51zM131 510v-194c25 15 52 26 80 34c28 7 58 11 90 11c29 0 55 -4 79 -12s45 -20 62 -35s31 -34 41 -56c10 -21 15 -46 15 -73c0 -25 -5 -49 -14 -71c-10 -23 -24 -42 -43 -60c-19 -16 -42 -30 -69 -40c-27 -9 -59 -14 -94 -14h-198v510h51z
M131 44h139c59 0 102 13 132 40c28 26 43 60 43 102c0 40 -13 72 -39 96c-27 23 -66 35 -118 35c-55 0 -108 -16 -157 -47v-226z" />
    <glyph glyph-name="afii10094" unicode="&#x44c;" horiz-adv-x="548" 
d="M131 510v-194c25 15 53 26 82 34c29 7 60 11 92 11c29 0 55 -4 79 -12s45 -20 62 -35c18 -15 32 -34 42 -56c10 -21 15 -46 15 -73c0 -25 -5 -49 -15 -71c-9 -23 -24 -42 -42 -60c-20 -16 -43 -30 -70 -40c-27 -9 -59 -14 -94 -14h-202v510h51zM131 44h143
c59 0 103 13 132 40c29 26 44 60 44 102c0 40 -13 72 -40 96c-27 23 -66 35 -118 35c-27 0 -55 -4 -82 -12c-28 -8 -54 -20 -79 -35v-226z" />
    <glyph glyph-name="afii10095" unicode="&#x44d;" horiz-adv-x="578" 
d="M473 283c-7 65 -29 113 -68 146s-88 49 -147 49c-34 0 -65 -4 -92 -12c-28 -7 -54 -20 -77 -39l-24 35c48 40 112 60 191 60c43 0 82 -7 115 -21s61 -33 83 -57c23 -24 40 -52 52 -84c11 -33 17 -67 17 -104c0 -41 -7 -78 -19 -110c-14 -34 -32 -62 -56 -85
c-23 -23 -51 -41 -84 -54s-69 -19 -108 -19c-45 0 -85 6 -118 17s-63 29 -88 52l28 35c24 -21 50 -36 79 -45s62 -14 100 -14c27 0 53 4 79 13c24 8 47 20 66 38c20 16 36 38 49 64s20 56 22 91h-268v44h268z" />
    <glyph glyph-name="afii10096" unicode="&#x44e;" horiz-adv-x="834" 
d="M131 510v-227h125c3 33 11 64 24 93c14 29 32 55 55 76s49 38 80 51s65 19 102 19c41 0 77 -7 109 -20c33 -14 60 -33 83 -57s40 -52 52 -85s18 -68 18 -106c0 -36 -6 -70 -19 -102c-12 -33 -30 -61 -52 -85c-24 -24 -51 -43 -83 -57c-32 -15 -68 -22 -108 -22
c-39 0 -75 6 -106 19s-58 30 -81 53s-40 49 -53 80c-13 30 -20 63 -22 99h-124v-239h-51v510h51zM517 477c-32 0 -61 -6 -87 -17s-48 -27 -66 -47c-19 -20 -33 -43 -42 -71c-10 -26 -15 -56 -15 -88c0 -31 5 -60 13 -88c10 -26 23 -50 40 -70c18 -19 40 -35 66 -46
c27 -11 57 -17 91 -17c32 0 61 6 87 17s48 27 66 47c19 20 33 43 42 71c10 26 15 56 15 88c0 31 -5 60 -13 88c-10 26 -23 50 -40 70c-18 19 -40 35 -66 46c-27 11 -57 17 -91 17z" />
    <glyph glyph-name="afii10097" unicode="&#x44f;" horiz-adv-x="573" 
d="M442 0v216c-29 -16 -59 -28 -90 -35s-66 -11 -107 -11l-134 -170h-61l144 182c-41 9 -73 28 -96 57c-22 29 -33 62 -33 100c0 23 5 45 14 66s23 39 41 55c18 15 40 28 68 36c26 10 58 14 93 14h212v-510h-51zM442 466h-155c-58 0 -101 -12 -128 -36s-41 -54 -41 -90
c0 -39 14 -69 40 -92c28 -22 65 -33 112 -33c28 0 57 4 86 11c29 8 58 21 86 38v202z" />
    <glyph glyph-name="afii10071" unicode="&#x451;" horiz-adv-x="620" 
d="M108 237c3 -65 25 -115 66 -150c40 -35 92 -53 157 -53c36 0 70 4 101 13s62 23 91 44l24 -38c-31 -23 -64 -39 -101 -49c-36 -11 -75 -16 -117 -16c-41 0 -79 6 -113 18c-33 12 -62 30 -86 52c-24 24 -42 52 -56 84c-12 34 -19 71 -19 112c0 39 7 74 19 107
c14 33 32 61 56 85s53 43 86 56c34 13 72 20 113 20c35 0 67 -6 97 -17c28 -11 53 -27 74 -48s37 -45 48 -74s17 -60 17 -94c0 -19 -2 -36 -6 -52h-451zM514 283c-1 59 -17 107 -48 142s-78 53 -141 53c-61 0 -110 -18 -147 -52c-38 -36 -61 -83 -69 -143h405zM212 728
c14 0 25 -4 34 -13s13 -19 13 -32s-4 -23 -13 -32s-20 -13 -34 -13s-25 4 -34 13s-13 19 -13 32s4 23 13 32s20 13 34 13zM450 728c14 0 25 -4 34 -13s13 -19 13 -32s-4 -23 -13 -32s-20 -13 -34 -13s-25 4 -34 13s-13 19 -13 32s4 23 13 32s20 13 34 13z" />
    <glyph glyph-name="afii10099" unicode="&#x452;" horiz-adv-x="647" 
d="M131 730v-84h172v-40h-172v-233c21 47 49 83 87 109c36 27 85 40 145 40c62 0 111 -19 149 -56c36 -38 55 -91 55 -160v-305c0 -59 -15 -104 -45 -135c-31 -31 -71 -47 -121 -47c-25 0 -46 3 -64 7c-18 6 -36 13 -53 23l19 39c17 -9 33 -16 47 -19s29 -5 46 -5
c40 0 70 12 90 36c20 23 30 55 30 95v300c0 63 -14 109 -44 139c-28 28 -69 43 -122 43c-51 0 -96 -17 -133 -51c-37 -35 -66 -83 -86 -144v-282h-51v606h-70v40h66l9 84h46z" />
    <glyph glyph-name="afii10100" unicode="&#x453;" horiz-adv-x="521" 
d="M471 510v-45h-340v-465h-51v510h391zM387 771l-81 -139h-43l77 165z" />
    <glyph glyph-name="afii10101" unicode="&#x454;" horiz-adv-x="596" 
d="M388 243h-281c3 -65 25 -116 63 -153c40 -37 92 -56 159 -56c76 0 138 25 186 74l31 -34c-55 -57 -128 -86 -221 -86c-43 0 -82 7 -115 20c-34 14 -62 33 -86 57c-22 24 -40 52 -52 85c-11 32 -17 67 -17 104c0 41 7 78 21 111s33 61 58 85c25 22 53 40 86 53
s68 19 105 19c46 0 87 -7 122 -20s64 -32 86 -55l-31 -33c-21 19 -46 35 -75 46s-62 17 -100 17c-28 0 -55 -4 -80 -13s-48 -21 -67 -38c-19 -16 -36 -36 -48 -60c-14 -23 -21 -50 -24 -79h280v-44z" />
    <glyph glyph-name="afii10102" unicode="&#x455;" horiz-adv-x="572" 
d="M466 428c-57 33 -117 50 -180 50c-55 0 -96 -9 -122 -28c-28 -19 -41 -42 -41 -70c0 -25 8 -44 23 -59s42 -24 79 -28l114 -13c52 -6 94 -20 125 -44c32 -22 48 -56 48 -99c0 -45 -20 -82 -61 -109c-41 -26 -99 -40 -175 -40c-42 0 -81 4 -116 13c-36 9 -71 24 -105 45
l24 43c31 -20 64 -35 97 -43c33 -10 68 -14 105 -14c58 0 103 10 133 29c32 19 47 44 47 75c0 27 -9 48 -27 64c-19 17 -51 28 -96 33l-128 15c-44 5 -78 19 -102 42s-36 53 -36 90c0 19 4 38 13 54c9 18 22 32 39 46c18 12 40 23 68 30c26 8 59 12 96 12s72 -4 108 -13
c34 -9 66 -23 93 -42z" />
    <glyph glyph-name="afii10103" unicode="&#x456;" horiz-adv-x="212" 
d="M132 510v-510h-52v510h52zM106 728c13 0 25 -4 34 -13c10 -9 15 -20 15 -35s-5 -27 -15 -36c-9 -8 -21 -12 -34 -12s-25 4 -34 12c-10 9 -15 21 -15 36s5 26 15 35c9 9 21 13 34 13z" />
    <glyph glyph-name="afii10104" unicode="&#x457;" horiz-adv-x="212" 
d="M132 510v-510h-52v510h52zM19 728c14 0 25 -4 34 -13s13 -19 13 -32s-4 -23 -13 -32s-20 -13 -34 -13s-25 4 -34 13s-13 19 -13 32s4 23 13 32s20 13 34 13zM193 728c14 0 25 -4 34 -13s13 -19 13 -32s-4 -23 -13 -32s-20 -13 -34 -13s-25 4 -34 13s-13 19 -13 32
s4 23 13 32s20 13 34 13z" />
    <glyph glyph-name="afii10105" unicode="&#x458;" horiz-adv-x="221" 
d="M141 510v-559c0 -60 -15 -108 -43 -144c-30 -36 -72 -54 -129 -54c-21 0 -43 3 -63 7c-22 6 -41 13 -59 24l21 41c31 -17 64 -26 99 -26c38 0 68 12 90 37s33 64 33 117v557h51zM115 730c13 0 25 -4 35 -14c10 -8 15 -20 15 -35s-5 -27 -15 -36s-22 -13 -35 -13
s-25 4 -35 13s-15 21 -15 36s5 27 15 35c10 10 22 14 35 14z" />
    <glyph glyph-name="afii10106" unicode="&#x459;" horiz-adv-x="982" 
d="M575 510v-194c23 15 49 26 77 34c27 7 58 11 92 11c26 0 51 -4 74 -12s44 -20 62 -35c17 -15 31 -34 42 -56c10 -21 15 -46 15 -73c0 -25 -5 -49 -15 -71c-11 -23 -25 -42 -44 -60c-19 -16 -41 -30 -68 -40c-27 -9 -56 -14 -89 -14h-197v466h-277c0 -35 0 -70 -1 -106
c-1 -35 -2 -70 -6 -104c-2 -33 -7 -65 -13 -95s-14 -57 -24 -80c-13 -29 -29 -51 -51 -66c-20 -15 -46 -23 -75 -23c-23 0 -43 4 -62 12l12 41c9 -4 17 -7 25 -8s16 -2 23 -2c17 0 33 5 47 16c13 11 25 27 34 48s16 44 21 69c5 26 9 53 13 81c2 28 4 57 5 85c1 30 1 58 1 85
v91h379zM575 44h138c54 0 96 13 126 40c30 26 45 60 45 102c0 40 -14 72 -41 96c-27 23 -65 35 -112 35c-55 0 -107 -16 -156 -47v-226z" />
    <glyph glyph-name="afii10107" unicode="&#x45a;" horiz-adv-x="935" 
d="M131 510v-228h346v228h51v-194c23 15 49 26 76 34c28 7 59 11 93 11c26 0 51 -4 74 -12s44 -20 61 -35c18 -15 32 -34 42 -56c11 -21 16 -46 16 -73c0 -25 -5 -49 -16 -71c-10 -23 -24 -42 -43 -60c-19 -16 -41 -30 -68 -40c-27 -9 -56 -14 -89 -14h-197v236h-346v-236
h-51v510h51zM528 44h138c54 0 96 13 126 40c30 26 45 60 45 102c0 40 -13 72 -41 96c-26 23 -64 35 -112 35c-55 0 -107 -16 -156 -47v-226z" />
    <glyph glyph-name="afii10108" unicode="&#x45b;" horiz-adv-x="647" 
d="M131 730v-84h172v-40h-172v-233c21 47 49 83 87 109c36 27 85 40 145 40c62 0 111 -19 149 -56c36 -38 55 -91 55 -160v-306h-51v295c0 63 -14 109 -44 139c-28 28 -69 43 -122 43c-51 0 -96 -17 -133 -51c-37 -35 -66 -83 -86 -144v-282h-51v606h-70v40h66l9 84h46z" />
    <glyph glyph-name="afii10109" unicode="&#x45c;" horiz-adv-x="584" 
d="M131 510v-220l142 8l178 212h67l-197 -229l228 -281h-67l-200 249h-151v-249h-51v510h51zM394 771l-81 -139h-43l77 165z" />
    <glyph glyph-name="afii10110" unicode="&#x45e;" horiz-adv-x="625" 
d="M105 510l228 -456h10l178 456h59l-240 -572c-11 -27 -23 -50 -36 -68c-12 -17 -25 -31 -38 -42c-14 -10 -29 -17 -44 -22c-15 -4 -31 -6 -48 -6c-29 0 -54 7 -75 20l15 43c9 -5 20 -8 32 -10c11 -2 22 -3 31 -3c23 0 44 7 61 20c18 14 35 39 50 75l21 49l-264 516h60z
M232 743c2 -28 12 -49 30 -61c17 -14 37 -20 60 -20s43 7 60 20c18 13 28 34 29 61h46c-2 -19 -7 -37 -15 -52c-7 -15 -17 -28 -30 -39c-12 -10 -26 -18 -42 -23c-15 -5 -31 -8 -48 -8s-34 3 -50 7c-16 6 -30 13 -42 24c-13 10 -23 23 -30 38c-8 15 -12 33 -13 53h45z" />
    <glyph glyph-name="afii10193" unicode="&#x45f;" horiz-adv-x="624" 
d="M131 510v-465h362v465h51v-510h-206l-6 -132h-40l-6 132h-206v510h51z" />
    <glyph glyph-name="afii10050" unicode="&#x490;" horiz-adv-x="608" 
d="M512 670l12 170h39v-216h-421v-624h-52v670h422z" />
    <glyph glyph-name="afii10098" unicode="&#x491;" horiz-adv-x="521" 
d="M419 510l10 138h42v-183h-340v-465h-51v510h339z" />
    <glyph glyph-name="endash" unicode="&#x2013;" horiz-adv-x="660" 
d="M560 307v-46h-460v46h460z" />
    <glyph glyph-name="emdash" unicode="&#x2014;" horiz-adv-x="1009" 
d="M839 307v-45h-669v45h669z" />
    <glyph glyph-name="quoteleft" unicode="&#x2018;" horiz-adv-x="204" 
d="M111 575c13 -2 23 -7 31 -16s12 -20 12 -33c0 -15 -5 -27 -15 -36s-22 -14 -37 -14s-27 5 -37 14s-15 21 -15 36c0 7 2 15 5 24l56 140l30 -10z" />
    <glyph glyph-name="quoteright" unicode="&#x2019;" horiz-adv-x="204" 
d="M93 575c-13 2 -23 7 -31 16s-12 20 -12 33c0 15 5 27 15 36s22 14 37 14s27 -5 37 -14s15 -21 15 -36c0 -7 -2 -15 -5 -24l-56 -140l-30 10z" />
    <glyph glyph-name="quotesinglbase" unicode="&#x201a;" horiz-adv-x="204" 
d="M93 -5c-13 2 -23 7 -31 16s-12 20 -12 33c0 15 5 27 15 36s22 14 37 14s27 -5 37 -14s15 -21 15 -36c0 -7 -2 -15 -5 -24l-56 -140l-30 10z" />
    <glyph glyph-name="quotedblleft" unicode="&#x201c;" horiz-adv-x="329" 
d="M246 576c13 -2 23 -7 31 -16s12 -21 12 -34c0 -15 -5 -27 -15 -36s-22 -14 -37 -14s-27 5 -37 14s-15 21 -15 36c0 7 2 15 5 25l46 125l30 -8zM101 576c13 -2 23 -7 31 -16s12 -21 12 -34c0 -15 -5 -27 -15 -36s-22 -14 -37 -14s-27 5 -37 14s-15 21 -15 36
c0 7 2 15 5 24l56 140l31 -8z" />
    <glyph glyph-name="quotedblright" unicode="&#x201d;" horiz-adv-x="329" 
d="M83 574c-13 2 -23 8 -31 16c-8 10 -12 21 -12 34c0 15 5 27 15 36s22 14 37 14s27 -5 37 -14s15 -21 15 -36c0 -7 -2 -15 -5 -25l-46 -125l-30 8zM228 574c-13 2 -23 8 -31 16c-8 10 -12 21 -12 34c0 15 5 27 15 36s22 14 37 14s27 -5 37 -14s15 -21 15 -36
c0 -7 -2 -15 -5 -24l-56 -140l-31 8z" />
    <glyph glyph-name="quotedblbase" unicode="&#x201e;" horiz-adv-x="329" 
d="M83 -6c-13 2 -23 8 -31 16c-8 10 -12 21 -12 34c0 15 5 27 15 36s22 14 37 14s27 -5 37 -14s15 -21 15 -36c0 -7 -2 -15 -5 -25l-46 -125l-30 8zM228 -6c-13 2 -23 8 -31 16c-8 10 -12 21 -12 34c0 15 5 27 15 36s22 14 37 14s27 -5 37 -14s15 -21 15 -36
c0 -7 -2 -15 -5 -24l-56 -140l-31 8z" />
    <glyph glyph-name="dagger" unicode="&#x2020;" horiz-adv-x="437" 
d="M247 647l-7 -148h137v-50l-138 9l7 -458h-53l7 458l-140 -9v50h139l-7 148h55z" />
    <glyph glyph-name="daggerdbl" unicode="&#x2021;" horiz-adv-x="437" 
d="M247 647l-7 -148h137v-50l-138 9v-166h138v-50l-137 9l6 -251h-53l6 251l-139 -9v50h140v166l-140 -9v50h139l-7 148h55z" />
    <glyph glyph-name="bullet" unicode="&#x2022;" horiz-adv-x="352" 
d="M176 397c19 0 34 -6 47 -18s19 -27 19 -45c0 -19 -6 -34 -19 -46s-28 -18 -47 -18s-34 6 -47 18s-19 27 -19 46c0 18 6 33 19 45s28 18 47 18z" />
    <glyph glyph-name="ellipsis" unicode="&#x2026;" horiz-adv-x="600" 
d="M110 90c13 0 25 -4 35 -13s15 -20 15 -35s-5 -26 -15 -35s-22 -13 -35 -13s-25 4 -35 13s-15 20 -15 35s5 26 15 35s22 13 35 13zM300 90c13 0 25 -4 35 -13s15 -20 15 -35s-5 -26 -15 -35s-22 -13 -35 -13s-25 4 -35 13s-15 20 -15 35s5 26 15 35s22 13 35 13zM490 90
c13 0 25 -4 35 -13s15 -20 15 -35s-5 -26 -15 -35s-22 -13 -35 -13s-25 4 -35 13s-15 20 -15 35s5 26 15 35s22 13 35 13z" />
    <glyph glyph-name="perthousand" unicode="&#x2030;" horiz-adv-x="1105" 
d="M197 633c21 0 41 -4 59 -11s34 -17 46 -30c14 -13 24 -28 31 -45s11 -36 11 -56s-4 -39 -11 -56s-17 -32 -31 -45c-12 -13 -28 -23 -46 -30s-38 -11 -59 -11s-41 4 -59 11s-34 17 -46 30c-14 13 -24 28 -31 45s-11 36 -11 56s4 39 11 56s17 32 31 45c12 13 28 23 46 30
s38 11 59 11zM650 605l-497 -612l-36 30l497 612zM197 592c-31 0 -55 -9 -73 -28c-17 -19 -26 -43 -26 -73s9 -54 27 -73s42 -28 72 -28c31 0 55 9 72 28s26 43 26 73s-9 54 -27 73c-17 19 -41 28 -71 28zM574 288c21 0 41 -4 59 -11s33 -17 47 -30c12 -13 23 -28 30 -45
s11 -36 11 -56s-4 -39 -11 -56s-18 -32 -30 -45c-14 -13 -29 -23 -47 -30s-38 -11 -59 -11s-41 4 -59 11s-33 17 -47 30c-12 13 -23 28 -30 45s-11 36 -11 56s4 39 11 56s18 32 30 45c14 13 29 23 47 30s38 11 59 11zM574 247c-31 0 -55 -9 -72 -28c-18 -19 -27 -43 -27 -73
s9 -54 27 -73s42 -28 72 -28c31 0 55 9 72 28s26 43 26 73s-9 54 -26 73c-18 19 -42 28 -72 28zM923 288c21 0 41 -4 59 -11s34 -17 46 -30c14 -13 24 -28 31 -45s11 -36 11 -56s-4 -39 -11 -56s-17 -32 -31 -45c-12 -13 -28 -23 -46 -30s-38 -11 -59 -11s-41 4 -59 11
s-34 17 -46 30c-14 13 -24 28 -31 45s-11 36 -11 56s4 39 11 56s17 32 31 45c12 13 28 23 46 30s38 11 59 11zM923 247c-31 0 -55 -9 -73 -28c-17 -19 -26 -43 -26 -73s9 -54 27 -73s42 -28 72 -28c31 0 55 9 72 28s26 43 26 73s-9 54 -27 73c-17 19 -41 28 -71 28z" />
    <glyph glyph-name="guilsinglleft" unicode="&#x2039;" horiz-adv-x="291" 
d="M236 399l-132 -136l132 -139l-31 -28l-155 154v22l156 156z" />
    <glyph glyph-name="guilsinglright" unicode="&#x203a;" horiz-adv-x="291" 
d="M241 274v-22l-156 -156l-30 29l132 136l-132 139l31 28z" />
    <glyph glyph-name="Euro" unicode="&#x20ac;" horiz-adv-x="742" 
d="M436 287l-4 -45h-266c15 -65 46 -117 92 -154c48 -37 107 -56 179 -56c48 0 91 8 127 22c38 16 71 38 102 69l31 -33c-34 -35 -72 -61 -115 -78c-43 -18 -92 -26 -147 -26c-89 0 -161 23 -217 68c-54 45 -90 108 -105 188l-63 5v40h386zM117 418c9 35 23 67 41 97
c19 30 42 56 70 78c27 22 60 39 97 52s79 19 126 19c44 0 86 -8 127 -24c40 -17 75 -39 105 -67l-31 -34c-29 25 -61 45 -94 59c-34 13 -72 20 -113 20c-73 0 -133 -18 -181 -54c-47 -37 -79 -85 -96 -146h281l-4 -45h-395v40z" />
    <glyph glyph-name="uni20B6" unicode="&#x20b6;" horiz-adv-x="668" 
d="M380 652c36 0 68 -4 98 -14c28 -8 54 -21 74 -38c22 -17 38 -37 49 -61s17 -51 17 -81s-6 -57 -16 -82c-12 -24 -27 -44 -48 -61s-46 -29 -75 -39c-29 -8 -62 -13 -99 -13h-201v-101h220v-43h-221v-119h-48v116l-95 9v37h93v101h-93v44h93v345h252zM179 307h201
c60 0 106 13 140 39c32 27 49 64 49 111c0 48 -16 85 -49 111c-32 27 -79 40 -140 40h-201v-301z" />
    <glyph glyph-name="afii61352" unicode="&#x2116;" horiz-adv-x="1064" 
d="M885 524c19 0 36 -3 52 -10s30 -16 41 -27s20 -25 26 -40c7 -15 10 -31 10 -48s-3 -34 -10 -49c-6 -15 -15 -29 -26 -40s-25 -20 -41 -27s-33 -10 -52 -10s-37 3 -53 10c-15 7 -29 16 -40 27s-20 25 -26 40s-9 32 -9 49s3 33 9 48s15 29 26 40s25 20 40 27
c16 7 34 10 53 10zM1001 181v-44h-232v44h232zM885 482c-25 0 -45 -8 -59 -23c-16 -15 -23 -35 -23 -60s8 -46 23 -61c16 -15 36 -23 59 -23s43 8 59 23c15 15 23 36 23 61s-7 45 -23 60c-14 15 -34 23 -59 23zM644 651v-651h-55l-449 579v-579h-50v651h55l449 -579v579h50z
" />
    <glyph glyph-name="trademark" unicode="&#x2122;" horiz-adv-x="653" 
d="M364 671l113 -130l113 130h43v-279h-44v212l-104 -120h-16l-104 118v-210h-44v238h-128v-238h-45v238h-113v41h329z" />
    <glyph glyph-name="minus" unicode="&#x2212;" horiz-adv-x="469" 
d="M399 364v-45h-329v45h329z" />
    <glyph glyph-name="approxequal" unicode="&#x2248;" horiz-adv-x="458" 
d="M55 408c13 17 27 30 43 39c17 9 38 13 64 13c15 0 28 -3 40 -8c10 -6 21 -12 31 -19s20 -13 31 -19c11 -5 23 -8 37 -8c29 0 55 12 77 35l25 -24c-11 -17 -26 -29 -43 -39c-17 -8 -39 -13 -64 -13c-16 0 -30 3 -42 9c-11 5 -22 11 -33 18s-21 13 -31 18
c-10 6 -21 9 -33 9c-17 0 -32 -3 -45 -9c-12 -6 -23 -15 -32 -26zM55 251c13 17 27 30 43 39c17 9 38 13 64 13c15 0 28 -3 40 -9c10 -5 21 -11 31 -18s20 -13 31 -18c11 -6 23 -9 37 -9c29 0 55 12 77 35l25 -24c-11 -17 -26 -30 -43 -38c-17 -10 -39 -14 -64 -14
c-16 0 -30 3 -42 8c-11 6 -22 12 -33 19l-31 19c-10 5 -21 8 -33 8c-17 0 -32 -3 -45 -9c-12 -6 -23 -15 -32 -26z" />
    <glyph glyph-name="notequal" unicode="&#x2260;" horiz-adv-x="468" 
d="M244 446l29 106l43 -12l-26 -94h108v-43h-120l-34 -125h154v-43h-166l-25 -94l-43 12l22 82h-116v43h128l34 125h-162v43h174z" />
    <glyph glyph-name="lessequal" unicode="&#x2264;" horiz-adv-x="376" 
d="M326 554l-198 -151l198 -151l-26 -37l-232 173v26l231 173zM274 111l-29 -37l-195 148v14l22 27z" />
    <glyph glyph-name="greaterequal" unicode="&#x2265;" horiz-adv-x="376" 
d="M308 414v-26l-232 -173l-26 37l198 151l-198 151l27 33zM326 236v-14l-195 -148l-29 37l202 152z" />
    <glyph glyph-name="two.sup" horiz-adv-x="357" 
d="M316 400h-277v35l162 107c17 11 33 24 46 40c13 14 20 32 20 51c0 22 -7 40 -23 55c-14 15 -38 22 -69 22c-24 0 -44 -4 -61 -12s-34 -20 -51 -35l-27 32c38 39 86 59 143 59c20 0 39 -3 55 -9c18 -6 32 -14 44 -25c12 -10 22 -22 28 -36c8 -14 11 -29 11 -46
c0 -29 -7 -54 -23 -74c-14 -22 -35 -40 -60 -55l-103 -64h185v-45z" />
    <glyph glyph-name="three.sup" horiz-adv-x="355" 
d="M202 600c39 0 58 17 58 51c0 19 -7 33 -22 43c-15 11 -34 16 -57 16c-43 0 -78 -13 -107 -39l-29 33c18 17 38 30 59 38s48 12 81 12c18 0 35 -2 50 -8c15 -4 29 -12 39 -20c12 -10 20 -20 26 -32c7 -11 10 -23 10 -36s-3 -26 -10 -40c-6 -12 -16 -23 -30 -31
c18 -7 32 -18 41 -33c9 -16 14 -33 14 -50c0 -13 -3 -26 -9 -40c-6 -12 -15 -24 -28 -34c-12 -11 -28 -19 -46 -26c-20 -7 -42 -10 -67 -10c-30 0 -56 4 -77 12c-22 7 -45 20 -68 38l25 35c19 -15 38 -25 59 -31c20 -7 41 -10 63 -10c32 0 56 6 73 18s25 28 25 47
c0 17 -6 31 -18 39c-12 10 -29 14 -50 14h-89v44h84z" />
    <glyph glyph-name="one.sup" horiz-adv-x="198" 
d="M148 747v-347h-50v269l-52 -28l-26 36l95 74z" />
    <glyph glyph-name="Acircum" horiz-adv-x="749" 
d="M411 672l293 -672h-55l-73 169h-404l-73 -169h-54l293 672h73zM192 216h363l-173 403h-16zM385 923l128 -124v-10l-24 -23l-115 106l-115 -106l-24 23v10l129 124h21z" />
    <glyph glyph-name="acircum" 
d="M96 466c32 19 64 34 96 42c33 10 68 14 106 14c77 0 134 -16 170 -50c37 -32 55 -80 55 -143v-217c0 -29 5 -49 15 -60c11 -11 23 -17 37 -17c5 0 10 0 15 1s9 2 12 3l7 -37c-12 -7 -26 -10 -42 -10c-25 0 -45 7 -60 22c-15 14 -24 39 -27 76c-21 -32 -51 -57 -89 -75
s-83 -27 -134 -27c-29 0 -56 4 -81 12c-24 7 -45 18 -62 32s-31 31 -40 52s-14 44 -14 70c0 48 19 87 56 118c38 31 92 46 163 46c33 0 66 -3 101 -10c35 -6 66 -15 94 -27v44c0 101 -58 152 -174 152c-67 0 -129 -16 -185 -48zM475 237c-27 12 -57 21 -91 28
c-32 7 -66 10 -101 10c-31 0 -57 -3 -78 -9c-21 -7 -39 -16 -53 -26c-13 -12 -23 -24 -30 -40c-6 -14 -9 -31 -9 -48c0 -37 14 -66 41 -88c28 -20 67 -31 116 -31c25 0 50 4 75 11c25 8 47 19 66 33s35 31 47 51c11 20 17 43 17 68v41zM298 706l-110 -96l-24 23v10l124 119
h21l123 -119v-10l-24 -23z" />
    <glyph glyph-name="Ecircum" 
d="M560 670v-45h-418v-255h365v-45h-365v-279h437v-46h-489v670h470zM349 923l128 -124v-10l-24 -23l-115 106l-115 -106l-24 23v10l129 124h21z" />
    <glyph glyph-name="ecircum" horiz-adv-x="620" 
d="M108 237c3 -65 25 -115 66 -150c40 -35 92 -53 157 -53c36 0 70 4 101 13s62 23 91 44l24 -38c-31 -23 -64 -39 -101 -49c-36 -11 -75 -16 -117 -16c-41 0 -79 6 -113 18c-33 12 -62 30 -86 52c-24 24 -42 52 -56 84c-12 34 -19 71 -19 112c0 39 7 74 19 107
c14 33 32 61 56 85s53 43 86 56c34 13 72 20 113 20c35 0 67 -6 97 -17c28 -11 53 -27 74 -48s37 -45 48 -74s17 -60 17 -94c0 -19 -2 -36 -6 -52h-451zM514 283c-1 59 -17 107 -48 142s-78 53 -141 53c-61 0 -110 -18 -147 -52c-38 -36 -61 -83 -69 -143h405zM324 706
l-110 -96l-24 23v10l124 119h21l123 -119v-10l-24 -23z" />
    <glyph glyph-name="Icircum" horiz-adv-x="232" 
d="M142 670v-670h-52v670h52zM128 923l128 -124v-10l-24 -23l-115 106l-115 -106l-24 23v10l129 124h21z" />
    <glyph glyph-name="icircum" horiz-adv-x="212" 
d="M132 510v-510h-52v510h52zM107 706l-110 -96l-24 23v10l124 119h21l123 -119v-10l-24 -23z" />
    </font>
</defs>
</svg>
