<?xml version="1.0" standalone="no"?>
<!DOCTYPE svg PUBLIC "-//W3C//DTD SVG 1.1//EN" "http://www.w3.org/Graphics/SVG/1.1/DTD/svg11.dtd" >
<svg xmlns="http://www.w3.org/2000/svg" xmlns:xlink="http://www.w3.org/1999/xlink" version="1.1">
<metadata>
Created by FontForge 20161116 at Mon Dec  9 16:45:00 2013
 By Jimmy Warting
Copyright (c) 2013 by Glenjan. All rights reserved.
</metadata>
<defs>
<font id="LetoSans" horiz-adv-x="641" >
  <font-face 
    font-family="LetoSans Regular"
    font-weight="400"
    font-stretch="normal"
    units-per-em="1000"
    panose-1="2 0 5 3 0 0 0 0 0 0"
    ascent="723"
    descent="-277"
    x-height="510"
    cap-height="670"
    bbox="-146 -319 1112 986"
    underline-thickness="75"
    underline-position="-100"
    unicode-range="U+0020-2265"
  />
<missing-glyph horiz-adv-x="539" 
d="M269 323l114 113l61 -61l-113 -113l113 -114l-61 -62l-114 114l-114 -114l-61 62l114 114l-113 113l61 62z" />
    <glyph glyph-name="fk.l" unicode="fk" horiz-adv-x="1011" 
d="M126 511v48c0 27 5 53 16 77s26 45 46 63c19 18 43 32 72 43c28 10 60 15 95 15c46 0 88 -6 125 -17c38 -12 73 -29 105 -52v-380l95 11l155 191h124l-194 -229l221 -281h-122l-174 228h-105v-228h-97v639c-18 11 -38 19 -60 24c-23 5 -46 7 -70 7c-40 0 -72 -10 -98 -30
c-24 -20 -37 -49 -37 -88v-42h164v-85h-164v-425h-97v425h-83v81z" />
    <glyph glyph-name="ff.l" unicode="ff" horiz-adv-x="749" 
d="M126 511v39c0 27 5 52 14 76s23 45 42 63c18 18 41 32 68 43c27 10 59 15 94 15c34 0 65 -4 92 -11c28 -8 54 -20 77 -35c17 17 39 31 63 41c26 10 55 15 88 15c34 0 64 -4 89 -13s50 -21 73 -38l-45 -69c-34 23 -72 34 -113 34c-37 0 -64 -10 -82 -30
c-19 -20 -28 -49 -28 -87v-44h164v-85h-164v-425h-97v425h-238v-425h-97v425h-83v81zM461 510v45c0 26 4 50 11 72c-35 23 -77 34 -125 34c-39 0 -69 -10 -91 -29s-33 -47 -33 -83v-39h238z" />
    <glyph glyph-name="fi.l" unicode="fi" horiz-adv-x="623" 
d="M126 511v47c0 29 5 55 14 80c10 25 24 46 44 64c18 19 42 33 69 44s59 16 95 16c43 0 83 -6 118 -17s68 -28 99 -51l-48 -73c-25 17 -51 31 -79 39c-28 10 -57 14 -86 14c-38 0 -69 -10 -93 -30s-36 -49 -36 -87v-47h326v-510h-99v425h-227v-425h-97v425h-83v81z" />
    <glyph glyph-name="fj.l" unicode="fj" horiz-adv-x="623" 
d="M126 511v47c0 29 5 55 14 80c10 25 24 46 44 64c18 19 42 33 69 44s59 16 95 16c43 0 82 -6 118 -16c34 -12 68 -29 99 -52l-48 -73c-25 17 -51 31 -79 39c-28 10 -57 14 -86 14c-38 0 -69 -10 -93 -30s-36 -49 -36 -87v-47h327v-546c0 -29 -4 -56 -12 -81
c-7 -25 -19 -46 -34 -64c-16 -18 -36 -32 -58 -42c-24 -10 -50 -15 -81 -15c-27 0 -51 3 -73 8c-23 5 -45 14 -66 25l34 78c17 -9 34 -16 49 -19s33 -5 52 -5c27 0 49 9 67 28c16 19 25 48 25 88v460h-230v-425h-97v425h-83v81z" />
    <glyph glyph-name="fl.l" unicode="fl" horiz-adv-x="658" 
d="M126 511v48c0 27 5 53 16 77s26 45 46 63c19 18 43 32 72 43c28 10 60 15 95 15c46 0 88 -6 125 -17c38 -12 73 -29 105 -52v-688h-97v639c-17 11 -37 19 -60 23c-22 6 -45 8 -70 8c-40 0 -72 -10 -98 -30c-24 -20 -37 -49 -37 -88v-42h164v-85h-164v-425h-97v425h-83v81
z" />
    <glyph glyph-name="fh.l" unicode="fh" horiz-adv-x="1055" 
d="M126 511v48c0 27 5 53 16 77s26 45 46 63c19 18 43 32 72 43c28 10 60 15 95 15c46 0 88 -6 125 -17c38 -12 73 -29 105 -52v-269c18 33 42 59 73 77c30 17 68 26 114 26c65 0 117 -19 154 -56s56 -92 56 -165v-301h-97v290c0 50 -11 87 -33 112c-22 24 -54 36 -96 36
c-40 0 -75 -13 -105 -39s-52 -63 -66 -110v-289h-97v639c-18 11 -38 19 -60 24c-23 5 -46 7 -70 7c-40 0 -72 -10 -98 -30c-24 -20 -37 -49 -37 -88v-42h164v-85h-164v-425h-97v425h-83v81z" />
    <glyph glyph-name="ft.l" unicode="ft" horiz-adv-x="799" 
d="M126 511v51c0 27 5 53 16 78c10 25 25 46 44 64c20 19 44 34 72 44c29 12 61 17 97 17c81 0 151 -20 208 -61l-11 -194h189v-85h-186v-254c0 -33 7 -57 22 -73c15 -14 37 -22 67 -22c19 0 37 3 53 8s31 13 44 22l36 -73c-21 -15 -44 -27 -69 -34c-24 -7 -50 -11 -78 -11
c-55 0 -98 15 -128 45s-45 77 -45 140v252h-234v-425h-97v425h-83v81zM453 510l16 143c-17 9 -34 16 -53 19c-19 4 -38 6 -58 6c-42 0 -75 -11 -99 -34c-24 -22 -36 -52 -36 -90v-44h230z" />
    <glyph glyph-name="cyr.ii.l" unicode="&#x456;&#x457;" horiz-adv-x="491" 
d="M172 510v-510h-99v510h99zM418 510v-510h-99v510h99zM25 733c17 0 31 -5 43 -17c13 -10 19 -25 19 -44s-6 -34 -19 -44c-12 -12 -26 -17 -43 -17c-16 0 -30 5 -43 17c-13 10 -19 25 -19 44s6 34 19 44c13 12 27 17 43 17zM465 733c17 0 31 -5 44 -17
c13 -10 19 -25 19 -44s-6 -34 -19 -44c-13 -12 -27 -17 -44 -17c-16 0 -30 5 -43 17c-12 10 -18 25 -18 44s6 34 18 44c13 12 27 17 43 17zM245 739c19 0 35 -6 49 -19c12 -12 19 -28 19 -47c0 -20 -7 -36 -19 -49c-14 -12 -30 -18 -49 -18s-35 6 -47 18
c-14 13 -20 29 -20 49c0 19 6 35 20 47c12 13 28 19 47 19z" />
    <glyph glyph-name="lsl.l" unicode="&#x17f;l" horiz-adv-x="543" 
d="M73 559c0 29 5 55 14 80s23 46 41 65c18 18 40 32 66 42c27 11 57 16 92 16c38 0 72 -5 102 -15c31 -10 58 -24 82 -41v-706h-97v660c-25 11 -53 16 -84 16c-36 0 -65 -10 -87 -31c-21 -21 -32 -50 -32 -89v-556h-97v559z" />
    <glyph glyph-name="lsk.l" unicode="&#x17f;k" horiz-adv-x="896" 
d="M73 559c0 29 5 55 14 80s23 46 41 65c18 18 40 32 66 42c27 11 57 16 92 16c38 0 72 -5 102 -15c31 -10 58 -24 82 -41v-398l95 11l155 191h124l-194 -229l221 -281h-122l-174 228h-105v-228h-97v660c-27 11 -55 16 -84 16c-36 0 -65 -10 -87 -31
c-21 -21 -32 -50 -32 -89v-556h-97v559z" />
    <glyph glyph-name="lsls.l" unicode="&#x17f;&#x17f;" horiz-adv-x="573" 
d="M73 545c0 29 5 55 15 80c9 25 23 46 42 64c18 18 40 32 66 43c27 10 57 15 90 15c30 0 58 -3 82 -9c26 -6 49 -15 71 -26c15 14 34 25 57 33c22 8 48 12 77 12c34 0 64 -4 89 -13c25 -8 50 -21 73 -38l-46 -74c-17 13 -36 22 -55 28s-39 9 -59 9c-35 0 -60 -11 -77 -31
c-17 -22 -25 -50 -25 -87v-551h-97v556c0 15 1 30 3 44c2 13 6 26 11 38c-15 7 -31 13 -47 17s-34 6 -54 6c-36 0 -65 -10 -87 -30c-21 -20 -32 -50 -32 -90v-541h-97v545z" />
    <glyph glyph-name="lsi.l" unicode="&#x17f;i" horiz-adv-x="526" 
d="M452 510v-510h-99v510h99zM73 557c0 29 5 55 14 80s23 46 41 65c19 18 41 32 68 43s57 16 92 16c34 0 67 -4 98 -13c32 -9 60 -22 83 -39l-46 -73c-17 11 -37 21 -61 28c-22 7 -46 11 -71 11c-36 0 -65 -10 -87 -31c-23 -20 -34 -50 -34 -90v-554h-97v557z" />
    <glyph glyph-name="lsh.l" unicode="&#x17f;h" horiz-adv-x="940" 
d="M73 559c0 29 5 55 14 80s23 46 41 65c18 18 40 32 66 42c27 11 57 16 92 16c38 0 72 -5 102 -15c31 -10 58 -24 82 -41v-287c18 33 42 59 72 77c31 17 69 26 115 26c65 0 117 -19 154 -56s56 -92 56 -165v-301h-96v290c0 50 -11 87 -33 112c-23 24 -55 36 -97 36
c-40 0 -75 -13 -105 -39c-29 -26 -51 -63 -66 -110v-289h-97v660c-27 11 -55 16 -84 16c-36 0 -65 -10 -87 -31c-21 -21 -32 -50 -32 -89v-556h-97v559z" />
    <glyph glyph-name="lst.l" unicode="&#x17f;t" horiz-adv-x="711" 
d="M365 510l16 147c-27 13 -58 19 -92 19c-36 0 -65 -10 -87 -31c-21 -21 -32 -50 -32 -89v-556h-97v559c0 29 5 55 14 80s23 46 41 65c18 18 40 32 66 42c27 11 57 16 92 16c38 0 72 -5 104 -15c30 -10 58 -25 83 -44l-9 -193h189v-85h-186v-254c0 -33 7 -57 23 -73
c14 -14 37 -22 67 -22c19 0 36 3 53 8c16 5 31 13 44 22l36 -73c-21 -15 -44 -27 -69 -34s-51 -11 -79 -11c-55 0 -98 15 -128 45s-45 77 -45 140v252h-83v79z" />
    <glyph glyph-name=".notdef" horiz-adv-x="539" 
d="M269 323l114 113l61 -61l-113 -113l113 -114l-61 -62l-114 114l-114 -114l-61 62l114 114l-113 113l61 62z" />
    <glyph glyph-name="space" unicode=" " horiz-adv-x="300" 
 />
    <glyph glyph-name="exclam" unicode="!" horiz-adv-x="239" 
d="M168 728v-532h-97v532h97zM119 124c19 0 35 -6 47 -18c14 -12 20 -28 20 -47s-6 -35 -20 -47c-12 -12 -28 -18 -47 -18c-17 0 -33 6 -46 18s-20 28 -20 47s7 35 20 47s29 18 46 18z" />
    <glyph glyph-name="quotedbl" unicode="&#x22;" horiz-adv-x="329" 
d="M281 684v-49l-19 -143h-68v192h87zM135 684v-49l-19 -143h-68v192h87z" />
    <glyph glyph-name="numbersign" unicode="#" horiz-adv-x="613" 
d="M478 581l-14 -97l95 -3v-77h-107l-19 -114h112v-77l-125 -3l-18 -112l-78 11l16 101h-119l-20 -107l-75 9l15 98l-88 3v77h99l18 114h-102v78l115 2l19 108l78 -11l-16 -97h119l19 108zM233 290h119l18 114h-119z" />
    <glyph glyph-name="dollar" unicode="$" horiz-adv-x="645" 
d="M368 780v-118c37 -3 71 -11 103 -22c32 -12 62 -29 89 -50l-51 -71c-55 38 -118 57 -187 57c-54 0 -93 -9 -116 -26c-23 -18 -35 -41 -35 -69s9 -49 27 -63c17 -15 46 -25 85 -30l103 -14c63 -9 113 -29 148 -60c36 -30 54 -73 54 -128c0 -24 -4 -47 -14 -69
c-8 -22 -22 -42 -40 -59c-19 -18 -42 -33 -70 -44c-27 -12 -59 -20 -96 -24v-116h-97v113c-40 3 -78 11 -113 23s-70 30 -103 54l47 79c37 -25 73 -43 108 -53c34 -11 70 -16 107 -16c57 0 100 10 129 29s43 46 43 81c0 27 -10 49 -29 66c-19 16 -50 27 -91 32l-108 14
c-61 8 -107 27 -141 56c-32 29 -49 71 -49 125c0 27 5 51 15 71c9 22 23 40 41 56c18 15 39 28 64 37s52 16 82 19v120h95z" />
    <glyph glyph-name="percent" unicode="%" horiz-adv-x="779" 
d="M203 642c23 0 45 -4 65 -12c19 -7 36 -18 50 -32c14 -13 25 -29 33 -48s12 -39 12 -60s-4 -41 -12 -60s-19 -35 -33 -48c-14 -14 -31 -25 -50 -32c-20 -8 -42 -12 -65 -12s-45 4 -65 12c-19 7 -36 18 -50 32c-14 13 -25 29 -33 48s-12 39 -12 60s4 41 12 60s19 35 33 48
c14 14 31 25 50 32c20 8 42 12 65 12zM663 584l-485 -601l-64 49l486 602zM203 567c-23 0 -42 -7 -56 -21s-21 -33 -21 -56s7 -42 21 -56s33 -21 56 -21s42 7 56 21s21 33 21 56s-7 42 -21 56s-33 21 -56 21zM591 297c23 0 44 -4 63 -11c20 -8 37 -19 51 -32
c14 -14 25 -30 33 -49s12 -39 12 -60s-4 -41 -12 -60s-19 -35 -33 -49c-14 -13 -31 -24 -51 -32c-19 -7 -40 -11 -63 -11s-45 4 -65 11c-19 8 -36 19 -50 32c-14 14 -25 30 -33 49s-12 39 -12 60s4 41 12 60s19 35 33 49c14 13 31 24 50 32c20 7 42 11 65 11zM591 222
c-23 0 -42 -7 -56 -21s-21 -33 -21 -56s7 -42 21 -56s33 -21 56 -21s42 7 55 21c14 14 21 33 21 56s-7 42 -21 56c-13 14 -32 21 -55 21z" />
    <glyph glyph-name="ampersand" unicode="&#x26;" horiz-adv-x="742" 
d="M669 369c0 -60 -9 -114 -27 -161c-19 -48 -44 -89 -76 -123l71 -75l-69 -64l-76 82c-24 -13 -50 -24 -77 -31s-57 -11 -88 -11c-43 0 -80 6 -113 18c-33 11 -60 28 -82 48c-23 22 -40 46 -52 75c-11 29 -17 60 -17 94c0 39 9 75 25 107c18 32 42 58 74 77
c-11 25 -16 52 -16 80c0 24 5 47 14 69c9 21 23 40 42 56c18 17 41 30 68 40c28 10 60 15 97 15c45 0 85 -7 120 -22s65 -35 90 -62l-59 -67c-20 21 -42 38 -67 50c-25 11 -53 17 -85 17c-41 0 -72 -10 -92 -30c-21 -20 -31 -44 -31 -71c0 -35 13 -66 40 -95l222 -235
c22 26 39 57 51 94c13 37 19 78 19 125h94zM211 336c-34 -27 -51 -64 -51 -109c0 -22 4 -43 12 -61c7 -20 18 -36 33 -50s33 -25 54 -33s46 -12 73 -12c36 0 69 8 100 23z" />
    <glyph glyph-name="quotesingle" unicode="'" horiz-adv-x="184" 
d="M135 684v-56l-19 -149h-68v205h87z" />
    <glyph glyph-name="parenleft" unicode="(" horiz-adv-x="313" 
d="M300 627c-51 -49 -88 -102 -113 -161s-37 -125 -37 -200c0 -70 12 -134 36 -192c24 -57 62 -113 114 -168l-59 -57c-59 49 -105 108 -138 177s-50 149 -50 240c0 81 15 156 46 228c31 70 78 134 141 191z" />
    <glyph glyph-name="parenright" unicode=")" horiz-adv-x="313" 
d="M72 685c59 -49 105 -108 138 -177s50 -149 50 -240c0 -81 -15 -157 -46 -228c-30 -70 -77 -134 -141 -191l-60 58c51 49 89 102 113 161c26 59 38 125 38 200c0 70 -12 134 -36 192c-24 57 -62 113 -115 168z" />
    <glyph glyph-name="asterisk" unicode="*" horiz-adv-x="422" 
d="M188 593l35 107l78 -26l-45 -105l112 6v-80l-113 7l46 -104l-80 -28l-34 108l-87 -72l-47 68l93 60l-93 67l50 64z" />
    <glyph glyph-name="plus" unicode="+" horiz-adv-x="520" 
d="M306 544v-161h151v-83h-151v-161h-91v161h-152v83h152v161h91z" />
    <glyph glyph-name="comma" unicode="," horiz-adv-x="241" 
d="M92 -2c-11 5 -21 13 -28 24s-11 23 -11 38c0 20 7 36 20 48s29 18 48 18s34 -6 47 -17s19 -28 19 -49c0 -13 -2 -24 -6 -33l-57 -135l-57 21z" />
    <glyph glyph-name="hyphen" unicode="-" horiz-adv-x="428" 
d="M364 324v-84h-301v84h301z" />
    <glyph glyph-name="period" unicode="." horiz-adv-x="244" 
d="M122 129c19 0 35 -6 48 -19c14 -12 21 -28 21 -49c0 -20 -7 -36 -21 -49c-13 -12 -29 -18 -48 -18s-35 6 -48 18c-14 13 -21 29 -21 49c0 21 7 37 21 49c13 13 29 19 48 19z" />
    <glyph glyph-name="slash" unicode="/" horiz-adv-x="392" 
d="M393 706l-329 -792l-81 34l328 792z" />
    <glyph glyph-name="zero" unicode="0" horiz-adv-x="774" 
d="M387 684c50 0 95 -9 136 -26c41 -18 75 -43 104 -74s51 -68 67 -111c15 -43 23 -89 23 -138c0 -48 -8 -93 -23 -135c-16 -43 -38 -80 -67 -112c-29 -31 -63 -56 -104 -74c-41 -19 -86 -28 -136 -28s-95 9 -136 27s-75 43 -104 75c-29 31 -51 68 -67 110
c-15 43 -23 88 -23 137s8 94 23 137c16 42 38 79 68 110c28 31 63 56 104 74c41 19 86 28 135 28zM387 595c-37 0 -70 -7 -99 -20c-28 -13 -52 -32 -71 -55c-19 -24 -34 -52 -44 -84c-10 -31 -15 -65 -15 -101s5 -70 16 -101c10 -32 25 -60 44 -84c19 -23 43 -42 72 -55
s61 -20 97 -20c37 0 69 7 97 20c29 13 53 32 72 55c20 23 35 51 45 82c10 32 15 66 15 103c0 38 -5 73 -16 105c-10 31 -25 58 -44 82c-19 22 -43 40 -72 54c-29 12 -61 19 -97 19z" />
    <glyph glyph-name="one" unicode="1" horiz-adv-x="378" 
d="M295 670v-670h-99v528l-103 -77l-50 67l186 157z" />
    <glyph glyph-name="two" unicode="2" horiz-adv-x="625" 
d="M556 0h-487v84l284 218c36 28 62 55 79 82s25 55 25 86c0 38 -13 68 -38 92c-25 22 -64 34 -116 34c-69 0 -132 -24 -189 -73l-51 72c34 32 72 55 113 69c42 13 86 20 132 20c39 0 74 -5 105 -16c31 -10 57 -24 78 -43s37 -41 49 -67c10 -25 16 -53 16 -84
c0 -47 -11 -88 -33 -124c-22 -37 -56 -72 -102 -107l-204 -153h339v-90z" />
    <glyph glyph-name="three" unicode="3" horiz-adv-x="644" 
d="M343 393c33 0 59 9 77 25c18 18 27 40 27 69c0 34 -12 61 -35 79c-23 20 -61 29 -112 29c-30 0 -60 -5 -90 -16s-59 -28 -87 -53l-53 71c68 58 147 87 238 87c39 0 73 -5 102 -14c30 -10 55 -23 76 -40c20 -16 35 -35 46 -58c11 -22 16 -46 16 -72c0 -30 -6 -57 -19 -82
c-13 -24 -31 -42 -56 -55v-10c34 -11 61 -31 80 -57c19 -28 29 -60 29 -99c0 -29 -6 -56 -18 -81c-12 -26 -30 -48 -54 -68c-23 -18 -52 -34 -87 -45s-75 -17 -120 -17c-53 0 -101 8 -142 23s-82 41 -121 76l57 73c35 -30 68 -51 101 -64s70 -19 113 -19c54 0 95 11 125 35
c28 22 43 53 43 90c0 33 -11 59 -33 78c-21 18 -53 27 -96 27h-154v88h147z" />
    <glyph glyph-name="four" unicode="4" horiz-adv-x="683" 
d="M550 670v-461h95v-84l-95 -6v-119h-99v120h-408v80l370 470h137zM168 209h283v348h-13z" />
    <glyph glyph-name="five" unicode="5" horiz-adv-x="631" 
d="M533 670v-89h-324l-13 -165c19 9 39 16 61 22c22 4 47 7 76 7c35 0 67 -5 96 -15s55 -25 76 -44s38 -43 50 -71s18 -60 18 -97c0 -32 -6 -62 -19 -90c-13 -29 -31 -54 -54 -74c-23 -22 -52 -38 -86 -50c-35 -12 -73 -18 -116 -18c-52 0 -98 8 -138 24
c-41 17 -78 42 -112 76l60 71c30 -30 61 -51 93 -63c32 -13 67 -19 105 -19c24 0 46 3 68 9c20 7 38 16 54 28c14 13 26 28 35 46c9 17 13 37 13 59c0 43 -13 78 -40 103s-65 38 -114 38c-37 0 -69 -4 -94 -12c-26 -7 -49 -18 -68 -32l-66 24l30 332h409z" />
    <glyph glyph-name="six" unicode="6" horiz-adv-x="655" 
d="M527 537c-51 40 -108 60 -170 60c-57 0 -104 -18 -141 -54s-59 -89 -64 -159c25 21 54 38 86 48c33 12 71 17 115 17c38 0 72 -5 103 -16s57 -26 78 -45c22 -19 39 -43 50 -71c12 -28 18 -59 18 -94c0 -34 -7 -65 -20 -94s-32 -54 -56 -75s-52 -38 -85 -50
s-68 -18 -107 -18c-89 0 -158 29 -208 88c-48 58 -73 141 -73 248c0 57 7 108 23 152c14 46 36 84 63 114c27 32 60 55 99 72c38 16 81 24 128 24c39 0 76 -6 113 -19s70 -32 100 -57zM153 296c0 -39 5 -72 14 -100s22 -51 39 -70c16 -18 35 -31 57 -40s46 -13 71 -13
s48 3 68 11c22 6 40 16 54 30c16 12 27 28 36 46c8 19 12 39 12 62c0 46 -14 81 -42 106c-29 24 -69 36 -122 36c-35 0 -69 -6 -101 -18c-32 -11 -61 -28 -86 -50z" />
    <glyph glyph-name="seven" unicode="7" horiz-adv-x="580" 
d="M532 670v-74l-275 -596h-109l273 582h-373v88h484z" />
    <glyph glyph-name="eight" unicode="8" horiz-adv-x="655" 
d="M327 684c37 0 71 -4 100 -14c29 -8 54 -21 74 -38c20 -16 35 -36 45 -58c11 -24 16 -49 16 -76c0 -28 -6 -54 -20 -80c-12 -24 -31 -45 -55 -62c37 -15 65 -37 85 -64c20 -28 30 -61 30 -100c0 -27 -6 -53 -18 -78c-11 -25 -28 -46 -52 -66c-22 -18 -52 -34 -86 -45
c-36 -11 -76 -17 -123 -17c-45 0 -84 5 -117 16c-34 11 -62 26 -85 44c-23 20 -40 42 -51 68s-17 54 -17 85c0 39 9 74 29 105c18 32 45 57 79 74c-21 13 -37 31 -48 54c-11 22 -16 46 -16 71c0 26 5 50 16 72s26 41 46 57c20 17 44 30 73 38c28 10 60 14 95 14zM293 321
l-29 5c-9 2 -17 4 -24 6c-31 -11 -53 -28 -68 -51c-14 -23 -21 -49 -21 -78c0 -39 15 -71 46 -95s74 -36 130 -36c58 0 101 11 131 34c28 22 43 51 43 87c0 30 -11 54 -31 73c-22 18 -57 32 -106 41zM361 395c15 -3 28 -6 40 -9c23 11 39 26 50 44c11 19 16 41 16 66
c0 29 -11 53 -33 74c-21 20 -57 30 -107 30c-45 0 -78 -10 -100 -28c-22 -20 -33 -43 -33 -71c0 -27 10 -47 28 -63c20 -14 47 -25 83 -32z" />
    <glyph glyph-name="nine" unicode="9" horiz-adv-x="652" 
d="M114 133c26 -21 54 -36 85 -45c31 -10 62 -15 94 -15c59 0 107 18 143 53c38 36 59 89 64 159c-25 -21 -54 -38 -86 -49c-33 -10 -71 -16 -115 -16c-38 0 -72 5 -103 16c-30 11 -56 26 -77 45s-38 43 -49 71s-17 59 -17 94c0 34 7 66 19 95c14 29 32 55 54 75
c24 22 51 38 84 50c32 12 67 18 105 18c91 0 161 -29 211 -88c48 -59 73 -141 73 -248c0 -57 -7 -108 -21 -153s-34 -83 -62 -113c-26 -32 -60 -55 -98 -72c-40 -16 -84 -24 -134 -24c-39 0 -79 6 -118 18c-39 13 -74 32 -104 58zM499 374c0 39 -5 72 -14 100s-22 51 -39 70
c-16 18 -35 31 -58 40c-22 9 -46 13 -73 13c-24 0 -46 -3 -67 -11c-20 -6 -37 -16 -52 -30c-14 -12 -25 -28 -33 -47s-12 -39 -12 -62c0 -46 14 -81 41 -106s67 -37 120 -37c35 0 69 6 101 18c32 13 61 30 86 52z" />
    <glyph glyph-name="colon" unicode=":" horiz-adv-x="237" 
d="M119 122c17 0 33 -6 45 -18c14 -11 20 -27 20 -46s-6 -35 -20 -46c-12 -12 -28 -18 -45 -18s-33 6 -46 18c-13 11 -20 27 -20 46s7 35 20 46c13 12 29 18 46 18zM119 471c17 0 33 -6 45 -17c14 -12 20 -28 20 -47s-6 -35 -20 -47c-12 -11 -28 -17 -45 -17s-33 6 -46 17
c-13 12 -20 28 -20 47s7 35 20 47c13 11 29 17 46 17z" />
    <glyph glyph-name="semicolon" unicode=";" horiz-adv-x="237" 
d="M119 471c17 0 33 -6 45 -17c14 -12 20 -28 20 -47s-6 -35 -20 -47c-12 -11 -28 -17 -45 -17s-33 6 -46 17c-13 12 -20 28 -20 47s7 35 20 47c13 11 29 17 46 17zM93 -1c-11 5 -21 12 -29 21c-7 10 -11 22 -11 37c0 19 6 35 19 47s28 18 47 18c17 0 33 -6 45 -18
c14 -12 20 -28 20 -47c0 -5 -1 -11 -2 -16s-3 -10 -4 -15l-56 -134l-56 21z" />
    <glyph glyph-name="less" unicode="&#x3c;" horiz-adv-x="407" 
d="M344 502l-178 -153l177 -150l-56 -70l-244 206v31l245 200z" />
    <glyph glyph-name="equal" unicode="=" horiz-adv-x="476" 
d="M413 469v-81h-350v81h350zM413 295v-80h-350v80h350z" />
    <glyph glyph-name="greater" unicode="&#x3e;" horiz-adv-x="407" 
d="M364 361v-32l-245 -200l-56 64l178 154l-177 150l55 69z" />
    <glyph glyph-name="question" unicode="?" horiz-adv-x="607" 
d="M53 646c36 30 74 52 115 65c40 13 84 20 131 20c37 0 72 -5 103 -14s58 -23 80 -41c23 -19 40 -41 53 -68s19 -57 19 -91c0 -53 -16 -97 -47 -135c-31 -36 -76 -62 -134 -76c-25 -6 -42 -15 -53 -28c-10 -13 -15 -27 -15 -44c0 -11 2 -23 5 -34l-86 -10
c-7 17 -11 36 -11 59c0 33 10 61 31 85c21 23 51 40 92 51c44 12 75 29 93 51s27 49 27 81c0 40 -14 71 -42 94c-29 23 -67 34 -115 34c-39 0 -74 -6 -106 -18s-62 -29 -90 -52zM272 124c18 0 34 -6 47 -18s20 -28 20 -47s-7 -35 -20 -47s-29 -18 -47 -18s-34 6 -46 18
c-14 12 -20 28 -20 47s6 35 20 47c12 12 28 18 46 18z" />
    <glyph glyph-name="at" unicode="@" horiz-adv-x="879" 
d="M600 210c0 -20 4 -34 12 -44c9 -8 21 -13 36 -13c23 0 41 12 56 37c14 24 21 60 21 109c0 36 -5 69 -15 99c-11 30 -27 56 -48 78c-22 21 -49 38 -82 50s-71 18 -116 18c-47 0 -90 -8 -128 -22c-39 -16 -72 -36 -99 -63s-49 -58 -63 -93c-16 -36 -23 -75 -23 -117
c0 -43 7 -81 19 -115c14 -34 32 -63 56 -87c25 -24 54 -42 90 -55c34 -13 74 -19 118 -19c51 0 96 3 136 11c41 6 80 18 119 33l25 -73c-41 -18 -84 -32 -130 -40c-46 -10 -96 -14 -150 -14c-55 0 -106 8 -152 24c-46 17 -86 40 -118 71c-34 31 -59 68 -78 113
s-28 95 -28 151c0 52 10 101 31 147s49 86 85 120c36 35 79 62 128 82c50 19 104 29 162 29c50 0 96 -7 139 -22s80 -36 111 -64s56 -62 74 -103c17 -40 26 -86 26 -137c0 -33 -4 -63 -12 -90c-7 -27 -18 -51 -33 -71c-15 -19 -33 -34 -54 -46c-21 -10 -45 -16 -72 -16
c-25 0 -47 5 -65 15c-19 10 -32 25 -40 45c-15 -21 -33 -38 -54 -50c-20 -11 -46 -17 -75 -17c-47 0 -86 15 -116 46s-45 74 -45 130c0 30 5 57 16 81c10 25 24 46 42 64c18 17 39 31 64 40s52 14 81 14c55 0 105 -10 149 -31v-205zM515 359c-19 7 -41 11 -66 11
c-33 0 -60 -10 -80 -30c-20 -19 -30 -49 -30 -90c0 -35 8 -61 23 -77s34 -24 57 -24c28 0 51 10 69 29s27 44 27 74v107z" />
    <glyph glyph-name="A" unicode="A" horiz-adv-x="762" 
d="M440 671l281 -671h-112l-60 152h-339l-59 -152h-109l279 671h119zM244 240h271l-129 328h-12z" />
    <glyph glyph-name="B" unicode="B" horiz-adv-x="677" 
d="M361 670c37 0 69 -4 97 -13c29 -9 52 -21 72 -37c18 -15 33 -34 42 -56c10 -21 15 -45 15 -70c0 -28 -6 -54 -19 -78s-31 -42 -54 -53v-9c35 -10 62 -30 84 -59c20 -29 31 -63 31 -101c0 -27 -5 -52 -15 -75c-9 -23 -24 -44 -44 -61c-19 -18 -44 -32 -74 -42
c-30 -11 -65 -16 -106 -16h-307v670h278zM185 86h205c46 0 81 10 104 28c23 20 35 47 35 83c0 35 -12 62 -35 81c-24 19 -59 29 -105 29h-204v-221zM185 392h192c38 0 66 9 83 26c18 18 27 42 27 72c0 63 -43 94 -129 94h-173v-192z" />
    <glyph glyph-name="C" unicode="C" horiz-adv-x="727" 
d="M617 523c-56 47 -124 70 -205 70c-39 0 -74 -6 -106 -18c-31 -12 -58 -29 -80 -52c-23 -23 -40 -50 -52 -81c-13 -32 -19 -68 -19 -107c0 -40 6 -76 19 -108s30 -59 53 -81s49 -39 81 -51c30 -12 64 -18 101 -18c43 0 82 7 119 21c36 15 69 35 99 62l57 -70
c-72 -69 -165 -104 -280 -104c-52 0 -100 8 -142 24c-44 16 -80 39 -112 69c-30 30 -54 66 -72 109c-16 43 -25 91 -25 145c0 49 9 95 25 138c18 43 42 80 74 111c31 32 70 57 115 75s97 27 154 27c48 0 93 -8 137 -24c42 -15 80 -37 112 -65z" />
    <glyph glyph-name="D" unicode="D" horiz-adv-x="728" 
d="M320 670c55 0 104 -8 148 -24c43 -17 80 -40 111 -70c31 -29 54 -65 71 -106c17 -40 25 -86 25 -135s-9 -93 -25 -135c-18 -40 -42 -76 -73 -106c-31 -29 -69 -52 -113 -69s-93 -25 -147 -25h-234v670h237zM184 89h133c37 0 71 6 103 17c31 11 58 28 81 49s41 47 53 77
c14 31 20 65 20 103c0 80 -23 141 -68 183c-46 42 -109 63 -190 63h-132v-492z" />
    <glyph glyph-name="E" unicode="E" 
d="M565 670v-89h-382v-189h336v-88h-336v-214h400v-90h-500v670h482z" />
    <glyph glyph-name="F" unicode="F" horiz-adv-x="606" 
d="M553 670v-89h-370v-199h320v-88h-320v-294h-100v670h470z" />
    <glyph glyph-name="G" unicode="G" horiz-adv-x="740" 
d="M677 359v-281c-35 -30 -75 -53 -121 -68c-47 -16 -97 -24 -150 -24s-101 8 -144 24s-80 39 -112 69c-30 30 -54 66 -72 109c-16 43 -25 91 -25 145c0 49 8 94 25 137s40 80 72 112c30 31 68 56 114 74c44 19 96 28 153 28c45 0 89 -7 131 -21s80 -35 113 -63l-54 -73
c-25 22 -55 39 -89 49c-33 12 -69 17 -106 17c-39 0 -74 -6 -106 -18c-31 -12 -58 -29 -80 -52c-23 -23 -40 -50 -52 -81c-13 -32 -19 -68 -19 -107c0 -41 6 -77 19 -109s30 -59 53 -81s49 -39 81 -51c30 -11 65 -17 102 -17c69 0 125 16 170 47v146l-147 7v82h244z" />
    <glyph glyph-name="H" unicode="H" horiz-adv-x="732" 
d="M186 670v-282h360v282h102v-670h-102v297h-360v-297h-103v670h103z" />
    <glyph glyph-name="I" unicode="I" horiz-adv-x="269" 
d="M186 670v-670h-103v670h103z" />
    <glyph glyph-name="J" unicode="J" horiz-adv-x="540" 
d="M457 670v-427c0 -82 -19 -145 -57 -190c-39 -45 -96 -67 -172 -67c-36 0 -69 4 -100 12c-30 9 -60 24 -90 47l46 78c25 -17 48 -29 72 -37c22 -6 47 -10 72 -10c36 0 66 12 90 37c25 25 37 64 37 118v439h102z" />
    <glyph glyph-name="K" unicode="K" horiz-adv-x="703" 
d="M183 670v-275l104 8l218 267h126l-261 -310l286 -360h-130l-237 312h-106v-312h-100v670h100z" />
    <glyph glyph-name="L" unicode="L" horiz-adv-x="619" 
d="M185 670v-580h386v-90h-488v670h102z" />
    <glyph glyph-name="M" unicode="M" horiz-adv-x="840" 
d="M195 670l226 -349l227 349h109v-670h-99v514h-9l-205 -315h-51l-204 315h-9v-514h-97v670h112z" />
    <glyph glyph-name="N" unicode="N" horiz-adv-x="752" 
d="M669 670v-670h-100l-388 508v-508h-98v670h91l398 -521v521h97z" />
    <glyph glyph-name="O" unicode="O" horiz-adv-x="811" 
d="M405 684c53 0 101 -9 144 -26c43 -18 80 -43 111 -74s54 -68 72 -111c16 -43 25 -89 25 -138c0 -48 -9 -93 -25 -135c-18 -43 -42 -80 -72 -112c-32 -31 -68 -56 -112 -74c-42 -19 -90 -28 -143 -28s-101 9 -143 27c-44 18 -80 43 -112 75c-30 31 -54 68 -72 110
c-16 43 -25 88 -25 137s9 94 26 137c17 42 41 79 73 110c30 31 68 56 110 74c44 19 91 28 143 28zM405 595c-39 0 -75 -7 -105 -20c-32 -13 -58 -32 -79 -55s-38 -51 -49 -82c-11 -32 -17 -66 -17 -103s6 -71 17 -103c12 -31 29 -59 50 -82s48 -42 78 -55
c32 -13 66 -20 105 -20s75 7 105 19c32 14 58 32 80 55c21 23 38 51 49 83c11 31 17 66 17 103c0 38 -6 73 -18 105c-11 31 -28 58 -49 82c-21 22 -48 40 -79 54c-31 12 -66 19 -105 19z" />
    <glyph glyph-name="P" unicode="P" horiz-adv-x="675" 
d="M368 670c37 0 71 -6 102 -16c31 -12 58 -27 80 -48c23 -20 40 -44 53 -73s19 -60 19 -95c0 -37 -7 -70 -20 -98c-14 -30 -33 -54 -57 -74c-24 -21 -52 -36 -85 -47c-32 -11 -66 -16 -103 -16h-171v-203h-103v670h285zM186 291h169c51 0 91 13 121 39c29 25 44 61 44 107
c0 45 -14 81 -41 107c-27 25 -66 38 -117 38h-176v-291z" />
    <glyph glyph-name="Q" unicode="Q" horiz-adv-x="811" 
d="M694 -149l-184 150c-32 -10 -67 -15 -105 -15c-53 0 -101 9 -143 27c-44 18 -80 43 -112 75c-30 31 -54 68 -72 110c-16 43 -25 88 -25 137s9 94 26 137c17 42 41 79 73 110c30 31 68 56 110 74c44 19 91 28 143 28c53 0 101 -9 144 -26c43 -18 80 -43 111 -74
s54 -68 72 -111c16 -43 25 -89 25 -138c0 -61 -13 -116 -39 -167c-27 -50 -63 -91 -110 -123l149 -115zM405 595c-39 0 -75 -7 -105 -20c-32 -13 -58 -32 -79 -55s-38 -51 -49 -82c-11 -32 -17 -66 -17 -103s6 -71 17 -103c12 -31 29 -59 50 -82s48 -42 78 -55
c32 -13 66 -20 105 -20s75 7 105 19c32 14 58 32 80 55c21 23 38 51 49 83c11 31 17 66 17 103c0 38 -6 73 -18 105c-11 31 -28 58 -49 82c-21 22 -48 40 -79 54c-31 12 -66 19 -105 19z" />
    <glyph glyph-name="R" unicode="R" horiz-adv-x="686" 
d="M372 670c37 0 70 -5 101 -16s57 -26 79 -46c22 -19 39 -43 51 -70s18 -57 18 -90c0 -49 -14 -90 -42 -125s-65 -60 -111 -75l175 -248h-124l-150 224h-183v-224h-103v670h289zM186 312h175c48 0 86 12 115 36c28 24 42 57 42 100c0 45 -14 78 -42 100
c-28 23 -65 34 -111 34h-179v-270z" />
    <glyph glyph-name="S" unicode="S" horiz-adv-x="653" 
d="M525 532c-27 20 -58 36 -92 46c-34 12 -69 17 -106 17c-54 0 -93 -9 -117 -27s-36 -42 -36 -72s9 -52 28 -68c18 -14 47 -25 88 -30l100 -14c68 -10 120 -31 156 -63c35 -32 53 -75 53 -130c0 -30 -6 -57 -18 -83c-12 -24 -30 -46 -53 -64c-24 -18 -54 -32 -89 -42
c-35 -11 -76 -16 -123 -16c-52 0 -99 6 -142 18c-43 11 -83 31 -122 60l48 81c37 -25 73 -43 110 -54c36 -11 74 -16 114 -16c58 0 102 10 130 31c30 21 44 48 44 82c0 28 -10 51 -29 68c-19 18 -51 30 -96 36l-105 15c-63 9 -112 28 -144 58c-34 30 -50 72 -50 127
c0 31 6 59 18 83c13 24 30 44 52 60s48 28 80 37c30 8 65 12 102 12c46 0 91 -6 136 -19c44 -13 82 -32 115 -59z" />
    <glyph glyph-name="T" unicode="T" horiz-adv-x="689" 
d="M641 670v-90h-246v-580h-101v580h-246v90h593z" />
    <glyph glyph-name="U" unicode="U" horiz-adv-x="754" 
d="M186 670v-364c0 -74 16 -131 48 -171c33 -40 80 -60 143 -60c61 0 109 19 141 56c34 37 50 95 50 173v366h103v-367c0 -48 -6 -91 -19 -131c-12 -38 -30 -72 -55 -100c-25 -27 -55 -49 -92 -64c-37 -14 -79 -22 -128 -22c-48 0 -90 7 -127 22c-36 15 -66 36 -92 62
c-24 28 -43 60 -56 99s-19 82 -19 131v370h103z" />
    <glyph glyph-name="V" unicode="V" horiz-adv-x="747" 
d="M152 670l219 -567h12l214 567h112l-273 -672h-125l-273 672h114z" />
    <glyph glyph-name="W" unicode="W" horiz-adv-x="1015" 
d="M148 670l154 -554h10l148 512h94l152 -512h10l151 554h110l-203 -672h-129l-134 456h-10l-128 -456h-130l-205 672h110z" />
    <glyph glyph-name="X" unicode="X" horiz-adv-x="719" 
d="M181 670l177 -263h10l169 263h123l-224 -327l245 -343h-126l-193 286h-10l-188 -286h-126l245 350l-223 320h121z" />
    <glyph glyph-name="Y" unicode="Y" horiz-adv-x="712" 
d="M157 670l196 -351h10l193 351h118l-268 -456v-214h-100v214l-268 456h119z" />
    <glyph glyph-name="Z" unicode="Z" horiz-adv-x="663" 
d="M597 670v-76l-404 -504h412v-90h-547v74l410 506h-395v90h524z" />
    <glyph glyph-name="bracketleft" unicode="[" horiz-adv-x="303" 
d="M270 659v-78h-102v-621h102v-79h-197v778h197z" />
    <glyph glyph-name="backslash" unicode="\" horiz-adv-x="440" 
d="M422 -25l-80 -37l-333 740l81 37z" />
    <glyph glyph-name="bracketright" unicode="]" horiz-adv-x="303" 
d="M230 659v-778h-197v78h103v621h-103v79h197z" />
    <glyph glyph-name="asciicircum" unicode="^" horiz-adv-x="337" 
d="M180 671l135 -128v-10l-49 -50l-98 84l-97 -84l-49 50v10l135 128h23z" />
    <glyph glyph-name="underscore" unicode="_" horiz-adv-x="435" 
d="M425 -46v-82h-415v82h415z" />
    <glyph glyph-name="grave" unicode="`" horiz-adv-x="259" 
d="M172 621h-85l-82 139l82 48z" />
    <glyph glyph-name="a" unicode="a" horiz-adv-x="622" 
d="M78 463c34 21 68 37 102 45c34 10 70 14 108 14c79 0 137 -18 174 -54c37 -37 55 -87 55 -151v-187c0 -21 4 -36 11 -46c7 -8 17 -13 29 -13c7 0 14 1 21 4l9 -74c-14 -7 -31 -10 -51 -10c-25 0 -46 6 -64 19c-16 12 -28 34 -33 67c-43 -59 -109 -89 -198 -89
c-61 0 -109 14 -143 44c-36 28 -53 71 -53 126c0 51 20 92 61 121s96 44 167 44c28 0 55 -2 79 -7c26 -5 49 -11 70 -18v28c0 37 -11 64 -32 83s-55 28 -100 28c-61 0 -118 -15 -173 -44zM423 222c-43 15 -91 22 -146 22c-48 0 -82 -8 -103 -24c-20 -17 -30 -38 -30 -64
c0 -28 10 -49 30 -64c19 -14 48 -21 85 -21c23 0 44 3 63 9c20 7 38 16 52 27c16 11 27 25 36 41c9 15 13 33 13 52v22z" />
    <glyph glyph-name="b" unicode="b" horiz-adv-x="635" 
d="M171 713v-243c23 17 47 30 74 39s56 13 88 13c36 0 69 -5 101 -16c30 -11 57 -27 80 -48c22 -22 40 -49 52 -82c14 -33 20 -71 20 -115c0 -43 -8 -81 -22 -115c-16 -33 -36 -62 -62 -86c-26 -23 -56 -41 -92 -54c-34 -12 -72 -18 -112 -18c-39 0 -76 3 -114 9
c-36 6 -74 16 -111 31v685h98zM171 93c20 -7 40 -13 59 -16c20 -3 42 -5 65 -5c27 0 52 4 75 12s44 20 62 36c17 16 31 36 41 60c10 23 15 51 15 82c0 57 -15 101 -44 131s-68 45 -116 45c-63 0 -116 -20 -157 -59v-286z" />
    <glyph glyph-name="c" unicode="c" horiz-adv-x="583" 
d="M476 381c-19 17 -41 31 -66 41c-26 10 -55 15 -88 15c-24 0 -47 -4 -68 -12c-22 -8 -41 -20 -57 -35s-29 -34 -38 -56s-14 -47 -14 -75c0 -57 16 -102 47 -135s75 -50 130 -50c32 0 62 6 89 16c27 12 51 28 70 49l59 -61c-28 -31 -60 -54 -98 -68
c-36 -15 -78 -22 -124 -22c-43 0 -82 7 -116 20c-33 14 -62 33 -84 57c-24 24 -41 52 -52 85c-12 32 -18 67 -18 104c0 41 7 78 22 110c14 34 33 62 58 85c24 23 52 41 86 54c32 13 68 19 106 19c45 0 85 -6 120 -20c35 -12 65 -32 90 -57z" />
    <glyph glyph-name="d" unicode="d" horiz-adv-x="657" 
d="M584 713v-713h-77l-11 97c-20 -36 -47 -63 -80 -81c-34 -19 -72 -28 -115 -28c-39 0 -74 6 -105 18s-58 29 -80 52s-39 50 -50 84c-12 32 -18 70 -18 112c0 41 7 78 21 112c14 32 33 61 57 84c25 23 53 41 86 54c33 12 68 18 106 18c34 0 65 -4 92 -12
c28 -9 54 -21 77 -38v241h97zM487 385c-47 36 -100 54 -159 54c-57 0 -101 -16 -134 -49c-32 -32 -48 -77 -48 -136c0 -29 4 -55 12 -78c9 -22 20 -41 34 -56c15 -16 32 -28 51 -36s40 -12 62 -12c45 0 82 12 113 36s54 58 69 103v174z" />
    <glyph glyph-name="e" unicode="e" horiz-adv-x="612" 
d="M146 222c5 -47 24 -84 55 -110s73 -39 125 -39c35 0 68 5 96 13c30 10 57 24 84 43l44 -69c-34 -26 -69 -44 -106 -56c-37 -10 -77 -16 -120 -16s-82 6 -116 18c-34 13 -63 30 -86 54c-24 22 -42 50 -55 83s-19 70 -19 111c0 39 7 74 20 107s32 61 56 85s53 43 87 56
s72 20 113 20c36 0 69 -6 98 -17s54 -27 76 -49c20 -20 37 -46 48 -75c12 -29 18 -62 18 -97c0 -11 -1 -21 -2 -32c-1 -10 -3 -20 -5 -30h-411zM466 302c-1 41 -13 74 -37 99s-60 37 -109 37s-87 -12 -116 -36c-29 -25 -47 -58 -54 -100h316z" />
    <glyph glyph-name="f" unicode="f" horiz-adv-x="415" 
d="M126 511v46c0 27 4 53 12 77c7 23 19 44 36 62c16 17 37 31 62 42c25 10 55 15 90 15c65 0 121 -17 166 -52l-46 -69c-17 11 -35 20 -54 26c-20 6 -40 9 -61 9c-38 0 -65 -9 -83 -29c-16 -18 -25 -45 -25 -79v-49h164v-85h-164v-425h-97v425h-83v81z" />
    <glyph glyph-name="g" unicode="g" horiz-adv-x="646" 
d="M591 463l-89 -20c13 -13 22 -29 30 -47c6 -18 10 -37 10 -57c0 -25 -5 -48 -15 -70s-24 -41 -43 -58s-42 -30 -70 -39c-27 -10 -58 -15 -93 -15c-29 0 -54 3 -76 9c-22 7 -42 16 -59 27c-13 -7 -22 -15 -28 -25c-5 -11 -8 -23 -8 -36c0 -21 7 -37 21 -46s35 -14 64 -14
h161c32 0 60 -4 84 -12c23 -7 42 -18 58 -31c14 -13 26 -29 33 -47c7 -19 11 -39 11 -61c0 -29 -7 -57 -21 -82s-34 -47 -59 -67c-26 -18 -57 -34 -92 -44c-36 -12 -76 -17 -120 -17c-81 0 -140 16 -179 49s-58 76 -58 131c0 26 5 51 15 75c9 23 23 44 41 62
c-32 24 -48 57 -48 98c0 48 24 88 72 119c-9 13 -16 27 -21 43s-7 33 -7 51c0 25 5 48 14 71c9 22 23 41 43 58c18 17 42 30 70 40c28 9 61 14 99 14h97l155 14zM180 -6c-11 -11 -20 -25 -25 -40c-5 -16 -8 -33 -8 -50c0 -35 13 -62 38 -82c25 -18 62 -28 110 -28
c59 0 105 11 141 34c34 23 52 53 52 91c0 23 -8 41 -22 53c-16 12 -41 18 -76 18h-157zM320 441c-40 0 -70 -9 -90 -26c-21 -17 -31 -42 -31 -75c0 -31 10 -56 31 -74c21 -20 51 -29 91 -29c37 0 67 9 90 27c23 17 35 43 35 76c0 43 -17 77 -51 101h-75z" />
    <glyph glyph-name="h" unicode="h" 
d="M171 713v-294c18 33 42 59 72 77c30 17 68 26 115 26c65 0 116 -19 154 -56c37 -37 56 -92 56 -165v-301h-97v290c0 50 -11 87 -33 112c-23 24 -55 36 -96 36c-40 0 -75 -13 -105 -39s-52 -63 -66 -110v-289h-98v713h98z" />
    <glyph glyph-name="i" unicode="i" horiz-adv-x="245" 
d="M172 510v-510h-99v510h99zM123 744c18 0 34 -6 47 -18c14 -12 21 -28 21 -49c0 -20 -7 -36 -21 -48c-13 -12 -29 -18 -47 -18c-19 0 -35 6 -48 18s-20 28 -20 48c0 21 7 37 20 49s29 18 48 18z" />
    <glyph glyph-name="j" unicode="j" horiz-adv-x="251" 
d="M178 510v-546c0 -30 -4 -57 -12 -82c-7 -25 -19 -46 -34 -64c-16 -18 -36 -32 -58 -42c-24 -10 -50 -15 -81 -15c-27 0 -51 3 -73 8c-23 5 -45 14 -66 26l33 77c17 -9 34 -16 49 -19s33 -5 52 -5c28 0 50 9 68 28c16 19 25 48 25 88v546h97zM129 745c18 0 34 -6 47 -19
c14 -12 21 -28 21 -48c0 -21 -7 -37 -21 -49c-13 -12 -29 -18 -47 -18s-34 6 -47 18c-14 12 -21 28 -21 49c0 20 7 36 21 48c13 13 29 19 47 19z" />
    <glyph glyph-name="k" unicode="k" horiz-adv-x="597" 
d="M171 713v-405l95 11l155 191h124l-195 -229l222 -281h-123l-173 228h-105v-228h-98v713h98z" />
    <glyph glyph-name="l" unicode="l" horiz-adv-x="243" 
d="M170 713v-713h-97v713h97z" />
    <glyph glyph-name="m" unicode="m" horiz-adv-x="958" 
d="M152 510l10 -99c35 74 94 111 176 111c37 0 70 -8 100 -23c28 -15 50 -38 64 -68c19 29 45 52 77 67c32 16 67 24 105 24c67 0 117 -19 150 -56c34 -38 51 -91 51 -159v-307h-99v300c0 45 -10 79 -29 102c-19 24 -48 36 -85 36c-60 0 -106 -30 -139 -90l3 -21
c1 -7 1 -15 1 -22v-305h-98v300c0 45 -9 79 -29 102c-18 24 -48 36 -88 36c-34 0 -64 -13 -90 -38c-27 -25 -47 -61 -60 -107v-293h-99v510h79z" />
    <glyph glyph-name="n" unicode="n" 
d="M150 510l10 -106c17 37 42 66 76 87c32 21 72 31 118 31c65 0 117 -19 156 -56c39 -38 58 -93 58 -165v-301h-97v290c0 50 -11 87 -33 112c-23 24 -55 36 -96 36s-77 -14 -106 -40c-30 -28 -52 -65 -66 -112v-286h-97v510h77z" />
    <glyph glyph-name="o" unicode="o" horiz-adv-x="650" 
d="M325 522c41 0 78 -6 112 -20c34 -12 63 -31 88 -54c25 -24 44 -52 57 -85s20 -69 20 -108c0 -38 -7 -73 -21 -106s-33 -61 -57 -85c-25 -24 -54 -43 -88 -56s-71 -20 -111 -20c-41 0 -79 6 -113 20c-34 12 -63 31 -88 54c-24 24 -43 52 -56 85s-20 69 -20 108
c0 38 7 73 20 106c14 33 33 61 58 85c24 24 53 43 87 56s71 20 112 20zM325 439c-27 0 -52 -5 -75 -13c-22 -10 -41 -22 -56 -38c-16 -17 -28 -36 -36 -59c-9 -23 -13 -47 -13 -74s4 -52 13 -75s21 -42 36 -58c16 -16 35 -28 57 -38c22 -8 47 -13 74 -13c28 0 53 5 75 13
c22 10 41 22 56 38c16 16 28 35 36 58c9 23 13 48 13 75s-4 51 -13 73c-9 23 -21 42 -36 58c-16 17 -35 30 -57 39s-47 14 -74 14z" />
    <glyph glyph-name="p" unicode="p" horiz-adv-x="650" 
d="M150 510l10 -93c23 38 51 65 84 81c32 16 70 24 114 24c36 0 69 -6 99 -18c30 -13 56 -30 77 -52c21 -23 38 -50 50 -82c11 -33 17 -69 17 -109c0 -45 -7 -84 -23 -118c-14 -34 -34 -63 -59 -85c-25 -24 -53 -41 -85 -52c-32 -12 -65 -18 -100 -18c-33 0 -62 4 -88 11
c-27 7 -52 20 -77 37v-233h-96v707h77zM169 129c45 -37 97 -56 157 -56c26 0 50 4 72 13c21 9 40 21 55 38c15 16 27 36 36 60c9 23 13 50 13 80c0 25 -4 49 -10 70c-8 21 -18 40 -32 55c-13 15 -30 27 -50 36c-19 9 -41 13 -66 13c-43 0 -80 -12 -109 -34
c-29 -24 -51 -54 -66 -93v-182z" />
    <glyph glyph-name="q" unicode="q" horiz-adv-x="632" 
d="M558 -197h-97v252c-20 -21 -43 -38 -70 -49c-27 -12 -61 -18 -104 -18c-32 0 -62 5 -91 16c-29 10 -54 26 -76 48c-22 21 -40 49 -52 82c-14 33 -20 73 -20 119c0 41 8 79 23 112s37 62 63 85c28 23 59 41 96 54c37 12 76 18 119 18c37 0 73 -4 109 -11
c37 -7 70 -18 100 -31v-677zM461 416c-17 9 -35 15 -54 18s-38 5 -59 5c-30 0 -57 -4 -82 -13s-46 -21 -64 -37c-17 -16 -31 -35 -40 -59c-10 -22 -15 -48 -15 -76c0 -61 14 -106 41 -136c28 -29 66 -44 113 -44c36 0 67 7 93 22c27 14 49 37 67 70v250z" />
    <glyph glyph-name="r" unicode="r" horiz-adv-x="541" 
d="M151 510l9 -106c17 39 43 68 76 88s73 30 119 30c32 0 61 -5 88 -14c27 -10 50 -23 69 -40l-54 -75c-15 13 -33 23 -53 31c-20 6 -43 10 -68 10c-40 0 -74 -13 -103 -40c-29 -26 -50 -61 -64 -106v-288h-97v510h78z" />
    <glyph glyph-name="s" unicode="s" horiz-adv-x="569" 
d="M453 393c-52 30 -108 45 -169 45c-40 0 -70 -6 -92 -18c-20 -13 -31 -30 -31 -51c0 -17 5 -31 17 -41c10 -9 29 -16 56 -19l104 -12c55 -7 99 -23 130 -45c32 -24 48 -58 48 -105c0 -50 -21 -89 -64 -117c-42 -28 -101 -42 -178 -42c-44 0 -84 4 -120 14
c-35 8 -71 25 -106 48l42 75c30 -19 60 -33 91 -42s63 -13 97 -13c48 0 84 6 108 19c23 13 35 31 35 54c0 20 -6 35 -19 47c-13 10 -36 18 -69 21l-120 14c-48 5 -85 20 -110 45c-25 24 -38 57 -38 99c0 45 19 82 56 111c37 28 92 42 165 42c39 0 76 -4 111 -13
s68 -22 97 -41z" />
    <glyph glyph-name="t" unicode="t" horiz-adv-x="462" 
d="M116 510l17 140l88 -4l-5 -136h188v-85h-185v-254c0 -33 7 -57 22 -73c15 -14 37 -22 67 -22c19 0 36 3 52 8c17 5 32 13 45 22l36 -73c-21 -15 -44 -27 -69 -34s-51 -11 -79 -11c-55 0 -97 15 -127 45s-45 77 -45 140v252h-84v79z" />
    <glyph glyph-name="u" unicode="u" horiz-adv-x="634" 
d="M170 510v-283c0 -53 11 -92 32 -117s51 -37 90 -37c41 0 76 13 106 39c29 25 51 61 66 108v290h97v-510h-78l-9 103c-17 -37 -42 -66 -74 -85c-33 -20 -71 -30 -116 -30c-66 0 -118 19 -155 57s-56 94 -56 169v296h97z" />
    <glyph glyph-name="v" unicode="v" horiz-adv-x="631" 
d="M153 510l160 -414h10l158 414h112l-225 -513h-105l-225 513h115z" />
    <glyph glyph-name="w" unicode="w" horiz-adv-x="881" 
d="M147 510l120 -406h9l120 388h92l123 -388h9l121 406h101l-173 -513h-117l-107 352h-10l-105 -352h-116l-176 513h109z" />
    <glyph glyph-name="x" unicode="x" horiz-adv-x="627" 
d="M178 510l132 -195h10l130 195h117l-181 -245l202 -265h-123l-152 216h-10l-143 -216h-122l200 269l-183 241h123z" />
    <glyph glyph-name="y" unicode="y" horiz-adv-x="638" 
d="M152 510l184 -408h9l147 408h108l-233 -566c-19 -48 -42 -83 -68 -106c-26 -22 -59 -33 -99 -33c-37 0 -69 9 -94 26l27 75c11 -5 21 -9 31 -11s20 -3 29 -3c19 0 36 5 49 15c14 10 26 27 35 50l13 36l-252 517h114z" />
    <glyph glyph-name="z" unicode="z" horiz-adv-x="570" 
d="M509 510v-77l-323 -349h326v-84h-454v74l329 353h-311v83h433z" />
    <glyph glyph-name="braceleft" unicode="{" horiz-adv-x="307" 
d="M271 580l-52 -2c-25 -2 -38 -18 -38 -47v-12l9 -146v-12c0 -21 -4 -40 -12 -56c-9 -16 -20 -28 -35 -35c15 -7 26 -19 35 -34c8 -15 12 -34 12 -56v-11l-9 -149v-13c0 -15 3 -26 9 -33c7 -6 16 -9 29 -10l52 -2v-80h-62c-39 0 -69 11 -91 32c-20 21 -31 51 -31 90v13
l10 152v12c0 15 -4 27 -11 35c-7 9 -17 13 -30 13h-26v84h26c13 0 23 4 30 12s11 20 11 37v12l-10 151v12c0 39 11 69 33 90s52 32 91 32h60v-79z" />
    <glyph glyph-name="bar" unicode="|" horiz-adv-x="199" 
d="M146 720v-770h-93v770h93z" />
    <glyph glyph-name="braceright" unicode="}" horiz-adv-x="307" 
d="M99 659c39 0 69 -11 89 -31c22 -22 32 -51 32 -90v-13l-10 -153v-11c0 -16 4 -28 11 -36s17 -12 30 -12h26v-84h-26c-13 0 -23 -4 -30 -12s-11 -21 -11 -38v-11l10 -151v-13c0 -39 -11 -69 -33 -90s-52 -32 -91 -32h-59v80l51 2c26 1 39 16 39 46v12l-9 147v11
c0 21 4 40 12 56c9 16 20 28 34 35c-14 7 -25 19 -34 34c-8 15 -12 34 -12 56v12l9 149v12c0 15 -3 26 -10 32c-7 7 -16 11 -29 12l-51 2v79h62z" />
    <glyph glyph-name="asciitilde" unicode="~" horiz-adv-x="480" 
d="M48 341c13 25 30 44 51 57s45 20 73 20c16 0 30 -3 42 -8c11 -5 22 -11 32 -17l30 -17c9 -5 20 -8 33 -8c17 0 31 3 41 10c12 6 21 15 30 27l52 -51c-11 -24 -27 -42 -48 -55c-20 -13 -43 -19 -70 -19c-17 0 -32 3 -44 8c-13 5 -24 11 -35 18l-31 17c-9 5 -20 8 -33 8
c-18 0 -33 -3 -46 -10s-23 -16 -30 -27z" />
    <glyph glyph-name="exclamdown" unicode="&#xa1;" horiz-adv-x="239" 
d="M71 -218v532h97v-532h-97zM120 386c-19 0 -34 6 -47 18s-20 28 -20 47s7 35 20 47s28 18 47 18c17 0 33 -6 46 -18s20 -28 20 -47s-7 -35 -20 -47s-29 -18 -46 -18z" />
    <glyph glyph-name="sterling" unicode="&#xa3;" horiz-adv-x="690" 
d="M136 352c-9 19 -16 38 -24 58c-6 21 -10 46 -10 76c0 23 4 46 12 67c9 21 21 40 37 57s36 30 60 40c24 9 52 14 83 14c43 0 78 -7 107 -22s52 -35 71 -62l-69 -59c-25 38 -61 57 -108 57c-30 0 -53 -9 -71 -27c-16 -18 -25 -42 -25 -71c0 -20 3 -38 8 -56
c5 -16 13 -33 22 -50l148 36l19 -86l-131 -29c7 -22 11 -44 11 -67c0 -19 -3 -39 -10 -58c-6 -19 -16 -38 -30 -55c19 0 38 -2 55 -6s35 -9 53 -13c17 -6 35 -10 53 -14s37 -6 57 -6c32 0 56 8 73 23s25 36 25 63c0 13 -1 26 -4 37c-2 11 -6 23 -11 34l80 25
c9 -15 17 -32 22 -50s8 -36 8 -53c0 -49 -16 -89 -49 -119c-33 -32 -79 -47 -140 -47c-23 0 -44 2 -64 6c-18 4 -37 9 -55 13c-18 6 -37 10 -55 14c-20 5 -40 7 -62 7c-23 0 -45 -3 -67 -9c-22 -5 -45 -14 -68 -27l-34 70l48 28c26 15 45 34 58 56s19 47 19 75
c0 17 -3 35 -8 52l-96 -22l-18 81z" />
    <glyph glyph-name="currency" unicode="&#xa4;" horiz-adv-x="475" 
d="M157 495c23 13 51 19 82 19s57 -6 80 -19l54 51l63 -62l-46 -51c8 -12 14 -26 18 -41s6 -31 6 -47c0 -15 -2 -30 -6 -43c-5 -14 -11 -28 -18 -41l45 -49l-62 -60l-52 46c-11 -5 -24 -10 -39 -14c-14 -3 -28 -5 -43 -5c-16 0 -31 2 -45 5c-15 4 -28 9 -39 15l-54 -49
l-62 62l47 51c-15 25 -23 53 -23 82c0 33 8 61 25 86l-49 53l62 63zM239 435c-27 0 -48 -8 -65 -23s-25 -37 -25 -65c0 -26 8 -47 25 -64s38 -25 65 -25s48 8 65 25c16 17 24 38 24 64c0 28 -8 50 -24 65c-17 15 -38 23 -65 23z" />
    <glyph glyph-name="yen" unicode="&#xa5;" horiz-adv-x="697" 
d="M247 331l-209 321h114l197 -317h10l189 317h110l-202 -321l102 -3v-77h-418v77zM533 192v-74l-135 -5v-113h-97v113l-135 5v74h367z" />
    <glyph glyph-name="brokenbar" unicode="&#xa6;" horiz-adv-x="199" 
d="M146 720v-356h-93v356h93zM146 305v-355h-93v355h93z" />
    <glyph glyph-name="section" unicode="&#xa7;" horiz-adv-x="564" 
d="M429 578c-45 30 -94 45 -145 45c-32 0 -56 -5 -72 -17c-15 -10 -23 -26 -23 -45c0 -18 6 -32 19 -43s30 -19 51 -24l105 -25c46 -11 82 -29 108 -54s39 -60 39 -104c0 -28 -8 -53 -23 -77c-16 -22 -37 -41 -64 -54c15 -10 27 -23 34 -38c7 -16 11 -34 11 -53
c0 -44 -18 -79 -53 -106c-36 -27 -85 -40 -148 -40c-39 0 -74 4 -107 13c-33 8 -64 21 -94 39l38 76c28 -16 55 -27 82 -35c27 -6 54 -10 83 -10c36 0 62 6 79 18s25 28 25 47c0 34 -21 55 -62 63l-116 26c-47 10 -83 29 -107 56s-36 62 -36 104c0 29 7 55 22 77
s36 40 64 53c-13 11 -24 24 -33 40c-9 17 -13 35 -13 54c0 22 5 42 15 59c9 17 22 32 40 44c16 12 36 21 60 28c22 7 47 10 74 10c39 0 73 -5 104 -13c30 -10 59 -24 86 -43zM358 230c19 5 34 15 44 29c11 14 16 31 16 50c0 41 -25 68 -75 79l-139 32
c-19 -5 -33 -15 -43 -28c-10 -14 -15 -30 -15 -49c0 -43 24 -71 73 -82z" />
    <glyph glyph-name="dieresis" unicode="&#xa8;" horiz-adv-x="433" 
d="M103 735c18 0 33 -6 45 -17c13 -12 19 -27 19 -45s-6 -33 -19 -45c-12 -11 -27 -17 -45 -17c-17 0 -32 6 -45 17c-12 12 -18 27 -18 45s6 33 18 45c13 11 28 17 45 17zM329 735c17 0 32 -6 45 -17c12 -12 18 -27 18 -45s-6 -33 -18 -45c-13 -11 -28 -17 -45 -17
s-32 6 -45 17c-12 12 -18 27 -18 45s6 33 18 45c13 11 28 17 45 17z" />
    <glyph glyph-name="copyright" unicode="&#xa9;" horiz-adv-x="887" 
d="M554 423c-16 14 -32 24 -46 30c-16 6 -34 9 -56 9c-18 0 -34 -3 -49 -10s-27 -16 -37 -26c-11 -12 -19 -24 -24 -39c-6 -15 -9 -30 -9 -47c0 -40 11 -70 34 -91s51 -31 84 -31c23 0 43 4 62 10c19 8 36 17 51 30l43 -58c-23 -21 -47 -36 -73 -45s-56 -14 -89 -14
c-29 0 -55 5 -80 13c-25 10 -46 22 -65 40c-18 16 -32 37 -42 62c-11 25 -16 53 -16 84c0 28 5 54 16 78c11 25 25 46 44 64c19 17 40 31 66 41c24 10 52 15 81 15c31 0 59 -4 84 -13s49 -23 70 -43zM443 715c53 0 102 -9 149 -27c47 -17 88 -42 122 -76
c36 -32 63 -72 84 -118c20 -47 30 -98 30 -155c0 -55 -10 -106 -31 -152s-49 -85 -83 -119c-36 -32 -76 -58 -123 -77s-96 -28 -148 -28c-53 0 -103 9 -151 27c-46 17 -87 42 -122 76c-35 32 -62 72 -82 118s-30 98 -30 155c0 55 11 105 32 151c21 47 50 86 85 120
c35 32 76 58 123 77s95 28 145 28zM443 632c-39 0 -76 -7 -111 -20c-36 -14 -68 -34 -94 -60c-28 -25 -49 -56 -66 -92c-16 -36 -24 -76 -24 -121c0 -46 8 -87 22 -123c16 -36 36 -67 63 -92s58 -45 93 -58c36 -13 75 -20 117 -20c41 0 79 7 115 20c35 14 66 34 94 60
c26 25 48 56 64 92c15 36 23 76 23 121c0 47 -7 88 -23 125c-14 36 -35 66 -62 92c-27 24 -58 44 -94 56c-36 14 -75 20 -117 20z" />
    <glyph glyph-name="guillemotleft" unicode="&#xab;" horiz-adv-x="478" 
d="M251 388l-105 -125l105 -129l-61 -50l-147 164v25l147 165zM435 393l-103 -131l102 -134l-61 -48l-148 168v26l149 167z" />
    <glyph glyph-name="logicalnot" unicode="&#xac;" horiz-adv-x="453" 
d="M405 438v-217h-83l-10 131h-254v86h347z" />
    <glyph glyph-name="uni00AD" unicode="&#xad;" horiz-adv-x="428" 
d="M364 324v-84h-301v84h301z" />
    <glyph glyph-name="registered" unicode="&#xae;" horiz-adv-x="607" 
d="M303 750c39 0 74 -6 106 -19s59 -30 83 -53c22 -23 40 -49 52 -80c13 -31 19 -64 19 -100s-6 -70 -19 -100c-13 -32 -30 -58 -54 -80c-22 -23 -50 -40 -82 -53s-67 -19 -105 -19c-39 0 -74 6 -105 19c-32 13 -60 30 -82 53c-24 22 -41 48 -54 80c-13 30 -19 64 -19 100
s6 69 19 100s30 57 54 80c22 23 50 40 82 53c31 13 66 19 105 19zM303 681c-29 0 -54 -5 -77 -14s-42 -22 -58 -39c-16 -16 -28 -35 -36 -58c-9 -22 -13 -46 -13 -72c0 -25 4 -49 13 -72c8 -22 20 -41 36 -58s35 -30 58 -39s48 -14 77 -14s55 5 77 14c24 9 43 22 59 39
s28 36 37 58c8 23 12 47 12 72s-4 49 -12 72c-9 22 -21 41 -37 58c-16 16 -35 29 -59 38c-22 10 -48 15 -77 15zM321 615c30 0 53 -9 71 -25c16 -18 25 -38 25 -61c0 -17 -5 -32 -14 -45s-21 -22 -35 -27l43 -71h-65l-32 56h-47v-56h-56v229h110zM267 493h48
c14 0 25 3 31 10c8 7 11 15 11 26c0 23 -14 35 -42 35h-48v-71z" />
    <glyph glyph-name="macron" unicode="&#xaf;" horiz-adv-x="422" 
d="M374 716v-82h-327v82h327z" />
    <glyph glyph-name="degree" unicode="&#xb0;" horiz-adv-x="413" 
d="M207 684c23 0 45 -4 65 -12s37 -19 52 -33c14 -14 25 -31 34 -50c8 -19 12 -40 12 -63s-4 -44 -12 -63c-9 -19 -20 -36 -34 -51c-15 -14 -32 -25 -52 -33s-42 -12 -65 -12s-45 4 -65 12s-37 19 -52 33s-26 31 -34 50c-9 19 -13 41 -13 64s4 44 13 63c8 19 19 36 34 50
s32 25 52 33s42 12 65 12zM207 608c-25 0 -45 -8 -60 -23s-22 -35 -22 -59c0 -25 7 -45 23 -60c14 -15 34 -23 59 -23s44 8 59 23s22 35 22 60c0 24 -8 44 -22 59c-16 15 -35 23 -59 23z" />
    <glyph glyph-name="plusminus" unicode="&#xb1;" horiz-adv-x="523" 
d="M307 645v-158h153v-83h-153v-144h-91v144h-153v83h153v158h91zM445 199v-84h-367v84h367z" />
    <glyph glyph-name="acute" unicode="&#xb4;" horiz-adv-x="259" 
d="M217 760l-82 -139h-85l85 187z" />
    <glyph glyph-name="paragraph" unicode="&#xb6;" horiz-adv-x="546" 
d="M502 456l-62 -20v-309c0 -48 -8 -91 -26 -131c-16 -38 -45 -73 -85 -103l-161 -119l-42 54l96 78v327c-8 -5 -17 -8 -27 -10s-20 -3 -30 -3c-17 0 -34 3 -49 8c-15 6 -29 15 -40 26c-11 12 -21 26 -28 44c-6 16 -10 36 -10 58c0 23 4 44 13 64c9 18 21 35 36 48
s33 24 55 31c20 7 43 11 68 11h163c19 0 39 1 60 3s40 5 57 10zM301 -33l17 13c13 11 24 27 31 48c7 22 11 46 11 72v336h-59v-469zM200 436c-22 0 -40 -6 -54 -20c-15 -12 -22 -31 -22 -55c0 -23 6 -39 17 -50s25 -16 40 -16c16 0 30 4 41 11v130h-22z" />
    <glyph glyph-name="periodcentered" unicode="&#xb7;" horiz-adv-x="244" 
d="M122 358c19 0 35 -6 48 -18c14 -13 21 -29 21 -50c0 -20 -7 -36 -21 -48c-13 -13 -29 -19 -48 -19s-35 6 -48 19c-14 12 -21 28 -21 48c0 21 7 37 21 50c13 12 29 18 48 18z" />
    <glyph glyph-name="cedilla" unicode="&#xb8;" horiz-adv-x="257" 
d="M159 18l-7 -74c19 -5 35 -16 47 -32c12 -17 18 -37 18 -61c0 -36 -12 -68 -37 -95s-64 -48 -119 -63l-22 62c34 11 58 24 73 39c14 14 21 30 21 47c0 18 -6 31 -18 40s-31 13 -57 14v19l21 43v61h80z" />
    <glyph glyph-name="guillemotright" unicode="&#xbb;" horiz-adv-x="477" 
d="M435 274v-26l-147 -165l-61 51l105 125l-105 129l61 50zM253 274v-26l-149 -168l-60 49l103 130l-103 134l61 48z" />
    <glyph glyph-name="onequarter" unicode="&#xbc;" horiz-adv-x="736" 
d="M175 617v-347h-80v233l-47 -23l-35 56l109 85zM555 595l-390 -636l-61 35l390 636zM666 348v-218h42v-69l-42 -5v-56h-77v56h-211v64l200 228h88zM477 130h112v129z" />
    <glyph glyph-name="onehalf" unicode="&#xbd;" horiz-adv-x="772" 
d="M175 617v-347h-80v233l-47 -23l-35 56l109 85zM553 595l-390 -636l-60 35l390 636zM738 0h-284v62l150 95c17 11 31 23 41 35s15 26 15 41s-6 28 -16 37c-12 9 -29 14 -52 14c-21 0 -40 -4 -56 -11c-17 -7 -33 -18 -48 -31l-41 54c43 39 92 58 149 58
c43 0 77 -11 104 -32c26 -21 39 -49 39 -84c0 -28 -7 -52 -20 -70c-13 -20 -33 -37 -58 -52l-70 -42h147v-74z" />
    <glyph glyph-name="threequarters" unicode="&#xbe;" horiz-adv-x="816" 
d="M190 483c25 0 38 10 38 31c0 25 -19 37 -56 37c-38 0 -70 -10 -95 -31l-45 51c21 18 42 31 66 40c22 9 49 13 80 13c40 0 72 -10 95 -28c23 -20 35 -44 35 -74c0 -12 -2 -24 -8 -36c-4 -11 -13 -21 -25 -29c16 -6 28 -16 36 -31c8 -14 12 -30 12 -47c0 -15 -3 -30 -9 -44
s-15 -26 -28 -37c-12 -10 -28 -18 -46 -24c-20 -7 -42 -10 -67 -10c-31 0 -58 4 -81 11c-24 7 -48 20 -71 39l37 57c19 -13 38 -21 57 -27c19 -4 39 -7 60 -7s38 4 49 11c12 8 18 19 18 32c0 22 -15 33 -44 33h-89v70h81zM638 595l-390 -636l-60 35l390 636zM746 348v-218
h42v-69l-42 -5v-56h-77v56h-211v64l200 228h88zM557 130h112v129z" />
    <glyph glyph-name="questiondown" unicode="&#xbf;" horiz-adv-x="524" 
d="M550 -136c-36 -30 -74 -52 -114 -65c-41 -13 -85 -20 -132 -20c-37 0 -72 5 -103 14s-58 23 -80 42c-23 18 -40 40 -53 67s-19 57 -19 91c0 53 16 98 47 135s76 62 134 76c25 6 42 15 53 28c10 13 15 27 15 44c0 11 -2 23 -5 34l86 10c7 -17 11 -36 11 -59
c0 -33 -10 -61 -31 -84c-21 -24 -51 -41 -92 -52c-44 -12 -75 -29 -93 -51s-27 -49 -27 -81c0 -40 14 -71 43 -94c28 -23 66 -34 114 -34c39 0 74 6 106 18s62 29 90 52zM331 386c-18 0 -34 6 -47 18s-20 28 -20 47s7 35 20 47s29 18 47 18s34 -6 47 -18s19 -28 19 -47
s-6 -35 -19 -47s-29 -18 -47 -18z" />
    <glyph glyph-name="Agrave" unicode="&#xc0;" horiz-adv-x="762" 
d="M440 671l281 -671h-112l-60 152h-339l-59 -152h-109l279 671h119zM244 240h271l-129 328h-12zM322 974l88 -202h-90l-85 159z" />
    <glyph glyph-name="Aacute" unicode="&#xc1;" horiz-adv-x="762" 
d="M440 671l281 -671h-112l-60 152h-339l-59 -152h-109l279 671h119zM244 240h271l-129 328h-12zM527 931l-84 -159h-90l88 202z" />
    <glyph glyph-name="Acircumflex" unicode="&#xc2;" horiz-adv-x="762" 
d="M440 671l281 -671h-112l-60 152h-339l-59 -152h-109l279 671h119zM244 240h271l-129 328h-12zM392 935l136 -129v-10l-48 -50l-100 87l-99 -87l-49 50v10l137 129h23z" />
    <glyph glyph-name="Atilde" unicode="&#xc3;" horiz-adv-x="762" 
d="M440 671l281 -671h-112l-60 152h-339l-59 -152h-109l279 671h119zM244 240h271l-129 328h-12zM188 817c13 25 31 45 52 59c21 15 46 22 74 22c16 0 30 -3 42 -8s23 -11 33 -17s20 -12 30 -17s21 -8 34 -8c17 0 31 3 42 10c11 6 20 15 27 27l52 -47
c-11 -25 -27 -43 -48 -56c-20 -13 -43 -19 -68 -19c-18 0 -33 3 -46 8s-24 11 -34 17c-11 7 -21 13 -32 18c-10 5 -22 8 -35 8c-18 0 -33 -4 -45 -11c-11 -7 -21 -17 -30 -29z" />
    <glyph glyph-name="Adieresis" unicode="&#xc4;" horiz-adv-x="762" 
d="M440 671l281 -671h-112l-60 152h-339l-59 -152h-109l279 671h119zM244 240h271l-129 328h-12zM252 902c19 0 35 -6 48 -19c14 -13 21 -29 21 -50c0 -19 -7 -34 -21 -47c-13 -12 -29 -18 -48 -18c-18 0 -34 6 -47 18c-13 13 -20 28 -20 47c0 21 7 37 20 50s29 19 47 19z
M507 902c19 0 35 -6 49 -19c13 -13 20 -29 20 -50c0 -19 -7 -34 -20 -47c-14 -12 -30 -18 -49 -18c-18 0 -34 6 -47 18c-13 13 -20 28 -20 47c0 21 7 37 20 50s29 19 47 19z" />
    <glyph glyph-name="Aring" unicode="&#xc5;" horiz-adv-x="762" 
d="M440 671l281 -671h-112l-60 152h-339l-59 -152h-109l279 671h119zM244 240h271l-129 328h-12zM380 986c19 0 36 -3 52 -10c15 -7 28 -16 40 -27c10 -11 19 -24 25 -39c6 -14 9 -29 9 -45s-3 -31 -9 -46s-15 -27 -25 -39c-12 -10 -25 -19 -40 -26c-16 -7 -33 -10 -52 -10
s-37 3 -52 10c-16 7 -30 16 -40 26c-12 12 -20 24 -26 39c-5 15 -8 30 -8 46s3 31 9 45c6 15 15 28 25 39c12 11 25 20 40 27c16 7 33 10 52 10zM380 918c-17 0 -30 -5 -39 -15s-14 -23 -14 -38s5 -28 15 -38c9 -10 22 -15 38 -15s29 5 39 15s15 23 15 38s-5 28 -15 38
s-23 15 -39 15z" />
    <glyph glyph-name="AE" unicode="&#xc6;" horiz-adv-x="1072" 
d="M996 670v-89h-372v-189h326v-88h-326v-214h390v-90h-490v152h-286l-92 -152h-123l425 670h548zM291 240h233v341h-25z" />
    <glyph glyph-name="Ccedilla" unicode="&#xc7;" horiz-adv-x="727" 
d="M617 523c-56 47 -124 70 -205 70c-39 0 -74 -6 -106 -18c-31 -12 -58 -29 -80 -52c-23 -23 -40 -50 -52 -81c-13 -32 -19 -68 -19 -107c0 -40 6 -76 19 -108s30 -59 53 -81s49 -39 81 -51c30 -12 64 -18 101 -18c43 0 82 7 119 21c36 15 69 35 99 62l57 -70
c-35 -34 -73 -59 -116 -76c-43 -16 -91 -25 -144 -27l-4 -43c22 -7 39 -20 52 -38c13 -17 19 -38 19 -63c0 -39 -13 -73 -41 -101c-26 -28 -67 -48 -121 -61l-26 63c35 9 61 22 79 39c16 17 25 35 25 54s-7 32 -23 40c-14 8 -35 13 -60 14v23l20 39v37c-44 6 -84 18 -120 36
c-35 18 -66 42 -91 71s-45 64 -59 103c-14 40 -21 84 -21 133s9 95 25 138c18 43 42 80 74 111c31 32 70 57 115 75s97 27 154 27c48 0 93 -8 137 -24c42 -15 80 -37 112 -65z" />
    <glyph glyph-name="Egrave" unicode="&#xc8;" 
d="M565 670v-89h-382v-189h336v-88h-336v-214h400v-90h-500v670h482zM297 974l88 -202h-90l-85 159z" />
    <glyph glyph-name="Eacute" unicode="&#xc9;" 
d="M565 670v-89h-382v-189h336v-88h-336v-214h400v-90h-500v670h482zM462 931l-84 -159h-90l88 202z" />
    <glyph glyph-name="Ecircumflex" unicode="&#xca;" 
d="M565 670v-89h-382v-189h336v-88h-336v-214h400v-90h-500v670h482zM346 935l136 -129v-10l-48 -50l-100 87l-99 -87l-49 50v10l137 129h23z" />
    <glyph glyph-name="Edieresis" unicode="&#xcb;" 
d="M565 670v-89h-382v-189h336v-88h-336v-214h400v-90h-500v670h482zM204 902c19 0 35 -6 48 -19c14 -13 21 -29 21 -50c0 -19 -7 -34 -21 -47c-13 -12 -29 -18 -48 -18c-18 0 -34 6 -47 18c-13 13 -20 28 -20 47c0 21 7 37 20 50s29 19 47 19zM459 902c19 0 35 -6 49 -19
c13 -13 20 -29 20 -50c0 -19 -7 -34 -20 -47c-14 -12 -30 -18 -49 -18c-18 0 -34 6 -47 18c-13 13 -20 28 -20 47c0 21 7 37 20 50s29 19 47 19z" />
    <glyph glyph-name="Igrave" unicode="&#xcc;" horiz-adv-x="269" 
d="M186 670v-670h-103v670h103zM93 974l88 -202h-90l-85 159z" />
    <glyph glyph-name="Iacute" unicode="&#xcd;" horiz-adv-x="269" 
d="M186 670v-670h-103v670h103zM271 931l-84 -159h-90l88 202z" />
    <glyph glyph-name="Icircumflex" unicode="&#xce;" horiz-adv-x="269" 
d="M186 670v-670h-103v670h103zM148 935l136 -129v-10l-48 -50l-100 87l-99 -87l-49 50v10l137 129h23z" />
    <glyph glyph-name="Idieresis" unicode="&#xcf;" horiz-adv-x="269" 
d="M186 670v-670h-103v670h103zM33 902c18 0 34 -6 47 -18c13 -13 20 -29 20 -49c0 -19 -7 -34 -20 -45c-13 -12 -29 -18 -47 -18c-17 0 -33 6 -46 18c-13 11 -20 26 -20 45c0 20 7 36 20 49c13 12 29 18 46 18zM238 902c18 0 34 -6 47 -18c13 -13 20 -29 20 -49
c0 -19 -7 -34 -20 -45c-13 -12 -29 -18 -47 -18c-17 0 -33 6 -46 18c-13 11 -20 26 -20 45c0 20 7 36 20 49c13 12 29 18 46 18z" />
    <glyph glyph-name="Eth" unicode="&#xd0;" horiz-adv-x="742" 
d="M333 670c55 0 104 -8 148 -24c44 -17 81 -40 112 -70c31 -29 54 -65 71 -106c16 -40 24 -86 24 -135s-8 -93 -26 -135c-16 -40 -41 -76 -72 -106c-31 -29 -69 -52 -113 -69s-93 -25 -147 -25h-233v287l-75 5v87h75v291h236zM198 379h190v-91h-190v-199h132
c37 0 71 6 102 17c32 11 59 28 82 49s40 47 54 77c12 31 19 65 19 103c0 80 -23 141 -69 183c-45 42 -108 63 -189 63h-131v-202z" />
    <glyph glyph-name="Ntilde" unicode="&#xd1;" horiz-adv-x="752" 
d="M669 670v-670h-100l-388 508v-508h-98v670h91l398 -521v521h97zM183 817c13 25 31 45 52 59c21 15 46 22 74 22c16 0 30 -3 42 -8s23 -11 33 -17s20 -12 30 -17s21 -8 34 -8c17 0 31 3 42 10c11 6 20 15 27 27l52 -47c-11 -25 -27 -43 -47 -56c-21 -13 -44 -19 -69 -19
c-18 0 -33 3 -46 8s-24 11 -35 17c-10 7 -20 13 -30 18c-11 5 -23 8 -36 8c-18 0 -33 -4 -44 -11c-12 -7 -22 -17 -31 -29z" />
    <glyph glyph-name="Ograve" unicode="&#xd2;" horiz-adv-x="811" 
d="M405 684c53 0 101 -9 144 -26c43 -18 80 -43 111 -74s54 -68 72 -111c16 -43 25 -89 25 -138c0 -48 -9 -93 -25 -135c-18 -43 -42 -80 -72 -112c-32 -31 -68 -56 -112 -74c-42 -19 -90 -28 -143 -28s-101 9 -143 27c-44 18 -80 43 -112 75c-30 31 -54 68 -72 110
c-16 43 -25 88 -25 137s9 94 26 137c17 42 41 79 73 110c30 31 68 56 110 74c44 19 91 28 143 28zM405 595c-39 0 -75 -7 -105 -20c-32 -13 -58 -32 -79 -55s-38 -51 -49 -82c-11 -32 -17 -66 -17 -103s6 -71 17 -103c12 -31 29 -59 50 -82s48 -42 78 -55
c32 -13 66 -20 105 -20s75 7 105 19c32 14 58 32 80 55c21 23 38 51 49 83c11 31 17 66 17 103c0 38 -6 73 -18 105c-11 31 -28 58 -49 82c-21 22 -48 40 -79 54c-31 12 -66 19 -105 19zM358 974l88 -202h-90l-85 159z" />
    <glyph glyph-name="Oacute" unicode="&#xd3;" horiz-adv-x="811" 
d="M405 684c53 0 101 -9 144 -26c43 -18 80 -43 111 -74s54 -68 72 -111c16 -43 25 -89 25 -138c0 -48 -9 -93 -25 -135c-18 -43 -42 -80 -72 -112c-32 -31 -68 -56 -112 -74c-42 -19 -90 -28 -143 -28s-101 9 -143 27c-44 18 -80 43 -112 75c-30 31 -54 68 -72 110
c-16 43 -25 88 -25 137s9 94 26 137c17 42 41 79 73 110c30 31 68 56 110 74c44 19 91 28 143 28zM405 595c-39 0 -75 -7 -105 -20c-32 -13 -58 -32 -79 -55s-38 -51 -49 -82c-11 -32 -17 -66 -17 -103s6 -71 17 -103c12 -31 29 -59 50 -82s48 -42 78 -55
c32 -13 66 -20 105 -20s75 7 105 19c32 14 58 32 80 55c21 23 38 51 49 83c11 31 17 66 17 103c0 38 -6 73 -18 105c-11 31 -28 58 -49 82c-21 22 -48 40 -79 54c-31 12 -66 19 -105 19zM547 931l-84 -159h-90l88 202z" />
    <glyph glyph-name="Ocircumflex" unicode="&#xd4;" horiz-adv-x="811" 
d="M405 684c53 0 101 -9 144 -26c43 -18 80 -43 111 -74s54 -68 72 -111c16 -43 25 -89 25 -138c0 -48 -9 -93 -25 -135c-18 -43 -42 -80 -72 -112c-32 -31 -68 -56 -112 -74c-42 -19 -90 -28 -143 -28s-101 9 -143 27c-44 18 -80 43 -112 75c-30 31 -54 68 -72 110
c-16 43 -25 88 -25 137s9 94 26 137c17 42 41 79 73 110c30 31 68 56 110 74c44 19 91 28 143 28zM405 595c-39 0 -75 -7 -105 -20c-32 -13 -58 -32 -79 -55s-38 -51 -49 -82c-11 -32 -17 -66 -17 -103s6 -71 17 -103c12 -31 29 -59 50 -82s48 -42 78 -55
c32 -13 66 -20 105 -20s75 7 105 19c32 14 58 32 80 55c21 23 38 51 49 83c11 31 17 66 17 103c0 38 -6 73 -18 105c-11 31 -28 58 -49 82c-21 22 -48 40 -79 54c-31 12 -66 19 -105 19zM417 935l136 -129v-10l-48 -50l-100 87l-99 -87l-49 50v10l137 129h23z" />
    <glyph glyph-name="Otilde" unicode="&#xd5;" horiz-adv-x="811" 
d="M405 684c53 0 101 -9 144 -26c43 -18 80 -43 111 -74s54 -68 72 -111c16 -43 25 -89 25 -138c0 -48 -9 -93 -25 -135c-18 -43 -42 -80 -72 -112c-32 -31 -68 -56 -112 -74c-42 -19 -90 -28 -143 -28s-101 9 -143 27c-44 18 -80 43 -112 75c-30 31 -54 68 -72 110
c-16 43 -25 88 -25 137s9 94 26 137c17 42 41 79 73 110c30 31 68 56 110 74c44 19 91 28 143 28zM405 595c-39 0 -75 -7 -105 -20c-32 -13 -58 -32 -79 -55s-38 -51 -49 -82c-11 -32 -17 -66 -17 -103s6 -71 17 -103c12 -31 29 -59 50 -82s48 -42 78 -55
c32 -13 66 -20 105 -20s75 7 105 19c32 14 58 32 80 55c21 23 38 51 49 83c11 31 17 66 17 103c0 38 -6 73 -18 105c-11 31 -28 58 -49 82c-21 22 -48 40 -79 54c-31 12 -66 19 -105 19zM213 817c13 25 31 45 52 59c21 15 46 22 74 22c16 0 30 -3 42 -8s23 -11 33 -17
s20 -12 30 -17s21 -8 34 -8c17 0 31 3 42 10c11 6 20 15 27 27l52 -47c-11 -25 -27 -43 -47 -56c-21 -13 -44 -19 -69 -19c-18 0 -33 3 -46 8s-24 11 -35 17c-10 7 -20 13 -30 18c-11 5 -23 8 -36 8c-18 0 -33 -4 -44 -11c-12 -7 -22 -17 -31 -29z" />
    <glyph glyph-name="Odieresis" unicode="&#xd6;" horiz-adv-x="811" 
d="M405 684c53 0 101 -9 144 -26c43 -18 80 -43 111 -74s54 -68 72 -111c16 -43 25 -89 25 -138c0 -48 -9 -93 -25 -135c-18 -43 -42 -80 -72 -112c-32 -31 -68 -56 -112 -74c-42 -19 -90 -28 -143 -28s-101 9 -143 27c-44 18 -80 43 -112 75c-30 31 -54 68 -72 110
c-16 43 -25 88 -25 137s9 94 26 137c17 42 41 79 73 110c30 31 68 56 110 74c44 19 91 28 143 28zM405 595c-39 0 -75 -7 -105 -20c-32 -13 -58 -32 -79 -55s-38 -51 -49 -82c-11 -32 -17 -66 -17 -103s6 -71 17 -103c12 -31 29 -59 50 -82s48 -42 78 -55
c32 -13 66 -20 105 -20s75 7 105 19c32 14 58 32 80 55c21 23 38 51 49 83c11 31 17 66 17 103c0 38 -6 73 -18 105c-11 31 -28 58 -49 82c-21 22 -48 40 -79 54c-31 12 -66 19 -105 19zM277 902c19 0 35 -6 49 -19c13 -13 20 -29 20 -50c0 -19 -7 -34 -20 -47
c-14 -12 -30 -18 -49 -18c-18 0 -34 6 -47 18c-13 13 -20 28 -20 47c0 21 7 37 20 50s29 19 47 19zM532 902c19 0 35 -6 48 -19c14 -13 21 -29 21 -50c0 -19 -7 -34 -21 -47c-13 -12 -29 -18 -48 -18c-18 0 -34 6 -47 18c-13 13 -20 28 -20 47c0 21 7 37 20 50s29 19 47 19z
" />
    <glyph glyph-name="multiply" unicode="&#xd7;" horiz-adv-x="511" 
d="M256 394l113 114l58 -59l-112 -113l112 -113l-59 -59l-112 113l-114 -113l-59 59l113 113l-113 113l59 60z" />
    <glyph glyph-name="Oslash" unicode="&#xd8;" horiz-adv-x="811" 
d="M710 670l-57 -80c33 -32 59 -70 77 -112c18 -44 27 -91 27 -143c0 -48 -9 -93 -25 -135c-18 -43 -42 -80 -72 -112c-32 -31 -68 -56 -112 -74c-42 -19 -90 -28 -143 -28c-30 0 -58 3 -85 9s-52 15 -75 26l-62 -85l-76 55l59 82c-36 32 -64 70 -84 115
c-19 45 -29 94 -29 147c0 49 9 94 26 137c17 42 41 79 73 110c30 31 68 56 110 74c44 19 91 28 143 28c32 0 62 -3 91 -10s55 -16 80 -29l57 80zM522 570c-35 17 -74 25 -117 25c-39 0 -75 -7 -105 -20c-32 -13 -58 -32 -79 -55s-38 -51 -49 -82c-11 -32 -17 -66 -17 -103
c0 -75 22 -137 66 -184zM299 97c15 -7 32 -13 49 -17c18 -3 37 -5 57 -5c39 0 75 7 105 19c32 14 58 32 80 55c21 23 38 51 49 83c11 31 17 66 17 103c0 71 -20 130 -60 176z" />
    <glyph glyph-name="Ugrave" unicode="&#xd9;" horiz-adv-x="754" 
d="M186 670v-364c0 -74 16 -131 48 -171c33 -40 80 -60 143 -60c61 0 109 19 141 56c34 37 50 95 50 173v366h103v-367c0 -48 -6 -91 -19 -131c-12 -38 -30 -72 -55 -100c-25 -27 -55 -49 -92 -64c-37 -14 -79 -22 -128 -22c-48 0 -90 7 -127 22c-36 15 -66 36 -92 62
c-24 28 -43 60 -56 99s-19 82 -19 131v370h103zM339 974l88 -202h-90l-85 159z" />
    <glyph glyph-name="Uacute" unicode="&#xda;" horiz-adv-x="754" 
d="M186 670v-364c0 -74 16 -131 48 -171c33 -40 80 -60 143 -60c61 0 109 19 141 56c34 37 50 95 50 173v366h103v-367c0 -48 -6 -91 -19 -131c-12 -38 -30 -72 -55 -100c-25 -27 -55 -49 -92 -64c-37 -14 -79 -22 -128 -22c-48 0 -90 7 -127 22c-36 15 -66 36 -92 62
c-24 28 -43 60 -56 99s-19 82 -19 131v370h103zM503 931l-84 -159h-90l88 202z" />
    <glyph glyph-name="Ucircumflex" unicode="&#xdb;" horiz-adv-x="754" 
d="M186 670v-364c0 -74 16 -131 48 -171c33 -40 80 -60 143 -60c61 0 109 19 141 56c34 37 50 95 50 173v366h103v-367c0 -48 -6 -91 -19 -131c-12 -38 -30 -72 -55 -100c-25 -27 -55 -49 -92 -64c-37 -14 -79 -22 -128 -22c-48 0 -90 7 -127 22c-36 15 -66 36 -92 62
c-24 28 -43 60 -56 99s-19 82 -19 131v370h103zM389 935l136 -129v-10l-48 -50l-100 87l-99 -87l-49 50v10l137 129h23z" />
    <glyph glyph-name="Udieresis" unicode="&#xdc;" horiz-adv-x="754" 
d="M186 670v-364c0 -74 16 -131 48 -171c33 -40 80 -60 143 -60c61 0 109 19 141 56c34 37 50 95 50 173v366h103v-367c0 -48 -6 -91 -19 -131c-12 -38 -30 -72 -55 -100c-25 -27 -55 -49 -92 -64c-37 -14 -79 -22 -128 -22c-48 0 -90 7 -127 22c-36 15 -66 36 -92 62
c-24 28 -43 60 -56 99s-19 82 -19 131v370h103zM249 902c19 0 35 -6 49 -19c13 -13 20 -29 20 -50c0 -19 -7 -34 -20 -47c-14 -12 -30 -18 -49 -18c-18 0 -34 6 -47 18c-13 13 -20 28 -20 47c0 21 7 37 20 50s29 19 47 19zM504 902c19 0 35 -6 48 -19c14 -13 21 -29 21 -50
c0 -19 -7 -34 -21 -47c-13 -12 -29 -18 -48 -18c-18 0 -34 6 -47 18c-13 13 -20 28 -20 47c0 21 7 37 20 50s29 19 47 19z" />
    <glyph glyph-name="Yacute" unicode="&#xdd;" horiz-adv-x="712" 
d="M157 670l196 -351h10l193 351h118l-268 -456v-214h-100v214l-268 456h119zM487 931l-84 -159h-90l88 202z" />
    <glyph glyph-name="Thorn" unicode="&#xde;" horiz-adv-x="644" 
d="M186 684v-101h161c37 0 71 -5 103 -17c30 -10 57 -26 80 -46c23 -21 40 -45 52 -74c13 -28 19 -59 19 -94c0 -37 -7 -70 -21 -98c-13 -30 -32 -54 -56 -74c-24 -21 -52 -36 -84 -47c-33 -11 -67 -16 -104 -16h-150v-117h-103v684h103zM186 205h149c51 0 91 13 121 39
c28 25 43 61 43 107c0 45 -13 81 -40 105c-27 26 -66 38 -118 38h-155v-289z" />
    <glyph glyph-name="germandbls" unicode="&#xdf;" horiz-adv-x="681" 
d="M73 556c0 30 5 58 15 82c9 26 22 47 40 64c16 17 37 31 61 40c24 10 50 15 78 15c30 0 57 -4 80 -13c23 -8 43 -19 59 -34c15 -14 27 -31 35 -50c8 -20 12 -41 12 -63c0 -29 -6 -54 -17 -74c-12 -20 -27 -36 -46 -49c-33 -21 -50 -47 -50 -76c0 -17 6 -30 16 -39
c12 -9 30 -17 57 -22l52 -11c57 -11 100 -31 129 -58s43 -64 43 -110c0 -25 -5 -47 -15 -68c-9 -21 -23 -38 -42 -54c-18 -14 -41 -26 -68 -35c-28 -9 -60 -13 -96 -13c-33 0 -64 4 -94 12c-31 8 -60 22 -89 41l40 75c23 -15 46 -27 71 -34s50 -11 77 -11c37 0 67 7 89 23
c21 14 32 35 32 61c0 24 -8 43 -22 56c-16 13 -38 23 -68 28l-52 9c-50 8 -88 24 -114 50c-25 24 -38 57 -38 97c0 25 6 47 18 66c11 19 25 35 42 48c16 13 28 27 36 39c9 14 13 29 13 47c0 21 -7 39 -21 54s-36 23 -67 23c-32 0 -57 -10 -74 -30c-17 -21 -26 -49 -26 -86
v-556h-96v556z" />
    <glyph glyph-name="agrave" unicode="&#xe0;" horiz-adv-x="623" 
d="M79 463c34 21 68 37 102 45c34 10 70 14 108 14c79 0 137 -18 174 -54c37 -37 55 -87 55 -151v-187c0 -21 4 -36 11 -46c7 -8 17 -13 29 -13c7 0 14 1 21 4l9 -74c-14 -7 -31 -10 -51 -10c-25 0 -47 6 -63 19c-18 12 -29 34 -34 67c-43 -59 -109 -89 -198 -89
c-61 0 -108 14 -144 44c-34 28 -52 71 -52 126c0 51 20 92 61 121s96 44 167 44c28 0 54 -2 80 -7c24 -5 48 -11 69 -18v28c0 37 -11 64 -32 83s-55 28 -100 28c-61 0 -118 -15 -173 -44zM424 222c-43 15 -91 22 -146 22c-48 0 -82 -8 -102 -24c-21 -17 -31 -38 -31 -64
c0 -28 10 -49 29 -64c20 -14 49 -21 86 -21c23 0 44 3 64 9c19 7 36 16 52 27c14 11 26 25 35 41c9 15 13 33 13 52v22zM341 621h-85l-82 139l82 48z" />
    <glyph glyph-name="aacute" unicode="&#xe1;" horiz-adv-x="623" 
d="M79 463c34 21 68 37 102 45c34 10 70 14 108 14c79 0 137 -18 174 -54c37 -37 55 -87 55 -151v-187c0 -21 4 -36 11 -46c7 -8 17 -13 29 -13c7 0 14 1 21 4l9 -74c-14 -7 -31 -10 -51 -10c-25 0 -47 6 -63 19c-18 12 -29 34 -34 67c-43 -59 -109 -89 -198 -89
c-61 0 -108 14 -144 44c-34 28 -52 71 -52 126c0 51 20 92 61 121s96 44 167 44c28 0 54 -2 80 -7c24 -5 48 -11 69 -18v28c0 37 -11 64 -32 83s-55 28 -100 28c-61 0 -118 -15 -173 -44zM424 222c-43 15 -91 22 -146 22c-48 0 -82 -8 -102 -24c-21 -17 -31 -38 -31 -64
c0 -28 10 -49 29 -64c20 -14 49 -21 86 -21c23 0 44 3 64 9c19 7 36 16 52 27c14 11 26 25 35 41c9 15 13 33 13 52v22zM429 760l-82 -139h-85l85 187z" />
    <glyph glyph-name="acircumflex" unicode="&#xe2;" horiz-adv-x="623" 
d="M79 463c34 21 68 37 102 45c34 10 70 14 108 14c79 0 137 -18 174 -54c37 -37 55 -87 55 -151v-187c0 -21 4 -36 11 -46c7 -8 17 -13 29 -13c7 0 14 1 21 4l9 -74c-14 -7 -31 -10 -51 -10c-25 0 -47 6 -63 19c-18 12 -29 34 -34 67c-43 -59 -109 -89 -198 -89
c-61 0 -108 14 -144 44c-34 28 -52 71 -52 126c0 51 20 92 61 121s96 44 167 44c28 0 54 -2 80 -7c24 -5 48 -11 69 -18v28c0 37 -11 64 -32 83s-55 28 -100 28c-61 0 -118 -15 -173 -44zM424 222c-43 15 -91 22 -146 22c-48 0 -82 -8 -102 -24c-21 -17 -31 -38 -31 -64
c0 -28 10 -49 29 -64c20 -14 49 -21 86 -21c23 0 44 3 64 9c19 7 36 16 52 27c14 11 26 25 35 41c9 15 13 33 13 52v22zM295 677l-94 -84l-47 49v10l133 127h21l133 -127v-10l-46 -49z" />
    <glyph glyph-name="atilde" unicode="&#xe3;" horiz-adv-x="623" 
d="M79 463c34 21 68 37 102 45c34 10 70 14 108 14c79 0 137 -18 174 -54c37 -37 55 -87 55 -151v-187c0 -21 4 -36 11 -46c7 -8 17 -13 29 -13c7 0 14 1 21 4l9 -74c-14 -7 -31 -10 -51 -10c-25 0 -47 6 -63 19c-18 12 -29 34 -34 67c-43 -59 -109 -89 -198 -89
c-61 0 -108 14 -144 44c-34 28 -52 71 -52 126c0 51 20 92 61 121s96 44 167 44c28 0 54 -2 80 -7c24 -5 48 -11 69 -18v28c0 37 -11 64 -32 83s-55 28 -100 28c-61 0 -118 -15 -173 -44zM424 222c-43 15 -91 22 -146 22c-48 0 -82 -8 -102 -24c-21 -17 -31 -38 -31 -64
c0 -28 10 -49 29 -64c20 -14 49 -21 86 -21c23 0 44 3 64 9c19 7 36 16 52 27c14 11 26 25 35 41c9 15 13 33 13 52v22zM112 662c14 23 31 42 52 54c20 14 44 20 71 20c16 0 29 -2 41 -8c10 -4 21 -10 30 -16s19 -12 28 -16c10 -6 22 -8 35 -8c15 0 29 3 41 10
c11 6 21 14 29 25l47 -48c-11 -21 -26 -38 -44 -51c-19 -13 -42 -19 -69 -19c-16 0 -30 3 -43 8c-12 5 -23 11 -34 17c-10 6 -20 12 -30 17c-11 5 -22 8 -35 8c-17 0 -32 -3 -43 -9c-12 -7 -23 -16 -32 -28z" />
    <glyph glyph-name="adieresis" unicode="&#xe4;" horiz-adv-x="623" 
d="M79 463c34 21 68 37 102 45c34 10 70 14 108 14c79 0 137 -18 174 -54c37 -37 55 -87 55 -151v-187c0 -21 4 -36 11 -46c7 -8 17 -13 29 -13c7 0 14 1 21 4l9 -74c-14 -7 -31 -10 -51 -10c-25 0 -47 6 -63 19c-18 12 -29 34 -34 67c-43 -59 -109 -89 -198 -89
c-61 0 -108 14 -144 44c-34 28 -52 71 -52 126c0 51 20 92 61 121s96 44 167 44c28 0 54 -2 80 -7c24 -5 48 -11 69 -18v28c0 37 -11 64 -32 83s-55 28 -100 28c-61 0 -118 -15 -173 -44zM424 222c-43 15 -91 22 -146 22c-48 0 -82 -8 -102 -24c-21 -17 -31 -38 -31 -64
c0 -28 10 -49 29 -64c20 -14 49 -21 86 -21c23 0 44 3 64 9c19 7 36 16 52 27c14 11 26 25 35 41c9 15 13 33 13 52v22zM185 735c18 0 33 -6 45 -17c13 -12 19 -27 19 -45s-6 -33 -19 -45c-12 -11 -27 -17 -45 -17c-17 0 -32 6 -45 17c-12 12 -18 27 -18 45s6 33 18 45
c13 11 28 17 45 17zM411 735c17 0 32 -6 45 -17c12 -12 18 -27 18 -45s-6 -33 -18 -45c-13 -11 -28 -17 -45 -17s-32 6 -45 17c-12 12 -18 27 -18 45s6 33 18 45c13 11 28 17 45 17z" />
    <glyph glyph-name="aring" unicode="&#xe5;" horiz-adv-x="623" 
d="M79 463c34 21 68 37 102 45c34 10 70 14 108 14c79 0 137 -18 174 -54c37 -37 55 -87 55 -151v-187c0 -21 4 -36 11 -46c7 -8 17 -13 29 -13c7 0 14 1 21 4l9 -74c-14 -7 -31 -10 -51 -10c-25 0 -47 6 -63 19c-18 12 -29 34 -34 67c-43 -59 -109 -89 -198 -89
c-61 0 -108 14 -144 44c-34 28 -52 71 -52 126c0 51 20 92 61 121s96 44 167 44c28 0 54 -2 80 -7c24 -5 48 -11 69 -18v28c0 37 -11 64 -32 83s-55 28 -100 28c-61 0 -118 -15 -173 -44zM424 222c-43 15 -91 22 -146 22c-48 0 -82 -8 -102 -24c-21 -17 -31 -38 -31 -64
c0 -28 10 -49 29 -64c20 -14 49 -21 86 -21c23 0 44 3 64 9c19 7 36 16 52 27c14 11 26 25 35 41c9 15 13 33 13 52v22zM299 816c18 0 34 -3 49 -10c15 -6 27 -14 37 -24c10 -11 18 -23 23 -36c6 -13 9 -27 9 -42s-3 -30 -9 -43c-5 -13 -13 -25 -23 -36s-22 -19 -37 -25
s-31 -9 -49 -9c-19 0 -35 3 -50 9s-27 14 -37 25s-18 23 -23 36s-8 28 -8 43s3 29 9 42c5 13 13 25 23 36c10 10 22 18 37 24c15 7 31 10 49 10zM299 755c-17 0 -30 -5 -39 -15s-13 -22 -13 -36c0 -15 5 -28 13 -38c10 -9 22 -14 39 -14s30 5 39 14c9 10 14 23 14 38
s-5 27 -14 36c-10 10 -23 15 -39 15z" />
    <glyph glyph-name="ae" unicode="&#xe6;" horiz-adv-x="957" 
d="M508 222c5 -47 23 -84 52 -110s70 -39 122 -39c34 0 64 4 90 13c27 9 54 23 83 42l44 -69c-33 -25 -67 -43 -103 -55c-37 -10 -77 -16 -120 -16c-50 0 -93 8 -128 26c-35 16 -64 41 -86 73c-25 -36 -58 -61 -96 -77c-40 -14 -81 -22 -125 -22c-61 0 -109 14 -143 44
c-36 28 -53 71 -53 126c0 51 20 92 61 121s96 44 167 44c28 0 54 -2 78 -7s47 -11 68 -18v28c0 37 -10 64 -31 83c-20 19 -53 28 -98 28c-61 0 -118 -15 -173 -44l-39 71c34 21 68 36 102 44c34 10 70 14 108 14c49 0 89 -8 120 -24c32 -16 56 -39 73 -69c19 29 46 52 79 69
c33 16 73 24 118 24c35 0 66 -6 95 -18c29 -11 53 -28 73 -48c20 -22 36 -46 46 -76c12 -28 17 -61 17 -96c0 -11 -1 -21 -2 -32c-1 -10 -3 -20 -5 -30h-394zM420 222c-40 15 -88 22 -143 22c-48 0 -82 -8 -103 -24c-20 -17 -30 -38 -30 -64c0 -28 10 -49 30 -64
c19 -14 48 -21 85 -21c23 0 44 3 63 9s36 14 51 26c15 10 26 24 35 39c8 15 12 33 12 52v25zM811 302c-1 41 -12 74 -35 99c-22 25 -56 37 -102 37c-47 0 -84 -12 -110 -36c-28 -25 -45 -58 -52 -100h299z" />
    <glyph glyph-name="ccedilla" unicode="&#xe7;" horiz-adv-x="583" 
d="M476 381c-19 17 -41 31 -66 41c-26 10 -55 15 -88 15c-24 0 -47 -4 -68 -12c-22 -8 -41 -20 -57 -35s-29 -34 -38 -56s-14 -47 -14 -75c0 -57 16 -102 47 -135s75 -50 130 -50c32 0 62 6 89 16c27 12 51 28 70 49l59 -61c-26 -29 -56 -50 -88 -64
c-34 -15 -70 -23 -111 -25l-4 -45c19 -5 35 -16 47 -32c12 -17 18 -37 18 -61c0 -36 -12 -68 -37 -95s-64 -48 -119 -63l-22 62c34 11 58 24 72 39c15 14 22 30 22 47c0 18 -6 31 -18 40s-31 13 -57 14v19l21 43v35c-35 5 -66 16 -93 32c-27 15 -49 34 -67 58
c-19 22 -33 49 -42 78s-14 61 -14 94c0 41 7 78 22 110c14 34 33 62 58 85c24 23 52 41 86 54c32 13 68 19 106 19c45 0 85 -6 120 -20c35 -12 65 -32 90 -57z" />
    <glyph glyph-name="egrave" unicode="&#xe8;" horiz-adv-x="612" 
d="M146 222c5 -47 24 -84 55 -110s73 -39 125 -39c35 0 68 5 96 13c30 10 57 24 84 43l44 -69c-34 -26 -69 -44 -106 -56c-37 -10 -77 -16 -120 -16s-82 6 -116 18c-34 13 -63 30 -86 54c-24 22 -42 50 -55 83s-19 70 -19 111c0 39 7 74 20 107s32 61 56 85s53 43 87 56
s72 20 113 20c36 0 69 -6 98 -17s54 -27 76 -49c20 -20 37 -46 48 -75c12 -29 18 -62 18 -97c0 -11 -1 -21 -2 -32c-1 -10 -3 -20 -5 -30h-411zM466 302c-1 41 -13 74 -37 99s-60 37 -109 37s-87 -12 -116 -36c-29 -25 -47 -58 -54 -100h316zM369 621h-85l-82 139l82 48z
" />
    <glyph glyph-name="eacute" unicode="&#xe9;" horiz-adv-x="612" 
d="M146 222c5 -47 24 -84 55 -110s73 -39 125 -39c35 0 68 5 96 13c30 10 57 24 84 43l44 -69c-34 -26 -69 -44 -106 -56c-37 -10 -77 -16 -120 -16s-82 6 -116 18c-34 13 -63 30 -86 54c-24 22 -42 50 -55 83s-19 70 -19 111c0 39 7 74 20 107s32 61 56 85s53 43 87 56
s72 20 113 20c36 0 69 -6 98 -17s54 -27 76 -49c20 -20 37 -46 48 -75c12 -29 18 -62 18 -97c0 -11 -1 -21 -2 -32c-1 -10 -3 -20 -5 -30h-411zM466 302c-1 41 -13 74 -37 99s-60 37 -109 37s-87 -12 -116 -36c-29 -25 -47 -58 -54 -100h316zM467 760l-82 -139h-85l85 187z
" />
    <glyph glyph-name="ecircumflex" unicode="&#xea;" horiz-adv-x="612" 
d="M146 222c5 -47 24 -84 55 -110s73 -39 125 -39c35 0 68 5 96 13c30 10 57 24 84 43l44 -69c-34 -26 -69 -44 -106 -56c-37 -10 -77 -16 -120 -16s-82 6 -116 18c-34 13 -63 30 -86 54c-24 22 -42 50 -55 83s-19 70 -19 111c0 39 7 74 20 107s32 61 56 85s53 43 87 56
s72 20 113 20c36 0 69 -6 98 -17s54 -27 76 -49c20 -20 37 -46 48 -75c12 -29 18 -62 18 -97c0 -11 -1 -21 -2 -32c-1 -10 -3 -20 -5 -30h-411zM466 302c-1 41 -13 74 -37 99s-60 37 -109 37s-87 -12 -116 -36c-29 -25 -47 -58 -54 -100h316zM323 677l-94 -84l-47 49v10
l133 127h21l133 -127v-10l-46 -49z" />
    <glyph glyph-name="edieresis" unicode="&#xeb;" horiz-adv-x="612" 
d="M146 222c5 -47 24 -84 55 -110s73 -39 125 -39c35 0 68 5 96 13c30 10 57 24 84 43l44 -69c-34 -26 -69 -44 -106 -56c-37 -10 -77 -16 -120 -16s-82 6 -116 18c-34 13 -63 30 -86 54c-24 22 -42 50 -55 83s-19 70 -19 111c0 39 7 74 20 107s32 61 56 85s53 43 87 56
s72 20 113 20c36 0 69 -6 98 -17s54 -27 76 -49c20 -20 37 -46 48 -75c12 -29 18 -62 18 -97c0 -11 -1 -21 -2 -32c-1 -10 -3 -20 -5 -30h-411zM466 302c-1 41 -13 74 -37 99s-60 37 -109 37s-87 -12 -116 -36c-29 -25 -47 -58 -54 -100h316zM211 735c18 0 33 -6 45 -17
c13 -12 19 -27 19 -45s-6 -33 -19 -45c-12 -11 -27 -17 -45 -17c-17 0 -32 6 -45 17c-12 12 -18 27 -18 45s6 33 18 45c13 11 28 17 45 17zM437 735c17 0 32 -6 45 -17c12 -12 18 -27 18 -45s-6 -33 -18 -45c-13 -11 -28 -17 -45 -17s-32 6 -45 17c-12 12 -18 27 -18 45
s6 33 18 45c13 11 28 17 45 17z" />
    <glyph glyph-name="igrave" unicode="&#xec;" horiz-adv-x="246" 
d="M173 510v-510h-100v510h100zM170 621h-85l-82 139l82 48z" />
    <glyph glyph-name="iacute" unicode="&#xed;" horiz-adv-x="246" 
d="M173 510v-510h-100v510h100zM250 760l-82 -139h-85l85 187z" />
    <glyph glyph-name="icircumflex" unicode="&#xee;" horiz-adv-x="246" 
d="M173 510v-510h-100v510h100zM122 677l-94 -84l-47 49v10l133 127h21l133 -127v-10l-46 -49z" />
    <glyph glyph-name="idieresis" unicode="&#xef;" horiz-adv-x="246" 
d="M173 510v-510h-100v510h100zM32 735c17 0 32 -6 44 -17c13 -11 19 -26 19 -45c0 -18 -6 -33 -19 -45c-12 -11 -27 -17 -44 -17s-32 6 -44 17c-13 12 -19 27 -19 45c0 19 6 34 19 45c12 11 27 17 44 17zM216 735c17 0 32 -6 44 -17c13 -12 19 -27 19 -45s-6 -33 -19 -45
c-12 -11 -27 -17 -44 -17s-32 6 -44 17c-13 11 -19 26 -19 45s6 34 19 45c12 11 27 17 44 17z" />
    <glyph glyph-name="eth" unicode="&#xf0;" horiz-adv-x="632" 
d="M272 716l50 77l71 -45l-47 -75l39 -24c34 -21 64 -44 89 -67c25 -24 46 -50 62 -80c17 -28 29 -61 37 -97s12 -77 12 -123s-7 -87 -21 -124c-14 -36 -33 -67 -58 -92c-24 -25 -53 -45 -86 -58s-69 -20 -107 -20c-42 0 -79 6 -113 18c-32 12 -60 29 -83 51s-40 48 -51 79
c-12 31 -18 65 -18 103c0 35 6 68 18 98s29 56 51 78s48 39 79 51c31 13 64 19 101 19c41 0 75 -6 103 -19s52 -29 71 -48h10c-9 32 -26 61 -49 87c-24 26 -55 50 -93 72l-41 24l-44 -70l-73 44l43 67l-85 50l45 76zM485 270c-11 44 -33 77 -64 100c-31 22 -68 33 -110 33
c-49 0 -89 -14 -119 -43c-29 -29 -44 -69 -44 -122c0 -52 14 -93 43 -123s69 -45 121 -45c27 0 51 5 72 16c21 10 40 24 54 42c16 18 27 39 35 64c8 24 12 50 12 78z" />
    <glyph glyph-name="ntilde" unicode="&#xf1;" 
d="M150 510l10 -106c17 37 42 66 76 87c32 21 72 31 118 31c65 0 117 -19 156 -56c39 -38 58 -93 58 -165v-301h-97v290c0 50 -11 87 -33 112c-23 24 -55 36 -96 36s-77 -14 -106 -40c-30 -28 -52 -65 -66 -112v-286h-97v510h77zM143 662c14 23 31 42 52 54
c20 14 44 20 71 20c16 0 29 -2 41 -8c10 -4 21 -10 30 -16s19 -12 28 -16c10 -6 22 -8 35 -8c15 0 29 3 41 10c11 6 21 14 29 25l47 -48c-11 -21 -26 -38 -44 -51c-19 -13 -42 -19 -69 -19c-16 0 -30 3 -43 8c-12 5 -23 11 -34 17c-10 6 -20 12 -30 17c-11 5 -22 8 -35 8
c-17 0 -32 -3 -43 -9c-12 -7 -23 -16 -32 -28z" />
    <glyph glyph-name="ograve" unicode="&#xf2;" horiz-adv-x="650" 
d="M325 522c41 0 78 -6 112 -20c34 -12 63 -31 88 -54c25 -24 44 -52 57 -85s20 -69 20 -108c0 -38 -7 -73 -21 -106s-33 -61 -57 -85c-25 -24 -54 -43 -88 -56s-71 -20 -111 -20c-41 0 -79 6 -113 20c-34 12 -63 31 -88 54c-24 24 -43 52 -56 85s-20 69 -20 108
c0 38 7 73 20 106c14 33 33 61 58 85c24 24 53 43 87 56s71 20 112 20zM325 439c-27 0 -52 -5 -75 -13c-22 -10 -41 -22 -56 -38c-16 -17 -28 -36 -36 -59c-9 -23 -13 -47 -13 -74s4 -52 13 -75s21 -42 36 -58c16 -16 35 -28 57 -38c22 -8 47 -13 74 -13c28 0 53 5 75 13
c22 10 41 22 56 38c16 16 28 35 36 58c9 23 13 48 13 75s-4 51 -13 73c-9 23 -21 42 -36 58c-16 17 -35 30 -57 39s-47 14 -74 14zM379 621h-85l-82 139l82 48z" />
    <glyph glyph-name="oacute" unicode="&#xf3;" horiz-adv-x="650" 
d="M325 522c41 0 78 -6 112 -20c34 -12 63 -31 88 -54c25 -24 44 -52 57 -85s20 -69 20 -108c0 -38 -7 -73 -21 -106s-33 -61 -57 -85c-25 -24 -54 -43 -88 -56s-71 -20 -111 -20c-41 0 -79 6 -113 20c-34 12 -63 31 -88 54c-24 24 -43 52 -56 85s-20 69 -20 108
c0 38 7 73 20 106c14 33 33 61 58 85c24 24 53 43 87 56s71 20 112 20zM325 439c-27 0 -52 -5 -75 -13c-22 -10 -41 -22 -56 -38c-16 -17 -28 -36 -36 -59c-9 -23 -13 -47 -13 -74s4 -52 13 -75s21 -42 36 -58c16 -16 35 -28 57 -38c22 -8 47 -13 74 -13c28 0 53 5 75 13
c22 10 41 22 56 38c16 16 28 35 36 58c9 23 13 48 13 75s-4 51 -13 73c-9 23 -21 42 -36 58c-16 17 -35 30 -57 39s-47 14 -74 14zM464 760l-82 -139h-85l85 187z" />
    <glyph glyph-name="ocircumflex" unicode="&#xf4;" horiz-adv-x="650" 
d="M325 522c41 0 78 -6 112 -20c34 -12 63 -31 88 -54c25 -24 44 -52 57 -85s20 -69 20 -108c0 -38 -7 -73 -21 -106s-33 -61 -57 -85c-25 -24 -54 -43 -88 -56s-71 -20 -111 -20c-41 0 -79 6 -113 20c-34 12 -63 31 -88 54c-24 24 -43 52 -56 85s-20 69 -20 108
c0 38 7 73 20 106c14 33 33 61 58 85c24 24 53 43 87 56s71 20 112 20zM325 439c-27 0 -52 -5 -75 -13c-22 -10 -41 -22 -56 -38c-16 -17 -28 -36 -36 -59c-9 -23 -13 -47 -13 -74s4 -52 13 -75s21 -42 36 -58c16 -16 35 -28 57 -38c22 -8 47 -13 74 -13c28 0 53 5 75 13
c22 10 41 22 56 38c16 16 28 35 36 58c9 23 13 48 13 75s-4 51 -13 73c-9 23 -21 42 -36 58c-16 17 -35 30 -57 39s-47 14 -74 14zM322 677l-94 -84l-47 49v10l133 127h21l133 -127v-10l-46 -49z" />
    <glyph glyph-name="otilde" unicode="&#xf5;" horiz-adv-x="650" 
d="M325 522c41 0 78 -6 112 -20c34 -12 63 -31 88 -54c25 -24 44 -52 57 -85s20 -69 20 -108c0 -38 -7 -73 -21 -106s-33 -61 -57 -85c-25 -24 -54 -43 -88 -56s-71 -20 -111 -20c-41 0 -79 6 -113 20c-34 12 -63 31 -88 54c-24 24 -43 52 -56 85s-20 69 -20 108
c0 38 7 73 20 106c14 33 33 61 58 85c24 24 53 43 87 56s71 20 112 20zM325 439c-27 0 -52 -5 -75 -13c-22 -10 -41 -22 -56 -38c-16 -17 -28 -36 -36 -59c-9 -23 -13 -47 -13 -74s4 -52 13 -75s21 -42 36 -58c16 -16 35 -28 57 -38c22 -8 47 -13 74 -13c28 0 53 5 75 13
c22 10 41 22 56 38c16 16 28 35 36 58c9 23 13 48 13 75s-4 51 -13 73c-9 23 -21 42 -36 58c-16 17 -35 30 -57 39s-47 14 -74 14zM138 662c14 23 31 42 52 54c20 14 44 20 71 20c16 0 29 -2 41 -8c10 -4 21 -10 30 -16s19 -12 28 -16c10 -6 22 -8 35 -8c15 0 29 3 41 10
c11 6 21 14 29 25l47 -48c-11 -21 -26 -38 -44 -51c-19 -13 -42 -19 -69 -19c-16 0 -30 3 -43 8c-12 5 -23 11 -34 17c-10 6 -20 12 -30 17c-11 5 -22 8 -35 8c-17 0 -32 -3 -43 -9c-12 -7 -23 -16 -32 -28z" />
    <glyph glyph-name="odieresis" unicode="&#xf6;" horiz-adv-x="650" 
d="M325 522c41 0 78 -6 112 -20c34 -12 63 -31 88 -54c25 -24 44 -52 57 -85s20 -69 20 -108c0 -38 -7 -73 -21 -106s-33 -61 -57 -85c-25 -24 -54 -43 -88 -56s-71 -20 -111 -20c-41 0 -79 6 -113 20c-34 12 -63 31 -88 54c-24 24 -43 52 -56 85s-20 69 -20 108
c0 38 7 73 20 106c14 33 33 61 58 85c24 24 53 43 87 56s71 20 112 20zM325 439c-27 0 -52 -5 -75 -13c-22 -10 -41 -22 -56 -38c-16 -17 -28 -36 -36 -59c-9 -23 -13 -47 -13 -74s4 -52 13 -75s21 -42 36 -58c16 -16 35 -28 57 -38c22 -8 47 -13 74 -13c28 0 53 5 75 13
c22 10 41 22 56 38c16 16 28 35 36 58c9 23 13 48 13 75s-4 51 -13 73c-9 23 -21 42 -36 58c-16 17 -35 30 -57 39s-47 14 -74 14zM211 735c18 0 33 -6 45 -17c13 -12 19 -27 19 -45s-6 -33 -19 -45c-12 -11 -27 -17 -45 -17c-17 0 -32 6 -45 17c-12 12 -18 27 -18 45
s6 33 18 45c13 11 28 17 45 17zM437 735c17 0 32 -6 45 -17c12 -12 18 -27 18 -45s-6 -33 -18 -45c-13 -11 -28 -17 -45 -17s-32 6 -45 17c-12 12 -18 27 -18 45s6 33 18 45c13 11 28 17 45 17z" />
    <glyph glyph-name="divide" unicode="&#xf7;" horiz-adv-x="483" 
d="M420 384v-84h-357v84h357zM242 216c17 0 32 -6 44 -17c13 -11 19 -26 19 -45s-6 -34 -19 -46c-12 -10 -27 -16 -44 -16s-32 6 -44 16c-13 12 -19 27 -19 46s6 34 19 45c12 11 27 17 44 17zM242 592c17 0 32 -6 44 -17c13 -11 19 -26 19 -45s-6 -34 -19 -45
c-12 -11 -27 -17 -44 -17s-32 6 -44 17c-13 11 -19 26 -19 45s6 34 19 45c12 11 27 17 44 17z" />
    <glyph glyph-name="oslash" unicode="&#xf8;" horiz-adv-x="650" 
d="M550 521l-40 -62c29 -23 52 -53 68 -87c16 -36 24 -74 24 -117c0 -38 -7 -73 -21 -106s-33 -61 -57 -85c-25 -24 -54 -43 -88 -56s-71 -20 -111 -20c-41 0 -76 6 -107 18l-48 -74l-77 48l46 70c-29 24 -52 53 -67 88c-16 35 -24 74 -24 117c0 38 7 73 20 106
c14 33 33 61 58 85c24 24 53 43 87 56s71 20 112 20c39 0 74 -6 106 -18l42 65zM266 80c17 -6 36 -9 59 -9c28 0 53 5 75 13c22 10 41 22 56 38c16 16 28 35 36 58c9 23 13 48 13 75c0 25 -4 49 -12 70s-19 40 -34 55zM382 429c-9 3 -18 6 -28 7c-9 2 -19 3 -29 3
c-27 0 -52 -5 -75 -13c-22 -10 -41 -22 -56 -38c-16 -17 -28 -36 -36 -59c-9 -23 -13 -47 -13 -74c0 -52 15 -94 45 -125z" />
    <glyph glyph-name="ugrave" unicode="&#xf9;" horiz-adv-x="634" 
d="M170 510v-283c0 -53 11 -92 32 -117s51 -37 90 -37c41 0 76 13 106 39c29 25 51 61 66 108v290h97v-510h-78l-9 103c-17 -37 -42 -66 -74 -85c-33 -20 -71 -30 -116 -30c-66 0 -118 19 -155 57s-56 94 -56 169v296h97zM366 621h-85l-82 139l82 48z" />
    <glyph glyph-name="uacute" unicode="&#xfa;" horiz-adv-x="634" 
d="M170 510v-283c0 -53 11 -92 32 -117s51 -37 90 -37c41 0 76 13 106 39c29 25 51 61 66 108v290h97v-510h-78l-9 103c-17 -37 -42 -66 -74 -85c-33 -20 -71 -30 -116 -30c-66 0 -118 19 -155 57s-56 94 -56 169v296h97zM444 760l-82 -139h-85l85 187z" />
    <glyph glyph-name="ucircumflex" unicode="&#xfb;" horiz-adv-x="634" 
d="M170 510v-283c0 -53 11 -92 32 -117s51 -37 90 -37c41 0 76 13 106 39c29 25 51 61 66 108v290h97v-510h-78l-9 103c-17 -37 -42 -66 -74 -85c-33 -20 -71 -30 -116 -30c-66 0 -118 19 -155 57s-56 94 -56 169v296h97zM314 677l-94 -84l-47 49v10l133 127h21l133 -127
v-10l-46 -49z" />
    <glyph glyph-name="udieresis" unicode="&#xfc;" horiz-adv-x="634" 
d="M170 510v-283c0 -53 11 -92 32 -117s51 -37 90 -37c41 0 76 13 106 39c29 25 51 61 66 108v290h97v-510h-78l-9 103c-17 -37 -42 -66 -74 -85c-33 -20 -71 -30 -116 -30c-66 0 -118 19 -155 57s-56 94 -56 169v296h97zM203 735c18 0 33 -6 45 -17c13 -12 19 -27 19 -45
s-6 -33 -19 -45c-12 -11 -27 -17 -45 -17c-17 0 -32 6 -45 17c-12 12 -18 27 -18 45s6 33 18 45c13 11 28 17 45 17zM429 735c17 0 32 -6 45 -17c12 -12 18 -27 18 -45s-6 -33 -18 -45c-13 -11 -28 -17 -45 -17s-32 6 -45 17c-12 12 -18 27 -18 45s6 33 18 45
c13 11 28 17 45 17z" />
    <glyph glyph-name="yacute" unicode="&#xfd;" horiz-adv-x="638" 
d="M152 510l184 -408h9l147 408h108l-233 -566c-19 -48 -42 -83 -68 -106c-26 -22 -59 -33 -99 -33c-37 0 -69 9 -94 26l27 75c11 -5 21 -9 31 -11s20 -3 29 -3c19 0 36 5 49 15c14 10 26 27 35 50l13 36l-252 517h114zM456 760l-82 -139h-85l85 187z" />
    <glyph glyph-name="thorn" unicode="&#xfe;" horiz-adv-x="645" 
d="M169 703v-267c41 57 103 86 185 86c36 0 69 -6 99 -18c30 -13 56 -30 77 -52c21 -23 38 -50 50 -82c11 -33 17 -69 17 -109c0 -45 -7 -84 -22 -118s-34 -63 -59 -85c-25 -24 -53 -41 -86 -52c-32 -12 -65 -18 -100 -18c-33 0 -62 4 -86 11c-26 7 -50 20 -75 37v-233h-96
v900h96zM169 129c45 -37 96 -56 155 -56c25 0 49 4 70 13s40 21 55 38c15 16 27 36 36 60c9 23 13 50 13 80c0 25 -4 49 -10 70c-8 21 -18 40 -32 55c-13 15 -30 27 -50 36c-19 9 -41 13 -66 13c-42 0 -77 -11 -106 -32s-50 -50 -65 -86v-191z" />
    <glyph glyph-name="ydieresis" unicode="&#xff;" horiz-adv-x="638" 
d="M152 510l184 -408h9l147 408h108l-233 -566c-19 -48 -42 -83 -68 -106c-26 -22 -59 -33 -99 -33c-37 0 -69 9 -94 26l27 75c11 -5 21 -9 31 -11s20 -3 29 -3c19 0 36 5 49 15c14 10 26 27 35 50l13 36l-252 517h114zM215 735c18 0 33 -6 45 -17c13 -12 19 -27 19 -45
s-6 -33 -19 -45c-12 -11 -27 -17 -45 -17c-17 0 -32 6 -45 17c-12 12 -18 27 -18 45s6 33 18 45c13 11 28 17 45 17zM441 735c17 0 32 -6 45 -17c12 -12 18 -27 18 -45s-6 -33 -18 -45c-13 -11 -28 -17 -45 -17s-32 6 -45 17c-12 12 -18 27 -18 45s6 33 18 45
c13 11 28 17 45 17z" />
    <glyph glyph-name="Amacron" unicode="&#x100;" horiz-adv-x="762" 
d="M440 671l281 -671h-112l-60 152h-339l-59 -152h-109l279 671h119zM244 240h271l-129 328h-12zM573 877v-84h-385v84h385z" />
    <glyph glyph-name="amacron" unicode="&#x101;" horiz-adv-x="623" 
d="M79 463c34 21 68 37 102 45c34 10 70 14 108 14c79 0 137 -18 174 -54c37 -37 55 -87 55 -151v-187c0 -21 4 -36 11 -46c7 -8 17 -13 29 -13c7 0 14 1 21 4l9 -74c-14 -7 -31 -10 -51 -10c-25 0 -47 6 -63 19c-18 12 -29 34 -34 67c-43 -59 -109 -89 -198 -89
c-61 0 -108 14 -144 44c-34 28 -52 71 -52 126c0 51 20 92 61 121s96 44 167 44c28 0 54 -2 80 -7c24 -5 48 -11 69 -18v28c0 37 -11 64 -32 83s-55 28 -100 28c-61 0 -118 -15 -173 -44zM424 222c-43 15 -91 22 -146 22c-48 0 -82 -8 -102 -24c-21 -17 -31 -38 -31 -64
c0 -28 10 -49 29 -64c20 -14 49 -21 86 -21c23 0 44 3 64 9c19 7 36 16 52 27c14 11 26 25 35 41c9 15 13 33 13 52v22zM462 716v-82h-327v82h327z" />
    <glyph glyph-name="Abreve" unicode="&#x102;" horiz-adv-x="762" 
d="M440 671l281 -671h-112l-60 152h-339l-59 -152h-109l279 671h119zM244 240h271l-129 328h-12zM301 917c1 -25 9 -44 24 -57s33 -20 55 -20s40 6 56 20c14 12 23 32 24 57h78c-1 -23 -5 -43 -12 -63c-8 -18 -19 -35 -32 -49c-14 -14 -31 -25 -50 -33
c-19 -7 -41 -11 -64 -11s-45 4 -64 11c-19 8 -36 19 -49 33s-24 31 -31 49c-8 20 -12 40 -13 63h78z" />
    <glyph glyph-name="abreve" unicode="&#x103;" horiz-adv-x="623" 
d="M79 463c34 21 68 37 102 45c34 10 70 14 108 14c79 0 137 -18 174 -54c37 -37 55 -87 55 -151v-187c0 -21 4 -36 11 -46c7 -8 17 -13 29 -13c7 0 14 1 21 4l9 -74c-14 -7 -31 -10 -51 -10c-25 0 -47 6 -63 19c-18 12 -29 34 -34 67c-43 -59 -109 -89 -198 -89
c-61 0 -108 14 -144 44c-34 28 -52 71 -52 126c0 51 20 92 61 121s96 44 167 44c28 0 54 -2 80 -7c24 -5 48 -11 69 -18v28c0 37 -11 64 -32 83s-55 28 -100 28c-61 0 -118 -15 -173 -44zM424 222c-43 15 -91 22 -146 22c-48 0 -82 -8 -102 -24c-21 -17 -31 -38 -31 -64
c0 -28 10 -49 29 -64c20 -14 49 -21 86 -21c23 0 44 3 64 9c19 7 36 16 52 27c14 11 26 25 35 41c9 15 13 33 13 52v22zM228 748c1 -23 8 -40 22 -52c12 -13 29 -19 50 -19s38 6 50 19c14 12 21 29 22 52h79c-1 -23 -6 -44 -14 -62s-19 -33 -32 -46c-13 -12 -29 -21 -47 -28
s-37 -10 -58 -10s-41 3 -59 10c-18 6 -34 15 -47 28c-13 12 -24 27 -32 46c-8 18 -12 39 -12 62h78z" />
    <glyph glyph-name="Aogonek" unicode="&#x104;" horiz-adv-x="762" 
d="M440 671l277 -661v-10h-16c-15 0 -26 -5 -35 -15c-8 -10 -12 -23 -12 -38c0 -21 6 -37 18 -51c12 -12 31 -21 56 -24l-13 -71c-48 3 -84 16 -108 41c-24 24 -36 52 -36 85c0 17 3 33 9 49c6 14 14 26 25 34l-56 142h-339l-59 -152h-109l279 671h119zM244 240h271
l-129 328h-12z" />
    <glyph glyph-name="aogonek" unicode="&#x105;" horiz-adv-x="623" 
d="M79 464c35 21 69 36 103 44c34 10 70 14 108 14c79 0 137 -18 174 -54c37 -37 55 -87 55 -151v-187c0 -21 4 -36 11 -46c7 -8 17 -13 29 -13c4 0 8 0 11 1s6 1 9 2l9 -73c-21 -1 -38 -7 -50 -19c-11 -12 -17 -27 -17 -44c0 -19 6 -34 19 -47c12 -13 31 -21 56 -24
l-13 -70c-23 1 -43 5 -61 13c-17 7 -32 17 -44 28c-13 11 -22 24 -28 39c-7 15 -10 30 -10 46c0 17 3 33 10 49c6 14 16 28 29 39c-11 6 -20 14 -27 25c-6 10 -10 24 -12 41c-41 -59 -107 -89 -197 -89c-61 0 -109 14 -143 44c-36 28 -53 71 -53 126c0 51 20 92 61 121
c40 29 95 44 166 44c29 0 56 -2 80 -7c26 -5 49 -11 70 -18v28c0 74 -44 111 -132 111c-60 0 -118 -15 -174 -44zM425 222c-41 15 -90 22 -147 22c-47 0 -81 -8 -102 -24c-20 -17 -30 -38 -30 -64c0 -28 10 -49 30 -64c19 -14 48 -21 85 -21c23 0 44 3 63 9
c20 7 38 16 52 27c16 11 27 25 36 41c9 15 13 33 13 52v22z" />
    <glyph glyph-name="Cacute" unicode="&#x106;" horiz-adv-x="727" 
d="M617 523c-56 47 -124 70 -205 70c-39 0 -74 -6 -106 -18c-31 -12 -58 -29 -80 -52c-23 -23 -40 -50 -52 -81c-13 -32 -19 -68 -19 -107c0 -40 6 -76 19 -108s30 -59 53 -81s49 -39 81 -51c30 -12 64 -18 101 -18c43 0 82 7 119 21c36 15 69 35 99 62l57 -70
c-72 -69 -165 -104 -280 -104c-52 0 -100 8 -142 24c-44 16 -80 39 -112 69c-30 30 -54 66 -72 109c-16 43 -25 91 -25 145c0 49 9 95 25 138c18 43 42 80 74 111c31 32 70 57 115 75s97 27 154 27c48 0 93 -8 137 -24c42 -15 80 -37 112 -65zM536 931l-84 -159h-90l88 202z
" />
    <glyph glyph-name="cacute" unicode="&#x107;" horiz-adv-x="583" 
d="M476 381c-19 17 -41 31 -66 41c-26 10 -55 15 -88 15c-24 0 -47 -4 -68 -12c-22 -8 -41 -20 -57 -35s-29 -34 -38 -56s-14 -47 -14 -75c0 -57 16 -102 47 -135s75 -50 130 -50c32 0 62 6 89 16c27 12 51 28 70 49l59 -61c-28 -31 -60 -54 -98 -68
c-36 -15 -78 -22 -124 -22c-43 0 -82 7 -116 20c-33 14 -62 33 -84 57c-24 24 -41 52 -52 85c-12 32 -18 67 -18 104c0 41 7 78 22 110c14 34 33 62 58 85c24 23 52 41 86 54c32 13 68 19 106 19c45 0 85 -6 120 -20c35 -12 65 -32 90 -57zM451 760l-82 -139h-85l85 187z
" />
    <glyph glyph-name="Ccircumflex" unicode="&#x108;" horiz-adv-x="727" 
d="M617 523c-56 47 -124 70 -205 70c-39 0 -74 -6 -106 -18c-31 -12 -58 -29 -80 -52c-23 -23 -40 -50 -52 -81c-13 -32 -19 -68 -19 -107c0 -40 6 -76 19 -108s30 -59 53 -81s49 -39 81 -51c30 -12 64 -18 101 -18c43 0 82 7 119 21c36 15 69 35 99 62l57 -70
c-72 -69 -165 -104 -280 -104c-52 0 -100 8 -142 24c-44 16 -80 39 -112 69c-30 30 -54 66 -72 109c-16 43 -25 91 -25 145c0 49 9 95 25 138c18 43 42 80 74 111c31 32 70 57 115 75s97 27 154 27c48 0 93 -8 137 -24c42 -15 80 -37 112 -65zM426 935l136 -129v-10l-48 -50
l-100 87l-99 -87l-49 50v10l137 129h23z" />
    <glyph glyph-name="ccircumflex" unicode="&#x109;" horiz-adv-x="583" 
d="M476 381c-19 17 -41 31 -66 41c-26 10 -55 15 -88 15c-24 0 -47 -4 -68 -12c-22 -8 -41 -20 -57 -35s-29 -34 -38 -56s-14 -47 -14 -75c0 -57 16 -102 47 -135s75 -50 130 -50c32 0 62 6 89 16c27 12 51 28 70 49l59 -61c-28 -31 -60 -54 -98 -68
c-36 -15 -78 -22 -124 -22c-43 0 -82 7 -116 20c-33 14 -62 33 -84 57c-24 24 -41 52 -52 85c-12 32 -18 67 -18 104c0 41 7 78 22 110c14 34 33 62 58 85c24 23 52 41 86 54c32 13 68 19 106 19c45 0 85 -6 120 -20c35 -12 65 -32 90 -57zM322 677l-94 -84l-47 49v10
l133 127h21l133 -127v-10l-46 -49z" />
    <glyph glyph-name="Cdotaccent" unicode="&#x10a;" horiz-adv-x="727" 
d="M617 523c-56 47 -124 70 -205 70c-39 0 -74 -6 -106 -18c-31 -12 -58 -29 -80 -52c-23 -23 -40 -50 -52 -81c-13 -32 -19 -68 -19 -107c0 -40 6 -76 19 -108s30 -59 53 -81s49 -39 81 -51c30 -12 64 -18 101 -18c43 0 82 7 119 21c36 15 69 35 99 62l57 -70
c-72 -69 -165 -104 -280 -104c-52 0 -100 8 -142 24c-44 16 -80 39 -112 69c-30 30 -54 66 -72 109c-16 43 -25 91 -25 145c0 49 9 95 25 138c18 43 42 80 74 111c31 32 70 57 115 75s97 27 154 27c48 0 93 -8 137 -24c42 -15 80 -37 112 -65zM416 910c19 0 35 -6 48 -19
c14 -13 21 -29 21 -49s-7 -36 -21 -49c-13 -13 -29 -19 -48 -19s-35 6 -48 19s-20 29 -20 49s7 36 20 49s29 19 48 19z" />
    <glyph glyph-name="cdotaccent" unicode="&#x10b;" horiz-adv-x="583" 
d="M476 381c-19 17 -41 31 -66 41c-26 10 -55 15 -88 15c-24 0 -47 -4 -68 -12c-22 -8 -41 -20 -57 -35s-29 -34 -38 -56s-14 -47 -14 -75c0 -57 16 -102 47 -135s75 -50 130 -50c32 0 62 6 89 16c27 12 51 28 70 49l59 -61c-28 -31 -60 -54 -98 -68
c-36 -15 -78 -22 -124 -22c-43 0 -82 7 -116 20c-33 14 -62 33 -84 57c-24 24 -41 52 -52 85c-12 32 -18 67 -18 104c0 41 7 78 22 110c14 34 33 62 58 85c24 23 52 41 86 54c32 13 68 19 106 19c45 0 85 -6 120 -20c35 -12 65 -32 90 -57zM326 744c19 0 35 -6 48 -18
s20 -28 20 -49c0 -20 -7 -36 -20 -48s-29 -18 -48 -18c-18 0 -34 6 -47 18s-20 28 -20 48c0 21 7 37 20 49s29 18 47 18z" />
    <glyph glyph-name="Ccaron" unicode="&#x10c;" horiz-adv-x="727" 
d="M617 523c-56 47 -124 70 -205 70c-39 0 -74 -6 -106 -18c-31 -12 -58 -29 -80 -52c-23 -23 -40 -50 -52 -81c-13 -32 -19 -68 -19 -107c0 -40 6 -76 19 -108s30 -59 53 -81s49 -39 81 -51c30 -12 64 -18 101 -18c43 0 82 7 119 21c36 15 69 35 99 62l57 -70
c-72 -69 -165 -104 -280 -104c-52 0 -100 8 -142 24c-44 16 -80 39 -112 69c-30 30 -54 66 -72 109c-16 43 -25 91 -25 145c0 49 9 95 25 138c18 43 42 80 74 111c31 32 70 57 115 75s97 27 154 27c48 0 93 -8 137 -24c42 -15 80 -37 112 -65zM399 747l-136 129v10l49 50
l100 -87l99 87l48 -50v-10l-136 -129h-24z" />
    <glyph glyph-name="ccaron" unicode="&#x10d;" horiz-adv-x="583" 
d="M476 381c-19 17 -41 31 -66 41c-26 10 -55 15 -88 15c-24 0 -47 -4 -68 -12c-22 -8 -41 -20 -57 -35s-29 -34 -38 -56s-14 -47 -14 -75c0 -57 16 -102 47 -135s75 -50 130 -50c32 0 62 6 89 16c27 12 51 28 70 49l59 -61c-28 -31 -60 -54 -98 -68
c-36 -15 -78 -22 -124 -22c-43 0 -82 7 -116 20c-33 14 -62 33 -84 57c-24 24 -41 52 -52 85c-12 32 -18 67 -18 104c0 41 7 78 22 110c14 34 33 62 58 85c24 23 52 41 86 54c32 13 68 19 106 19c45 0 85 -6 120 -20c35 -12 65 -32 90 -57zM323 704l96 84l46 -49v-10
l-132 -127h-21l-134 127v10l46 49z" />
    <glyph glyph-name="Dcaron" unicode="&#x10e;" horiz-adv-x="728" 
d="M320 670c55 0 104 -8 148 -24c43 -17 80 -40 111 -70c31 -29 54 -65 71 -106c17 -40 25 -86 25 -135s-9 -93 -25 -135c-18 -40 -42 -76 -73 -106c-31 -29 -69 -52 -113 -69s-93 -25 -147 -25h-234v670h237zM184 89h133c37 0 71 6 103 17c31 11 58 28 81 49s41 47 53 77
c14 31 20 65 20 103c0 80 -23 141 -68 183c-46 42 -109 63 -190 63h-132v-492zM315 747l-136 129v10l49 50l100 -87l99 87l48 -50v-10l-136 -129h-24z" />
    <glyph glyph-name="dcaron" unicode="&#x10f;" horiz-adv-x="818" 
d="M584 713v-713h-77l-11 97c-20 -36 -47 -63 -80 -81c-34 -19 -72 -28 -115 -28c-39 0 -74 6 -105 18s-58 29 -80 52s-39 50 -50 84c-12 32 -18 70 -18 112c0 41 7 78 21 112c14 32 33 61 57 84c25 23 53 41 86 54c33 12 68 18 106 18c34 0 65 -4 92 -12
c28 -9 54 -21 77 -38v241h97zM487 385c-47 36 -100 54 -159 54c-57 0 -101 -16 -134 -49c-32 -32 -48 -77 -48 -136c0 -29 4 -55 12 -78c9 -22 20 -41 34 -56c15 -16 32 -28 51 -36s40 -12 62 -12c45 0 82 12 113 36s54 58 69 103v174zM721 584c-11 3 -21 10 -28 21
s-11 23 -11 38c0 19 6 35 19 46s28 17 45 17c18 0 34 -6 46 -17c14 -11 20 -27 20 -46c0 -11 -2 -21 -6 -30l-54 -132l-56 20z" />
    <glyph glyph-name="Dcroat" unicode="&#x110;" horiz-adv-x="742" 
d="M333 670c55 0 104 -8 148 -24c44 -17 81 -40 112 -70c31 -29 54 -65 71 -106c16 -40 24 -86 24 -135s-8 -93 -26 -135c-16 -40 -41 -76 -72 -106c-31 -29 -69 -52 -113 -69s-93 -25 -147 -25h-233v287l-75 5v87h75v291h236zM198 379h190v-91h-190v-199h132
c37 0 71 6 102 17c32 11 59 28 82 49s40 47 54 77c12 31 19 65 19 103c0 80 -23 141 -69 183c-45 42 -108 63 -189 63h-131v-202z" />
    <glyph glyph-name="dcroat" unicode="&#x111;" horiz-adv-x="677" 
d="M584 730v-71h70v-78h-70v-581h-77l-11 97c-20 -36 -47 -63 -80 -81c-34 -19 -72 -28 -115 -28c-39 0 -74 6 -105 18s-58 29 -80 52s-39 50 -50 84c-12 32 -18 70 -18 112c0 41 7 78 21 112c14 32 33 61 57 84c25 23 53 41 86 54c33 12 68 18 106 18c34 0 65 -4 92 -12
c28 -9 54 -21 77 -38v109h-156v78h154l10 71h89zM487 385c-47 36 -100 54 -159 54c-57 0 -101 -16 -134 -49c-32 -32 -48 -77 -48 -136c0 -29 4 -55 12 -78c9 -22 20 -41 34 -56c15 -16 32 -28 51 -36s40 -12 62 -12c45 0 82 12 113 36s54 58 69 103v174z" />
    <glyph glyph-name="Emacron" unicode="&#x112;" 
d="M565 670v-89h-382v-189h336v-88h-336v-214h400v-90h-500v670h482zM523 877v-84h-385v84h385z" />
    <glyph glyph-name="emacron" unicode="&#x113;" horiz-adv-x="612" 
d="M146 222c5 -47 24 -84 55 -110s73 -39 125 -39c35 0 68 5 96 13c30 10 57 24 84 43l44 -69c-34 -26 -69 -44 -106 -56c-37 -10 -77 -16 -120 -16s-82 6 -116 18c-34 13 -63 30 -86 54c-24 22 -42 50 -55 83s-19 70 -19 111c0 39 7 74 20 107s32 61 56 85s53 43 87 56
s72 20 113 20c36 0 69 -6 98 -17s54 -27 76 -49c20 -20 37 -46 48 -75c12 -29 18 -62 18 -97c0 -11 -1 -21 -2 -32c-1 -10 -3 -20 -5 -30h-411zM466 302c-1 41 -13 74 -37 99s-60 37 -109 37s-87 -12 -116 -36c-29 -25 -47 -58 -54 -100h316zM496 716v-82h-327v82h327z" />
    <glyph glyph-name="Ebreve" unicode="&#x114;" 
d="M565 670v-89h-382v-189h336v-88h-336v-214h400v-90h-500v670h482zM257 917c1 -25 9 -44 24 -57s33 -20 55 -20s40 6 56 20c14 12 23 32 24 57h78c-1 -23 -5 -43 -12 -63c-8 -18 -19 -35 -32 -49c-14 -14 -31 -25 -50 -33c-19 -7 -41 -11 -64 -11s-45 4 -64 11
c-19 8 -36 19 -49 33s-24 31 -31 49c-8 20 -12 40 -13 63h78z" />
    <glyph glyph-name="ebreve" unicode="&#x115;" horiz-adv-x="612" 
d="M146 222c5 -47 24 -84 55 -110s73 -39 125 -39c35 0 68 5 96 13c30 10 57 24 84 43l44 -69c-34 -26 -69 -44 -106 -56c-37 -10 -77 -16 -120 -16s-82 6 -116 18c-34 13 -63 30 -86 54c-24 22 -42 50 -55 83s-19 70 -19 111c0 39 7 74 20 107s32 61 56 85s53 43 87 56
s72 20 113 20c36 0 69 -6 98 -17s54 -27 76 -49c20 -20 37 -46 48 -75c12 -29 18 -62 18 -97c0 -11 -1 -21 -2 -32c-1 -10 -3 -20 -5 -30h-411zM466 302c-1 41 -13 74 -37 99s-60 37 -109 37s-87 -12 -116 -36c-29 -25 -47 -58 -54 -100h316zM252 748c1 -23 9 -40 21 -52
c14 -13 30 -19 51 -19s37 6 51 19c12 12 20 29 21 52h79c-1 -23 -6 -44 -14 -62s-19 -33 -32 -46c-13 -12 -29 -21 -47 -28s-37 -10 -58 -10s-41 3 -59 10c-18 6 -34 15 -47 28c-13 12 -24 27 -32 46c-8 18 -12 39 -12 62h78z" />
    <glyph glyph-name="Edotaccent" unicode="&#x116;" 
d="M565 670v-89h-382v-189h336v-88h-336v-214h400v-90h-500v670h482zM335 910c19 0 35 -6 49 -19c13 -13 20 -29 20 -49s-7 -36 -20 -49c-14 -13 -30 -19 -49 -19s-35 6 -48 19s-20 29 -20 49s7 36 20 49s29 19 48 19z" />
    <glyph glyph-name="edotaccent" unicode="&#x117;" horiz-adv-x="612" 
d="M146 222c5 -47 24 -84 55 -110s73 -39 125 -39c35 0 68 5 96 13c30 10 57 24 84 43l44 -69c-34 -26 -69 -44 -106 -56c-37 -10 -77 -16 -120 -16s-82 6 -116 18c-34 13 -63 30 -86 54c-24 22 -42 50 -55 83s-19 70 -19 111c0 39 7 74 20 107s32 61 56 85s53 43 87 56
s72 20 113 20c36 0 69 -6 98 -17s54 -27 76 -49c20 -20 37 -46 48 -75c12 -29 18 -62 18 -97c0 -11 -1 -21 -2 -32c-1 -10 -3 -20 -5 -30h-411zM466 302c-1 41 -13 74 -37 99s-60 37 -109 37s-87 -12 -116 -36c-29 -25 -47 -58 -54 -100h316zM324 744c19 0 35 -6 48 -18
s20 -28 20 -49c0 -20 -7 -36 -20 -48s-29 -18 -48 -18c-18 0 -34 6 -47 18s-20 28 -20 48c0 21 7 37 20 49s29 18 47 18z" />
    <glyph glyph-name="Eogonek" unicode="&#x118;" 
d="M565 670v-89h-382v-189h336v-88h-336v-214h400v-90h-17c-15 0 -26 -5 -34 -16c-9 -10 -13 -23 -13 -38c0 -19 6 -36 18 -48c12 -14 31 -22 56 -25l-13 -72c-49 3 -86 16 -109 39c-23 24 -35 53 -35 87c0 15 2 28 6 41c4 12 10 23 19 32h-378v670h482z" />
    <glyph glyph-name="eogonek" unicode="&#x119;" horiz-adv-x="612" 
d="M146 222c5 -47 24 -84 55 -110s73 -39 125 -39c35 0 68 5 96 13c30 10 57 24 84 43l44 -69c-21 -14 -36 -28 -44 -42c-8 -13 -12 -28 -12 -44c0 -43 25 -68 75 -75l-13 -69c-23 1 -44 5 -62 12c-17 7 -32 16 -44 28c-12 10 -21 23 -28 38c-6 14 -9 29 -9 45
c0 17 3 32 9 45c-15 -3 -31 -6 -48 -8c-16 -1 -33 -2 -50 -2c-43 0 -82 6 -116 18c-34 13 -63 30 -86 54c-24 22 -42 50 -55 83s-19 70 -19 111c0 39 7 74 20 107s32 61 56 85s53 43 87 56s72 20 113 20c36 0 69 -6 98 -17s54 -27 76 -49c20 -20 37 -46 48 -75
c12 -29 18 -62 18 -97c0 -11 -1 -21 -2 -32c-1 -10 -3 -20 -5 -30h-411zM466 302c-1 41 -13 74 -37 99s-60 37 -109 37s-87 -12 -116 -36c-29 -25 -47 -58 -54 -100h316z" />
    <glyph glyph-name="Ecaron" unicode="&#x11a;" 
d="M565 670v-89h-382v-189h336v-88h-336v-214h400v-90h-500v670h482zM321 747l-136 129v10l49 50l100 -87l99 87l48 -50v-10l-136 -129h-24z" />
    <glyph glyph-name="ecaron" unicode="&#x11b;" horiz-adv-x="612" 
d="M146 222c5 -47 24 -84 55 -110s73 -39 125 -39c35 0 68 5 96 13c30 10 57 24 84 43l44 -69c-34 -26 -69 -44 -106 -56c-37 -10 -77 -16 -120 -16s-82 6 -116 18c-34 13 -63 30 -86 54c-24 22 -42 50 -55 83s-19 70 -19 111c0 39 7 74 20 107s32 61 56 85s53 43 87 56
s72 20 113 20c36 0 69 -6 98 -17s54 -27 76 -49c20 -20 37 -46 48 -75c12 -29 18 -62 18 -97c0 -11 -1 -21 -2 -32c-1 -10 -3 -20 -5 -30h-411zM466 302c-1 41 -13 74 -37 99s-60 37 -109 37s-87 -12 -116 -36c-29 -25 -47 -58 -54 -100h316zM332 704l96 84l46 -49v-10
l-132 -127h-21l-134 127v10l46 49z" />
    <glyph glyph-name="Gcircumflex" unicode="&#x11c;" horiz-adv-x="740" 
d="M677 359v-281c-35 -30 -75 -53 -121 -68c-47 -16 -97 -24 -150 -24s-101 8 -144 24s-80 39 -112 69c-30 30 -54 66 -72 109c-16 43 -25 91 -25 145c0 49 8 94 25 137s40 80 72 112c30 31 68 56 114 74c44 19 96 28 153 28c45 0 89 -7 131 -21s80 -35 113 -63l-54 -73
c-25 22 -55 39 -89 49c-33 12 -69 17 -106 17c-39 0 -74 -6 -106 -18c-31 -12 -58 -29 -80 -52c-23 -23 -40 -50 -52 -81c-13 -32 -19 -68 -19 -107c0 -41 6 -77 19 -109s30 -59 53 -81s49 -39 81 -51c30 -11 65 -17 102 -17c69 0 125 16 170 47v146l-147 7v82h244zM422 935
l136 -129v-10l-48 -50l-100 87l-99 -87l-49 50v10l137 129h23z" />
    <glyph glyph-name="gcircumflex" unicode="&#x11d;" horiz-adv-x="646" 
d="M591 463l-89 -20c13 -13 22 -29 30 -47c6 -18 10 -37 10 -57c0 -25 -5 -48 -15 -70s-24 -41 -43 -58s-42 -30 -70 -39c-27 -10 -58 -15 -93 -15c-29 0 -54 3 -76 9c-22 7 -42 16 -59 27c-13 -7 -22 -15 -28 -25c-5 -11 -8 -23 -8 -36c0 -21 7 -37 21 -46s35 -14 64 -14
h161c32 0 60 -4 84 -12c23 -7 42 -18 58 -31c14 -13 26 -29 33 -47c7 -19 11 -39 11 -61c0 -29 -7 -57 -21 -82s-34 -47 -59 -67c-26 -18 -57 -34 -92 -44c-36 -12 -76 -17 -120 -17c-81 0 -140 16 -179 49s-58 76 -58 131c0 26 5 51 15 75c9 23 23 44 41 62
c-32 24 -48 57 -48 98c0 48 24 88 72 119c-9 13 -16 27 -21 43s-7 33 -7 51c0 25 5 48 14 71c9 22 23 41 43 58c18 17 42 30 70 40c28 9 61 14 99 14h97l155 14zM180 -6c-11 -11 -20 -25 -25 -40c-5 -16 -8 -33 -8 -50c0 -35 13 -62 38 -82c25 -18 62 -28 110 -28
c59 0 105 11 141 34c34 23 52 53 52 91c0 23 -8 41 -22 53c-16 12 -41 18 -76 18h-157zM320 441c-40 0 -70 -9 -90 -26c-21 -17 -31 -42 -31 -75c0 -31 10 -56 31 -74c21 -20 51 -29 91 -29c37 0 67 9 90 27c23 17 35 43 35 76c0 43 -17 77 -51 101h-75zM325 677l-94 -84
l-47 49v10l133 127h21l133 -127v-10l-46 -49z" />
    <glyph glyph-name="Gbreve" unicode="&#x11e;" horiz-adv-x="740" 
d="M677 359v-281c-35 -30 -75 -53 -121 -68c-47 -16 -97 -24 -150 -24s-101 8 -144 24s-80 39 -112 69c-30 30 -54 66 -72 109c-16 43 -25 91 -25 145c0 49 8 94 25 137s40 80 72 112c30 31 68 56 114 74c44 19 96 28 153 28c45 0 89 -7 131 -21s80 -35 113 -63l-54 -73
c-25 22 -55 39 -89 49c-33 12 -69 17 -106 17c-39 0 -74 -6 -106 -18c-31 -12 -58 -29 -80 -52c-23 -23 -40 -50 -52 -81c-13 -32 -19 -68 -19 -107c0 -41 6 -77 19 -109s30 -59 53 -81s49 -39 81 -51c30 -11 65 -17 102 -17c69 0 125 16 170 47v146l-147 7v82h244zM332 917
c1 -25 9 -44 24 -57s33 -20 55 -20s41 6 55 20c16 12 24 32 25 57h78c-1 -23 -5 -43 -13 -63c-7 -18 -18 -35 -32 -49c-13 -14 -30 -25 -49 -33c-19 -7 -41 -11 -64 -11s-45 4 -64 11c-19 8 -36 19 -49 33s-24 31 -32 49c-7 20 -11 40 -12 63h78z" />
    <glyph glyph-name="gbreve" unicode="&#x11f;" horiz-adv-x="646" 
d="M591 463l-89 -20c13 -13 22 -29 30 -47c6 -18 10 -37 10 -57c0 -25 -5 -48 -15 -70s-24 -41 -43 -58s-42 -30 -70 -39c-27 -10 -58 -15 -93 -15c-29 0 -54 3 -76 9c-22 7 -42 16 -59 27c-13 -7 -22 -15 -28 -25c-5 -11 -8 -23 -8 -36c0 -21 7 -37 21 -46s35 -14 64 -14
h161c32 0 60 -4 84 -12c23 -7 42 -18 58 -31c14 -13 26 -29 33 -47c7 -19 11 -39 11 -61c0 -29 -7 -57 -21 -82s-34 -47 -59 -67c-26 -18 -57 -34 -92 -44c-36 -12 -76 -17 -120 -17c-81 0 -140 16 -179 49s-58 76 -58 131c0 26 5 51 15 75c9 23 23 44 41 62
c-32 24 -48 57 -48 98c0 48 24 88 72 119c-9 13 -16 27 -21 43s-7 33 -7 51c0 25 5 48 14 71c9 22 23 41 43 58c18 17 42 30 70 40c28 9 61 14 99 14h97l155 14zM180 -6c-11 -11 -20 -25 -25 -40c-5 -16 -8 -33 -8 -50c0 -35 13 -62 38 -82c25 -18 62 -28 110 -28
c59 0 105 11 141 34c34 23 52 53 52 91c0 23 -8 41 -22 53c-16 12 -41 18 -76 18h-157zM320 441c-40 0 -70 -9 -90 -26c-21 -17 -31 -42 -31 -75c0 -31 10 -56 31 -74c21 -20 51 -29 91 -29c37 0 67 9 90 27c23 17 35 43 35 76c0 43 -17 77 -51 101h-75zM263 748
c1 -23 9 -40 21 -52c14 -13 30 -19 51 -19s37 6 51 19c12 12 20 29 21 52h79c-1 -23 -6 -44 -14 -62s-19 -33 -32 -46c-13 -12 -29 -21 -47 -28s-37 -10 -58 -10s-41 3 -59 10c-18 6 -34 15 -47 28c-13 12 -24 27 -32 46c-8 18 -12 39 -12 62h78z" />
    <glyph glyph-name="Gdotaccent" unicode="&#x120;" horiz-adv-x="740" 
d="M677 359v-281c-35 -30 -75 -53 -121 -68c-47 -16 -97 -24 -150 -24s-101 8 -144 24s-80 39 -112 69c-30 30 -54 66 -72 109c-16 43 -25 91 -25 145c0 49 8 94 25 137s40 80 72 112c30 31 68 56 114 74c44 19 96 28 153 28c45 0 89 -7 131 -21s80 -35 113 -63l-54 -73
c-25 22 -55 39 -89 49c-33 12 -69 17 -106 17c-39 0 -74 -6 -106 -18c-31 -12 -58 -29 -80 -52c-23 -23 -40 -50 -52 -81c-13 -32 -19 -68 -19 -107c0 -41 6 -77 19 -109s30 -59 53 -81s49 -39 81 -51c30 -11 65 -17 102 -17c69 0 125 16 170 47v146l-147 7v82h244zM412 910
c19 0 35 -6 48 -19c14 -13 21 -29 21 -49s-7 -36 -21 -49c-13 -13 -29 -19 -48 -19s-35 6 -48 19s-20 29 -20 49s7 36 20 49s29 19 48 19z" />
    <glyph glyph-name="gdotaccent" unicode="&#x121;" horiz-adv-x="646" 
d="M591 463l-89 -20c13 -13 22 -29 30 -47c6 -18 10 -37 10 -57c0 -25 -5 -48 -15 -70s-24 -41 -43 -58s-42 -30 -70 -39c-27 -10 -58 -15 -93 -15c-29 0 -54 3 -76 9c-22 7 -42 16 -59 27c-13 -7 -22 -15 -28 -25c-5 -11 -8 -23 -8 -36c0 -21 7 -37 21 -46s35 -14 64 -14
h161c32 0 60 -4 84 -12c23 -7 42 -18 58 -31c14 -13 26 -29 33 -47c7 -19 11 -39 11 -61c0 -29 -7 -57 -21 -82s-34 -47 -59 -67c-26 -18 -57 -34 -92 -44c-36 -12 -76 -17 -120 -17c-81 0 -140 16 -179 49s-58 76 -58 131c0 26 5 51 15 75c9 23 23 44 41 62
c-32 24 -48 57 -48 98c0 48 24 88 72 119c-9 13 -16 27 -21 43s-7 33 -7 51c0 25 5 48 14 71c9 22 23 41 43 58c18 17 42 30 70 40c28 9 61 14 99 14h97l155 14zM180 -6c-11 -11 -20 -25 -25 -40c-5 -16 -8 -33 -8 -50c0 -35 13 -62 38 -82c25 -18 62 -28 110 -28
c59 0 105 11 141 34c34 23 52 53 52 91c0 23 -8 41 -22 53c-16 12 -41 18 -76 18h-157zM320 441c-40 0 -70 -9 -90 -26c-21 -17 -31 -42 -31 -75c0 -31 10 -56 31 -74c21 -20 51 -29 91 -29c37 0 67 9 90 27c23 17 35 43 35 76c0 43 -17 77 -51 101h-75zM333 744
c19 0 35 -6 48 -18s20 -28 20 -49c0 -20 -7 -36 -20 -48s-29 -18 -48 -18c-18 0 -34 6 -47 18s-20 28 -20 48c0 21 7 37 20 49s29 18 47 18z" />
    <glyph glyph-name="Gcommaaccent" unicode="&#x122;" horiz-adv-x="740" 
d="M677 359v-281c-35 -30 -75 -53 -121 -68c-47 -16 -97 -24 -150 -24s-101 8 -144 24s-80 39 -112 69c-30 30 -54 66 -72 109c-16 43 -25 91 -25 145c0 49 8 94 25 137s40 80 72 112c30 31 68 56 114 74c44 19 96 28 153 28c45 0 89 -7 131 -21s80 -35 113 -63l-54 -73
c-25 22 -55 39 -89 49c-33 12 -69 17 -106 17c-39 0 -74 -6 -106 -18c-31 -12 -58 -29 -80 -52c-23 -23 -40 -50 -52 -81c-13 -32 -19 -68 -19 -107c0 -41 6 -77 19 -109s30 -59 53 -81s49 -39 81 -51c30 -11 65 -17 102 -17c69 0 125 16 170 47v146l-147 7v82h244z
M380 -199c-12 4 -22 11 -30 21c-7 11 -11 23 -11 38c0 19 6 35 19 48c13 12 28 18 47 18c18 0 34 -6 47 -18c13 -11 20 -27 20 -46c0 -6 -1 -12 -2 -16c-1 -6 -3 -10 -4 -14l-56 -138l-58 20z" />
    <glyph glyph-name="gcommaaccent" unicode="&#x123;" horiz-adv-x="646" 
d="M591 463l-89 -20c13 -13 22 -29 30 -47c6 -18 10 -37 10 -57c0 -25 -5 -48 -15 -70s-24 -41 -43 -58s-42 -30 -70 -39c-27 -10 -58 -15 -93 -15c-29 0 -54 3 -76 9c-22 7 -42 16 -59 27c-13 -7 -22 -15 -28 -25c-5 -11 -8 -23 -8 -36c0 -21 7 -37 21 -46s35 -14 64 -14
h161c32 0 60 -4 84 -12c23 -7 42 -18 58 -31c14 -13 26 -29 33 -47c7 -19 11 -39 11 -61c0 -29 -7 -57 -21 -82s-34 -47 -59 -67c-26 -18 -57 -34 -92 -44c-36 -12 -76 -17 -120 -17c-81 0 -140 16 -179 49s-58 76 -58 131c0 26 5 51 15 75c9 23 23 44 41 62
c-32 24 -48 57 -48 98c0 48 24 88 72 119c-9 13 -16 27 -21 43s-7 33 -7 51c0 25 5 48 14 71c9 22 23 41 43 58c18 17 42 30 70 40c28 9 61 14 99 14h97l155 14zM180 -6c-11 -11 -20 -25 -25 -40c-5 -16 -8 -33 -8 -50c0 -35 13 -62 38 -82c25 -18 62 -28 110 -28
c59 0 105 11 141 34c34 23 52 53 52 91c0 23 -8 41 -22 53c-16 12 -41 18 -76 18h-157zM320 441c-40 0 -70 -9 -90 -26c-21 -17 -31 -42 -31 -75c0 -31 10 -56 31 -74c21 -20 51 -29 91 -29c37 0 67 9 90 27c23 17 35 43 35 76c0 43 -17 77 -51 101h-75zM359 719
c11 -3 21 -10 28 -21s11 -23 11 -38c0 -19 -6 -35 -19 -46s-28 -17 -45 -17c-18 0 -33 6 -46 17s-20 27 -20 46c0 11 2 21 6 30l54 132l56 -20z" />
    <glyph glyph-name="Hcircumflex" unicode="&#x124;" horiz-adv-x="732" 
d="M186 670v-282h360v282h102v-670h-102v297h-360v-297h-103v670h103zM377 935l136 -129v-10l-48 -50l-100 87l-99 -87l-49 50v10l137 129h23z" />
    <glyph glyph-name="hcircumflex" unicode="&#x125;" 
d="M171 713v-294c18 33 42 59 72 77c30 17 68 26 115 26c65 0 116 -19 154 -56c37 -37 56 -92 56 -165v-301h-97v290c0 50 -11 87 -33 112c-23 24 -55 36 -96 36c-40 0 -75 -13 -105 -39s-52 -63 -66 -110v-289h-98v713h98zM122 858l-94 -84l-47 49v10l133 127h21l133 -127
v-10l-46 -49z" />
    <glyph glyph-name="Hbar" unicode="&#x126;" horiz-adv-x="732" 
d="M186 670v-103h360v103h102v-103h64v-84h-64v-483h-102v287h-360v-287h-103v483h-63v84h63v103h103zM186 378h360v105h-360v-105z" />
    <glyph glyph-name="hbar" unicode="&#x127;" horiz-adv-x="661" 
d="M191 730v-71h156v-78h-156v-162c18 33 42 59 73 77c30 17 68 26 114 26c65 0 116 -19 154 -56c37 -37 56 -92 56 -165v-301h-97v290c0 50 -11 87 -33 112c-23 24 -55 36 -96 36c-40 0 -75 -13 -105 -39s-52 -63 -66 -110v-289h-98v581h-70v78h69l10 71h89z" />
    <glyph glyph-name="Itilde" unicode="&#x128;" horiz-adv-x="269" 
d="M186 670v-670h-103v670h103zM-23 830c11 21 25 38 42 50c17 11 38 17 63 17c16 0 29 -3 39 -7c10 -6 19 -11 27 -16c8 -6 16 -12 24 -16c8 -6 18 -8 29 -8c25 0 43 8 54 25l48 -50c-23 -41 -56 -61 -99 -61c-17 0 -30 2 -40 8c-11 4 -20 10 -28 16c-9 6 -17 12 -24 16
c-8 6 -18 8 -30 8c-27 0 -47 -10 -61 -30z" />
    <glyph glyph-name="itilde" unicode="&#x129;" horiz-adv-x="246" 
d="M173 510v-510h-100v510h100zM-26 663c11 21 24 38 40 50c15 12 34 18 55 18c16 0 29 -2 39 -7c9 -4 18 -8 26 -14l21 -13c7 -4 15 -6 25 -6c23 0 39 8 50 24l45 -46c-9 -19 -22 -35 -37 -45c-14 -12 -32 -17 -51 -17c-15 0 -28 2 -38 7c-10 4 -19 8 -27 14l-22 14
c-8 4 -16 6 -26 6c-23 0 -41 -9 -54 -27z" />
    <glyph glyph-name="Imacron" unicode="&#x12a;" horiz-adv-x="269" 
d="M186 670v-670h-103v670h103zM288 877v-86h-304v86h304z" />
    <glyph glyph-name="imacron" unicode="&#x12b;" horiz-adv-x="246" 
d="M173 510v-510h-100v510h100zM251 716v-82h-253v82h253z" />
    <glyph glyph-name="Ibreve" unicode="&#x12c;" horiz-adv-x="269" 
d="M186 670v-670h-103v670h103zM56 917c1 -25 9 -44 24 -57s33 -20 55 -20s41 6 55 20c16 12 24 32 25 57h78c-1 -23 -5 -43 -13 -63c-7 -18 -18 -35 -32 -49c-13 -14 -30 -25 -49 -33c-19 -7 -41 -11 -64 -11s-45 4 -64 11c-19 8 -36 19 -49 33s-24 31 -32 49
c-7 20 -11 40 -12 63h78z" />
    <glyph glyph-name="ibreve" unicode="&#x12d;" horiz-adv-x="246" 
d="M173 510v-510h-100v510h100zM52 748c1 -23 8 -40 22 -52c12 -13 29 -19 50 -19s38 6 50 19c14 12 21 29 22 52h79c-1 -23 -6 -44 -14 -62s-19 -33 -32 -46c-13 -12 -29 -21 -47 -28s-37 -10 -58 -10s-41 3 -59 10c-18 6 -34 15 -47 28c-13 12 -24 27 -32 46
c-8 18 -12 39 -12 62h78z" />
    <glyph glyph-name="Iogonek" unicode="&#x12e;" horiz-adv-x="269" 
d="M186 670v-670h-15c-12 0 -22 -5 -30 -15s-12 -23 -12 -38c0 -21 6 -38 17 -50c12 -12 31 -20 57 -23l-13 -72c-48 3 -84 17 -108 40s-36 52 -36 85c0 39 12 70 37 92v651h103z" />
    <glyph glyph-name="iogonek" unicode="&#x12f;" horiz-adv-x="245" 
d="M172 510v-510h-8c-13 0 -24 -6 -32 -17c-9 -11 -13 -26 -13 -44c0 -19 6 -35 17 -47s30 -20 55 -24l-13 -71c-23 1 -44 5 -61 12s-32 17 -43 29c-12 11 -21 24 -27 39s-9 30 -9 46c0 36 12 65 35 87v500h99zM123 744c18 0 34 -6 47 -18c14 -12 21 -28 21 -49
c0 -20 -7 -36 -21 -48c-13 -12 -29 -18 -47 -18c-19 0 -35 6 -48 18s-20 28 -20 48c0 21 7 37 20 49s29 18 48 18z" />
    <glyph glyph-name="Idotaccent" unicode="&#x130;" horiz-adv-x="269" 
d="M186 670v-670h-103v670h103zM135 910c19 0 35 -6 49 -19c13 -13 20 -29 20 -49s-7 -36 -20 -49c-14 -13 -30 -19 -49 -19s-35 6 -48 19s-20 29 -20 49s7 36 20 49s29 19 48 19z" />
    <glyph glyph-name="dotlessi" unicode="&#x131;" horiz-adv-x="246" 
d="M173 510v-510h-100v510h100z" />
    <glyph glyph-name="Jcircumflex" unicode="&#x134;" horiz-adv-x="540" 
d="M457 670v-427c0 -82 -19 -145 -57 -190c-39 -45 -96 -67 -172 -67c-36 0 -69 4 -100 12c-30 9 -60 24 -90 47l46 78c25 -17 48 -29 72 -37c22 -6 47 -10 72 -10c36 0 66 12 90 37c25 25 37 64 37 118v439h102zM416 935l136 -129v-10l-48 -50l-100 87l-99 -87l-49 50v10
l137 129h23z" />
    <glyph glyph-name="jcircumflex" unicode="&#x135;" horiz-adv-x="251" 
d="M178 510v-546c0 -30 -4 -57 -12 -82c-7 -25 -19 -46 -34 -64c-16 -18 -36 -32 -58 -42c-24 -10 -50 -15 -81 -15c-27 0 -51 3 -73 8c-23 5 -45 14 -66 26l33 77c17 -9 34 -16 49 -19s33 -5 52 -5c28 0 50 9 68 28c16 19 25 48 25 88v546h97zM129 677l-94 -84l-47 49v10
l133 127h21l133 -127v-10l-46 -49z" />
    <glyph glyph-name="Kcommaaccent" unicode="&#x136;" horiz-adv-x="703" 
d="M183 670v-275l104 8l218 267h126l-261 -310l286 -360h-130l-237 312h-106v-312h-100v670h100zM317 -179c-12 4 -22 11 -29 21c-8 11 -12 23 -12 38c0 19 6 35 19 48c13 12 28 18 47 18c18 0 34 -6 47 -18c13 -11 20 -27 20 -46c0 -6 -1 -12 -2 -16c-1 -6 -3 -10 -4 -14
l-56 -138l-58 20z" />
    <glyph glyph-name="kcommaaccent" unicode="&#x137;" horiz-adv-x="597" 
d="M171 713v-405l95 11l155 191h124l-195 -229l222 -281h-123l-173 228h-105v-228h-98v713h98zM278 -197c-11 3 -21 10 -28 21s-11 23 -11 38c0 19 6 35 19 46s28 17 45 17c18 0 33 -6 47 -17c12 -11 19 -27 19 -46c0 -11 -2 -21 -6 -30l-54 -132l-56 20z" />
    <glyph glyph-name="kgreenlandic" unicode="&#x138;" horiz-adv-x="595" 
d="M170 510v-201l94 9l158 192h121l-196 -230l220 -280h-118l-178 229h-101v-229h-97v510h97z" />
    <glyph glyph-name="Lacute" unicode="&#x139;" horiz-adv-x="619" 
d="M185 670v-580h386v-90h-488v670h102zM281 931l-84 -159h-90l88 202z" />
    <glyph glyph-name="lacute" unicode="&#x13a;" horiz-adv-x="243" 
d="M170 713v-713h-97v713h97zM251 934l-82 -139h-85l85 187z" />
    <glyph glyph-name="Lcommaaccent" unicode="&#x13b;" horiz-adv-x="619" 
d="M185 670v-580h386v-90h-488v670h102zM311 -199c-12 4 -22 11 -29 21c-8 11 -12 23 -12 38c0 19 6 35 19 48c13 12 28 18 47 18c18 0 34 -6 47 -18c13 -11 20 -27 20 -46c0 -6 -1 -12 -2 -16c-1 -6 -3 -10 -4 -14l-56 -138l-58 20z" />
    <glyph glyph-name="lcommaaccent" unicode="&#x13c;" horiz-adv-x="243" 
d="M170 713v-713h-97v713h97zM95 -197c-11 3 -21 10 -28 21s-11 23 -11 38c0 19 6 35 19 46s28 17 45 17c18 0 34 -6 46 -17c14 -11 20 -27 20 -46c0 -11 -2 -21 -6 -30l-54 -132l-56 20z" />
    <glyph glyph-name="Lcaron" unicode="&#x13d;" horiz-adv-x="619" 
d="M185 670v-580h386v-90h-488v670h102zM461 467c-12 4 -22 11 -29 21c-8 11 -12 23 -12 38c0 19 6 35 19 48c13 12 28 18 47 18c18 0 34 -6 47 -18c13 -11 20 -27 20 -46c0 -6 -1 -12 -2 -16c-1 -6 -3 -10 -4 -14l-56 -138l-58 20z" />
    <glyph glyph-name="lcaron" unicode="&#x13e;" horiz-adv-x="394" 
d="M170 713v-713h-97v713h97zM299 584c-11 3 -21 10 -28 21s-11 23 -11 38c0 19 6 35 19 46s28 17 45 17c18 0 34 -6 46 -17c14 -11 20 -27 20 -46c0 -11 -2 -21 -6 -30l-54 -132l-56 20z" />
    <glyph glyph-name="Ldot" unicode="&#x13f;" horiz-adv-x="619" 
d="M185 670v-580h386v-90h-488v670h102zM457 477c19 0 35 -6 49 -19c13 -13 20 -29 20 -49s-7 -36 -20 -49c-14 -13 -30 -19 -49 -19s-35 6 -48 19s-20 29 -20 49s7 36 20 49s29 19 48 19z" />
    <glyph glyph-name="ldot" unicode="&#x140;" horiz-adv-x="407" 
d="M170 713v-713h-97v713h97zM317 383c19 0 35 -6 48 -18s20 -28 20 -49c0 -20 -7 -36 -20 -48s-29 -18 -48 -18c-18 0 -34 6 -47 18s-20 28 -20 48c0 21 7 37 20 49s29 18 47 18z" />
    <glyph glyph-name="Lslash" unicode="&#x141;" horiz-adv-x="619" 
d="M185 670v-285l149 63l35 -86l-184 -78v-194h386v-90h-488v242l-53 -12l-26 80l79 32v328h102z" />
    <glyph glyph-name="lslash" unicode="&#x142;" horiz-adv-x="290" 
d="M193 713v-304l68 33l37 -75l-105 -56v-311h-97v259l-68 -33l-36 76l104 55v356h97z" />
    <glyph glyph-name="Nacute" unicode="&#x143;" horiz-adv-x="752" 
d="M669 670v-670h-100l-388 508v-508h-98v670h91l398 -521v521h97zM498 931l-84 -159h-90l88 202z" />
    <glyph glyph-name="nacute" unicode="&#x144;" 
d="M150 510l10 -106c17 37 42 66 76 87c32 21 72 31 118 31c65 0 117 -19 156 -56c39 -38 58 -93 58 -165v-301h-97v290c0 50 -11 87 -33 112c-23 24 -55 36 -96 36s-77 -14 -106 -40c-30 -28 -52 -65 -66 -112v-286h-97v510h77zM477 760l-82 -139h-85l85 187z" />
    <glyph glyph-name="Ncommaaccent" unicode="&#x145;" horiz-adv-x="752" 
d="M669 670v-670h-100l-388 508v-508h-98v670h91l398 -521v521h97zM350 -179c-12 4 -22 11 -30 21c-7 11 -11 23 -11 38c0 19 6 35 19 48c13 12 28 18 47 18c18 0 34 -6 47 -18c13 -11 20 -27 20 -46c0 -6 -1 -12 -2 -16c-1 -6 -3 -10 -4 -14l-56 -138l-58 20z" />
    <glyph glyph-name="ncommaaccent" unicode="&#x146;" 
d="M150 510l10 -106c17 37 42 66 76 87c32 21 72 31 118 31c65 0 117 -19 156 -56c39 -38 58 -93 58 -165v-301h-97v290c0 50 -11 87 -33 112c-23 24 -55 36 -96 36s-77 -14 -106 -40c-30 -28 -52 -65 -66 -112v-286h-97v510h77zM294 -187c-11 3 -21 10 -28 21
s-11 23 -11 38c0 19 6 35 19 46s28 17 45 17c18 0 33 -6 47 -17c12 -11 19 -27 19 -46c0 -11 -2 -21 -6 -30l-54 -132l-56 20z" />
    <glyph glyph-name="Ncaron" unicode="&#x147;" horiz-adv-x="752" 
d="M669 670v-670h-100l-388 508v-508h-98v670h91l398 -521v521h97zM362 747l-136 129v10l49 50l100 -87l99 87l48 -50v-10l-136 -129h-24z" />
    <glyph glyph-name="ncaron" unicode="&#x148;" 
d="M150 510l10 -106c17 37 42 66 76 87c32 21 72 31 118 31c65 0 117 -19 156 -56c39 -38 58 -93 58 -165v-301h-97v290c0 50 -11 87 -33 112c-23 24 -55 36 -96 36s-77 -14 -106 -40c-30 -28 -52 -65 -66 -112v-286h-97v510h77zM339 704l96 84l46 -49v-10l-132 -127h-21
l-134 127v10l46 49z" />
    <glyph glyph-name="napostrophe" unicode="&#x149;" horiz-adv-x="757" 
d="M266 510l10 -106c17 37 42 66 76 87c32 21 72 31 118 31c65 0 117 -19 156 -56c39 -38 58 -93 58 -165v-301h-97v290c0 50 -11 87 -33 112c-23 24 -55 36 -96 36s-77 -14 -106 -40c-30 -28 -52 -65 -66 -112v-286h-97v510h77zM47 583c-11 3 -21 10 -28 21s-11 23 -11 38
c0 19 6 35 19 46s28 17 45 17c18 0 34 -6 46 -17c14 -11 20 -27 20 -46c0 -11 -2 -21 -6 -30l-54 -132l-56 20z" />
    <glyph glyph-name="Omacron" unicode="&#x14c;" horiz-adv-x="811" 
d="M405 684c53 0 101 -9 144 -26c43 -18 80 -43 111 -74s54 -68 72 -111c16 -43 25 -89 25 -138c0 -48 -9 -93 -25 -135c-18 -43 -42 -80 -72 -112c-32 -31 -68 -56 -112 -74c-42 -19 -90 -28 -143 -28s-101 9 -143 27c-44 18 -80 43 -112 75c-30 31 -54 68 -72 110
c-16 43 -25 88 -25 137s9 94 26 137c17 42 41 79 73 110c30 31 68 56 110 74c44 19 91 28 143 28zM405 595c-39 0 -75 -7 -105 -20c-32 -13 -58 -32 -79 -55s-38 -51 -49 -82c-11 -32 -17 -66 -17 -103s6 -71 17 -103c12 -31 29 -59 50 -82s48 -42 78 -55
c32 -13 66 -20 105 -20s75 7 105 19c32 14 58 32 80 55c21 23 38 51 49 83c11 31 17 66 17 103c0 38 -6 73 -18 105c-11 31 -28 58 -49 82c-21 22 -48 40 -79 54c-31 12 -66 19 -105 19zM598 877v-84h-385v84h385z" />
    <glyph glyph-name="omacron" unicode="&#x14d;" horiz-adv-x="650" 
d="M325 522c41 0 78 -6 112 -20c34 -12 63 -31 88 -54c25 -24 44 -52 57 -85s20 -69 20 -108c0 -38 -7 -73 -21 -106s-33 -61 -57 -85c-25 -24 -54 -43 -88 -56s-71 -20 -111 -20c-41 0 -79 6 -113 20c-34 12 -63 31 -88 54c-24 24 -43 52 -56 85s-20 69 -20 108
c0 38 7 73 20 106c14 33 33 61 58 85c24 24 53 43 87 56s71 20 112 20zM325 439c-27 0 -52 -5 -75 -13c-22 -10 -41 -22 -56 -38c-16 -17 -28 -36 -36 -59c-9 -23 -13 -47 -13 -74s4 -52 13 -75s21 -42 36 -58c16 -16 35 -28 57 -38c22 -8 47 -13 74 -13c28 0 53 5 75 13
c22 10 41 22 56 38c16 16 28 35 36 58c9 23 13 48 13 75s-4 51 -13 73c-9 23 -21 42 -36 58c-16 17 -35 30 -57 39s-47 14 -74 14zM488 716v-82h-327v82h327z" />
    <glyph glyph-name="Obreve" unicode="&#x14e;" horiz-adv-x="811" 
d="M405 684c53 0 101 -9 144 -26c43 -18 80 -43 111 -74s54 -68 72 -111c16 -43 25 -89 25 -138c0 -48 -9 -93 -25 -135c-18 -43 -42 -80 -72 -112c-32 -31 -68 -56 -112 -74c-42 -19 -90 -28 -143 -28s-101 9 -143 27c-44 18 -80 43 -112 75c-30 31 -54 68 -72 110
c-16 43 -25 88 -25 137s9 94 26 137c17 42 41 79 73 110c30 31 68 56 110 74c44 19 91 28 143 28zM405 595c-39 0 -75 -7 -105 -20c-32 -13 -58 -32 -79 -55s-38 -51 -49 -82c-11 -32 -17 -66 -17 -103s6 -71 17 -103c12 -31 29 -59 50 -82s48 -42 78 -55
c32 -13 66 -20 105 -20s75 7 105 19c32 14 58 32 80 55c21 23 38 51 49 83c11 31 17 66 17 103c0 38 -6 73 -18 105c-11 31 -28 58 -49 82c-21 22 -48 40 -79 54c-31 12 -66 19 -105 19zM325 917c1 -25 9 -44 24 -57s33 -20 55 -20s40 6 56 20c14 12 23 32 24 57h78
c-1 -23 -5 -43 -12 -63c-8 -18 -19 -35 -32 -49c-14 -14 -31 -25 -50 -33c-19 -7 -41 -11 -64 -11s-45 4 -64 11c-19 8 -36 19 -49 33s-24 31 -31 49c-8 20 -12 40 -13 63h78z" />
    <glyph glyph-name="obreve" unicode="&#x14f;" horiz-adv-x="650" 
d="M325 522c41 0 78 -6 112 -20c34 -12 63 -31 88 -54c25 -24 44 -52 57 -85s20 -69 20 -108c0 -38 -7 -73 -21 -106s-33 -61 -57 -85c-25 -24 -54 -43 -88 -56s-71 -20 -111 -20c-41 0 -79 6 -113 20c-34 12 -63 31 -88 54c-24 24 -43 52 -56 85s-20 69 -20 108
c0 38 7 73 20 106c14 33 33 61 58 85c24 24 53 43 87 56s71 20 112 20zM325 439c-27 0 -52 -5 -75 -13c-22 -10 -41 -22 -56 -38c-16 -17 -28 -36 -36 -59c-9 -23 -13 -47 -13 -74s4 -52 13 -75s21 -42 36 -58c16 -16 35 -28 57 -38c22 -8 47 -13 74 -13c28 0 53 5 75 13
c22 10 41 22 56 38c16 16 28 35 36 58c9 23 13 48 13 75s-4 51 -13 73c-9 23 -21 42 -36 58c-16 17 -35 30 -57 39s-47 14 -74 14zM252 748c1 -23 9 -40 21 -52c14 -13 30 -19 51 -19s37 6 51 19c12 12 20 29 21 52h79c-1 -23 -6 -44 -14 -62s-19 -33 -32 -46
c-13 -12 -29 -21 -47 -28s-37 -10 -58 -10s-41 3 -59 10c-18 6 -34 15 -47 28c-13 12 -24 27 -32 46c-8 18 -12 39 -12 62h78z" />
    <glyph glyph-name="Ohungarumlaut" unicode="&#x150;" horiz-adv-x="811" 
d="M405 684c53 0 101 -9 144 -26c43 -18 80 -43 111 -74s54 -68 72 -111c16 -43 25 -89 25 -138c0 -48 -9 -93 -25 -135c-18 -43 -42 -80 -72 -112c-32 -31 -68 -56 -112 -74c-42 -19 -90 -28 -143 -28s-101 9 -143 27c-44 18 -80 43 -112 75c-30 31 -54 68 -72 110
c-16 43 -25 88 -25 137s9 94 26 137c17 42 41 79 73 110c30 31 68 56 110 74c44 19 91 28 143 28zM405 595c-39 0 -75 -7 -105 -20c-32 -13 -58 -32 -79 -55s-38 -51 -49 -82c-11 -32 -17 -66 -17 -103s6 -71 17 -103c12 -31 29 -59 50 -82s48 -42 78 -55
c32 -13 66 -20 105 -20s75 7 105 19c32 14 58 32 80 55c21 23 38 51 49 83c11 31 17 66 17 103c0 38 -6 73 -18 105c-11 31 -28 58 -49 82c-21 22 -48 40 -79 54c-31 12 -66 19 -105 19zM451 943l-66 -171h-84l65 204zM613 911l-84 -139h-84l86 182z" />
    <glyph glyph-name="ohungarumlaut" unicode="&#x151;" horiz-adv-x="650" 
d="M325 522c41 0 78 -6 112 -20c34 -12 63 -31 88 -54c25 -24 44 -52 57 -85s20 -69 20 -108c0 -38 -7 -73 -21 -106s-33 -61 -57 -85c-25 -24 -54 -43 -88 -56s-71 -20 -111 -20c-41 0 -79 6 -113 20c-34 12 -63 31 -88 54c-24 24 -43 52 -56 85s-20 69 -20 108
c0 38 7 73 20 106c14 33 33 61 58 85c24 24 53 43 87 56s71 20 112 20zM325 439c-27 0 -52 -5 -75 -13c-22 -10 -41 -22 -56 -38c-16 -17 -28 -36 -36 -59c-9 -23 -13 -47 -13 -74s4 -52 13 -75s21 -42 36 -58c16 -16 35 -28 57 -38c22 -8 47 -13 74 -13c28 0 53 5 75 13
c22 10 41 22 56 38c16 16 28 35 36 58c9 23 13 48 13 75s-4 51 -13 73c-9 23 -21 42 -36 58c-16 17 -35 30 -57 39s-47 14 -74 14zM369 775l-74 -154h-79l71 193zM522 745l-80 -124h-82l82 168z" />
    <glyph glyph-name="OE" unicode="&#x152;" horiz-adv-x="1108" 
d="M1056 670v-89h-374v-189h327v-88h-327v-214h391v-90h-489v46c-26 -21 -55 -36 -86 -46c-32 -9 -67 -14 -104 -14c-51 0 -98 9 -140 27s-78 43 -108 75c-29 31 -52 68 -68 110c-17 43 -25 88 -25 137s8 94 25 137c16 42 39 79 68 110c30 31 66 56 108 74
c42 19 89 28 140 28c39 0 74 -5 105 -16c31 -10 60 -25 85 -44v46h472zM584 515c-40 53 -103 80 -190 80c-39 0 -73 -7 -102 -20c-30 -13 -55 -32 -76 -55c-20 -23 -35 -51 -46 -82c-10 -32 -15 -66 -15 -103s5 -71 16 -103c11 -31 26 -59 47 -82c20 -23 45 -42 74 -55
c30 -13 64 -20 102 -20c43 0 81 7 113 21c32 13 58 33 77 58v361z" />
    <glyph glyph-name="oe" unicode="&#x153;" horiz-adv-x="1015" 
d="M564 222c5 -48 23 -85 52 -110c30 -26 70 -39 120 -39c34 0 64 4 92 13c26 9 54 23 83 42l43 -69c-35 -26 -69 -44 -103 -55s-72 -16 -114 -16c-52 0 -95 8 -131 25c-34 17 -63 40 -85 71c-23 -30 -52 -54 -87 -70c-35 -18 -74 -26 -117 -26c-41 0 -79 6 -111 20
c-34 12 -62 31 -85 54c-23 24 -41 52 -54 85s-19 69 -19 108c0 38 6 73 19 106s31 61 55 85c23 24 52 43 84 56c34 13 70 20 111 20c46 0 87 -9 124 -28c37 -18 66 -43 87 -75c19 32 46 57 82 75c34 19 76 28 123 28c35 0 67 -6 97 -18c28 -11 53 -28 74 -48
c20 -22 36 -46 46 -76c12 -28 17 -61 17 -96c0 -11 -1 -21 -2 -32s-3 -21 -5 -30h-396zM317 439c-27 0 -52 -5 -73 -13c-21 -10 -39 -22 -54 -38c-15 -17 -26 -36 -34 -59c-7 -23 -11 -47 -11 -74c0 -55 15 -99 45 -133c29 -34 72 -51 127 -51c54 0 96 17 125 51
s44 78 44 133c0 27 -4 51 -11 73c-7 23 -18 42 -33 58c-14 17 -32 30 -52 39c-22 9 -46 14 -73 14zM869 302c-1 41 -13 74 -35 100c-23 24 -58 37 -105 37c-48 0 -85 -12 -111 -37s-43 -58 -50 -100h301z" />
    <glyph glyph-name="Racute" unicode="&#x154;" horiz-adv-x="686" 
d="M372 670c37 0 70 -5 101 -16s57 -26 79 -46c22 -19 39 -43 51 -70s18 -57 18 -90c0 -49 -14 -90 -42 -125s-65 -60 -111 -75l175 -248h-124l-150 224h-183v-224h-103v670h289zM186 312h175c48 0 86 12 115 36c28 24 42 57 42 100c0 45 -14 78 -42 100
c-28 23 -65 34 -111 34h-179v-270zM463 931l-84 -159h-90l88 202z" />
    <glyph glyph-name="racute" unicode="&#x155;" horiz-adv-x="541" 
d="M151 510l9 -106c17 39 43 68 76 88s73 30 119 30c32 0 61 -5 88 -14c27 -10 50 -23 69 -40l-54 -75c-15 13 -33 23 -53 31c-20 6 -43 10 -68 10c-40 0 -74 -13 -103 -40c-29 -26 -50 -61 -64 -106v-288h-97v510h78zM464 760l-82 -139h-85l85 187z" />
    <glyph glyph-name="Rcommaaccent" unicode="&#x156;" horiz-adv-x="686" 
d="M372 670c37 0 70 -5 101 -16s57 -26 79 -46c22 -19 39 -43 51 -70s18 -57 18 -90c0 -49 -14 -90 -42 -125s-65 -60 -111 -75l175 -248h-124l-150 224h-183v-224h-103v670h289zM186 312h175c48 0 86 12 115 36c28 24 42 57 42 100c0 45 -14 78 -42 100
c-28 23 -65 34 -111 34h-179v-270zM321 -179c-12 4 -22 11 -29 21c-8 11 -12 23 -12 38c0 19 6 35 19 48c13 12 28 18 47 18c18 0 34 -6 47 -18c13 -11 20 -27 20 -46c0 -6 -1 -12 -2 -16c-1 -6 -3 -10 -4 -14l-56 -138l-58 20z" />
    <glyph glyph-name="rcommaaccent" unicode="&#x157;" horiz-adv-x="541" 
d="M151 510l9 -106c17 39 43 68 76 88s73 30 119 30c32 0 61 -5 88 -14c27 -10 50 -23 69 -40l-54 -75c-15 13 -33 23 -53 31c-20 6 -43 10 -68 10c-40 0 -74 -13 -103 -40c-29 -26 -50 -61 -64 -106v-288h-97v510h78zM96 -197c-11 3 -21 10 -28 21s-11 23 -11 38
c0 19 6 35 19 46s28 17 45 17c18 0 33 -6 47 -17c12 -11 19 -27 19 -46c0 -11 -2 -21 -6 -30l-54 -132l-56 20z" />
    <glyph glyph-name="Rcaron" unicode="&#x158;" horiz-adv-x="686" 
d="M372 670c37 0 70 -5 101 -16s57 -26 79 -46c22 -19 39 -43 51 -70s18 -57 18 -90c0 -49 -14 -90 -42 -125s-65 -60 -111 -75l175 -248h-124l-150 224h-183v-224h-103v670h289zM186 312h175c48 0 86 12 115 36c28 24 42 57 42 100c0 45 -14 78 -42 100
c-28 23 -65 34 -111 34h-179v-270zM323 747l-136 129v10l49 50l100 -87l99 87l48 -50v-10l-136 -129h-24z" />
    <glyph glyph-name="rcaron" unicode="&#x159;" horiz-adv-x="541" 
d="M151 510l9 -106c17 39 43 68 76 88s73 30 119 30c32 0 61 -5 88 -14c27 -10 50 -23 69 -40l-54 -75c-15 13 -33 23 -53 31c-20 6 -43 10 -68 10c-40 0 -74 -13 -103 -40c-29 -26 -50 -61 -64 -106v-288h-97v510h78zM327 704l96 84l46 -49v-10l-132 -127h-21l-134 127v10
l46 49z" />
    <glyph glyph-name="Sacute" unicode="&#x15a;" horiz-adv-x="653" 
d="M525 532c-27 20 -58 36 -92 46c-34 12 -69 17 -106 17c-54 0 -93 -9 -117 -27s-36 -42 -36 -72s9 -52 28 -68c18 -14 47 -25 88 -30l100 -14c68 -10 120 -31 156 -63c35 -32 53 -75 53 -130c0 -30 -6 -57 -18 -83c-12 -24 -30 -46 -53 -64c-24 -18 -54 -32 -89 -42
c-35 -11 -76 -16 -123 -16c-52 0 -99 6 -142 18c-43 11 -83 31 -122 60l48 81c37 -25 73 -43 110 -54c36 -11 74 -16 114 -16c58 0 102 10 130 31c30 21 44 48 44 82c0 28 -10 51 -29 68c-19 18 -51 30 -96 36l-105 15c-63 9 -112 28 -144 58c-34 30 -50 72 -50 127
c0 31 6 59 18 83c13 24 30 44 52 60s48 28 80 37c30 8 65 12 102 12c46 0 91 -6 136 -19c44 -13 82 -32 115 -59zM463 931l-84 -159h-90l88 202z" />
    <glyph glyph-name="sacute" unicode="&#x15b;" horiz-adv-x="569" 
d="M453 393c-52 30 -108 45 -169 45c-40 0 -70 -6 -92 -18c-20 -13 -31 -30 -31 -51c0 -17 5 -31 17 -41c10 -9 29 -16 56 -19l104 -12c55 -7 99 -23 130 -45c32 -24 48 -58 48 -105c0 -50 -21 -89 -64 -117c-42 -28 -101 -42 -178 -42c-44 0 -84 4 -120 14
c-35 8 -71 25 -106 48l42 75c30 -19 60 -33 91 -42s63 -13 97 -13c48 0 84 6 108 19c23 13 35 31 35 54c0 20 -6 35 -19 47c-13 10 -36 18 -69 21l-120 14c-48 5 -85 20 -110 45c-25 24 -38 57 -38 99c0 45 19 82 56 111c37 28 92 42 165 42c39 0 76 -4 111 -13
s68 -22 97 -41zM423 760l-82 -139h-85l85 187z" />
    <glyph glyph-name="Scircumflex" unicode="&#x15c;" horiz-adv-x="653" 
d="M525 532c-27 20 -58 36 -92 46c-34 12 -69 17 -106 17c-54 0 -93 -9 -117 -27s-36 -42 -36 -72s9 -52 28 -68c18 -14 47 -25 88 -30l100 -14c68 -10 120 -31 156 -63c35 -32 53 -75 53 -130c0 -30 -6 -57 -18 -83c-12 -24 -30 -46 -53 -64c-24 -18 -54 -32 -89 -42
c-35 -11 -76 -16 -123 -16c-52 0 -99 6 -142 18c-43 11 -83 31 -122 60l48 81c37 -25 73 -43 110 -54c36 -11 74 -16 114 -16c58 0 102 10 130 31c30 21 44 48 44 82c0 28 -10 51 -29 68c-19 18 -51 30 -96 36l-105 15c-63 9 -112 28 -144 58c-34 30 -50 72 -50 127
c0 31 6 59 18 83c13 24 30 44 52 60s48 28 80 37c30 8 65 12 102 12c46 0 91 -6 136 -19c44 -13 82 -32 115 -59zM342 935l136 -129v-10l-48 -50l-100 87l-99 -87l-49 50v10l137 129h23z" />
    <glyph glyph-name="scircumflex" unicode="&#x15d;" horiz-adv-x="569" 
d="M453 393c-52 30 -108 45 -169 45c-40 0 -70 -6 -92 -18c-20 -13 -31 -30 -31 -51c0 -17 5 -31 17 -41c10 -9 29 -16 56 -19l104 -12c55 -7 99 -23 130 -45c32 -24 48 -58 48 -105c0 -50 -21 -89 -64 -117c-42 -28 -101 -42 -178 -42c-44 0 -84 4 -120 14
c-35 8 -71 25 -106 48l42 75c30 -19 60 -33 91 -42s63 -13 97 -13c48 0 84 6 108 19c23 13 35 31 35 54c0 20 -6 35 -19 47c-13 10 -36 18 -69 21l-120 14c-48 5 -85 20 -110 45c-25 24 -38 57 -38 99c0 45 19 82 56 111c37 28 92 42 165 42c39 0 76 -4 111 -13
s68 -22 97 -41zM291 677l-94 -84l-47 49v10l133 127h21l133 -127v-10l-46 -49z" />
    <glyph glyph-name="Scedilla" unicode="&#x15e;" horiz-adv-x="653" 
d="M525 532c-27 20 -58 36 -92 46c-34 12 -69 17 -106 17c-54 0 -93 -9 -117 -27s-36 -42 -36 -72s9 -52 28 -68c18 -14 47 -25 88 -30l100 -14c68 -10 120 -31 156 -63c35 -32 53 -75 53 -130c0 -28 -5 -54 -16 -77c-11 -24 -26 -45 -47 -62c-21 -18 -47 -33 -78 -44
c-30 -11 -66 -18 -107 -21l-3 -43c21 -7 38 -20 52 -38c12 -17 19 -38 19 -63c0 -39 -13 -73 -41 -101c-26 -28 -67 -48 -121 -61l-26 63c35 9 61 22 78 39s26 35 26 54s-8 32 -23 40s-36 13 -61 14v23l21 39v35c-42 3 -81 10 -116 22c-36 11 -71 29 -104 54l48 81
c37 -25 73 -43 110 -54c36 -11 74 -16 114 -16c58 0 102 10 130 31c30 21 44 48 44 82c0 28 -10 51 -29 68c-19 18 -51 30 -96 36l-105 15c-63 9 -112 28 -144 58c-34 30 -50 72 -50 127c0 31 6 59 18 83c13 24 30 44 52 60s48 28 80 37c30 8 65 12 102 12
c46 0 91 -6 136 -19c44 -13 82 -32 115 -59z" />
    <glyph glyph-name="scedilla" unicode="&#x15f;" horiz-adv-x="569" 
d="M453 393c-52 30 -108 45 -169 45c-40 0 -70 -6 -92 -18c-20 -13 -31 -30 -31 -51c0 -17 5 -31 17 -41c10 -9 29 -16 56 -19l104 -12c55 -7 99 -23 130 -45c32 -24 48 -58 48 -105c0 -46 -18 -83 -55 -111c-37 -27 -89 -43 -156 -47l-4 -45c19 -5 35 -16 47 -32
c12 -17 18 -37 18 -61c0 -36 -12 -68 -37 -95s-64 -48 -119 -63l-21 62c34 11 58 24 72 39c14 14 21 30 21 47c0 18 -6 31 -18 40c-11 9 -30 13 -57 14v19l22 43v33c-34 3 -65 9 -94 18s-58 23 -87 42l42 75c30 -19 60 -33 91 -42s63 -13 97 -13c48 0 84 6 108 19
c23 13 35 31 35 54c0 20 -6 35 -19 47c-13 10 -36 18 -69 21l-120 14c-48 5 -85 20 -110 45c-25 24 -38 57 -38 99c0 45 19 82 56 111c37 28 92 42 165 42c39 0 76 -4 111 -13s68 -22 97 -41z" />
    <glyph glyph-name="Scaron" unicode="&#x160;" horiz-adv-x="653" 
d="M525 532c-27 20 -58 36 -92 46c-34 12 -69 17 -106 17c-54 0 -93 -9 -117 -27s-36 -42 -36 -72s9 -52 28 -68c18 -14 47 -25 88 -30l100 -14c68 -10 120 -31 156 -63c35 -32 53 -75 53 -130c0 -30 -6 -57 -18 -83c-12 -24 -30 -46 -53 -64c-24 -18 -54 -32 -89 -42
c-35 -11 -76 -16 -123 -16c-52 0 -99 6 -142 18c-43 11 -83 31 -122 60l48 81c37 -25 73 -43 110 -54c36 -11 74 -16 114 -16c58 0 102 10 130 31c30 21 44 48 44 82c0 28 -10 51 -29 68c-19 18 -51 30 -96 36l-105 15c-63 9 -112 28 -144 58c-34 30 -50 72 -50 127
c0 31 6 59 18 83c13 24 30 44 52 60s48 28 80 37c30 8 65 12 102 12c46 0 91 -6 136 -19c44 -13 82 -32 115 -59zM317 747l-136 129v10l49 50l100 -87l99 87l48 -50v-10l-136 -129h-24z" />
    <glyph glyph-name="scaron" unicode="&#x161;" horiz-adv-x="569" 
d="M453 393c-52 30 -108 45 -169 45c-40 0 -70 -6 -92 -18c-20 -13 -31 -30 -31 -51c0 -17 5 -31 17 -41c10 -9 29 -16 56 -19l104 -12c55 -7 99 -23 130 -45c32 -24 48 -58 48 -105c0 -50 -21 -89 -64 -117c-42 -28 -101 -42 -178 -42c-44 0 -84 4 -120 14
c-35 8 -71 25 -106 48l42 75c30 -19 60 -33 91 -42s63 -13 97 -13c48 0 84 6 108 19c23 13 35 31 35 54c0 20 -6 35 -19 47c-13 10 -36 18 -69 21l-120 14c-48 5 -85 20 -110 45c-25 24 -38 57 -38 99c0 45 19 82 56 111c37 28 92 42 165 42c39 0 76 -4 111 -13
s68 -22 97 -41zM295 704l96 84l46 -49v-10l-132 -127h-21l-134 127v10l46 49z" />
    <glyph glyph-name="Tcedilla" unicode="&#x162;" horiz-adv-x="689" 
d="M641 670v-90h-246v-582c17 -11 30 -27 39 -48s14 -44 14 -67c0 -39 -14 -74 -44 -105c-28 -31 -70 -52 -124 -64l-25 66c70 21 105 54 105 99c0 42 -28 64 -83 66v23l17 42v570h-246v90h593z" />
    <glyph glyph-name="tcedilla" unicode="&#x163;" horiz-adv-x="462" 
d="M116 510l17 142l88 -4l-5 -138h188v-85h-185v-254c0 -33 7 -57 22 -73c15 -14 37 -22 67 -22c19 0 36 3 52 8c17 5 32 13 45 22l36 -73c-39 -28 -84 -43 -137 -45l-4 -44c19 -5 35 -16 47 -32c12 -17 18 -37 18 -61c0 -36 -12 -68 -37 -95s-64 -48 -119 -63l-21 62
c34 11 58 24 72 39c14 14 21 30 21 47c0 18 -6 31 -17 40c-12 9 -31 13 -58 14v19l22 43v40c-35 11 -62 30 -80 59s-27 68 -27 117v252h-84v79z" />
    <glyph glyph-name="Tcaron" unicode="&#x164;" horiz-adv-x="689" 
d="M641 670v-90h-246v-580h-101v580h-246v90h593zM332 747l-136 129v10l49 50l100 -87l99 87l48 -50v-10l-136 -129h-24z" />
    <glyph glyph-name="tcaron" unicode="&#x165;" horiz-adv-x="598" 
d="M116 510l17 140l88 -4l-5 -136h188v-85h-185v-254c0 -33 7 -57 22 -73c15 -14 37 -22 67 -22c19 0 36 3 52 8c17 5 32 13 45 22l36 -73c-21 -15 -44 -27 -69 -34s-51 -11 -79 -11c-55 0 -97 15 -127 45s-45 77 -45 140v252h-84v79zM501 583c-11 3 -21 10 -28 21
s-11 23 -11 38c0 19 6 35 19 46s28 17 45 17c18 0 34 -6 46 -17c14 -11 20 -27 20 -46c0 -11 -2 -21 -6 -30l-54 -132l-56 20z" />
    <glyph glyph-name="Utilde" unicode="&#x168;" horiz-adv-x="754" 
d="M186 670v-364c0 -74 16 -131 48 -171c33 -40 80 -60 143 -60c61 0 109 19 141 56c34 37 50 95 50 173v366h103v-367c0 -48 -6 -91 -19 -131c-12 -38 -30 -72 -55 -100c-25 -27 -55 -49 -92 -64c-37 -14 -79 -22 -128 -22c-48 0 -90 7 -127 22c-36 15 -66 36 -92 62
c-24 28 -43 60 -56 99s-19 82 -19 131v370h103zM184 817c13 25 31 45 52 59c21 15 46 22 74 22c16 0 30 -3 42 -8s23 -11 33 -17s20 -12 30 -17s21 -8 34 -8c17 0 31 3 42 10c11 6 20 15 27 27l52 -47c-11 -25 -27 -43 -48 -56c-20 -13 -43 -19 -68 -19c-18 0 -33 3 -46 8
s-24 11 -34 17c-11 7 -21 13 -32 18c-10 5 -22 8 -35 8c-18 0 -33 -4 -45 -11c-11 -7 -21 -17 -30 -29z" />
    <glyph glyph-name="utilde" unicode="&#x169;" horiz-adv-x="634" 
d="M170 510v-283c0 -53 11 -92 32 -117s51 -37 90 -37c41 0 76 13 106 39c29 25 51 61 66 108v290h97v-510h-78l-9 103c-17 -37 -42 -66 -74 -85c-33 -20 -71 -30 -116 -30c-66 0 -118 19 -155 57s-56 94 -56 169v296h97zM130 662c14 23 31 42 52 54c20 14 44 20 71 20
c16 0 29 -2 41 -8c10 -4 21 -10 30 -16s19 -12 28 -16c10 -6 22 -8 35 -8c15 0 29 3 41 10c11 6 21 14 29 25l47 -48c-11 -21 -26 -38 -44 -51c-19 -13 -42 -19 -69 -19c-16 0 -30 3 -43 8c-12 5 -23 11 -34 17c-10 6 -20 12 -30 17c-11 5 -22 8 -35 8c-17 0 -32 -3 -43 -9
c-12 -7 -23 -16 -32 -28z" />
    <glyph glyph-name="Umacron" unicode="&#x16a;" horiz-adv-x="754" 
d="M186 670v-364c0 -74 16 -131 48 -171c33 -40 80 -60 143 -60c61 0 109 19 141 56c34 37 50 95 50 173v366h103v-367c0 -48 -6 -91 -19 -131c-12 -38 -30 -72 -55 -100c-25 -27 -55 -49 -92 -64c-37 -14 -79 -22 -128 -22c-48 0 -90 7 -127 22c-36 15 -66 36 -92 62
c-24 28 -43 60 -56 99s-19 82 -19 131v370h103zM569 877v-84h-385v84h385z" />
    <glyph glyph-name="umacron" unicode="&#x16b;" horiz-adv-x="634" 
d="M170 510v-283c0 -53 11 -92 32 -117s51 -37 90 -37c41 0 76 13 106 39c29 25 51 61 66 108v290h97v-510h-78l-9 103c-17 -37 -42 -66 -74 -85c-33 -20 -71 -30 -116 -30c-66 0 -118 19 -155 57s-56 94 -56 169v296h97zM480 716v-82h-327v82h327z" />
    <glyph glyph-name="Ubreve" unicode="&#x16c;" horiz-adv-x="754" 
d="M186 670v-364c0 -74 16 -131 48 -171c33 -40 80 -60 143 -60c61 0 109 19 141 56c34 37 50 95 50 173v366h103v-367c0 -48 -6 -91 -19 -131c-12 -38 -30 -72 -55 -100c-25 -27 -55 -49 -92 -64c-37 -14 -79 -22 -128 -22c-48 0 -90 7 -127 22c-36 15 -66 36 -92 62
c-24 28 -43 60 -56 99s-19 82 -19 131v370h103zM297 917c1 -25 9 -44 24 -57s33 -20 55 -20s40 6 56 20c14 12 23 32 24 57h78c-1 -23 -5 -43 -12 -63c-8 -18 -19 -35 -32 -49c-14 -14 -31 -25 -50 -33c-19 -7 -41 -11 -64 -11s-45 4 -64 11c-19 8 -36 19 -49 33
s-24 31 -31 49c-8 20 -12 40 -13 63h78z" />
    <glyph glyph-name="ubreve" unicode="&#x16d;" horiz-adv-x="634" 
d="M170 510v-283c0 -53 11 -92 32 -117s51 -37 90 -37c41 0 76 13 106 39c29 25 51 61 66 108v290h97v-510h-78l-9 103c-17 -37 -42 -66 -74 -85c-33 -20 -71 -30 -116 -30c-66 0 -118 19 -155 57s-56 94 -56 169v296h97zM244 748c1 -23 9 -40 21 -52c14 -13 30 -19 51 -19
s37 6 51 19c12 12 20 29 21 52h79c-1 -23 -6 -44 -14 -62s-19 -33 -32 -46c-13 -12 -29 -21 -47 -28s-37 -10 -58 -10s-41 3 -59 10c-18 6 -34 15 -47 28c-13 12 -24 27 -32 46c-8 18 -12 39 -12 62h78z" />
    <glyph glyph-name="Uring" unicode="&#x16e;" horiz-adv-x="754" 
d="M186 670v-364c0 -74 16 -131 48 -171c33 -40 80 -60 143 -60c61 0 109 19 141 56c34 37 50 95 50 173v366h103v-367c0 -48 -6 -91 -19 -131c-12 -38 -30 -72 -55 -100c-25 -27 -55 -49 -92 -64c-37 -14 -79 -22 -128 -22c-48 0 -90 7 -127 22c-36 15 -66 36 -92 62
c-24 28 -43 60 -56 99s-19 82 -19 131v370h103zM376 986c19 0 36 -3 52 -10c15 -7 28 -16 40 -27c10 -11 19 -24 25 -39c6 -14 9 -29 9 -45s-3 -31 -9 -46s-15 -27 -25 -39c-12 -10 -25 -19 -40 -26c-16 -7 -33 -10 -52 -10s-37 3 -52 10c-16 7 -30 16 -40 26
c-12 12 -20 24 -26 39c-5 15 -8 30 -8 46s3 31 9 45c6 15 15 28 25 39c12 11 25 20 40 27c16 7 33 10 52 10zM376 918c-17 0 -30 -5 -39 -15s-14 -23 -14 -38s5 -28 15 -38c9 -10 22 -15 38 -15s29 5 39 15s15 23 15 38s-5 28 -15 38s-23 15 -39 15z" />
    <glyph glyph-name="uring" unicode="&#x16f;" horiz-adv-x="634" 
d="M170 510v-283c0 -53 11 -92 32 -117s51 -37 90 -37c41 0 76 13 106 39c29 25 51 61 66 108v290h97v-510h-78l-9 103c-17 -37 -42 -66 -74 -85c-33 -20 -71 -30 -116 -30c-66 0 -118 19 -155 57s-56 94 -56 169v296h97zM316 816c18 0 34 -3 49 -10c15 -6 27 -14 37 -24
c10 -11 18 -23 24 -36c5 -13 8 -27 8 -42s-3 -30 -8 -43c-6 -13 -14 -25 -24 -36s-22 -19 -37 -25s-31 -9 -49 -9c-19 0 -35 3 -50 9s-27 14 -37 25s-18 23 -23 36s-8 28 -8 43s3 29 8 42c6 13 14 25 24 36c10 10 22 18 37 24c15 7 31 10 49 10zM316 755
c-17 0 -30 -5 -39 -15s-13 -22 -13 -36c0 -15 4 -28 14 -38c8 -9 21 -14 38 -14s30 5 39 14c9 10 14 23 14 38s-5 27 -15 36c-9 10 -22 15 -38 15z" />
    <glyph glyph-name="Uhungarumlaut" unicode="&#x170;" horiz-adv-x="754" 
d="M186 670v-364c0 -74 16 -131 48 -171c33 -40 80 -60 143 -60c61 0 109 19 141 56c34 37 50 95 50 173v366h103v-367c0 -48 -6 -91 -19 -131c-12 -38 -30 -72 -55 -100c-25 -27 -55 -49 -92 -64c-37 -14 -79 -22 -128 -22c-48 0 -90 7 -127 22c-36 15 -66 36 -92 62
c-24 28 -43 60 -56 99s-19 82 -19 131v370h103zM410 943l-66 -171h-84l65 204zM572 911l-84 -139h-84l86 182z" />
    <glyph glyph-name="uhungarumlaut" unicode="&#x171;" horiz-adv-x="634" 
d="M170 510v-283c0 -53 11 -92 32 -117s51 -37 90 -37c41 0 76 13 106 39c29 25 51 61 66 108v290h97v-510h-78l-9 103c-17 -37 -42 -66 -74 -85c-33 -20 -71 -30 -116 -30c-66 0 -118 19 -155 57s-56 94 -56 169v296h97zM353 775l-74 -154h-79l71 193zM506 745l-80 -124
h-82l82 168z" />
    <glyph glyph-name="Uogonek" unicode="&#x172;" horiz-adv-x="754" 
d="M186 670v-364c0 -74 16 -131 48 -171c33 -40 80 -60 143 -60c61 0 109 19 141 56c34 37 50 95 50 173v366h103v-367c0 -83 -19 -153 -57 -208s-94 -90 -168 -103c-15 -3 -28 -10 -36 -18c-10 -10 -14 -22 -14 -38c0 -21 6 -37 17 -50c11 -12 30 -20 56 -23l-13 -72
c-48 3 -84 16 -108 39c-25 24 -37 53 -37 87c0 27 7 51 22 72c-81 8 -143 39 -186 94s-64 127 -64 217v370h103z" />
    <glyph glyph-name="uogonek" unicode="&#x173;" horiz-adv-x="634" 
d="M170 510v-283c0 -53 11 -92 32 -117s51 -37 90 -37c41 0 76 13 106 39c29 25 51 61 66 108v290h97v-509c-17 -4 -30 -12 -39 -23s-13 -24 -13 -38c0 -19 6 -35 19 -48s32 -22 57 -25l-13 -70c-23 1 -44 5 -62 13c-17 7 -32 17 -44 28s-21 24 -28 39c-6 15 -9 30 -9 46
c0 21 5 40 14 57c9 16 22 28 39 37l-8 86c-17 -37 -42 -66 -74 -85c-33 -20 -71 -30 -116 -30c-66 0 -118 19 -155 57s-56 94 -56 169v296h97z" />
    <glyph glyph-name="Wcircumflex" unicode="&#x174;" horiz-adv-x="1015" 
d="M148 670l154 -554h10l148 512h94l152 -512h10l151 554h110l-203 -672h-129l-134 456h-10l-128 -456h-130l-205 672h110zM519 935l136 -129v-10l-48 -50l-100 87l-99 -87l-49 50v10l137 129h23z" />
    <glyph glyph-name="wcircumflex" unicode="&#x175;" horiz-adv-x="881" 
d="M147 510l120 -406h9l120 388h92l123 -388h9l121 406h101l-173 -513h-117l-107 352h-10l-105 -352h-116l-176 513h109zM438 677l-94 -84l-47 49v10l133 127h21l133 -127v-10l-46 -49z" />
    <glyph glyph-name="Ycircumflex" unicode="&#x176;" horiz-adv-x="712" 
d="M157 670l196 -351h10l193 351h118l-268 -456v-214h-100v214l-268 456h119zM367 935l136 -129v-10l-48 -50l-100 87l-99 -87l-49 50v10l137 129h23z" />
    <glyph glyph-name="ycircumflex" unicode="&#x177;" horiz-adv-x="638" 
d="M152 510l184 -408h9l147 408h108l-233 -566c-19 -48 -42 -83 -68 -106c-26 -22 -59 -33 -99 -33c-37 0 -69 9 -94 26l27 75c11 -5 21 -9 31 -11s20 -3 29 -3c19 0 36 5 49 15c14 10 26 27 35 50l13 36l-252 517h114zM326 677l-94 -84l-47 49v10l133 127h21l133 -127v-10
l-46 -49z" />
    <glyph glyph-name="Ydieresis" unicode="&#x178;" horiz-adv-x="712" 
d="M157 670l196 -351h10l193 351h118l-268 -456v-214h-100v214l-268 456h119zM227 902c19 0 35 -6 49 -19c13 -13 20 -29 20 -50c0 -19 -7 -34 -20 -47c-14 -12 -30 -18 -49 -18c-18 0 -34 6 -47 18c-13 13 -20 28 -20 47c0 21 7 37 20 50s29 19 47 19zM482 902
c19 0 35 -6 48 -19c14 -13 21 -29 21 -50c0 -19 -7 -34 -21 -47c-13 -12 -29 -18 -48 -18c-18 0 -34 6 -47 18c-13 13 -20 28 -20 47c0 21 7 37 20 50s29 19 47 19z" />
    <glyph glyph-name="Zacute" unicode="&#x179;" horiz-adv-x="663" 
d="M597 670v-76l-404 -504h412v-90h-547v74l410 506h-395v90h524zM449 931l-84 -159h-90l88 202z" />
    <glyph glyph-name="zacute" unicode="&#x17a;" horiz-adv-x="572" 
d="M509 510v-77l-323 -349h326v-84h-454v74l329 353h-311v83h433zM412 760l-82 -139h-85l85 187z" />
    <glyph glyph-name="Zdotaccent" unicode="&#x17b;" horiz-adv-x="663" 
d="M597 670v-76l-404 -504h412v-90h-547v74l410 506h-395v90h524zM331 910c19 0 35 -6 49 -19c13 -13 20 -29 20 -49s-7 -36 -20 -49c-14 -13 -30 -19 -49 -19s-35 6 -48 19s-20 29 -20 49s7 36 20 49s29 19 48 19z" />
    <glyph glyph-name="zdotaccent" unicode="&#x17c;" horiz-adv-x="572" 
d="M509 510v-77l-323 -349h326v-84h-454v74l329 353h-311v83h433zM291 744c19 0 35 -6 48 -18s20 -28 20 -49c0 -20 -7 -36 -20 -48s-29 -18 -48 -18c-18 0 -34 6 -47 18s-20 28 -20 48c0 21 7 37 20 49s29 18 47 18z" />
    <glyph glyph-name="Zcaron" unicode="&#x17d;" horiz-adv-x="663" 
d="M597 670v-76l-404 -504h412v-90h-547v74l410 506h-395v90h524zM319 747l-136 129v10l49 50l100 -87l99 87l48 -50v-10l-136 -129h-24z" />
    <glyph glyph-name="zcaron" unicode="&#x17e;" horiz-adv-x="572" 
d="M509 510v-77l-323 -349h326v-84h-454v74l329 353h-311v83h433zM292 704l96 84l46 -49v-10l-132 -127h-21l-134 127v10l46 49z" />
    <glyph glyph-name="longs" unicode="&#x17f;" horiz-adv-x="270" 
d="M73 557c0 27 4 52 11 76c8 24 20 45 36 63c17 17 38 31 63 42c25 10 55 15 90 15c34 0 64 -5 91 -13c27 -10 52 -23 75 -40l-46 -72c-16 11 -34 20 -55 28c-20 6 -41 10 -62 10c-37 0 -64 -10 -80 -30c-18 -19 -26 -47 -26 -83v-553h-97v557z" />
    <glyph glyph-name="Adblgrave" unicode="&#x200;" horiz-adv-x="762" 
d="M440 671l281 -671h-112l-60 152h-339l-59 -152h-109l279 671h119zM244 240h271l-129 328h-12zM480 772h-84l-66 171l84 33zM335 772h-84l-84 139l83 43z" />
    <glyph glyph-name="adblgrave" unicode="&#x201;" horiz-adv-x="623" 
d="M79 463c34 21 68 37 102 45c34 10 70 14 108 14c79 0 137 -18 174 -54c37 -37 55 -87 55 -151v-187c0 -21 4 -36 11 -46c7 -8 17 -13 29 -13c7 0 14 1 21 4l9 -74c-14 -7 -31 -10 -51 -10c-25 0 -47 6 -63 19c-18 12 -29 34 -34 67c-43 -59 -109 -89 -198 -89
c-61 0 -108 14 -144 44c-34 28 -52 71 -52 126c0 51 20 92 61 121s96 44 167 44c28 0 54 -2 80 -7c24 -5 48 -11 69 -18v28c0 37 -11 64 -32 83s-55 28 -100 28c-61 0 -118 -15 -173 -44zM424 222c-43 15 -91 22 -146 22c-48 0 -82 -8 -102 -24c-21 -17 -31 -38 -31 -64
c0 -28 10 -49 29 -64c20 -14 49 -21 86 -21c23 0 44 3 64 9c19 7 36 16 52 27c14 11 26 25 35 41c9 15 13 33 13 52v22zM418 621h-78l-74 154l81 39zM275 621h-82l-80 124l80 44z" />
    <glyph glyph-name="Edblgrave" unicode="&#x204;" 
d="M565 670v-89h-382v-189h336v-88h-336v-214h400v-90h-500v670h482zM452 772h-84l-66 171l84 33zM307 772h-84l-84 139l83 43z" />
    <glyph glyph-name="edblgrave" unicode="&#x205;" horiz-adv-x="612" 
d="M146 222c5 -47 24 -84 55 -110s73 -39 125 -39c35 0 68 5 96 13c30 10 57 24 84 43l44 -69c-34 -26 -69 -44 -106 -56c-37 -10 -77 -16 -120 -16s-82 6 -116 18c-34 13 -63 30 -86 54c-24 22 -42 50 -55 83s-19 70 -19 111c0 39 7 74 20 107s32 61 56 85s53 43 87 56
s72 20 113 20c36 0 69 -6 98 -17s54 -27 76 -49c20 -20 37 -46 48 -75c12 -29 18 -62 18 -97c0 -11 -1 -21 -2 -32c-1 -10 -3 -20 -5 -30h-411zM466 302c-1 41 -13 74 -37 99s-60 37 -109 37s-87 -12 -116 -36c-29 -25 -47 -58 -54 -100h316zM437 621h-78l-74 154l81 39z
M294 621h-82l-80 124l80 44z" />
    <glyph glyph-name="Idblgrave" unicode="&#x208;" horiz-adv-x="269" 
d="M186 670v-670h-103v670h103zM247 772h-84l-66 171l84 33zM102 772h-84l-84 139l83 43z" />
    <glyph glyph-name="idblgrave" unicode="&#x209;" horiz-adv-x="246" 
d="M173 510v-510h-100v510h100zM244 621h-78l-74 154l81 39zM101 621h-82l-80 124l80 44z" />
    <glyph glyph-name="Odblgrave" unicode="&#x20c;" horiz-adv-x="811" 
d="M405 684c53 0 101 -9 144 -26c43 -18 80 -43 111 -74s54 -68 72 -111c16 -43 25 -89 25 -138c0 -48 -9 -93 -25 -135c-18 -43 -42 -80 -72 -112c-32 -31 -68 -56 -112 -74c-42 -19 -90 -28 -143 -28s-101 9 -143 27c-44 18 -80 43 -112 75c-30 31 -54 68 -72 110
c-16 43 -25 88 -25 137s9 94 26 137c17 42 41 79 73 110c30 31 68 56 110 74c44 19 91 28 143 28zM405 595c-39 0 -75 -7 -105 -20c-32 -13 -58 -32 -79 -55s-38 -51 -49 -82c-11 -32 -17 -66 -17 -103s6 -71 17 -103c12 -31 29 -59 50 -82s48 -42 78 -55
c32 -13 66 -20 105 -20s75 7 105 19c32 14 58 32 80 55c21 23 38 51 49 83c11 31 17 66 17 103c0 38 -6 73 -18 105c-11 31 -28 58 -49 82c-21 22 -48 40 -79 54c-31 12 -66 19 -105 19zM527 772h-84l-66 171l84 33zM382 772h-84l-84 139l83 43z" />
    <glyph glyph-name="odblgrave" unicode="&#x20d;" horiz-adv-x="650" 
d="M325 522c41 0 78 -6 112 -20c34 -12 63 -31 88 -54c25 -24 44 -52 57 -85s20 -69 20 -108c0 -38 -7 -73 -21 -106s-33 -61 -57 -85c-25 -24 -54 -43 -88 -56s-71 -20 -111 -20c-41 0 -79 6 -113 20c-34 12 -63 31 -88 54c-24 24 -43 52 -56 85s-20 69 -20 108
c0 38 7 73 20 106c14 33 33 61 58 85c24 24 53 43 87 56s71 20 112 20zM325 439c-27 0 -52 -5 -75 -13c-22 -10 -41 -22 -56 -38c-16 -17 -28 -36 -36 -59c-9 -23 -13 -47 -13 -74s4 -52 13 -75s21 -42 36 -58c16 -16 35 -28 57 -38c22 -8 47 -13 74 -13c28 0 53 5 75 13
c22 10 41 22 56 38c16 16 28 35 36 58c9 23 13 48 13 75s-4 51 -13 73c-9 23 -21 42 -36 58c-16 17 -35 30 -57 39s-47 14 -74 14zM441 621h-78l-74 154l81 39zM298 621h-82l-80 124l80 44z" />
    <glyph glyph-name="Rdblgrave" unicode="&#x210;" horiz-adv-x="686" 
d="M372 670c37 0 70 -5 101 -16s57 -26 79 -46c22 -19 39 -43 51 -70s18 -57 18 -90c0 -49 -14 -90 -42 -125s-65 -60 -111 -75l175 -248h-124l-150 224h-183v-224h-103v670h289zM186 312h175c48 0 86 12 115 36c28 24 42 57 42 100c0 45 -14 78 -42 100
c-28 23 -65 34 -111 34h-179v-270zM446 772h-84l-66 171l84 33zM301 772h-84l-84 139l83 43z" />
    <glyph glyph-name="rdblgrave" unicode="&#x211;" horiz-adv-x="541" 
d="M151 510l9 -106c17 39 43 68 76 88s73 30 119 30c32 0 61 -5 88 -14c27 -10 50 -23 69 -40l-54 -75c-15 13 -33 23 -53 31c-20 6 -43 10 -68 10c-40 0 -74 -13 -103 -40c-29 -26 -50 -61 -64 -106v-288h-97v510h78zM437 621h-78l-74 154l81 39zM294 621h-82l-80 124
l80 44z" />
    <glyph glyph-name="Udblgrave" unicode="&#x214;" horiz-adv-x="754" 
d="M186 670v-364c0 -74 16 -131 48 -171c33 -40 80 -60 143 -60c61 0 109 19 141 56c34 37 50 95 50 173v366h103v-367c0 -48 -6 -91 -19 -131c-12 -38 -30 -72 -55 -100c-25 -27 -55 -49 -92 -64c-37 -14 -79 -22 -128 -22c-48 0 -90 7 -127 22c-36 15 -66 36 -92 62
c-24 28 -43 60 -56 99s-19 82 -19 131v370h103zM498 772h-84l-66 171l84 33zM353 772h-84l-84 139l83 43z" />
    <glyph glyph-name="udblgrave" unicode="&#x215;" horiz-adv-x="634" 
d="M170 510v-283c0 -53 11 -92 32 -117s51 -37 90 -37c41 0 76 13 106 39c29 25 51 61 66 108v290h97v-510h-78l-9 103c-17 -37 -42 -66 -74 -85c-33 -20 -71 -30 -116 -30c-66 0 -118 19 -155 57s-56 94 -56 169v296h97zM442 621h-78l-74 154l81 39zM299 621h-82l-80 124
l80 44z" />
    <glyph glyph-name="Scommaaccent" unicode="&#x218;" horiz-adv-x="653" 
d="M525 532c-27 20 -58 36 -92 46c-34 12 -69 17 -106 17c-54 0 -93 -9 -117 -27s-36 -42 -36 -72s9 -52 28 -68c18 -14 47 -25 88 -30l100 -14c68 -10 120 -31 156 -63c35 -32 53 -75 53 -130c0 -30 -6 -57 -18 -83c-12 -24 -30 -46 -53 -64c-24 -18 -54 -32 -89 -42
c-35 -11 -76 -16 -123 -16c-52 0 -99 6 -142 18c-43 11 -83 31 -122 60l48 81c37 -25 73 -43 110 -54c36 -11 74 -16 114 -16c58 0 102 10 130 31c30 21 44 48 44 82c0 28 -10 51 -29 68c-19 18 -51 30 -96 36l-105 15c-63 9 -112 28 -144 58c-34 30 -50 72 -50 127
c0 31 6 59 18 83c13 24 30 44 52 60s48 28 80 37c30 8 65 12 102 12c46 0 91 -6 136 -19c44 -13 82 -32 115 -59zM297 -199c-12 4 -22 11 -29 21c-8 11 -12 23 -12 38c0 19 6 35 19 48c13 12 28 18 47 18c18 0 34 -6 47 -18c13 -11 20 -27 20 -46c0 -6 -1 -12 -2 -16
c-1 -6 -3 -10 -4 -14l-56 -138l-58 20z" />
    <glyph glyph-name="scommaaccent" unicode="&#x219;" horiz-adv-x="569" 
d="M453 393c-52 30 -108 45 -169 45c-40 0 -70 -6 -92 -18c-20 -13 -31 -30 -31 -51c0 -17 5 -31 17 -41c10 -9 29 -16 56 -19l104 -12c55 -7 99 -23 130 -45c32 -24 48 -58 48 -105c0 -50 -21 -89 -64 -117c-42 -28 -101 -42 -178 -42c-44 0 -84 4 -120 14
c-35 8 -71 25 -106 48l42 75c30 -19 60 -33 91 -42s63 -13 97 -13c48 0 84 6 108 19c23 13 35 31 35 54c0 20 -6 35 -19 47c-13 10 -36 18 -69 21l-120 14c-48 5 -85 20 -110 45c-25 24 -38 57 -38 99c0 45 19 82 56 111c37 28 92 42 165 42c39 0 76 -4 111 -13
s68 -22 97 -41zM245 -197c-11 3 -21 10 -28 21s-11 23 -11 38c0 19 6 35 19 46s28 17 45 17c18 0 34 -6 46 -17c14 -11 20 -27 20 -46c0 -11 -2 -21 -6 -30l-54 -132l-56 20z" />
    <glyph glyph-name="dotlessj" unicode="&#x237;" horiz-adv-x="251" 
d="M178 510v-546c0 -30 -4 -57 -12 -82c-7 -25 -19 -46 -34 -64c-16 -18 -36 -32 -58 -42c-24 -10 -50 -15 -81 -15c-27 0 -51 3 -73 8c-23 5 -45 14 -66 26l33 77c17 -9 34 -16 49 -19s33 -5 52 -5c28 0 50 9 68 28c16 19 25 48 25 88v546h97z" />
    <glyph glyph-name="circumflex" unicode="&#x2c6;" horiz-adv-x="323" 
d="M159 677l-94 -84l-47 49v10l133 127h21l133 -127v-10l-46 -49z" />
    <glyph glyph-name="caron" unicode="&#x2c7;" horiz-adv-x="323" 
d="M163 704l96 84l46 -49v-10l-132 -127h-21l-134 127v10l46 49z" />
    <glyph glyph-name="breve" unicode="&#x2d8;" horiz-adv-x="407" 
d="M131 748c1 -23 9 -40 21 -52c14 -13 30 -19 51 -19s37 6 51 19c12 12 20 29 21 52h79c-1 -23 -6 -44 -14 -62s-19 -33 -32 -46c-13 -12 -29 -21 -47 -28s-37 -10 -58 -10s-41 3 -59 10c-18 6 -34 15 -47 28c-13 12 -24 27 -32 46c-8 18 -12 39 -12 62h78z" />
    <glyph glyph-name="dotaccent" unicode="&#x2d9;" horiz-adv-x="227" 
d="M113 744c19 0 35 -6 48 -18s20 -28 20 -49c0 -20 -7 -36 -20 -48s-29 -18 -48 -18c-18 0 -34 6 -47 18s-20 28 -20 48c0 21 7 37 20 49s29 18 47 18z" />
    <glyph glyph-name="ring" unicode="&#x2da;" horiz-adv-x="292" 
d="M146 816c18 0 34 -3 49 -10c15 -6 27 -14 37 -24c10 -11 18 -23 24 -36c5 -13 8 -27 8 -42s-3 -30 -8 -43c-6 -13 -14 -25 -24 -36s-22 -19 -37 -25s-31 -9 -49 -9c-19 0 -35 3 -50 9s-27 14 -37 25s-18 23 -23 36s-8 28 -8 43s3 29 8 42c6 13 14 25 24 36
c10 10 22 18 37 24c15 7 31 10 49 10zM146 755c-17 0 -30 -5 -39 -15s-13 -22 -13 -36c0 -15 4 -28 14 -38c8 -9 21 -14 38 -14s30 5 39 14c9 10 14 23 14 38s-5 27 -15 36c-9 10 -22 15 -38 15z" />
    <glyph glyph-name="ogonek" unicode="&#x2db;" horiz-adv-x="252" 
d="M192 -200c-23 1 -44 5 -62 12c-17 7 -32 16 -44 28c-12 10 -21 23 -28 38c-6 14 -9 29 -9 45c0 21 6 41 17 59s27 31 46 38l59 -19c-15 -7 -25 -17 -31 -27c-7 -12 -10 -23 -10 -36c0 -19 6 -34 18 -47c13 -13 32 -21 57 -24z" />
    <glyph glyph-name="tilde" unicode="&#x2dc;" horiz-adv-x="442" 
d="M34 662c14 23 31 42 52 54c20 14 44 20 71 20c16 0 29 -2 41 -8c10 -4 21 -10 30 -16s19 -12 28 -16c10 -6 22 -8 35 -8c15 0 29 3 41 10c11 6 21 14 29 25l47 -48c-11 -21 -26 -38 -44 -51c-19 -13 -42 -19 -69 -19c-16 0 -30 3 -43 8c-12 5 -23 11 -34 17
c-10 6 -20 12 -30 17c-11 5 -22 8 -35 8c-17 0 -32 -3 -43 -9c-12 -7 -23 -16 -32 -28z" />
    <glyph glyph-name="hungarumlaut" unicode="&#x2dd;" horiz-adv-x="314" 
d="M198 775l-74 -154h-79l71 193zM351 745l-80 -124h-82l82 168z" />
    <glyph glyph-name="mu" unicode="&#x3bc;" horiz-adv-x="634" 
d="M170 510v-286c0 -51 10 -88 31 -114c21 -24 51 -37 90 -37c41 0 77 13 107 39c29 25 51 61 66 108v290h97v-510h-78l-9 103c-17 -38 -41 -67 -72 -86c-30 -19 -65 -29 -106 -29c-56 0 -98 16 -126 48v-233h-97v707h97z" />
    <glyph glyph-name="afii10023" unicode="&#x401;" 
d="M565 670v-89h-382v-189h336v-88h-336v-214h400v-90h-500v670h482zM205 902c19 0 35 -6 49 -19c13 -13 20 -29 20 -50c0 -19 -7 -34 -20 -47c-14 -12 -30 -18 -49 -18c-18 0 -34 6 -47 18c-13 13 -20 28 -20 47c0 21 7 37 20 50s29 19 47 19zM460 902c19 0 35 -6 48 -19
c14 -13 21 -29 21 -50c0 -19 -7 -34 -21 -47c-13 -12 -29 -18 -48 -18c-18 0 -34 6 -47 18c-13 13 -20 28 -20 47c0 21 7 37 20 50s29 19 47 19z" />
    <glyph glyph-name="afii10051" unicode="&#x402;" horiz-adv-x="869" 
d="M641 670v-90h-247v-198c23 28 50 50 81 64c31 16 69 23 113 23c33 0 62 -5 90 -15c26 -11 50 -26 68 -45c20 -19 34 -43 44 -71c11 -27 16 -58 16 -92v-198c0 -36 -5 -68 -16 -94c-11 -28 -25 -50 -44 -68s-40 -32 -65 -40c-25 -10 -51 -14 -80 -14c-25 0 -48 3 -69 8
s-43 14 -64 27l34 76c16 -9 32 -15 48 -19c15 -3 31 -5 48 -5c35 0 62 11 82 32c18 21 28 53 28 96v192c0 48 -12 84 -36 108c-23 24 -57 36 -101 36c-39 0 -74 -10 -105 -31c-31 -20 -55 -49 -72 -87v-265h-102v580h-244v90h593z" />
    <glyph glyph-name="afii10052" unicode="&#x403;" horiz-adv-x="609" 
d="M571 670v-90h-386v-580h-102v670h488zM470 931l-84 -159h-90l88 202z" />
    <glyph glyph-name="afii10053" unicode="&#x404;" horiz-adv-x="727" 
d="M467 297h-309c3 -35 12 -66 26 -93s32 -50 54 -70c23 -18 49 -33 78 -43c30 -10 62 -15 97 -15c42 0 81 7 116 22c35 14 68 35 98 63l57 -67c-72 -72 -165 -108 -278 -108c-53 0 -101 8 -144 24s-80 39 -112 69c-30 30 -54 66 -72 109c-16 43 -25 91 -25 145
c0 49 8 95 25 137c17 44 41 81 72 112c32 31 71 56 116 74c46 19 98 28 155 28c46 0 91 -8 135 -22c43 -16 81 -38 114 -67l-54 -72c-27 23 -58 41 -92 53s-71 18 -110 18c-35 0 -66 -5 -96 -14c-28 -10 -54 -24 -76 -42s-40 -40 -54 -66c-14 -25 -23 -54 -28 -85h307v-90z
" />
    <glyph glyph-name="afii10054" unicode="&#x405;" horiz-adv-x="653" 
d="M525 532c-27 20 -58 36 -92 46c-34 12 -69 17 -106 17c-54 0 -93 -9 -117 -27s-36 -42 -36 -72s9 -52 28 -68c18 -14 47 -25 88 -30l100 -14c68 -10 120 -31 156 -63c35 -32 53 -75 53 -130c0 -30 -6 -57 -18 -83c-12 -24 -30 -46 -53 -64c-24 -18 -54 -32 -89 -42
c-35 -11 -76 -16 -123 -16c-52 0 -99 6 -142 18c-43 11 -83 31 -122 60l48 81c37 -25 73 -43 110 -54c36 -11 74 -16 114 -16c58 0 102 10 130 31c30 21 44 48 44 82c0 28 -10 51 -29 68c-19 18 -51 30 -96 36l-105 15c-63 9 -112 28 -144 58c-34 30 -50 72 -50 127
c0 31 6 59 18 83c13 24 30 44 52 60s48 28 80 37c30 8 65 12 102 12c46 0 91 -6 136 -19c44 -13 82 -32 115 -59z" />
    <glyph glyph-name="afii10055" unicode="&#x406;" horiz-adv-x="269" 
d="M186 670v-670h-103v670h103z" />
    <glyph glyph-name="afii10056" unicode="&#x407;" horiz-adv-x="269" 
d="M186 670v-670h-103v670h103zM33 902c18 0 34 -6 47 -18c13 -13 20 -29 20 -49c0 -19 -7 -34 -20 -45c-13 -12 -29 -18 -47 -18c-17 0 -33 6 -46 18c-13 11 -20 26 -20 45c0 20 7 36 20 49c13 12 29 18 46 18zM238 902c18 0 34 -6 47 -18c13 -13 20 -29 20 -49
c0 -19 -7 -34 -20 -45c-13 -12 -29 -18 -47 -18c-17 0 -33 6 -46 18c-13 11 -20 26 -20 45c0 20 7 36 20 49c13 12 29 18 46 18z" />
    <glyph glyph-name="afii10057" unicode="&#x408;" horiz-adv-x="540" 
d="M457 670v-427c0 -82 -19 -145 -57 -190c-39 -45 -96 -67 -172 -67c-36 0 -69 4 -100 12c-30 9 -60 24 -90 47l46 78c25 -17 48 -29 72 -37c22 -6 47 -10 72 -10c36 0 66 12 90 37c25 25 37 64 37 118v439h102z" />
    <glyph glyph-name="afii10058" unicode="&#x409;" horiz-adv-x="1131" 
d="M676 670v-224h156c37 0 70 -5 102 -15c30 -10 58 -25 80 -43c24 -20 42 -43 54 -70c14 -28 20 -60 20 -96c0 -34 -6 -65 -19 -92c-13 -28 -30 -52 -53 -70c-22 -20 -48 -34 -80 -44c-30 -11 -64 -16 -100 -16h-262v582h-261c0 -59 -1 -116 -2 -170s-5 -104 -10 -149
s-13 -86 -23 -121c-10 -36 -24 -66 -41 -89c-16 -21 -35 -38 -58 -49c-23 -10 -49 -16 -79 -16c-15 0 -30 1 -42 3c-14 2 -27 6 -40 11l22 86c8 -3 16 -5 24 -6c7 -1 15 -2 23 -2c15 0 29 3 41 10c12 6 23 17 33 33c21 35 35 90 41 163s9 166 9 278v106h465zM676 88h145
c55 0 97 12 124 34c27 24 41 57 41 101c0 46 -14 80 -42 102c-29 22 -70 33 -124 33h-144v-270z" />
    <glyph glyph-name="afii10059" unicode="&#x40a;" horiz-adv-x="1090" 
d="M186 670v-282h347v282h102v-224h156c37 0 71 -5 101 -15c32 -10 58 -25 81 -43c23 -20 41 -43 53 -70c14 -28 20 -60 20 -96c0 -34 -6 -65 -19 -92c-13 -28 -30 -52 -53 -70c-22 -20 -48 -34 -79 -44c-31 -11 -64 -16 -100 -16h-262v297h-347v-297h-103v670h103zM635 88
h145c55 0 97 12 124 34c27 24 41 57 41 101c0 46 -14 80 -43 102c-28 22 -69 33 -123 33h-144v-270z" />
    <glyph glyph-name="afii10060" unicode="&#x40b;" horiz-adv-x="869" 
d="M641 670v-90h-247v-198c23 28 50 50 81 64c31 16 69 23 113 23c33 0 62 -5 90 -15c26 -11 50 -26 68 -45c20 -19 34 -43 44 -71c11 -27 16 -58 16 -92v-246h-98v239c0 48 -12 84 -36 108c-23 24 -57 36 -101 36c-39 0 -74 -10 -105 -31c-31 -20 -55 -49 -72 -87v-265
h-102v580h-244v90h593z" />
    <glyph glyph-name="afii10061" unicode="&#x40c;" horiz-adv-x="703" 
d="M183 670v-275l104 8l218 267h126l-261 -310l286 -360h-130l-237 312h-106v-312h-100v670h100zM474 931l-84 -159h-90l88 202z" />
    <glyph glyph-name="afii10062" unicode="&#x40e;" horiz-adv-x="696" 
d="M156 670l206 -386h10l174 386h111l-265 -560c-21 -44 -45 -76 -70 -96c-26 -19 -56 -29 -90 -29c-36 0 -69 7 -100 20l24 83c9 -3 18 -6 29 -8c11 -3 21 -4 30 -4c18 0 34 5 49 14s27 24 36 43l17 38l-279 499h118zM281 917c1 -25 9 -44 24 -57s33 -20 55 -20s40 6 56 20
c14 12 23 32 24 57h78c-1 -23 -5 -43 -12 -63c-8 -18 -19 -35 -32 -49c-14 -14 -31 -25 -50 -33c-19 -7 -41 -11 -64 -11s-45 4 -64 11c-19 8 -36 19 -49 33s-24 31 -31 49c-8 20 -12 40 -13 63h78z" />
    <glyph glyph-name="afii10145" unicode="&#x40f;" horiz-adv-x="724" 
d="M186 670v-578h352v578h102v-670h-229l-7 -145h-84l-8 145h-229v670h103z" />
    <glyph glyph-name="afii10017" unicode="&#x410;" horiz-adv-x="762" 
d="M440 671l281 -671h-112l-60 152h-339l-59 -152h-109l279 671h119zM244 240h271l-129 328h-12z" />
    <glyph glyph-name="afii10018" unicode="&#x411;" horiz-adv-x="673" 
d="M562 670v-90h-378v-159h185c38 0 73 -5 104 -13c31 -10 58 -23 81 -41s40 -40 52 -67c13 -26 19 -56 19 -90s-6 -64 -19 -90s-30 -48 -53 -66c-23 -17 -50 -31 -81 -40s-66 -14 -103 -14h-286v670h479zM184 89h185c53 0 92 11 117 35c25 22 37 51 37 86
c0 38 -12 68 -37 90c-24 22 -62 33 -113 33h-189v-244z" />
    <glyph glyph-name="afii10019" unicode="&#x412;" horiz-adv-x="677" 
d="M361 670c37 0 69 -4 97 -13c29 -9 52 -21 72 -37c18 -15 33 -34 42 -56c10 -21 15 -45 15 -70c0 -28 -6 -54 -19 -78s-31 -42 -54 -53v-9c35 -10 62 -30 84 -59c20 -29 31 -63 31 -101c0 -27 -5 -52 -15 -75c-9 -23 -24 -44 -44 -61c-19 -18 -44 -32 -74 -42
c-30 -11 -65 -16 -106 -16h-307v670h278zM185 86h205c46 0 81 10 104 28c23 20 35 47 35 83c0 35 -12 62 -35 81c-24 19 -59 29 -105 29h-204v-221zM185 392h192c38 0 66 9 83 26c18 18 27 42 27 72c0 63 -43 94 -129 94h-173v-192z" />
    <glyph glyph-name="afii10020" unicode="&#x413;" horiz-adv-x="609" 
d="M571 670v-90h-386v-580h-102v670h488z" />
    <glyph glyph-name="afii10021" unicode="&#x414;" horiz-adv-x="836" 
d="M690 670v-581h98v-45l-10 -189h-85l-7 145h-536l-9 -145h-86l-7 188v45h27c16 0 33 8 51 24c18 15 33 39 44 70c9 25 16 54 23 86s12 66 17 102c4 36 7 73 9 112c2 38 3 77 3 116v72h468zM321 582c-1 -119 -9 -221 -25 -307c-15 -86 -38 -148 -67 -186h360v493h-268z" />
    <glyph glyph-name="afii10022" unicode="&#x415;" 
d="M565 670v-89h-382v-189h336v-88h-336v-214h400v-90h-500v670h482z" />
    <glyph glyph-name="afii10024" unicode="&#x416;" horiz-adv-x="1042" 
d="M184 670l180 -266l108 -6v272h98v-272l108 6l180 266h120l-219 -306l250 -364h-119l-207 314h-113v-314h-98v314h-113l-206 -314h-120l250 364l-219 306h120z" />
    <glyph glyph-name="afii10025" unicode="&#x417;" horiz-adv-x="653" 
d="M362 390c33 0 60 9 79 27s29 41 29 69c0 34 -12 61 -35 80c-23 20 -61 30 -114 30c-34 0 -66 -6 -95 -16c-29 -12 -59 -29 -88 -53l-55 72c69 57 150 85 243 85c39 0 74 -5 105 -14c31 -10 56 -23 77 -40s36 -36 47 -58c11 -23 16 -47 16 -72c0 -31 -6 -58 -19 -83
s-31 -43 -56 -54v-10c34 -11 61 -31 80 -57c19 -28 29 -60 29 -99c0 -28 -6 -55 -17 -81c-12 -25 -30 -48 -54 -67c-23 -19 -52 -35 -88 -46c-34 -11 -75 -17 -121 -17c-57 0 -108 8 -151 22c-44 16 -86 41 -126 76l58 73c36 -30 72 -51 108 -63c36 -13 76 -19 120 -19
c55 0 97 12 126 35c28 23 42 53 42 90c0 33 -11 59 -34 76c-22 17 -55 26 -99 26h-158v88h151z" />
    <glyph glyph-name="afii10026" unicode="&#x418;" horiz-adv-x="743" 
d="M183 670v-518l385 518h92v-670h-100v505l-376 -505h-101v670h100z" />
    <glyph glyph-name="afii10027" unicode="&#x419;" horiz-adv-x="743" 
d="M183 670v-518l385 518h92v-670h-100v505l-376 -505h-101v670h100zM292 917c1 -25 9 -44 24 -57s33 -20 55 -20s41 6 55 20c16 12 24 32 25 57h78c-1 -23 -5 -43 -13 -63c-7 -18 -18 -35 -32 -49c-13 -14 -30 -25 -49 -33c-19 -7 -41 -11 -64 -11s-45 4 -64 11
c-19 8 -36 19 -49 33s-24 31 -32 49c-7 20 -11 40 -12 63h78z" />
    <glyph glyph-name="afii10028" unicode="&#x41a;" horiz-adv-x="703" 
d="M183 670v-275l104 8l218 267h126l-261 -310l286 -360h-130l-237 312h-106v-312h-100v670h100z" />
    <glyph glyph-name="afii10029" unicode="&#x41b;" horiz-adv-x="763" 
d="M680 670v-670h-103v582h-264c0 -59 -1 -116 -2 -170s-5 -104 -10 -149s-13 -86 -23 -121c-10 -36 -24 -66 -41 -89c-16 -21 -35 -38 -58 -49c-23 -10 -49 -16 -79 -16c-15 0 -30 1 -42 3c-14 2 -27 6 -40 11l22 86c17 -5 33 -8 47 -8c15 0 29 3 41 10c12 6 23 17 33 33
c21 36 35 91 41 163c6 74 9 166 9 278v106h469z" />
    <glyph glyph-name="afii10030" unicode="&#x41c;" horiz-adv-x="840" 
d="M195 670l226 -349l227 349h109v-670h-99v514h-9l-205 -315h-51l-204 315h-9v-514h-97v670h112z" />
    <glyph glyph-name="afii10031" unicode="&#x41d;" horiz-adv-x="732" 
d="M186 670v-282h360v282h102v-670h-102v297h-360v-297h-103v670h103z" />
    <glyph glyph-name="afii10032" unicode="&#x41e;" horiz-adv-x="811" 
d="M405 684c53 0 101 -9 144 -26c43 -18 80 -43 111 -74s54 -68 72 -111c16 -43 25 -89 25 -138c0 -48 -9 -93 -25 -135c-18 -43 -42 -80 -72 -112c-32 -31 -68 -56 -112 -74c-42 -19 -90 -28 -143 -28s-101 9 -143 27c-44 18 -80 43 -112 75c-30 31 -54 68 -72 110
c-16 43 -25 88 -25 137s9 94 26 137c17 42 41 79 73 110c30 31 68 56 110 74c44 19 91 28 143 28zM405 595c-39 0 -75 -7 -105 -20c-32 -13 -58 -32 -79 -55s-38 -51 -49 -82c-11 -32 -17 -66 -17 -103s6 -71 17 -103c12 -31 29 -59 50 -82s48 -42 78 -55
c32 -13 66 -20 105 -20s75 7 105 19c32 14 58 32 80 55c21 23 38 51 49 83c11 31 17 66 17 103c0 38 -6 73 -18 105c-11 31 -28 58 -49 82c-21 22 -48 40 -79 54c-31 12 -66 19 -105 19z" />
    <glyph glyph-name="afii10033" unicode="&#x41f;" horiz-adv-x="725" 
d="M642 670v-670h-103v578h-353v-578h-103v670h559z" />
    <glyph glyph-name="afii10034" unicode="&#x420;" horiz-adv-x="675" 
d="M368 670c37 0 71 -6 102 -16c31 -12 58 -27 80 -48c23 -20 40 -44 53 -73s19 -60 19 -95c0 -37 -7 -70 -20 -98c-14 -30 -33 -54 -57 -74c-24 -21 -52 -36 -85 -47c-32 -11 -66 -16 -103 -16h-171v-203h-103v670h285zM186 291h169c51 0 91 13 121 39c29 25 44 61 44 107
c0 45 -14 81 -41 107c-27 25 -66 38 -117 38h-176v-291z" />
    <glyph glyph-name="afii10035" unicode="&#x421;" horiz-adv-x="727" 
d="M617 523c-56 47 -124 70 -205 70c-39 0 -74 -6 -106 -18c-31 -12 -58 -29 -80 -52c-23 -23 -40 -50 -52 -81c-13 -32 -19 -68 -19 -107c0 -40 6 -76 19 -108s30 -59 53 -81s49 -39 81 -51c30 -12 64 -18 101 -18c43 0 82 7 119 21c36 15 69 35 99 62l57 -70
c-72 -69 -165 -104 -280 -104c-52 0 -100 8 -142 24c-44 16 -80 39 -112 69c-30 30 -54 66 -72 109c-16 43 -25 91 -25 145c0 49 9 95 25 138c18 43 42 80 74 111c31 32 70 57 115 75s97 27 154 27c48 0 93 -8 137 -24c42 -15 80 -37 112 -65z" />
    <glyph glyph-name="afii10036" unicode="&#x422;" horiz-adv-x="689" 
d="M641 670v-90h-246v-580h-101v580h-246v90h593z" />
    <glyph glyph-name="afii10037" unicode="&#x423;" horiz-adv-x="696" 
d="M156 670l206 -386h10l174 386h111l-265 -560c-21 -44 -45 -76 -70 -96c-26 -19 -56 -29 -90 -29c-36 0 -69 7 -100 20l24 83c9 -3 18 -6 29 -8c11 -3 21 -4 30 -4c18 0 34 5 49 14s27 24 36 43l17 38l-279 499h118z" />
    <glyph glyph-name="afii10038" unicode="&#x424;" horiz-adv-x="889" 
d="M495 684v-98h86c38 0 73 -6 105 -16c31 -12 58 -27 82 -48c22 -21 40 -46 54 -76c12 -31 19 -65 19 -104s-7 -74 -21 -105s-33 -57 -56 -78c-24 -21 -52 -37 -83 -49c-31 -10 -65 -16 -100 -16h-86v-94h-101v94h-86c-38 0 -73 6 -105 16c-32 12 -59 27 -83 48
c-22 21 -40 46 -53 76c-13 31 -19 65 -19 104s7 74 21 105s33 57 57 78c23 21 51 37 82 49c31 10 65 16 100 16h86v98h101zM394 500h-77c-55 0 -96 -14 -125 -42c-29 -29 -43 -69 -43 -120c0 -52 15 -91 45 -118s71 -40 123 -40h77v320zM495 180h77c54 0 96 14 124 43
c30 29 44 68 44 119c0 52 -15 91 -45 118s-71 40 -123 40h-77v-320z" />
    <glyph glyph-name="afii10039" unicode="&#x425;" horiz-adv-x="719" 
d="M181 670l177 -263h10l169 263h123l-224 -327l245 -343h-126l-193 286h-10l-188 -286h-126l245 350l-223 320h121z" />
    <glyph glyph-name="afii10040" unicode="&#x426;" horiz-adv-x="768" 
d="M185 670v-581h343v581h101v-581h98v-45l-10 -189h-85l-7 145h-542v670h102z" />
    <glyph glyph-name="afii10041" unicode="&#x427;" horiz-adv-x="705" 
d="M169 670v-217c0 -54 13 -95 38 -125c25 -28 65 -43 119 -43c37 0 72 5 106 15c32 11 62 25 88 43v327h102v-670h-102v251c-28 -18 -60 -31 -94 -41c-36 -8 -73 -13 -114 -13c-77 0 -136 21 -180 62c-42 41 -64 103 -64 186v225h101z" />
    <glyph glyph-name="afii10042" unicode="&#x428;" horiz-adv-x="1003" 
d="M184 670v-582h267v582h101v-582h267v582h101v-670h-837v670h101z" />
    <glyph glyph-name="afii10043" unicode="&#x429;" horiz-adv-x="1059" 
d="M184 670v-582h267v582h101v-582h267v582h101v-581h97v-45l-9 -189h-86l-6 145h-833v670h101z" />
    <glyph glyph-name="afii10044" unicode="&#x42a;" horiz-adv-x="755" 
d="M291 670v-224h166c37 0 71 -5 101 -15c32 -10 58 -25 81 -43c23 -20 41 -43 53 -70c14 -28 20 -60 20 -96c0 -34 -6 -65 -19 -92c-13 -28 -30 -52 -53 -70c-22 -20 -48 -34 -79 -44c-31 -11 -64 -16 -100 -16h-272v580l-161 6v84h263zM291 88h155c55 0 96 12 124 34
c26 24 40 57 40 101c0 46 -14 80 -42 102s-69 33 -123 33h-154v-270z" />
    <glyph glyph-name="afii10045" unicode="&#x42b;" horiz-adv-x="879" 
d="M796 670v-670h-102v670h102zM185 670v-224h161c37 0 70 -5 102 -15c30 -10 58 -25 80 -43c24 -20 42 -43 54 -70c14 -28 20 -60 20 -96c0 -34 -6 -65 -19 -92c-13 -28 -30 -52 -53 -70c-22 -20 -48 -34 -80 -44c-30 -11 -64 -16 -100 -16h-267v670h102zM185 88h150
c55 0 97 12 124 34c27 24 41 57 41 101c0 46 -14 80 -42 102c-29 22 -70 33 -124 33h-149v-270z" />
    <glyph glyph-name="afii10046" unicode="&#x42c;" horiz-adv-x="655" 
d="M185 670v-224h171c37 0 70 -5 102 -15c30 -10 58 -25 80 -43c24 -20 42 -43 54 -70c14 -28 20 -60 20 -96c0 -34 -6 -65 -19 -92c-13 -28 -30 -52 -53 -70c-22 -20 -48 -34 -80 -44c-30 -11 -64 -16 -100 -16h-277v670h102zM185 88h160c55 0 97 12 124 34
c27 24 41 57 41 101c0 46 -14 80 -42 102c-29 22 -70 33 -124 33h-159v-270z" />
    <glyph glyph-name="afii10047" unicode="&#x42d;" horiz-adv-x="715" 
d="M559 385c-2 32 -10 61 -23 87c-13 25 -31 47 -52 65s-46 32 -75 42s-59 15 -92 15c-38 0 -74 -6 -109 -17c-34 -11 -65 -28 -93 -51l-54 73c34 29 73 50 118 64s91 21 140 21c51 0 97 -8 139 -25s78 -40 108 -71c31 -30 54 -66 71 -109s25 -90 25 -142
c0 -49 -8 -96 -24 -139c-16 -42 -39 -80 -69 -111s-67 -56 -110 -74s-92 -27 -147 -27c-111 0 -200 35 -269 104l57 68c31 -28 64 -49 99 -62s72 -20 111 -20c35 0 66 5 96 16c28 10 54 24 76 44c22 18 40 42 53 68c13 28 21 58 24 92h-301v89h301z" />
    <glyph glyph-name="afii10048" unicode="&#x42e;" horiz-adv-x="1011" 
d="M183 670v-287h107c5 45 17 85 35 122s41 68 70 95s62 47 101 62c38 15 80 22 126 22c50 0 96 -8 137 -25s77 -40 106 -71s52 -67 69 -110c16 -43 24 -90 24 -143c0 -49 -8 -95 -24 -138c-17 -43 -40 -80 -69 -111s-65 -56 -106 -74c-41 -17 -87 -26 -137 -26
c-47 0 -90 7 -130 22c-38 14 -72 34 -101 61s-52 59 -69 98s-28 82 -32 130h-107v-297h-100v670h100zM622 598c-35 0 -66 -6 -95 -18s-53 -30 -75 -52c-20 -24 -37 -51 -48 -84c-12 -33 -18 -69 -18 -110c0 -40 6 -76 17 -108c11 -33 27 -60 47 -83c21 -23 46 -40 74 -53
c30 -12 62 -18 98 -18c35 0 66 6 96 18c28 13 53 30 74 53s37 50 48 83c11 32 17 68 17 109c0 40 -5 76 -16 109c-11 32 -26 60 -46 82c-20 24 -45 41 -74 54c-29 12 -62 18 -99 18z" />
    <glyph glyph-name="afii10049" unicode="&#x42f;" horiz-adv-x="684" 
d="M601 0h-102v221h-182l-151 -221h-123l176 246c-48 15 -85 41 -111 76s-39 77 -39 125c0 33 6 64 18 91s29 51 51 70c22 20 48 35 78 46c31 11 65 16 102 16h283v-670zM325 582c-47 0 -85 -11 -113 -34c-27 -22 -41 -56 -41 -101c0 -44 14 -78 43 -102s67 -36 115 -36h170
v273h-174z" />
    <glyph glyph-name="afii10065" unicode="&#x430;" horiz-adv-x="623" 
d="M79 463c34 21 68 37 102 45c34 10 70 14 108 14c79 0 137 -18 174 -54c37 -37 55 -87 55 -151v-187c0 -21 4 -36 11 -46c7 -8 17 -13 29 -13c7 0 14 1 21 4l9 -74c-14 -7 -31 -10 -51 -10c-25 0 -47 6 -63 19c-18 12 -29 34 -34 67c-43 -59 -109 -89 -198 -89
c-61 0 -108 14 -144 44c-34 28 -52 71 -52 126c0 51 20 92 61 121s96 44 167 44c28 0 54 -2 80 -7c24 -5 48 -11 69 -18v28c0 37 -11 64 -32 83s-55 28 -100 28c-61 0 -118 -15 -173 -44zM424 222c-43 15 -91 22 -146 22c-48 0 -82 -8 -102 -24c-21 -17 -31 -38 -31 -64
c0 -28 10 -49 29 -64c20 -14 49 -21 86 -21c23 0 44 3 64 9c19 7 36 16 52 27c14 11 26 25 35 41c9 15 13 33 13 52v22z" />
    <glyph glyph-name="afii10066" unicode="&#x431;" horiz-adv-x="647" 
d="M155 400c21 27 47 48 77 64c32 14 72 22 122 22c35 0 68 -6 98 -17s56 -27 78 -49c21 -20 38 -46 50 -78c13 -30 19 -65 19 -104c0 -38 -7 -72 -21 -103c-15 -31 -34 -57 -58 -79c-25 -22 -54 -39 -87 -50c-33 -12 -69 -18 -107 -18c-43 0 -82 8 -115 22
c-33 16 -62 37 -85 64s-41 61 -53 100s-18 84 -18 133c0 57 6 107 19 150c12 43 29 79 52 109s50 54 82 72c32 17 68 30 107 37l103 17c21 4 37 11 48 22s16 24 16 39c0 9 -1 17 -4 24l81 14c6 -17 9 -35 9 -54c0 -33 -10 -61 -30 -83c-20 -23 -47 -37 -82 -43l-133 -23
c-51 -9 -92 -29 -123 -62c-31 -32 -49 -74 -55 -126h10zM337 406c-46 0 -85 -12 -115 -36c-32 -23 -55 -55 -71 -94c0 -31 4 -60 13 -85c8 -25 20 -47 34 -65c16 -18 34 -32 56 -42c21 -9 45 -14 71 -14s50 4 71 12c21 7 40 18 55 32c15 15 27 32 35 53c9 21 13 44 13 70
c0 57 -15 99 -44 127s-69 42 -118 42z" />
    <glyph glyph-name="afii10067" unicode="&#x432;" horiz-adv-x="572" 
d="M314 510c55 0 99 -12 130 -37c32 -25 48 -57 48 -97c0 -23 -5 -43 -15 -60c-10 -16 -24 -28 -42 -37v-8c29 -8 51 -23 66 -43c15 -22 23 -48 23 -79c0 -45 -16 -81 -49 -108s-82 -41 -147 -41h-255v510h241zM168 83h170c29 0 52 6 67 17c15 12 23 30 23 53
c0 22 -7 39 -22 51c-14 13 -37 19 -70 19h-168v-140zM168 303h152c25 0 44 6 56 17c14 11 20 27 20 46s-7 35 -20 46s-35 17 -65 17h-143v-126z" />
    <glyph glyph-name="afii10068" unicode="&#x433;" horiz-adv-x="518" 
d="M474 510v-84h-304v-426h-97v510h401z" />
    <glyph glyph-name="afii10069" unicode="&#x434;" horiz-adv-x="673" 
d="M564 510v-427h75v-33l-8 -173h-81l-5 123h-416l-8 -123h-80l-8 171v33l29 4c20 3 37 14 50 33c14 19 26 45 35 78c11 38 17 84 20 140c3 54 4 113 5 174h392zM261 427c0 -46 -2 -89 -5 -130s-9 -76 -16 -107c-5 -25 -12 -47 -20 -65c-7 -18 -17 -32 -28 -42h277v344h-208
z" />
    <glyph glyph-name="afii10070" unicode="&#x435;" horiz-adv-x="612" 
d="M146 222c5 -47 24 -84 55 -110s73 -39 125 -39c35 0 68 5 96 13c30 10 57 24 84 43l44 -69c-34 -26 -69 -44 -106 -56c-37 -10 -77 -16 -120 -16s-82 6 -116 18c-34 13 -63 30 -86 54c-24 22 -42 50 -55 83s-19 70 -19 111c0 39 7 74 20 107s32 61 56 85s53 43 87 56
s72 20 113 20c36 0 69 -6 98 -17s54 -27 76 -49c20 -20 37 -46 48 -75c12 -29 18 -62 18 -97c0 -11 -1 -21 -2 -32c-1 -10 -3 -20 -5 -30h-411zM466 302c-1 41 -13 74 -37 99s-60 37 -109 37s-87 -12 -116 -36c-29 -25 -47 -58 -54 -100h316z" />
    <glyph glyph-name="afii10072" unicode="&#x436;" horiz-adv-x="880" 
d="M488 510v-201l81 6l148 195h116l-183 -232l196 -278h-111l-161 233h-86v-233h-94v233h-88l-155 -233h-118l199 274l-184 236h113l150 -195l83 -6v201h94z" />
    <glyph glyph-name="afii10073" unicode="&#x437;" horiz-adv-x="554" 
d="M67 458c29 22 60 38 93 48c33 11 71 16 112 16c62 0 112 -13 149 -38c37 -26 56 -62 56 -108c0 -21 -5 -40 -15 -58c-10 -16 -24 -29 -41 -38v-8c25 -9 44 -24 59 -44c14 -21 21 -45 21 -72c0 -24 -5 -46 -13 -67c-10 -21 -24 -38 -44 -53c-19 -16 -44 -27 -74 -36
c-31 -8 -67 -12 -110 -12c-44 0 -84 6 -119 16c-35 12 -70 31 -103 58l48 67c26 -20 53 -35 81 -45c28 -9 59 -14 93 -14c47 0 82 7 106 20c25 14 37 35 37 62c0 23 -7 40 -21 52c-14 13 -36 19 -65 19h-134v78h122c25 0 44 6 57 17c13 12 19 28 19 49s-8 39 -25 53
c-16 14 -46 21 -89 21c-30 0 -57 -4 -83 -11c-24 -7 -49 -20 -72 -37z" />
    <glyph glyph-name="afii10074" unicode="&#x438;" horiz-adv-x="626" 
d="M457 0v366l-293 -366h-91v510h96v-372l296 372h88v-510h-96z" />
    <glyph glyph-name="afii10075" unicode="&#x439;" horiz-adv-x="626" 
d="M457 0v366l-293 -366h-91v510h96v-372l296 372h88v-510h-96zM240 748c1 -23 8 -40 22 -52c12 -13 29 -19 50 -19s38 6 50 19c14 12 21 29 22 52h79c-1 -23 -6 -44 -14 -62s-19 -33 -32 -46c-13 -12 -29 -21 -47 -28s-37 -10 -58 -10s-41 3 -59 10c-18 6 -34 15 -47 28
c-13 12 -24 27 -32 46c-8 18 -12 39 -12 62h78z" />
    <glyph glyph-name="afii10076" unicode="&#x43a;" horiz-adv-x="595" 
d="M170 510v-201l94 9l158 192h121l-196 -230l220 -280h-118l-178 229h-101v-229h-97v510h97z" />
    <glyph glyph-name="afii10077" unicode="&#x43b;" horiz-adv-x="659" 
d="M585 510v-510h-98v428h-213c0 -28 0 -57 -1 -87s-2 -59 -5 -87c-2 -29 -5 -56 -9 -80c-4 -26 -9 -47 -16 -66c-13 -40 -31 -69 -54 -88s-54 -28 -93 -28c-16 0 -30 1 -44 4c-12 2 -25 6 -37 11l19 77c9 -3 17 -6 26 -7s17 -2 25 -2c19 0 33 6 44 17c11 12 19 27 24 45
c11 32 19 72 23 121c3 49 5 103 5 164v88h404z" />
    <glyph glyph-name="afii10078" unicode="&#x43c;" horiz-adv-x="703" 
d="M186 510l166 -253l167 253h111v-510h-94v377h-9l-153 -229h-46l-152 229h-10v-377h-93v510h113z" />
    <glyph glyph-name="afii10079" unicode="&#x43d;" horiz-adv-x="619" 
d="M172 510v-209h275v209h99v-510h-99v217h-275v-217h-99v510h99z" />
    <glyph glyph-name="afii10080" unicode="&#x43e;" horiz-adv-x="650" 
d="M325 522c41 0 78 -6 112 -20c34 -12 63 -31 88 -54c25 -24 44 -52 57 -85s20 -69 20 -108c0 -38 -7 -73 -21 -106s-33 -61 -57 -85c-25 -24 -54 -43 -88 -56s-71 -20 -111 -20c-41 0 -79 6 -113 20c-34 12 -63 31 -88 54c-24 24 -43 52 -56 85s-20 69 -20 108
c0 38 7 73 20 106c14 33 33 61 58 85c24 24 53 43 87 56s71 20 112 20zM325 439c-27 0 -52 -5 -75 -13c-22 -10 -41 -22 -56 -38c-16 -17 -28 -36 -36 -59c-9 -23 -13 -47 -13 -74s4 -52 13 -75s21 -42 36 -58c16 -16 35 -28 57 -38c22 -8 47 -13 74 -13c28 0 53 5 75 13
c22 10 41 22 56 38c16 16 28 35 36 58c9 23 13 48 13 75s-4 51 -13 73c-9 23 -21 42 -36 58c-16 17 -35 30 -57 39s-47 14 -74 14z" />
    <glyph glyph-name="afii10081" unicode="&#x43f;" horiz-adv-x="618" 
d="M545 510v-510h-99v427h-274v-427h-99v510h472z" />
    <glyph glyph-name="afii10082" unicode="&#x440;" horiz-adv-x="650" 
d="M150 510l10 -93c23 38 51 65 84 81c32 16 70 24 114 24c36 0 69 -6 99 -18c30 -13 56 -30 77 -52c21 -23 38 -50 50 -82c11 -33 17 -69 17 -109c0 -45 -7 -84 -23 -118c-14 -34 -34 -63 -59 -85c-25 -24 -53 -41 -85 -52c-32 -12 -65 -18 -100 -18c-33 0 -62 4 -88 11
c-27 7 -52 20 -77 37v-233h-96v707h77zM169 129c45 -37 97 -56 157 -56c26 0 50 4 72 13c21 9 40 21 55 38c15 16 27 36 36 60c9 23 13 50 13 80c0 25 -4 49 -10 70c-8 21 -18 40 -32 55c-13 15 -30 27 -50 36c-19 9 -41 13 -66 13c-43 0 -80 -12 -109 -34
c-29 -24 -51 -54 -66 -93v-182z" />
    <glyph glyph-name="afii10083" unicode="&#x441;" horiz-adv-x="583" 
d="M476 381c-19 17 -41 31 -66 41c-26 10 -55 15 -88 15c-24 0 -47 -4 -68 -12c-22 -8 -41 -20 -57 -35s-29 -34 -38 -56s-14 -47 -14 -75c0 -57 16 -102 47 -135s75 -50 130 -50c32 0 62 6 89 16c27 12 51 28 70 49l59 -61c-28 -31 -60 -54 -98 -68
c-36 -15 -78 -22 -124 -22c-43 0 -82 7 -116 20c-33 14 -62 33 -84 57c-24 24 -41 52 -52 85c-12 32 -18 67 -18 104c0 41 7 78 22 110c14 34 33 62 58 85c24 23 52 41 86 54c32 13 68 19 106 19c45 0 85 -6 120 -20c35 -12 65 -32 90 -57z" />
    <glyph glyph-name="afii10084" unicode="&#x442;" horiz-adv-x="560" 
d="M517 510v-84h-188v-426h-98v426h-188v84h474z" />
    <glyph glyph-name="afii10085" unicode="&#x443;" horiz-adv-x="638" 
d="M152 510l184 -408h9l147 408h108l-233 -566c-19 -48 -42 -83 -68 -106c-26 -22 -59 -33 -99 -33c-37 0 -69 9 -94 26l27 75c11 -5 21 -9 31 -11s20 -3 29 -3c19 0 36 5 49 15c14 10 26 27 35 50l13 36l-252 517h114z" />
    <glyph glyph-name="afii10086" unicode="&#x444;" horiz-adv-x="931" 
d="M513 703v-235c18 17 38 31 59 40c22 9 48 14 79 14c73 0 129 -22 171 -67c40 -45 61 -111 61 -198c0 -43 -7 -81 -19 -114c-14 -33 -31 -61 -54 -85c-22 -22 -48 -40 -79 -52s-64 -18 -99 -18c-25 0 -46 2 -64 7c-19 5 -37 12 -55 21v-213h-96v239
c-17 -18 -37 -32 -59 -40c-22 -10 -48 -14 -78 -14c-71 0 -128 22 -170 68c-41 44 -62 110 -62 197c0 43 6 81 20 114c12 33 30 61 52 85c23 22 49 40 80 52s64 18 99 18c45 0 85 -9 118 -28v209h96zM417 409c-19 10 -36 17 -53 22s-35 7 -56 7c-53 0 -93 -17 -120 -50
c-28 -34 -42 -79 -42 -136c0 -63 13 -109 40 -138c26 -28 61 -42 104 -42c28 0 52 6 72 17c21 11 39 28 55 49v271zM513 101c19 -10 37 -17 54 -22s35 -7 56 -7c52 0 92 17 120 51s42 79 42 136c0 63 -13 108 -40 137s-62 43 -105 43c-28 0 -52 -6 -72 -17
c-21 -12 -39 -29 -55 -51v-270z" />
    <glyph glyph-name="afii10087" unicode="&#x445;" horiz-adv-x="627" 
d="M178 510l132 -195h10l130 195h117l-181 -245l202 -265h-123l-152 216h-10l-143 -216h-122l200 269l-183 241h123z" />
    <glyph glyph-name="afii10088" unicode="&#x446;" horiz-adv-x="634" 
d="M169 510v-427h263v427h96v-427h76v-33l-8 -173h-81l-6 123h-436v510h96z" />
    <glyph glyph-name="afii10089" unicode="&#x447;" horiz-adv-x="581" 
d="M149 510v-158c0 -41 9 -73 28 -94c19 -22 49 -33 90 -33c31 0 58 5 81 13c24 10 46 23 67 42v230h96v-510h-96v193c-21 -17 -45 -29 -72 -38s-57 -13 -92 -13c-61 0 -110 17 -145 52s-53 82 -53 143v173h96z" />
    <glyph glyph-name="afii10090" unicode="&#x448;" horiz-adv-x="863" 
d="M168 510v-427h216v427h95v-427h216v427h95v-510h-717v510h95z" />
    <glyph glyph-name="afii10091" unicode="&#x449;" horiz-adv-x="896" 
d="M168 510v-427h216v427h95v-427h216v427h95v-427h76v-33l-8 -173h-81l-6 123h-698v510h95z" />
    <glyph glyph-name="afii10092" unicode="&#x44a;" horiz-adv-x="642" 
d="M268 510v-168c21 10 43 18 66 24c23 5 46 8 71 8c28 0 54 -4 78 -12c24 -7 45 -19 63 -34c18 -16 32 -35 42 -58s15 -49 15 -79c0 -27 -5 -53 -15 -76s-24 -43 -44 -61c-18 -16 -42 -30 -70 -40c-29 -9 -61 -14 -97 -14h-205v428h-144v82h240zM268 83h103
c45 0 79 10 101 29s33 46 33 80c0 32 -10 57 -29 74c-20 18 -49 27 -88 27c-43 0 -83 -10 -120 -31v-179z" />
    <glyph glyph-name="afii10093" unicode="&#x44b;" horiz-adv-x="752" 
d="M679 510v-510h-99v510h99zM171 510v-168c21 10 43 18 65 24c23 5 47 8 72 8c28 0 54 -4 78 -12c23 -7 44 -19 61 -34s31 -34 41 -57s15 -49 15 -79c0 -27 -5 -53 -15 -76c-9 -23 -24 -44 -42 -61c-20 -17 -43 -31 -71 -41c-28 -9 -60 -14 -96 -14h-206v510h98zM171 83
h102c46 0 79 10 101 30c20 20 31 47 31 80c0 32 -9 57 -28 74s-48 26 -87 26c-42 0 -82 -10 -119 -31v-179z" />
    <glyph glyph-name="afii10094" unicode="&#x44c;" horiz-adv-x="551" 
d="M171 510v-169c21 11 44 19 67 25c24 5 48 8 73 8c27 0 53 -4 77 -12c25 -7 46 -18 64 -34c19 -14 33 -33 44 -56s16 -49 16 -80c0 -28 -5 -54 -16 -77c-10 -23 -25 -43 -44 -61c-20 -16 -44 -30 -72 -40c-29 -9 -61 -14 -97 -14h-210v510h98zM171 82h106
c47 0 81 10 103 30c23 20 34 47 34 81c0 32 -10 57 -30 74c-19 17 -49 26 -88 26c-47 0 -88 -11 -125 -32v-179z" />
    <glyph glyph-name="afii10095" unicode="&#x44d;" horiz-adv-x="575" 
d="M426 301c-5 45 -23 80 -52 103s-68 35 -115 35c-57 0 -107 -19 -150 -56l-51 66c25 23 54 41 88 54c32 13 70 19 111 19c44 0 83 -7 116 -21s61 -33 84 -57s40 -52 51 -84c12 -33 18 -67 18 -104c0 -40 -6 -76 -20 -110c-12 -32 -31 -61 -54 -84c-24 -24 -52 -42 -86 -55
c-32 -13 -69 -19 -109 -19c-47 0 -87 7 -121 20c-34 14 -65 35 -93 64l58 62c20 -19 43 -34 69 -46c26 -10 55 -16 88 -16c22 0 43 3 62 10c20 6 38 15 53 28c15 12 28 27 37 46c10 18 16 39 18 64h-213v81h211z" />
    <glyph glyph-name="afii10096" unicode="&#x44e;" horiz-adv-x="836" 
d="M170 510v-209h90c5 32 14 61 28 89c15 26 33 50 56 70c23 19 49 34 78 46c30 10 63 16 98 16c41 0 78 -7 110 -20c34 -13 62 -32 85 -56c23 -23 41 -51 54 -84s19 -69 19 -108c0 -37 -6 -72 -19 -104c-13 -33 -31 -61 -55 -85c-23 -24 -52 -43 -84 -57
c-34 -13 -70 -20 -110 -20c-38 0 -72 6 -102 18c-31 11 -57 27 -80 48c-23 20 -41 44 -54 72c-13 29 -22 60 -26 94h-88v-220h-97v510h97zM520 439c-26 0 -49 -5 -70 -13c-21 -10 -38 -22 -53 -38c-15 -17 -26 -36 -34 -59s-12 -47 -12 -74s4 -52 11 -75
c7 -22 18 -41 33 -58c15 -16 32 -28 53 -38c21 -8 45 -13 72 -13c26 0 50 5 70 13c22 10 39 22 54 39s26 36 34 59c8 22 12 47 12 74s-4 51 -11 74c-7 22 -18 41 -33 58c-14 16 -32 28 -53 38c-21 8 -46 13 -73 13z" />
    <glyph glyph-name="afii10097" unicode="&#x44f;" horiz-adv-x="582" 
d="M411 0v187c-39 -19 -85 -30 -136 -32l-116 -155h-116l140 174c-35 10 -63 29 -84 58c-21 28 -31 61 -31 99c0 27 5 51 15 73s25 41 45 56c19 16 43 28 72 37c28 9 60 13 96 13h212v-510h-97zM411 428h-110c-45 0 -79 -9 -101 -26c-23 -17 -34 -41 -34 -71
c0 -31 10 -55 32 -71c20 -18 50 -26 87 -26c46 0 88 11 126 33v161z" />
    <glyph glyph-name="afii10071" unicode="&#x451;" horiz-adv-x="612" 
d="M146 222c5 -47 24 -84 55 -110s73 -39 125 -39c35 0 68 5 96 13c30 10 57 24 84 43l44 -69c-34 -26 -69 -44 -106 -56c-37 -10 -77 -16 -120 -16s-82 6 -116 18c-34 13 -63 30 -86 54c-24 22 -42 50 -55 83s-19 70 -19 111c0 39 7 74 20 107s32 61 56 85s53 43 87 56
s72 20 113 20c36 0 69 -6 98 -17s54 -27 76 -49c20 -20 37 -46 48 -75c12 -29 18 -62 18 -97c0 -11 -1 -21 -2 -32c-1 -10 -3 -20 -5 -30h-411zM466 302c-1 41 -13 74 -37 99s-60 37 -109 37s-87 -12 -116 -36c-29 -25 -47 -58 -54 -100h316zM211 735c18 0 33 -6 45 -17
c13 -12 19 -27 19 -45s-6 -33 -19 -45c-12 -11 -27 -17 -45 -17c-17 0 -32 6 -45 17c-12 12 -18 27 -18 45s6 33 18 45c13 11 28 17 45 17zM437 735c17 0 32 -6 45 -17c12 -12 18 -27 18 -45s-6 -33 -18 -45c-13 -11 -28 -17 -45 -17s-32 6 -45 17c-12 12 -18 27 -18 45
s6 33 18 45c13 11 28 17 45 17z" />
    <glyph glyph-name="afii10099" unicode="&#x452;" horiz-adv-x="661" 
d="M191 730v-71h156v-78h-156v-162c18 33 42 59 73 77c30 17 68 26 114 26c65 0 116 -19 154 -56c37 -37 56 -92 56 -165v-284c0 -32 -5 -60 -14 -85c-9 -24 -22 -44 -38 -60s-35 -28 -58 -36c-22 -9 -46 -13 -72 -13c-25 0 -48 3 -68 8c-19 5 -39 14 -58 27l35 74
c28 -15 57 -23 86 -23c31 0 54 9 69 27c14 19 21 44 21 76v278c0 50 -11 87 -33 112c-23 24 -55 36 -96 36c-40 0 -75 -13 -105 -39s-52 -63 -66 -110v-289h-98v581h-70v78h69l10 71h89z" />
    <glyph glyph-name="afii10100" unicode="&#x453;" horiz-adv-x="518" 
d="M474 510v-84h-304v-426h-97v510h401zM411 760l-82 -139h-85l85 187z" />
    <glyph glyph-name="afii10101" unicode="&#x454;" horiz-adv-x="583" 
d="M381 223h-234c5 -47 23 -84 54 -111s71 -40 121 -40c33 0 62 6 90 18c26 11 50 28 69 49l59 -61c-55 -60 -129 -90 -222 -90c-44 0 -83 7 -116 20c-33 14 -62 33 -84 57c-24 24 -41 52 -52 85c-12 32 -18 67 -18 104c0 41 7 78 22 110c14 34 33 62 58 85
c24 23 52 41 86 54c32 13 68 19 106 19c46 0 86 -7 121 -20c35 -14 64 -33 89 -58l-57 -64c-19 17 -40 31 -65 42s-53 16 -86 16c-21 0 -42 -3 -60 -9c-20 -6 -37 -15 -52 -27c-15 -11 -28 -25 -39 -42s-18 -35 -22 -56h232v-81z" />
    <glyph glyph-name="afii10102" unicode="&#x455;" horiz-adv-x="569" 
d="M453 393c-52 30 -108 45 -169 45c-40 0 -70 -6 -92 -18c-20 -13 -31 -30 -31 -51c0 -17 5 -31 17 -41c10 -9 29 -16 56 -19l104 -12c55 -7 99 -23 130 -45c32 -24 48 -58 48 -105c0 -50 -21 -89 -64 -117c-42 -28 -101 -42 -178 -42c-44 0 -84 4 -120 14
c-35 8 -71 25 -106 48l42 75c30 -19 60 -33 91 -42s63 -13 97 -13c48 0 84 6 108 19c23 13 35 31 35 54c0 20 -6 35 -19 47c-13 10 -36 18 -69 21l-120 14c-48 5 -85 20 -110 45c-25 24 -38 57 -38 99c0 45 19 82 56 111c37 28 92 42 165 42c39 0 76 -4 111 -13
s68 -22 97 -41z" />
    <glyph glyph-name="afii10103" unicode="&#x456;" horiz-adv-x="245" 
d="M172 510v-510h-99v510h99zM123 744c18 0 34 -6 47 -18c14 -12 21 -28 21 -49c0 -20 -7 -36 -21 -48c-13 -12 -29 -18 -47 -18c-19 0 -35 6 -48 18s-20 28 -20 48c0 21 7 37 20 49s29 18 48 18z" />
    <glyph glyph-name="afii10104" unicode="&#x457;" horiz-adv-x="246" 
d="M173 510v-510h-100v510h100zM32 735c17 0 32 -6 44 -17c13 -11 19 -26 19 -45c0 -18 -6 -33 -19 -45c-12 -11 -27 -17 -44 -17s-32 6 -44 17c-13 12 -19 27 -19 45c0 19 6 34 19 45c12 11 27 17 44 17zM216 735c17 0 32 -6 44 -17c13 -12 19 -27 19 -45s-6 -33 -19 -45
c-12 -11 -27 -17 -44 -17s-32 6 -44 17c-13 11 -19 26 -19 45s6 34 19 45c12 11 27 17 44 17z" />
    <glyph glyph-name="afii10105" unicode="&#x458;" horiz-adv-x="251" 
d="M178 510v-546c0 -30 -4 -57 -12 -82c-7 -25 -19 -46 -34 -64c-16 -18 -36 -32 -58 -42c-24 -10 -50 -15 -81 -15c-27 0 -51 3 -73 8c-23 5 -45 14 -66 26l33 77c17 -9 34 -16 49 -19s33 -5 52 -5c28 0 50 9 68 28c16 19 25 48 25 88v546h97zM129 745c18 0 34 -6 47 -19
c14 -12 21 -28 21 -48c0 -21 -7 -37 -21 -49c-13 -12 -29 -18 -47 -18s-34 6 -47 18c-14 12 -21 28 -21 49c0 20 7 36 21 48c13 13 29 19 47 19z" />
    <glyph glyph-name="afii10106" unicode="&#x459;" horiz-adv-x="948" 
d="M578 510v-169c19 11 40 19 62 25c23 5 46 8 70 8c27 0 52 -4 76 -12c25 -7 46 -18 64 -34c19 -14 33 -33 44 -56s16 -49 16 -80c0 -28 -5 -54 -16 -77s-26 -43 -46 -61c-19 -16 -43 -30 -72 -40c-28 -9 -59 -14 -94 -14h-201v428h-207c0 -28 0 -57 -1 -87s-2 -59 -5 -87
c-2 -29 -5 -56 -9 -80c-4 -26 -9 -47 -16 -66c-13 -40 -31 -69 -54 -88s-54 -28 -93 -28c-16 0 -30 1 -44 4c-12 2 -25 6 -37 11l19 77c9 -3 17 -6 26 -7s17 -2 25 -2c19 0 33 6 44 17c11 12 19 27 24 45c11 32 19 73 23 123c3 49 5 105 5 166v84h397zM578 82h98
c45 0 79 10 102 30s34 47 34 81c0 32 -10 57 -30 74s-49 26 -87 26c-42 0 -81 -11 -117 -32v-179z" />
    <glyph glyph-name="afii10107" unicode="&#x45a;" horiz-adv-x="910" 
d="M172 510v-208h270v208h98v-169c19 11 40 19 62 25c22 5 45 8 70 8c27 0 52 -4 76 -12c24 -7 45 -18 64 -34c18 -14 32 -33 44 -56c10 -23 16 -49 16 -80c0 -28 -5 -54 -16 -77s-26 -43 -46 -61c-19 -16 -43 -30 -72 -40c-28 -9 -59 -14 -94 -14h-202v219h-270v-219h-99
v510h99zM540 82h98c45 0 78 10 101 30s34 47 34 81c0 32 -10 57 -29 74c-20 17 -49 26 -87 26c-42 0 -81 -11 -117 -32v-179z" />
    <glyph glyph-name="afii10108" unicode="&#x45b;" horiz-adv-x="661" 
d="M191 730v-71h156v-78h-156v-162c18 33 42 59 73 77c30 17 68 26 114 26c65 0 116 -19 154 -56c37 -37 56 -92 56 -165v-301h-97v290c0 50 -11 87 -33 112c-23 24 -55 36 -96 36c-40 0 -75 -13 -105 -39s-52 -63 -66 -110v-289h-98v581h-70v78h69l10 71h89z" />
    <glyph glyph-name="afii10109" unicode="&#x45c;" horiz-adv-x="595" 
d="M170 510v-201l94 9l158 192h121l-196 -230l220 -280h-118l-178 229h-101v-229h-97v510h97zM425 760l-82 -139h-85l85 187z" />
    <glyph glyph-name="afii10110" unicode="&#x45e;" horiz-adv-x="638" 
d="M152 510l184 -408h9l147 408h108l-233 -566c-19 -48 -42 -83 -68 -106c-26 -22 -59 -33 -99 -33c-37 0 -69 9 -94 26l27 75c11 -5 21 -9 31 -11s20 -3 29 -3c19 0 36 5 49 15c14 10 26 27 35 50l13 36l-252 517h114zM257 748c1 -23 9 -40 21 -52c14 -13 30 -19 51 -19
s37 6 51 19c12 12 20 29 21 52h79c-1 -23 -6 -44 -14 -62s-19 -33 -32 -46c-13 -12 -29 -21 -47 -28s-37 -10 -58 -10s-41 3 -59 10c-18 6 -34 15 -47 28c-13 12 -24 27 -32 46c-8 18 -12 39 -12 62h78z" />
    <glyph glyph-name="afii10193" unicode="&#x45f;" horiz-adv-x="620" 
d="M172 510v-427h276v427h99v-510h-189l-7 -123h-83l-7 123h-188v510h99z" />
    <glyph glyph-name="afii10050" unicode="&#x490;" horiz-adv-x="609" 
d="M472 670l13 158h86v-248h-386v-580h-102v670h389z" />
    <glyph glyph-name="afii10098" unicode="&#x491;" horiz-adv-x="510" 
d="M377 510l11 126h82v-210h-300v-426h-97v510h304z" />
    <glyph glyph-name="endash" unicode="&#x2013;" horiz-adv-x="653" 
d="M560 324v-84h-467v84h467z" />
    <glyph glyph-name="emdash" unicode="&#x2014;" horiz-adv-x="1009" 
d="M846 324v-84h-683v84h683z" />
    <glyph glyph-name="quoteleft" unicode="&#x2018;" horiz-adv-x="217" 
d="M135 578c11 -3 21 -10 28 -20c7 -11 11 -23 11 -37c0 -19 -6 -35 -19 -46c-13 -12 -29 -18 -47 -18s-33 6 -46 17s-19 26 -19 47c0 6 1 12 2 18l4 16l54 136l55 -14z" />
    <glyph glyph-name="quoteright" unicode="&#x2019;" horiz-adv-x="217" 
d="M82 552c-11 3 -21 10 -28 20c-7 11 -11 23 -11 37c0 19 7 35 19 47c14 11 29 17 47 17s33 -5 46 -17c13 -10 19 -26 19 -47c0 -6 -1 -12 -2 -17l-4 -17l-54 -136l-55 14z" />
    <glyph glyph-name="quotesinglbase" unicode="&#x201a;" horiz-adv-x="217" 
d="M82 -8c-11 3 -21 10 -28 20c-7 11 -11 23 -11 37c0 19 7 35 19 47c14 11 29 17 47 17s33 -5 46 -17c13 -10 19 -26 19 -47c0 -6 -1 -12 -2 -17l-4 -17l-54 -136l-55 14z" />
    <glyph glyph-name="quotedblleft" unicode="&#x201c;" horiz-adv-x="358" 
d="M286 578c11 -3 21 -10 28 -20c7 -11 11 -23 11 -37c0 -19 -6 -35 -19 -46c-13 -12 -28 -18 -46 -18s-33 6 -46 17s-20 26 -20 47c0 6 1 12 2 18s3 12 4 17l48 122l54 -14zM127 579c11 -4 20 -11 27 -21c7 -11 10 -23 10 -37c0 -19 -6 -35 -19 -46
c-13 -12 -28 -18 -47 -18s-34 6 -46 18c-13 11 -19 27 -19 46c0 13 2 24 6 34l53 140l60 -17z" />
    <glyph glyph-name="quotedblright" unicode="&#x201d;" horiz-adv-x="358" 
d="M72 552c-11 3 -21 10 -28 20c-7 11 -11 23 -11 37c0 19 6 35 19 47c13 11 28 17 46 17s34 -5 46 -17c14 -10 20 -26 20 -47c0 -6 -1 -12 -2 -18s-3 -12 -4 -17l-48 -122l-54 14zM231 551c-11 4 -20 11 -27 21c-7 11 -10 23 -10 37c0 19 6 35 19 47c13 11 28 17 47 17
s34 -6 46 -17c13 -12 19 -28 19 -47c0 -13 -2 -24 -6 -34l-53 -140l-60 17z" />
    <glyph glyph-name="quotedblbase" unicode="&#x201e;" horiz-adv-x="358" 
d="M72 -8c-11 3 -21 10 -28 20c-7 11 -11 23 -11 37c0 19 6 35 19 47c13 11 28 17 46 17s34 -5 46 -17c14 -10 20 -26 20 -47c0 -6 -1 -12 -2 -18s-3 -12 -4 -17l-48 -122l-54 14zM231 -9c-11 4 -20 11 -27 21c-7 11 -10 23 -10 37c0 19 6 35 19 47c13 11 28 17 47 17
s34 -6 46 -17c13 -12 19 -28 19 -47c0 -13 -2 -24 -6 -34l-53 -140l-60 17z" />
    <glyph glyph-name="dagger" unicode="&#x2020;" horiz-adv-x="442" 
d="M270 647l-7 -135h126v-86l-126 7l6 -433h-95l6 433l-127 -7v86h127l-7 135h97z" />
    <glyph glyph-name="daggerdbl" unicode="&#x2021;" horiz-adv-x="442" 
d="M270 647l-7 -135h126v-86l-126 7v-120h126v-85l-127 7l7 -235h-95l7 235l-128 -7v85h127v120l-127 -7v86h127l-7 135h97z" />
    <glyph glyph-name="bullet" unicode="&#x2022;" horiz-adv-x="365" 
d="M183 413c21 0 40 -7 55 -21c15 -15 23 -34 23 -57s-8 -42 -23 -56s-34 -21 -55 -21s-40 7 -56 21s-24 33 -24 56s8 42 24 57c16 14 35 21 56 21z" />
    <glyph glyph-name="ellipsis" unicode="&#x2026;" horiz-adv-x="643" 
d="M119 123c17 0 33 -6 46 -17c13 -12 20 -28 20 -47s-7 -35 -20 -47s-29 -18 -46 -18s-33 6 -46 18s-20 28 -20 47s7 35 20 47c13 11 29 17 46 17zM321 123c17 0 33 -6 47 -17c13 -12 20 -28 20 -47s-7 -35 -20 -47c-14 -12 -30 -18 -47 -18s-33 6 -46 18s-20 28 -20 47
s7 35 20 47c13 11 29 17 46 17zM523 123c18 0 34 -6 47 -17c13 -12 20 -28 20 -47s-7 -35 -20 -47s-29 -18 -47 -18c-17 0 -33 6 -46 18s-20 28 -20 47s7 35 20 47c13 11 29 17 46 17z" />
    <glyph glyph-name="perthousand" unicode="&#x2030;" horiz-adv-x="1141" 
d="M203 642c23 0 45 -4 65 -12c19 -7 36 -18 50 -32c14 -13 25 -29 33 -48s12 -39 12 -60s-4 -41 -12 -60s-19 -35 -33 -48c-14 -14 -31 -25 -50 -32c-20 -8 -42 -12 -65 -12s-45 4 -65 12c-19 7 -36 18 -50 32c-14 13 -25 29 -33 48s-12 39 -12 60s4 41 12 60s19 35 33 48
c14 14 31 25 50 32c20 8 42 12 65 12zM663 584l-485 -601l-64 49l486 602zM203 567c-23 0 -42 -7 -56 -21s-21 -33 -21 -56s7 -42 21 -56s33 -21 56 -21s42 7 56 21s21 33 21 56s-7 42 -21 56s-33 21 -56 21zM591 297c23 0 44 -4 63 -11c20 -8 37 -19 51 -32
c14 -14 25 -30 33 -49s12 -39 12 -60s-4 -41 -12 -60s-19 -35 -33 -49c-14 -13 -31 -24 -51 -32c-19 -7 -40 -11 -63 -11s-45 4 -65 11c-19 8 -36 19 -50 32c-14 14 -25 30 -33 49s-12 39 -12 60s4 41 12 60s19 35 33 49c14 13 31 24 50 32c20 7 42 11 65 11zM591 222
c-23 0 -42 -7 -56 -21s-21 -33 -21 -56s7 -42 21 -56s33 -21 56 -21s42 7 55 21c14 14 21 33 21 56s-7 42 -21 56c-13 14 -32 21 -55 21zM952 297c23 0 45 -4 64 -11c20 -8 37 -19 51 -32c14 -14 25 -30 33 -49s12 -39 12 -60s-4 -41 -12 -60s-19 -35 -33 -49
c-14 -13 -31 -24 -51 -32c-19 -7 -41 -11 -64 -11s-45 4 -64 11c-19 8 -36 19 -50 32c-14 14 -25 30 -33 49s-12 39 -12 60s4 41 12 60s19 35 33 49c14 13 31 24 50 32c19 7 41 11 64 11zM952 222c-23 0 -42 -7 -56 -21c-13 -14 -20 -33 -20 -56s7 -42 20 -56
c14 -14 33 -21 56 -21s42 7 56 21s21 33 21 56s-7 42 -21 56s-33 21 -56 21z" />
    <glyph glyph-name="guilsinglleft" unicode="&#x2039;" horiz-adv-x="324" 
d="M272 388l-120 -125l120 -128l-60 -57l-169 169v27l170 169z" />
    <glyph glyph-name="guilsinglright" unicode="&#x203a;" horiz-adv-x="324" 
d="M281 274v-27l-170 -169l-59 55l120 125l-120 128l59 57z" />
    <glyph glyph-name="Euro" unicode="&#x20ac;" horiz-adv-x="725" 
d="M447 294l-8 -85h-222c15 -42 41 -75 77 -99c37 -23 82 -35 135 -35c41 0 78 7 109 21c31 13 61 34 90 63l59 -66c-34 -35 -73 -62 -115 -80c-44 -18 -93 -27 -150 -27c-83 0 -152 20 -205 59s-90 94 -109 165l-65 5v79h404zM112 444c11 32 25 62 44 88c19 28 42 51 68 70
c28 19 59 34 94 46c35 10 75 16 119 16c93 0 172 -30 237 -89l-58 -69c-26 23 -54 41 -84 52s-63 17 -100 17c-54 0 -100 -11 -138 -35c-37 -22 -64 -54 -79 -95h246l-8 -85h-410v80z" />
    <glyph glyph-name="uni20B6" unicode="&#x20b6;" horiz-adv-x="665" 
d="M382 652c37 0 70 -5 100 -14c29 -10 54 -24 75 -41s37 -39 48 -64s17 -53 17 -84c0 -63 -22 -112 -64 -147c-44 -36 -103 -54 -180 -54h-166v-71h200v-79h-201v-98h-96v97l-87 7v73h85v71h-85v84h85v320h269zM212 332h166c47 0 84 10 108 31c26 21 38 49 38 85
s-12 64 -36 86c-25 20 -60 31 -106 31h-170v-233z" />
    <glyph glyph-name="afii61352" unicode="&#x2116;" horiz-adv-x="1095" 
d="M910 523c21 0 40 -4 58 -11c17 -7 32 -17 44 -30c13 -12 22 -26 30 -43c6 -17 10 -34 10 -53s-4 -36 -10 -53c-8 -17 -17 -31 -30 -43c-12 -13 -27 -22 -44 -30c-18 -6 -37 -10 -58 -10s-41 4 -58 10c-17 8 -32 17 -45 30c-13 12 -22 26 -29 43s-10 34 -10 53s3 36 10 53
s16 31 29 43c13 13 28 23 45 30s37 11 58 11zM1041 186v-78h-262v78h262zM910 448c-18 0 -33 -6 -45 -16c-12 -12 -18 -27 -18 -46s6 -34 19 -46c12 -10 27 -16 44 -16s32 6 44 16c12 12 18 27 18 46s-6 34 -18 46c-12 10 -27 16 -44 16zM661 651v-651h-101l-380 493v-493
h-97v651h94l388 -505v505h96z" />
    <glyph glyph-name="trademark" unicode="&#x2122;" horiz-adv-x="670" 
d="M377 671l91 -108l89 108h73v-287h-69v189l-84 -99h-21l-82 99v-189h-70v221h-105v-221h-70v221h-101v66h349z" />
    <glyph glyph-name="minus" unicode="&#x2212;" horiz-adv-x="477" 
d="M414 383v-86h-351v86h351z" />
    <glyph glyph-name="approxequal" unicode="&#x2248;" horiz-adv-x="468" 
d="M48 415c15 23 32 41 51 55c19 12 43 19 72 19c15 0 28 -3 39 -7c11 -6 20 -11 30 -17c8 -6 18 -11 27 -17c9 -4 21 -7 34 -7c31 0 55 12 72 37l47 -46c-12 -23 -28 -41 -48 -54c-19 -13 -44 -19 -73 -19c-15 0 -29 3 -40 7c-11 6 -22 11 -31 18c-10 6 -20 12 -29 16
c-9 6 -20 8 -32 8c-17 0 -32 -4 -43 -10c-12 -8 -22 -17 -31 -29zM48 244c15 23 32 42 51 54c19 14 43 20 72 20c15 0 28 -2 39 -8c11 -4 20 -10 30 -16c8 -6 18 -12 27 -16c9 -6 21 -8 34 -8c31 0 55 12 72 37l47 -46c-12 -23 -28 -41 -48 -54c-19 -13 -44 -19 -73 -19
c-15 0 -29 2 -40 8c-11 4 -22 10 -31 16c-10 7 -20 12 -29 18c-9 4 -20 7 -32 7c-17 0 -32 -3 -43 -11c-12 -6 -22 -16 -31 -28z" />
    <glyph glyph-name="notequal" unicode="&#x2260;" horiz-adv-x="483" 
d="M235 469l25 91l81 -22l-20 -69h98v-81h-120l-26 -93h146v-80h-168l-23 -87l-81 23l17 64h-101v80h124l25 93h-149v81h172z" />
    <glyph glyph-name="lessequal" unicode="&#x2264;" horiz-adv-x="405" 
d="M362 537l-180 -133l180 -136l-51 -66l-247 181v33l245 188zM307 119l-51 -68l-213 161v19l40 53z" />
    <glyph glyph-name="greaterequal" unicode="&#x2265;" horiz-adv-x="405" 
d="M341 416v-33l-247 -181l-51 66l180 134l-180 134l53 68zM362 231v-19l-213 -161l-51 68l224 165z" />
    <glyph glyph-name="dblgrave" horiz-adv-x="318" 
d="M272 621h-78l-74 154l81 39zM129 621h-82l-80 124l80 44z" />
    <glyph glyph-name="commaaccent" horiz-adv-x="224" 
d="M86 -197c-11 3 -21 10 -28 21s-11 23 -11 38c0 19 6 35 19 46s28 17 45 17c18 0 33 -6 47 -17c12 -11 19 -27 19 -46c0 -11 -2 -21 -6 -30l-54 -132l-56 20z" />
    <glyph glyph-name="paragraph.1" horiz-adv-x="550" 
d="M418 601l20 -85l58 7l15 -64l-71 -22v-324c0 -49 -8 -91 -25 -126s-45 -66 -86 -94l-169 -118l-43 62l105 77v319c-8 -5 -17 -8 -27 -10s-20 -3 -30 -3c-17 0 -34 3 -49 8c-15 6 -29 15 -40 26c-11 12 -21 26 -28 44c-6 16 -10 36 -10 58c0 23 4 44 13 64
c9 18 21 35 36 48s33 24 55 31c20 7 43 11 68 11h21l18 52l52 -4v-590l17 13c28 22 42 59 42 112v502zM200 438c-22 0 -41 -7 -56 -20c-15 -14 -23 -33 -23 -57c0 -23 6 -39 19 -50c12 -11 26 -16 41 -16c16 0 30 4 41 11v132h-22z" />
    <glyph glyph-name="dieresisi" horiz-adv-x="330" 
d="M73 735c17 0 32 -6 45 -17c12 -11 18 -26 18 -45c0 -18 -6 -33 -18 -45c-13 -11 -28 -17 -45 -17s-32 6 -45 17c-12 12 -18 27 -18 45c0 19 6 34 18 45c13 11 28 17 45 17zM257 735c17 0 32 -6 45 -17c12 -12 18 -27 18 -45s-6 -33 -18 -45c-13 -11 -28 -17 -45 -17
s-32 6 -45 17c-12 11 -18 26 -18 45s6 34 18 45c13 11 28 17 45 17z" />
    <glyph glyph-name="macroni" horiz-adv-x="338" 
d="M296 716v-82h-253v82h253z" />
    <glyph glyph-name="Dieresisi" horiz-adv-x="396" 
d="M95 902c18 0 34 -6 47 -18c13 -13 20 -29 20 -49c0 -19 -7 -34 -20 -45c-13 -12 -29 -18 -47 -18c-17 0 -33 6 -46 18c-13 11 -20 26 -20 45c0 20 7 36 20 49c13 12 29 18 46 18zM300 902c18 0 34 -6 47 -18c13 -13 20 -29 20 -49c0 -19 -7 -34 -20 -45
c-13 -12 -29 -18 -47 -18c-17 0 -33 6 -46 18c-13 11 -20 26 -20 45c0 20 7 36 20 49c13 12 29 18 46 18z" />
    <glyph glyph-name="Macroni" horiz-adv-x="403" 
d="M353 877v-86h-304v86h304z" />
    <glyph glyph-name="Acute" horiz-adv-x="159" 
d="M195 931l-84 -159h-90l88 202z" />
    <glyph glyph-name="Breve" horiz-adv-x="373" 
d="M112 917c1 -25 9 -44 24 -57s33 -20 55 -20s41 6 55 20c16 12 24 32 25 57h78c-1 -23 -5 -43 -13 -63c-7 -18 -18 -35 -32 -49c-13 -14 -30 -25 -49 -33c-19 -7 -41 -11 -64 -11s-45 4 -64 11c-19 8 -36 19 -49 33s-24 31 -32 49c-7 20 -11 40 -12 63h78z" />
    <glyph glyph-name="Caron" horiz-adv-x="347" 
d="M161 747l-136 129v10l49 50l100 -87l99 87l48 -50v-10l-136 -129h-24z" />
    <glyph glyph-name="Cedilla" horiz-adv-x="267" 
d="M162 14l-7 -70c21 -7 39 -20 51 -38c14 -17 20 -38 20 -63c0 -39 -14 -73 -40 -101c-28 -28 -68 -48 -122 -61l-26 63c35 9 61 22 78 39s26 35 26 54s-8 32 -23 40s-36 13 -61 14v23l21 39v61h83z" />
    <glyph glyph-name="Commaaccent" horiz-adv-x="223" 
d="M86 -199c-12 4 -22 11 -30 21c-7 11 -11 23 -11 38c0 19 6 35 19 48c13 12 28 18 47 18c18 0 34 -6 47 -18c13 -11 20 -27 20 -46c0 -6 -1 -12 -2 -16c-1 -6 -3 -10 -4 -14l-56 -138l-58 20z" />
    <glyph glyph-name="Circumflex" horiz-adv-x="347" 
d="M185 935l136 -129v-10l-48 -50l-100 87l-99 -87l-49 50v10l137 129h23z" />
    <glyph glyph-name="Dieresis" horiz-adv-x="462" 
d="M103 902c19 0 35 -6 49 -19c13 -13 20 -29 20 -50c0 -19 -7 -34 -20 -47c-14 -12 -30 -18 -49 -18c-18 0 -34 6 -47 18c-13 13 -20 28 -20 47c0 21 7 37 20 50s29 19 47 19zM358 902c19 0 35 -6 48 -19c14 -13 21 -29 21 -50c0 -19 -7 -34 -21 -47
c-13 -12 -29 -18 -48 -18c-18 0 -34 6 -47 18c-13 13 -20 28 -20 47c0 21 7 37 20 50s29 19 47 19z" />
    <glyph glyph-name="Dotaccent" horiz-adv-x="351" 
d="M175 910c19 0 35 -6 49 -19c13 -13 20 -29 20 -49s-7 -36 -20 -49c-14 -13 -30 -19 -49 -19s-35 6 -48 19s-20 29 -20 49s7 36 20 49s29 19 48 19z" />
    <glyph glyph-name="Hungarumlaut" horiz-adv-x="304" 
d="M184 943l-66 -171h-84l65 204zM346 911l-84 -139h-84l86 182z" />
    <glyph glyph-name="Grave" horiz-adv-x="159" 
d="M37 974l88 -202h-90l-85 159z" />
    <glyph glyph-name="Dblgrave" horiz-adv-x="308" 
d="M269 772h-84l-66 171l84 33zM124 772h-84l-84 139l83 43z" />
    <glyph glyph-name="Macron" horiz-adv-x="475" 
d="M430 877v-84h-385v84h385z" />
    <glyph glyph-name="Ogonek" horiz-adv-x="252" 
d="M193 -203c-48 3 -84 17 -108 41c-24 23 -36 52 -36 85c0 27 6 51 19 71s31 35 56 45l51 -39c-15 -3 -26 -10 -33 -22s-10 -24 -10 -36c0 -20 6 -36 17 -48c11 -13 30 -21 57 -24z" />
    <glyph glyph-name="Ring" horiz-adv-x="299" 
d="M149 986c19 0 36 -3 51 -10c16 -7 30 -16 40 -27c12 -11 20 -24 26 -39c6 -14 9 -29 9 -45s-3 -31 -9 -46s-14 -27 -26 -39c-10 -10 -24 -19 -40 -26c-15 -7 -32 -10 -51 -10s-37 3 -53 10c-15 7 -28 16 -40 26c-10 12 -19 24 -24 39c-6 15 -9 30 -9 46s3 31 9 45
c6 15 14 28 26 39c10 11 24 20 40 27c15 7 32 10 51 10zM149 918c-17 0 -30 -5 -39 -15s-14 -23 -14 -38s5 -28 14 -38c10 -10 23 -15 39 -15s29 5 39 15s15 23 15 38s-5 28 -15 38s-23 15 -39 15z" />
    <glyph glyph-name="Tilde" horiz-adv-x="422" 
d="M18 817c13 25 31 45 52 59c21 15 46 22 74 22c16 0 30 -3 42 -8s23 -11 33 -17s20 -12 30 -17s21 -8 34 -8c17 0 31 3 42 10c11 6 20 15 27 27l52 -47c-11 -25 -27 -43 -48 -56c-20 -13 -43 -19 -68 -19c-18 0 -33 3 -46 8s-24 11 -34 17c-11 7 -21 13 -32 18
c-10 5 -22 8 -35 8c-18 0 -33 -4 -45 -11c-11 -7 -21 -17 -30 -29z" />
    <glyph glyph-name="tildei" horiz-adv-x="312" 
d="M2 663c11 21 24 38 40 50c15 12 34 18 55 18c16 0 29 -2 39 -7c9 -4 18 -8 26 -14l21 -13c7 -4 15 -6 25 -6c23 0 39 8 50 24l45 -46c-9 -19 -21 -35 -37 -45c-14 -12 -32 -17 -51 -17c-15 0 -28 2 -38 7c-10 4 -19 8 -27 14l-22 14c-8 4 -16 6 -26 6
c-23 0 -41 -9 -54 -27z" />
    <glyph glyph-name="Tildei" horiz-adv-x="355" 
d="M-4 830c11 21 25 38 42 50c17 11 38 17 63 17c16 0 29 -3 39 -7c10 -6 19 -11 27 -16c8 -6 16 -12 24 -16c8 -6 18 -8 29 -8c25 0 43 8 54 25l48 -50c-23 -41 -56 -61 -99 -61c-17 0 -30 2 -41 8c-10 4 -19 10 -28 16c-8 6 -16 12 -24 16c-7 6 -17 8 -29 8
c-27 0 -47 -10 -61 -30z" />
    <glyph glyph-name="Acircum" horiz-adv-x="762" 
d="M440 671l281 -671h-112l-60 152h-339l-59 -152h-109l279 671h119zM244 240h271l-129 328h-12zM392 935l136 -129v-10l-48 -50l-100 87l-99 -87l-49 50v10l137 129h23z" />
    <glyph glyph-name="acircum" horiz-adv-x="623" 
d="M79 463c34 21 68 37 102 45c34 10 70 14 108 14c79 0 137 -18 174 -54c37 -37 55 -87 55 -151v-187c0 -21 4 -36 11 -46c7 -8 17 -13 29 -13c7 0 14 1 21 4l9 -74c-14 -7 -31 -10 -51 -10c-25 0 -47 6 -63 19c-18 12 -29 34 -34 67c-43 -59 -109 -89 -198 -89
c-61 0 -108 14 -144 44c-34 28 -52 71 -52 126c0 51 20 92 61 121s96 44 167 44c28 0 54 -2 80 -7c24 -5 48 -11 69 -18v28c0 37 -11 64 -32 83s-55 28 -100 28c-61 0 -118 -15 -173 -44zM424 222c-43 15 -91 22 -146 22c-48 0 -82 -8 -102 -24c-21 -17 -31 -38 -31 -64
c0 -28 10 -49 29 -64c20 -14 49 -21 86 -21c23 0 44 3 64 9c19 7 36 16 52 27c14 11 26 25 35 41c9 15 13 33 13 52v22zM293 677l-94 -84l-47 49v10l133 127h21l133 -127v-10l-46 -49z" />
    <glyph glyph-name="Ecircum" 
d="M565 670v-89h-382v-189h336v-88h-336v-214h400v-90h-500v670h482zM347 935l136 -129v-10l-48 -50l-100 87l-99 -87l-49 50v10l137 129h23z" />
    <glyph glyph-name="ecircum" horiz-adv-x="612" 
d="M146 222c5 -47 24 -84 55 -110s73 -39 125 -39c35 0 68 5 96 13c30 10 57 24 84 43l44 -69c-34 -26 -69 -44 -106 -56c-37 -10 -77 -16 -120 -16s-82 6 -116 18c-34 13 -63 30 -86 54c-24 22 -42 50 -55 83s-19 70 -19 111c0 39 7 74 20 107s32 61 56 85s53 43 87 56
s72 20 113 20c36 0 69 -6 98 -17s54 -27 76 -49c20 -20 37 -46 48 -75c12 -29 18 -62 18 -97c0 -11 -1 -21 -2 -32c-1 -10 -3 -20 -5 -30h-411zM466 302c-1 41 -13 74 -37 99s-60 37 -109 37s-87 -12 -116 -36c-29 -25 -47 -58 -54 -100h316zM322 677l-94 -84l-47 49v10
l133 127h21l133 -127v-10l-46 -49z" />
    <glyph glyph-name="Icircum" horiz-adv-x="269" 
d="M186 670v-670h-103v670h103zM148 935l136 -129v-10l-48 -50l-100 87l-99 -87l-49 50v10l137 129h23z" />
    <glyph glyph-name="icircum" horiz-adv-x="246" 
d="M173 510v-510h-100v510h100zM122 677l-94 -84l-47 49v10l133 127h21l133 -127v-10l-46 -49z" />
    </font>
</defs>
</svg>
